<?xml version="1.0" standalone="no"?>
<!DOCTYPE svg PUBLIC "-//W3C//DTD SVG 20010904//EN"
 "http://www.w3.org/TR/2001/REC-SVG-20010904/DTD/svg10.dtd">
<svg version="1.0" xmlns="http://www.w3.org/2000/svg"
 width="260.000000pt" height="260.000000pt" viewBox="0 0 260.000000 260.000000"
 preserveAspectRatio="xMidYMid meet">
<metadata>
Created by potrace 1.11, written by Peter Selinger 2001-2013
</metadata>
<g transform="translate(0.000000,260.000000) scale(0.100000,-0.100000)"
fill="#000000" stroke="none">
<path d="M713 1725 c-111 -31 -207 -121 -227 -212 l-7 -31 107 -7 107 -7 24
31 c42 54 109 76 179 61 55 -13 86 -51 82 -104 -4 -54 -20 -61 -180 -80 -198
-25 -282 -66 -327 -160 -30 -61 -29 -164 3 -232 42 -91 127 -136 261 -137 103
-1 169 26 225 92 l40 46 0 -62 0 -63 115 0 115 0 0 307 c0 365 -5 396 -79 472
-68 69 -136 94 -276 98 -75 2 -127 -2 -162 -12z m277 -512 c-1 -93 -35 -152
-105 -184 -49 -23 -94 -24 -142 -4 -46 19 -62 41 -63 83 0 71 32 93 189 127
58 12 109 23 114 24 4 0 7 -20 7 -46z"/>
<path d="M1740 1727 c-33 -11 -113 -81 -137 -122 -10 -17 -12 -8 -12 53 l-1
72 -120 0 -120 0 0 -600 0 -600 120 0 120 0 0 238 c0 236 0 237 19 206 27 -44
95 -99 140 -112 60 -18 153 -15 215 8 149 56 229 204 229 425 0 221 -80 369
-229 425 -61 22 -165 26 -224 7z m93 -191 c67 -28 105 -97 114 -205 14 -164
-51 -278 -164 -288 -124 -12 -196 86 -195 264 1 122 45 207 122 236 28 10 91
7 123 -7z"/>
</g>
</svg>
