<?xml version="1.0" encoding="UTF-8"?>
<svg fill="currentColor" width="100pt" height="100pt" version="1.1" viewBox="0 0 100 100" xmlns="http://www.w3.org/2000/svg">
 <g>
  <path d="m50.004 0c27.613 0 49.996 22.387 49.996 49.996 0 27.613-22.383 50.004-49.996 50.004-27.613 0-50.004-22.387-50.004-50.004 0-27.609 22.387-49.996 50.004-49.996zm0 6.4922c-24.027 0-43.504 19.48-43.504 43.504 0 24.027 19.477 43.504 43.504 43.504s43.504-19.477 43.504-43.504-19.477-43.504-43.504-43.504z"/>
  <path d="m47.113 17.945c0-1.5938 1.293-2.8867 2.8867-2.8867s2.8867 1.293 2.8867 2.8867v33.238l-18.375 18.406c-1.1211 1.1289-2.9453 1.1328-4.0703 0.011718-1.125-1.1211-1.1328-2.9453-0.011718-4.0703l16.684-16.715z"/>
 </g>
</svg>
