<?xml version="1.0" encoding="utf-8"?>
<!-- Generator: Adobe Illustrator 19.0.0, SVG Export Plug-In . SVG Version: 6.00 Build 0)  -->
<svg xmlns="http://www.w3.org/2000/svg" xmlns:xlink="http://www.w3.org/1999/xlink" version="1.1" id="Layer_1" x="0px" y="0px" viewBox="0 2 98 98" style="enable-background:new 0 2 98 98;" xml:space="preserve" width="512" height="512">
  <path fill="currentColor" d="M84.5,19.5h-71c-3.9,0-7,3.1-7,7v49c0,3.9,3.1,7,7,7h71c3.9,0,7-3.1,7-7v-49C91.5,22.6,88.4,19.5,84.5,19.5z   M85.5,75.5c0,0.5-0.5,1-1,1h-71c-0.5,0-1-0.5-1-1V37L47,57.3c0.9,0.5,2.1,0.6,3,0L85.5,37V75.5z M85.5,30l-37,21.2l-36-21.2v-3.6  c0-0.5,0.5-1,1-1h71c0.5,0,1,0.5,1,1V30z"/>
</svg>
