<?xml version="1.0" encoding="UTF-8"?>
<svg fill="#9775FA" width="100pt" height="100pt" version="1.1" viewBox="0 0 100 100" xmlns="http://www.w3.org/2000/svg">
 <g>
  <path d="m85 57.199h-70c-1.6992 0-3 1.3008-3 3s1.3008 3 3 3h32v3.8984c-0.30078 0.39844-0.39844 0.89844-0.5 1.3008l-13.102 13.203c-1.1992 1.1992-1.1992 3.1016 0 4.1992 0.60156 0.60156 1.3984 0.89844 2.1016 0.89844 0.69922 0 1.5-0.30078 2.1016-0.89844l9.3984-9.3984v5.6992c0 1.6992 1.3008 3 3 3s3-1.3008 3-3v-5.6992l9.3984 9.3984c0.60156 0.60156 1.3984 0.89844 2.1016 0.89844 0.69922 0 1.5-0.30078 2.1016-0.89844 1.1992-1.1992 1.1992-3.1016 0-4.1992l-13.102-13.102c0-0.5-0.19922-0.89844-0.5-1.3008v-3.8984h32c1.6992 0 3-1.3008 3-3s-1.3008-3.1016-3-3.1016z"/>
  <path d="m78 13.199h-56c-1.6992 0-3 1.3008-3 3v37h62v-37c0-1.5977-1.3008-3-3-3zm-37.801 15h19.699c0.80078 0 1.5 0.69922 1.5 1.5s-0.69922 1.5-1.5 1.5h-19.699c-0.80078 0-1.5-0.69922-1.5-1.5s0.60156-1.5 1.5-1.5zm23.301 11h-27c-0.80078 0-1.5-0.69922-1.5-1.5s0.69922-1.5 1.5-1.5h27c0.80078 0 1.5 0.69922 1.5 1.5s-0.69922 1.5-1.5 1.5z"/>
 </g>
</svg>