<?xml version="1.0" encoding="utf-8" standalone="no"?>
<!DOCTYPE svg PUBLIC "-//W3C//DTD SVG 1.1//EN"
  "http://www.w3.org/Graphics/SVG/1.1/DTD/svg11.dtd">
<!-- Created with matplotlib (https://matplotlib.org/) -->
<svg height="288pt" version="1.1" viewBox="0 0 360 288" width="360pt" xmlns="http://www.w3.org/2000/svg" xmlns:xlink="http://www.w3.org/1999/xlink">
 <defs>
  <style type="text/css">
*{stroke-linecap:butt;stroke-linejoin:round;}
  </style>
 </defs>
 <g id="figure_1">
  <g id="patch_1">
   <path d="M 0 288 
L 360 288 
L 360 0 
L 0 0 
z
" style="fill:#ffffff;"/>
  </g>
  <g id="axes_1">
   <g id="patch_2">
    <path d="M 44.610079 114.48 
L 346.68 114.48 
L 346.68 13.32 
L 44.610079 13.32 
z
" style="fill:#ffffff;"/>
   </g>
   <g id="matplotlib.axis_1">
    <g id="xtick_1">
     <g id="line2d_1">
      <defs>
       <path d="M 0 0 
L 0 3.5 
" id="m0202c402a2" style="stroke:#000000;stroke-width:0.8;"/>
      </defs>
      <g>
       <use style="stroke:#000000;stroke-width:0.8;" x="58.34053" xlink:href="#m0202c402a2" y="114.48"/>
      </g>
     </g>
     <g id="text_1">
      <!-- $0$ -->
      <defs>
       <path d="M 42 31.640625 
C 42 37.75 41.90625 48.125 37.703125 56.109375 
C 34 63.109375 28.09375 65.59375 22.90625 65.59375 
C 18.09375 65.59375 12 63.40625 8.203125 56.203125 
C 4.203125 48.71875 3.796875 39.4375 3.796875 31.640625 
C 3.796875 25.953125 3.90625 17.28125 7 9.671875 
C 11.296875 -0.609375 19 -2 22.90625 -2 
C 27.5 -2 34.5 -0.109375 38.59375 9.375 
C 41.59375 16.28125 42 24.359375 42 31.640625 
z
M 22.90625 -0.40625 
C 16.5 -0.40625 12.703125 5.078125 11.296875 12.6875 
C 10.203125 18.5625 10.203125 27.15625 10.203125 32.75 
C 10.203125 40.4375 10.203125 46.828125 11.5 52.921875 
C 13.40625 61.390625 19 64 22.90625 64 
C 27 64 32.296875 61.296875 34.203125 53.125 
C 35.5 47.4375 35.59375 40.734375 35.59375 32.75 
C 35.59375 26.25 35.59375 18.265625 34.40625 12.375 
C 32.296875 1.484375 26.40625 -0.40625 22.90625 -0.40625 
z
" id="CMR17-48"/>
      </defs>
      <g transform="translate(55.849862 128.398498)scale(0.1 -0.1)">
       <use transform="scale(0.996264)" xlink:href="#CMR17-48"/>
      </g>
     </g>
    </g>
    <g id="xtick_2">
     <g id="line2d_2">
      <g>
       <use style="stroke:#000000;stroke-width:0.8;" x="102.045913" xlink:href="#m0202c402a2" y="114.48"/>
      </g>
     </g>
     <g id="text_2">
      <!-- $2$ -->
      <defs>
       <path d="M 41.703125 15.453125 
L 39.90625 15.453125 
C 38.90625 8.375 38.09375 7.171875 37.703125 6.5625 
C 37.203125 5.765625 30 5.765625 28.59375 5.765625 
L 9.40625 5.765625 
C 13 9.671875 20 16.75 28.5 24.953125 
C 34.59375 30.734375 41.703125 37.53125 41.703125 47.421875 
C 41.703125 59.21875 32.296875 66 21.796875 66 
C 10.796875 66 4.09375 56.3125 4.09375 47.34375 
C 4.09375 43.4375 7 42.9375 8.203125 42.9375 
C 9.203125 42.9375 12.203125 43.546875 12.203125 47.03125 
C 12.203125 50.109375 9.59375 51 8.203125 51 
C 7.59375 51 7 50.90625 6.59375 50.703125 
C 8.5 59.21875 14.296875 63.40625 20.40625 63.40625 
C 29.09375 63.40625 34.796875 56.515625 34.796875 47.421875 
C 34.796875 38.734375 29.703125 31.25 24 24.75 
L 4.09375 2.28125 
L 4.09375 0 
L 39.296875 0 
z
" id="CMR17-50"/>
      </defs>
      <g transform="translate(99.555245 128.398498)scale(0.1 -0.1)">
       <use transform="scale(0.996264)" xlink:href="#CMR17-50"/>
      </g>
     </g>
    </g>
    <g id="xtick_3">
     <g id="line2d_3">
      <g>
       <use style="stroke:#000000;stroke-width:0.8;" x="145.751296" xlink:href="#m0202c402a2" y="114.48"/>
      </g>
     </g>
     <g id="text_3">
      <!-- $4$ -->
      <defs>
       <path d="M 33.59375 64.40625 
C 33.59375 66.5 33.5 66.5 31.703125 66.5 
L 2 19.59375 
L 2 17 
L 27.796875 17 
L 27.796875 7.140625 
C 27.796875 3.5 27.59375 2.5 20.59375 2.5 
L 18.703125 2.5 
L 18.703125 0 
C 21.90625 0 27.296875 0 30.703125 0 
C 34.09375 0 39.5 0 42.703125 0 
L 42.703125 2.5 
L 40.796875 2.5 
C 33.796875 2.5 33.59375 3.5 33.59375 7.140625 
L 33.59375 17 
L 43.796875 17 
L 43.796875 19.59375 
L 33.59375 19.59375 
z
M 28.09375 57.859375 
L 28.09375 19.59375 
L 4 19.59375 
z
" id="CMR17-52"/>
      </defs>
      <g transform="translate(143.260628 128.398498)scale(0.1 -0.1)">
       <use transform="scale(0.996264)" xlink:href="#CMR17-52"/>
      </g>
     </g>
    </g>
    <g id="xtick_4">
     <g id="line2d_4">
      <g>
       <use style="stroke:#000000;stroke-width:0.8;" x="189.456678" xlink:href="#m0202c402a2" y="114.48"/>
      </g>
     </g>
     <g id="text_4">
      <!-- $6$ -->
      <defs>
       <path d="M 10.59375 34 
C 10.59375 57.65625 21.796875 63 28.296875 63 
C 30.40625 63 35.5 62.640625 37.5 59 
C 35.90625 59 32.90625 59 32.90625 55.515625 
C 32.90625 52.828125 35.09375 51.921875 36.5 51.921875 
C 37.40625 51.921875 40.09375 52.3125 40.09375 55.625 
C 40.09375 61.78125 35.09375 65.296875 28.203125 65.296875 
C 16.296875 65.296875 3.796875 52.96875 3.796875 31 
C 3.796875 3.953125 15.09375 -2 23.09375 -2 
C 32.796875 -2 42 6.671875 42 20.046875 
C 42 32.515625 33.90625 41.59375 23.703125 41.59375 
C 17.59375 41.59375 13.09375 37.609375 10.59375 30.625 
z
M 23.09375 0.390625 
C 10.796875 0.390625 10.796875 18.75 10.796875 22.4375 
C 10.796875 29.625 14.203125 40 23.5 40 
C 25.203125 40 30.09375 40 33.40625 33.125 
C 35.203125 29.21875 35.203125 25.140625 35.203125 20.140625 
C 35.203125 14.75 35.203125 10.78125 33.09375 6.78125 
C 30.90625 2.671875 27.703125 0.390625 23.09375 0.390625 
z
" id="CMR17-54"/>
      </defs>
      <g transform="translate(186.966011 128.398498)scale(0.1 -0.1)">
       <use transform="scale(0.996264)" xlink:href="#CMR17-54"/>
      </g>
     </g>
    </g>
    <g id="xtick_5">
     <g id="line2d_5">
      <g>
       <use style="stroke:#000000;stroke-width:0.8;" x="233.162061" xlink:href="#m0202c402a2" y="114.48"/>
      </g>
     </g>
     <g id="text_5">
      <!-- $8$ -->
      <defs>
       <path d="M 27.203125 35.375 
C 33.5 38.546875 39.90625 43.328125 39.90625 50.984375 
C 39.90625 60.015625 31.09375 65.296875 23 65.296875 
C 13.90625 65.296875 5.90625 58.734375 5.90625 49.6875 
C 5.90625 47.203125 6.5 42.921875 10.40625 39.140625 
C 11.40625 38.15625 15.59375 35.171875 18.296875 33.28125 
C 13.796875 30.984375 3.296875 25.53125 3.296875 14.59375 
C 3.296875 4.359375 13.09375 -2 22.796875 -2 
C 33.5 -2 42.5 5.65625 42.5 15.78125 
C 42.5 24.84375 36.40625 29.015625 32.40625 31.703125 
z
M 14.09375 44.09375 
C 13.296875 44.59375 9.296875 47.671875 9.296875 52.359375 
C 9.296875 58.421875 15.59375 63 22.796875 63 
C 30.703125 63 36.5 57.4375 36.5 50.96875 
C 36.5 41.703125 26.09375 36.421875 25.59375 36.421875 
C 25.5 36.421875 25.40625 36.421875 24.59375 37.03125 
z
M 32.5 23.734375 
C 34 22.640625 38.796875 19.375 38.796875 13.296875 
C 38.796875 5.953125 31.40625 0.390625 23 0.390625 
C 13.90625 0.390625 7 6.84375 7 14.6875 
C 7 22.546875 13.09375 29.09375 20 32.1875 
z
" id="CMR17-56"/>
      </defs>
      <g transform="translate(230.671394 128.398498)scale(0.1 -0.1)">
       <use transform="scale(0.996264)" xlink:href="#CMR17-56"/>
      </g>
     </g>
    </g>
    <g id="xtick_6">
     <g id="line2d_6">
      <g>
       <use style="stroke:#000000;stroke-width:0.8;" x="276.867444" xlink:href="#m0202c402a2" y="114.48"/>
      </g>
     </g>
     <g id="text_6">
      <!-- $10$ -->
      <defs>
       <path d="M 26.59375 63.40625 
C 26.59375 65.5 26.5 65.5 25.09375 65.5 
C 21.203125 61.1875 15.296875 59.796875 9.703125 59.796875 
C 9.40625 59.796875 8.90625 59.796875 8.796875 59.5 
C 8.703125 59.296875 8.703125 59.09375 8.703125 57 
C 11.796875 57 17 57.59375 21 59.984375 
L 21 7.203125 
C 21 3.6875 20.796875 2.5 12.203125 2.5 
L 9.203125 2.5 
L 9.203125 0 
C 14 0 19 0 23.796875 0 
C 28.59375 0 33.59375 0 38.40625 0 
L 38.40625 2.5 
L 35.40625 2.5 
C 26.796875 2.5 26.59375 3.59375 26.59375 7.15625 
z
" id="CMR17-49"/>
      </defs>
      <g transform="translate(271.886109 128.398498)scale(0.1 -0.1)">
       <use transform="scale(0.996264)" xlink:href="#CMR17-49"/>
       <use transform="translate(45.690477 0)scale(0.996264)" xlink:href="#CMR17-48"/>
      </g>
     </g>
    </g>
    <g id="xtick_7">
     <g id="line2d_7">
      <g>
       <use style="stroke:#000000;stroke-width:0.8;" x="320.572827" xlink:href="#m0202c402a2" y="114.48"/>
      </g>
     </g>
     <g id="text_7">
      <!-- $12$ -->
      <g transform="translate(315.591492 128.398498)scale(0.1 -0.1)">
       <use transform="scale(0.996264)" xlink:href="#CMR17-49"/>
       <use transform="translate(45.690477 0)scale(0.996264)" xlink:href="#CMR17-50"/>
      </g>
     </g>
    </g>
   </g>
   <g id="matplotlib.axis_2">
    <g id="ytick_1">
     <g id="line2d_8">
      <defs>
       <path d="M 0 0 
L -3.5 0 
" id="mb132b0642f" style="stroke:#000000;stroke-width:0.8;"/>
      </defs>
      <g>
       <use style="stroke:#000000;stroke-width:0.8;" x="44.610079" xlink:href="#mb132b0642f" y="100.014214"/>
      </g>
     </g>
     <g id="text_8">
      <!-- $-1$ -->
      <defs>
       <path d="M 65.90625 23 
C 67.59375 23 69.40625 23 69.40625 25 
C 69.40625 27 67.59375 27 65.90625 27 
L 11.796875 27 
C 10.09375 27 8.296875 27 8.296875 25 
C 8.296875 23 10.09375 23 11.796875 23 
z
" id="CMSY10-0"/>
      </defs>
      <g transform="translate(24.88 103.473464)scale(0.1 -0.1)">
       <use transform="scale(0.996264)" xlink:href="#CMSY10-0"/>
       <use transform="translate(77.487468 0)scale(0.996264)" xlink:href="#CMR17-49"/>
      </g>
     </g>
    </g>
    <g id="ytick_2">
     <g id="line2d_9">
      <g>
       <use style="stroke:#000000;stroke-width:0.8;" x="44.610079" xlink:href="#mb132b0642f" y="63.9"/>
      </g>
     </g>
     <g id="text_9">
      <!-- $0$ -->
      <g transform="translate(32.628744 67.359249)scale(0.1 -0.1)">
       <use transform="scale(0.996264)" xlink:href="#CMR17-48"/>
      </g>
     </g>
    </g>
    <g id="ytick_3">
     <g id="line2d_10">
      <g>
       <use style="stroke:#000000;stroke-width:0.8;" x="44.610079" xlink:href="#mb132b0642f" y="27.785786"/>
      </g>
     </g>
     <g id="text_10">
      <!-- $1$ -->
      <g transform="translate(32.628744 31.245035)scale(0.1 -0.1)">
       <use transform="scale(0.996264)" xlink:href="#CMR17-49"/>
      </g>
     </g>
    </g>
    <g id="text_11">
     <!-- sinusoids -->
     <defs>
      <path d="M 32.203125 41.046875 
C 26.296875 43.859375 21.703125 43.859375 18.703125 43.859375 
C 11.59375 43.859375 3.09375 41.375 3.09375 31.296875 
C 3.09375 21.234375 14.09375 19.03125 17.09375 18.421875 
C 21.703125 17.53125 26.796875 16.53125 26.796875 11.5625 
C 26.796875 5.265625 19.59375 5.265625 18.296875 5.265625 
C 14.296875 5.265625 8.796875 6.359375 3.796875 9.96875 
L 2.59375 3.28125 
C 8.296875 0 13.796875 -1 18.40625 -1 
C 30.703125 -1 33.796875 6.5 33.796875 12.203125 
C 33.796875 17.09375 31 20.390625 29.09375 21.890625 
C 25.796875 24.5 24.59375 24.796875 16.40625 26.5 
C 15 26.703125 10.09375 27.796875 10.09375 32.28125 
C 10.09375 38 16.40625 38 17.796875 38 
C 24.296875 38 28.296875 35.984375 31 34.5 
z
" id="CMSS17-115"/>
      <path d="M 15.296875 65.359375 
L 6.90625 65.359375 
L 6.90625 57 
L 15.296875 57 
z
M 14.796875 42.796875 
L 7.40625 42.796875 
L 7.40625 0 
L 14.796875 0 
z
" id="CMSS17-105"/>
      <path d="M 40.90625 29.328125 
C 40.90625 35.671875 39.40625 44 28.09375 44 
C 21.703125 44 17.5 40.71875 14.703125 37.328125 
L 14.703125 43.09375 
L 7.40625 43.09375 
L 7.40625 0 
L 15 0 
L 15 24.359375 
C 15 30.6875 17.40625 37.9375 24.203125 37.9375 
C 33 37.9375 33.296875 32 33.296875 28.578125 
L 33.296875 0 
L 40.90625 0 
z
" id="CMSS17-110"/>
      <path d="M 40.90625 42.796875 
L 33.296875 42.796875 
L 33.296875 15.1875 
C 33.296875 7.78125 27.90625 4.78125 22.203125 4.78125 
C 15.59375 4.78125 15 6.984375 15 11.078125 
L 15 42.796875 
L 7.40625 42.796875 
L 7.40625 10.59375 
C 7.40625 2.796875 10.09375 -1 17 -1 
C 20.40625 -1 28.09375 -0.203125 33.5 4.78125 
L 33.5 0 
L 40.90625 0 
z
" id="CMSS17-117"/>
      <path d="M 44.203125 21.1875 
C 44.203125 34 34.703125 44 23.5 44 
C 12 44 2.703125 33.703125 2.703125 21.1875 
C 2.703125 8.5 12.296875 -1 23.40625 -1 
C 34.796875 -1 44.203125 8.796875 44.203125 21.1875 
z
M 23.5 5.265625 
C 16.40625 5.265625 10.296875 11.078125 10.296875 22 
C 10.296875 33.609375 17.40625 37.921875 23.40625 37.921875 
C 29.90625 37.921875 36.59375 33.21875 36.59375 22 
C 36.59375 10.671875 30.09375 5.265625 23.5 5.265625 
z
" id="CMSS17-111"/>
      <path d="M 40.796875 69 
L 33.40625 69 
L 33.40625 38.09375 
C 30.296875 40.671875 25.203125 43.0625 19.59375 43.0625 
C 10.5 43.0625 3.296875 33.296875 3.296875 21.046875 
C 3.296875 8.78125 10.40625 -1 19.296875 -1 
C 26.203125 -1 30.796875 2.6875 33.203125 4.78125 
L 33.203125 -0.203125 
L 40.796875 -0.203125 
z
M 33.203125 13.0625 
C 33.203125 11.671875 33.203125 10.203125 30.09375 7.53125 
C 28.09375 5.859375 25.703125 5.078125 23.40625 5.078125 
C 18 5.078125 10.90625 9 10.90625 20.9375 
C 10.90625 33.34375 18.90625 37 24.40625 37 
C 28.09375 37 31.09375 35.21875 33.203125 32.265625 
z
" id="CMSS17-100"/>
     </defs>
     <g transform="translate(18.942822 82.220192)rotate(-90)scale(0.1 -0.1)">
      <use transform="scale(0.996264)" xlink:href="#CMSS17-115"/>
      <use transform="translate(35.913542 0)scale(0.996264)" xlink:href="#CMSS17-105"/>
      <use transform="translate(58.094265 0)scale(0.996264)" xlink:href="#CMSS17-110"/>
      <use transform="translate(106.299208 0)scale(0.996264)" xlink:href="#CMSS17-117"/>
      <use transform="translate(154.504151 0)scale(0.996264)" xlink:href="#CMSS17-115"/>
      <use transform="translate(190.417693 0)scale(0.996264)" xlink:href="#CMSS17-111"/>
      <use transform="translate(237.261317 0)scale(0.996264)" xlink:href="#CMSS17-105"/>
      <use transform="translate(259.44204 0)scale(0.996264)" xlink:href="#CMSS17-100"/>
      <use transform="translate(307.646983 0)scale(0.996264)" xlink:href="#CMSS17-115"/>
     </g>
    </g>
   </g>
   <g id="line2d_11">
    <path clip-path="url(#p4fe80e448f)" d="M 58.34053 63.9 
L 64.944354 50.214886 
L 68.796585 42.728507 
L 72.098497 36.825612 
L 74.85009 32.372512 
L 77.051365 29.166328 
L 79.25264 26.31229 
L 81.453914 23.839333 
L 83.655189 21.772528 
L 85.306145 20.501729 
L 86.957101 19.478516 
L 88.608057 18.708728 
L 90.259013 18.196755 
L 91.909969 17.945518 
L 93.560925 17.956451 
L 95.211881 18.229491 
L 96.862837 18.763081 
L 98.513793 19.554176 
L 100.164749 20.598263 
L 101.815705 21.889387 
L 103.466661 23.42018 
L 105.667936 25.818773 
L 107.869211 28.603449 
L 110.070485 31.745979 
L 112.822079 36.128513 
L 115.573672 40.950774 
L 118.875584 47.210002 
L 123.278134 56.121285 
L 135.935463 82.196205 
L 139.237375 88.337655 
L 141.988969 93.035721 
L 144.740562 97.272459 
L 146.941837 100.284339 
L 149.143111 102.927338 
L 151.344386 105.174661 
L 152.995342 106.586627 
L 154.646298 107.755066 
L 156.297254 108.673312 
L 157.94821 109.336127 
L 159.599166 109.73973 
L 161.250122 109.881818 
L 162.901078 109.76158 
L 164.552034 109.379703 
L 166.20299 108.738365 
L 167.853946 107.841224 
L 169.504902 106.693399 
L 171.155858 105.301439 
L 172.806814 103.673284 
L 175.008089 101.151238 
L 177.209364 98.251523 
L 179.410639 95.003537 
L 182.162232 90.504274 
L 184.913825 85.583764 
L 188.215737 79.233203 
L 192.618287 70.248495 
L 203.62466 47.480081 
L 206.926572 41.202087 
L 209.678166 36.359791 
L 212.429759 31.95356 
L 214.631034 28.789687 
L 216.832308 25.981778 
L 219.033583 23.5583 
L 220.684539 22.00791 
L 222.335495 20.696514 
L 223.986451 19.631593 
L 225.637407 18.819223 
L 227.288363 18.264037 
L 228.939319 17.969205 
L 230.590275 17.936406 
L 232.241231 18.16583 
L 233.892187 18.656166 
L 235.543143 19.404618 
L 237.194099 20.406915 
L 238.845056 21.65734 
L 240.496012 23.148758 
L 242.697286 25.497297 
L 244.898561 28.23518 
L 247.099836 31.334648 
L 249.851429 35.669268 
L 252.603022 40.450887 
L 255.904934 46.67184 
L 259.757165 54.41532 
L 274.065451 83.776309 
L 277.367363 89.791218 
L 280.118956 94.358386 
L 282.87055 98.443282 
L 285.071824 101.320216 
L 287.273099 103.817766 
L 289.474374 105.910613 
L 291.12533 107.201737 
L 292.776286 108.245824 
L 294.427242 109.036919 
L 296.078198 109.570509 
L 297.729154 109.843549 
L 299.38011 109.854482 
L 301.031066 109.603245 
L 302.682022 109.091272 
L 304.332978 108.321484 
L 305.983934 107.298271 
L 307.63489 106.027472 
L 309.285846 104.516336 
L 311.487121 102.142723 
L 313.688395 99.381389 
L 315.88967 96.260328 
L 318.641263 91.901665 
L 321.392857 87.099629 
L 324.694769 80.859415 
L 329.097318 71.963879 
L 332.949549 63.9 
L 332.949549 63.9 
" style="fill:none;stroke:#1f77b4;stroke-linecap:square;stroke-width:1.5;"/>
   </g>
   <g id="line2d_12">
    <path clip-path="url(#p4fe80e448f)" d="M 58.34053 63.9 
L 61.642442 57.187679 
L 63.293398 54.262939 
L 64.944354 51.831132 
L 66.044991 50.546444 
L 67.145629 49.56605 
L 68.246266 48.912288 
L 69.346903 48.600058 
L 70.447541 48.636473 
L 71.548178 49.020705 
L 72.648815 49.743997 
L 73.749453 50.789867 
L 74.85009 52.134483 
L 76.501046 54.642838 
L 78.152002 57.624694 
L 80.903596 63.224736 
L 84.205508 69.998735 
L 85.856464 73.002613 
L 87.50742 75.540895 
L 88.608057 76.909113 
L 89.708694 77.980887 
L 90.809332 78.731794 
L 91.909969 79.144723 
L 93.010606 79.210265 
L 94.111244 78.926926 
L 95.211881 78.301162 
L 96.312519 77.347233 
L 97.413156 76.086877 
L 98.513793 74.548813 
L 100.164749 71.799222 
L 102.366024 67.532028 
L 107.869211 56.334029 
L 109.520167 53.532154 
L 111.171123 51.260593 
L 112.27176 50.09952 
L 113.372397 49.252925 
L 114.473035 48.740099 
L 115.573672 48.572727 
L 116.67431 48.754624 
L 117.774947 49.281645 
L 118.875584 50.14178 
L 119.976222 51.315429 
L 121.076859 52.775847 
L 122.727815 55.429767 
L 124.378771 58.516937 
L 127.680683 65.345313 
L 130.432276 70.871365 
L 132.083232 73.760441 
L 133.734188 76.145158 
L 134.834826 77.393273 
L 135.935463 78.333912 
L 137.036101 78.94564 
L 138.136738 79.214516 
L 139.237375 79.134415 
L 140.338013 78.707161 
L 141.43865 77.942491 
L 142.539287 76.857828 
L 143.639925 75.477891 
L 145.290881 72.924796 
L 146.941837 69.910085 
L 149.69343 64.285949 
L 152.995342 57.536779 
L 154.646298 54.566112 
L 156.297254 52.07287 
L 157.397892 50.740135 
L 158.498529 49.707279 
L 159.599166 48.997838 
L 160.699804 48.627979 
L 161.800441 48.606129 
L 162.901078 48.932787 
L 164.001716 49.600508 
L 165.102353 50.594078 
L 166.20299 51.890855 
L 167.853946 54.338166 
L 169.504902 57.274564 
L 171.706177 61.688304 
L 176.108727 70.698939 
L 177.759683 73.611907 
L 179.410639 76.028113 
L 180.511276 77.30066 
L 181.611913 78.267841 
L 182.712551 78.907616 
L 183.813188 79.205407 
L 184.913825 79.154427 
L 186.014463 78.755839 
L 187.1151 78.018725 
L 188.215737 76.959882 
L 189.316375 75.603438 
L 190.967331 73.08007 
L 192.618287 70.087143 
L 195.36988 64.478848 
L 198.671792 57.712857 
L 200.322748 54.71993 
L 201.973704 52.196562 
L 203.074342 50.840118 
L 204.174979 49.781275 
L 205.275616 49.044161 
L 206.376254 48.645573 
L 207.476891 48.594593 
L 208.577528 48.892384 
L 209.678166 49.532159 
L 210.778803 50.49934 
L 211.87944 51.771887 
L 212.980078 53.320802 
L 214.631034 56.083629 
L 216.832308 60.361793 
L 222.335495 71.549742 
L 223.986451 74.338711 
L 225.637407 76.593742 
L 226.738045 77.742192 
L 227.838682 78.575213 
L 228.939319 79.073825 
L 230.039957 79.226665 
L 231.140594 79.03025 
L 232.241231 78.489056 
L 233.341869 77.615416 
L 234.442506 76.429237 
L 235.543143 74.957549 
L 237.194099 72.289642 
L 238.845056 69.192607 
L 242.146968 62.358649 
L 244.898561 56.842836 
L 246.549517 53.965877 
L 248.200473 51.597047 
L 249.30111 50.361221 
L 250.401748 49.43391 
L 251.502385 48.836243 
L 252.603022 48.581839 
L 253.70366 48.676497 
L 254.804297 49.118059 
L 255.904934 49.896462 
L 257.005572 50.99397 
L 258.106209 52.385573 
L 259.757165 54.953379 
L 261.408121 57.978803 
L 264.159715 63.610525 
L 267.461627 70.350883 
L 269.112583 73.310244 
L 270.763539 75.788273 
L 271.864176 77.109075 
L 272.964813 78.128876 
L 274.065451 78.824437 
L 275.166088 79.17991 
L 276.266725 79.187193 
L 277.367363 78.846122 
L 278.468 78.164466 
L 279.568638 77.157761 
L 280.669275 75.848946 
L 282.320231 73.386227 
L 283.971187 70.438289 
L 286.172462 66.016165 
L 290.575011 57.014712 
L 292.225967 54.113632 
L 293.876923 51.713123 
L 294.97756 50.452767 
L 296.078198 49.498838 
L 297.178835 48.873074 
L 298.279472 48.589735 
L 299.38011 48.655277 
L 300.480747 49.068206 
L 301.581385 49.819113 
L 302.682022 50.890887 
L 303.782659 52.259105 
L 305.433615 54.797387 
L 307.084571 57.801265 
L 309.836165 63.417592 
L 313.138077 70.175306 
L 314.789033 73.157162 
L 316.439989 75.665517 
L 317.540626 77.010133 
L 318.641263 78.056003 
L 319.741901 78.779295 
L 320.842538 79.163527 
L 321.943176 79.199942 
L 323.043813 78.887712 
L 324.14445 78.23395 
L 325.245088 77.253556 
L 326.345725 75.968868 
L 327.446362 74.409163 
L 329.097318 71.63321 
L 331.298593 67.344247 
L 332.949549 63.9 
L 332.949549 63.9 
" style="fill:none;stroke:#ff7f0e;stroke-linecap:square;stroke-width:1.5;"/>
   </g>
   <g id="patch_3">
    <path d="M 44.610079 114.48 
L 44.610079 13.32 
" style="fill:none;stroke:#000000;stroke-linecap:square;stroke-linejoin:miter;stroke-width:0.8;"/>
   </g>
   <g id="patch_4">
    <path d="M 346.68 114.48 
L 346.68 13.32 
" style="fill:none;stroke:#000000;stroke-linecap:square;stroke-linejoin:miter;stroke-width:0.8;"/>
   </g>
   <g id="patch_5">
    <path d="M 44.610079 114.48 
L 346.68 114.48 
" style="fill:none;stroke:#000000;stroke-linecap:square;stroke-linejoin:miter;stroke-width:0.8;"/>
   </g>
   <g id="patch_6">
    <path d="M 44.610079 13.32 
L 346.68 13.32 
" style="fill:none;stroke:#000000;stroke-linecap:square;stroke-linejoin:miter;stroke-width:0.8;"/>
   </g>
  </g>
  <g id="axes_2">
   <g id="patch_7">
    <path d="M 44.610079 246.04 
L 346.68 246.04 
L 346.68 144.88 
L 44.610079 144.88 
z
" style="fill:#ffffff;"/>
   </g>
   <g id="matplotlib.axis_3">
    <g id="xtick_8">
     <g id="line2d_13">
      <g>
       <use style="stroke:#000000;stroke-width:0.8;" x="58.34053" xlink:href="#m0202c402a2" y="246.04"/>
      </g>
     </g>
     <g id="text_12">
      <!-- $0$ -->
      <g transform="translate(55.849862 259.958498)scale(0.1 -0.1)">
       <use transform="scale(0.996264)" xlink:href="#CMR17-48"/>
      </g>
     </g>
    </g>
    <g id="xtick_9">
     <g id="line2d_14">
      <g>
       <use style="stroke:#000000;stroke-width:0.8;" x="102.045913" xlink:href="#m0202c402a2" y="246.04"/>
      </g>
     </g>
     <g id="text_13">
      <!-- $2$ -->
      <g transform="translate(99.555245 259.958498)scale(0.1 -0.1)">
       <use transform="scale(0.996264)" xlink:href="#CMR17-50"/>
      </g>
     </g>
    </g>
    <g id="xtick_10">
     <g id="line2d_15">
      <g>
       <use style="stroke:#000000;stroke-width:0.8;" x="145.751296" xlink:href="#m0202c402a2" y="246.04"/>
      </g>
     </g>
     <g id="text_14">
      <!-- $4$ -->
      <g transform="translate(143.260628 259.958498)scale(0.1 -0.1)">
       <use transform="scale(0.996264)" xlink:href="#CMR17-52"/>
      </g>
     </g>
    </g>
    <g id="xtick_11">
     <g id="line2d_16">
      <g>
       <use style="stroke:#000000;stroke-width:0.8;" x="189.456678" xlink:href="#m0202c402a2" y="246.04"/>
      </g>
     </g>
     <g id="text_15">
      <!-- $6$ -->
      <g transform="translate(186.966011 259.958498)scale(0.1 -0.1)">
       <use transform="scale(0.996264)" xlink:href="#CMR17-54"/>
      </g>
     </g>
    </g>
    <g id="xtick_12">
     <g id="line2d_17">
      <g>
       <use style="stroke:#000000;stroke-width:0.8;" x="233.162061" xlink:href="#m0202c402a2" y="246.04"/>
      </g>
     </g>
     <g id="text_16">
      <!-- $8$ -->
      <g transform="translate(230.671394 259.958498)scale(0.1 -0.1)">
       <use transform="scale(0.996264)" xlink:href="#CMR17-56"/>
      </g>
     </g>
    </g>
    <g id="xtick_13">
     <g id="line2d_18">
      <g>
       <use style="stroke:#000000;stroke-width:0.8;" x="276.867444" xlink:href="#m0202c402a2" y="246.04"/>
      </g>
     </g>
     <g id="text_17">
      <!-- $10$ -->
      <g transform="translate(271.886109 259.958498)scale(0.1 -0.1)">
       <use transform="scale(0.996264)" xlink:href="#CMR17-49"/>
       <use transform="translate(45.690477 0)scale(0.996264)" xlink:href="#CMR17-48"/>
      </g>
     </g>
    </g>
    <g id="xtick_14">
     <g id="line2d_19">
      <g>
       <use style="stroke:#000000;stroke-width:0.8;" x="320.572827" xlink:href="#m0202c402a2" y="246.04"/>
      </g>
     </g>
     <g id="text_18">
      <!-- $12$ -->
      <g transform="translate(315.591492 259.958498)scale(0.1 -0.1)">
       <use transform="scale(0.996264)" xlink:href="#CMR17-49"/>
       <use transform="translate(45.690477 0)scale(0.996264)" xlink:href="#CMR17-50"/>
      </g>
     </g>
    </g>
    <g id="text_19">
     <!-- time -->
     <defs>
      <path d="M 16.703125 37 
L 29.703125 37 
L 29.703125 42.765625 
L 16.703125 42.765625 
L 16.703125 55 
L 9.59375 55 
L 9.59375 42.765625 
L 1.703125 42.765625 
L 1.703125 37 
L 9.40625 37 
L 9.40625 11.703125 
C 9.40625 6 10.703125 -1 17.296875 -1 
C 22.296875 -1 26.90625 0.390625 31.296875 2.6875 
L 29.703125 8.5625 
C 27.296875 6.46875 24.40625 5.265625 21.296875 5.265625 
C 16.90625 5.265625 16.703125 10.875 16.703125 13.375 
z
" id="CMSS17-116"/>
      <path d="M 67 29.328125 
C 67 36.0625 65.296875 44 54.09375 44 
C 46.59375 44 42.09375 39.3125 40.09375 36.421875 
C 38.296875 41.71875 34.09375 44 28.09375 44 
C 21.296875 44 17 40.125 14.703125 37.328125 
L 14.703125 43.09375 
L 7.40625 43.09375 
L 7.40625 0 
L 15 0 
L 15 24.359375 
C 15 30.296875 17.203125 37.9375 24.296875 37.9375 
C 33.40625 37.9375 33.40625 31.5 33.40625 28.578125 
L 33.40625 0 
L 41 0 
L 41 24.359375 
C 41 30.296875 43.203125 37.9375 50.296875 37.9375 
C 59.40625 37.9375 59.40625 31.5 59.40625 28.578125 
L 59.40625 0 
L 67 0 
z
" id="CMSS17-109"/>
      <path d="M 39.09375 21.515625 
C 39.09375 24.84375 38.90625 31.296875 35.703125 36.640625 
C 32.203125 42.390625 26.5 44 22.203125 44 
C 11.796875 44 3 34.1875 3 21.484375 
C 3 9.09375 12.09375 -1 23.59375 -1 
C 28.09375 -1 33.59375 0.296875 38.59375 3.875 
C 38.59375 4.28125 38.40625 6.46875 38.296875 6.5625 
C 38.296875 6.765625 38 9.84375 38 10.25 
C 33.203125 6.359375 27.703125 5.078125 23.703125 5.078125 
C 17.296875 5.078125 10.40625 10.421875 10.09375 21.515625 
z
M 10.90625 27 
C 12.203125 32.5625 16.59375 37.828125 22.203125 37.828125 
C 23.703125 37.828125 30.703125 37.828125 32.5 27 
z
" id="CMSS17-101"/>
     </defs>
     <g transform="translate(186.484939 272.814175)scale(0.1 -0.1)">
      <use transform="scale(0.996264)" xlink:href="#CMSS17-116"/>
      <use transform="translate(33.831567 0)scale(0.996264)" xlink:href="#CMSS17-105"/>
      <use transform="translate(56.01229 0)scale(0.996264)" xlink:href="#CMSS17-109"/>
      <use transform="translate(130.241544 0)scale(0.996264)" xlink:href="#CMSS17-101"/>
     </g>
    </g>
   </g>
   <g id="matplotlib.axis_4">
    <g id="ytick_4">
     <g id="line2d_20">
      <g>
       <use style="stroke:#000000;stroke-width:0.8;" x="44.610079" xlink:href="#mb132b0642f" y="233.764861"/>
      </g>
     </g>
     <g id="text_20">
      <!-- $-1$ -->
      <g transform="translate(24.88 237.224111)scale(0.1 -0.1)">
       <use transform="scale(0.996264)" xlink:href="#CMSY10-0"/>
       <use transform="translate(77.487468 0)scale(0.996264)" xlink:href="#CMR17-49"/>
      </g>
     </g>
    </g>
    <g id="ytick_5">
     <g id="line2d_21">
      <g>
       <use style="stroke:#000000;stroke-width:0.8;" x="44.610079" xlink:href="#mb132b0642f" y="195.46"/>
      </g>
     </g>
     <g id="text_21">
      <!-- $0$ -->
      <g transform="translate(32.628744 198.919249)scale(0.1 -0.1)">
       <use transform="scale(0.996264)" xlink:href="#CMR17-48"/>
      </g>
     </g>
    </g>
    <g id="ytick_6">
     <g id="line2d_22">
      <g>
       <use style="stroke:#000000;stroke-width:0.8;" x="44.610079" xlink:href="#mb132b0642f" y="157.155139"/>
      </g>
     </g>
     <g id="text_22">
      <!-- $1$ -->
      <g transform="translate(32.628744 160.614388)scale(0.1 -0.1)">
       <use transform="scale(0.996264)" xlink:href="#CMR17-49"/>
      </g>
     </g>
    </g>
    <g id="text_23">
     <!-- sum of sinusoids -->
     <defs>
      <path d="M 16.796875 37 
L 26.90625 37 
L 26.90625 42.765625 
L 16.59375 42.765625 
L 16.59375 55.609375 
C 16.59375 62.71875 22 63.9375 25.09375 63.9375 
C 26.09375 63.9375 28.90625 63.9375 32.5 62.640625 
L 32.5 69.203125 
C 30.203125 69.703125 27.40625 70 25.203125 70 
C 15.90625 70 9.40625 62.390625 9.40625 52.484375 
L 9.40625 42.765625 
L 2.5 42.765625 
L 2.5 37 
L 9.40625 37 
L 9.40625 0 
L 16.796875 0 
z
" id="CMSS17-102"/>
     </defs>
     <g transform="translate(18.942822 229.55439)rotate(-90)scale(0.1 -0.1)">
      <use transform="scale(0.996264)" xlink:href="#CMSS17-115"/>
      <use transform="translate(35.913542 0)scale(0.996264)" xlink:href="#CMSS17-117"/>
      <use transform="translate(84.118485 0)scale(0.996264)" xlink:href="#CMSS17-109"/>
      <use transform="translate(189.576852 0)scale(0.996264)" xlink:href="#CMSS17-111"/>
      <use transform="translate(236.420476 0)scale(0.996264)" xlink:href="#CMSS17-102"/>
      <use transform="translate(296.276247 0)scale(0.996264)" xlink:href="#CMSS17-115"/>
      <use transform="translate(332.189789 0)scale(0.996264)" xlink:href="#CMSS17-105"/>
      <use transform="translate(354.370512 0)scale(0.996264)" xlink:href="#CMSS17-110"/>
      <use transform="translate(402.575456 0)scale(0.996264)" xlink:href="#CMSS17-117"/>
      <use transform="translate(450.780399 0)scale(0.996264)" xlink:href="#CMSS17-115"/>
      <use transform="translate(486.693941 0)scale(0.996264)" xlink:href="#CMSS17-111"/>
      <use transform="translate(533.537564 0)scale(0.996264)" xlink:href="#CMSS17-105"/>
      <use transform="translate(555.718287 0)scale(0.996264)" xlink:href="#CMSS17-100"/>
      <use transform="translate(603.92323 0)scale(0.996264)" xlink:href="#CMSS17-115"/>
     </g>
    </g>
   </g>
   <g id="line2d_23">
    <path clip-path="url(#pdf0f29c12d)" d="M 58.34053 195.46 
L 62.192761 178.704678 
L 64.394035 170.113749 
L 66.044991 164.455483 
L 67.695947 159.617757 
L 68.796585 156.895885 
L 69.897222 154.598034 
L 70.997859 152.733002 
L 72.098497 151.300988 
L 73.199134 150.293697 
L 74.299772 149.694628 
L 75.400409 149.479554 
L 76.501046 149.617167 
L 77.601684 150.069889 
L 78.702321 150.794807 
L 79.802958 151.744741 
L 81.453914 153.480969 
L 87.50742 160.388689 
L 89.158376 161.72362 
L 90.259013 162.361557 
L 91.35965 162.772034 
L 92.460288 162.941475 
L 93.560925 162.864297 
L 94.661563 162.543042 
L 95.7622 161.988315 
L 96.862837 161.218539 
L 98.513793 159.718967 
L 100.715068 157.262294 
L 105.117617 152.148786 
L 106.768573 150.690884 
L 107.869211 149.997487 
L 108.969848 149.581907 
L 110.070485 149.486445 
L 111.171123 149.747944 
L 112.27176 150.396869 
L 113.372397 151.456512 
L 114.473035 152.942371 
L 115.573672 154.861693 
L 116.67431 157.213204 
L 117.774947 159.987034 
L 119.425903 164.897226 
L 121.076859 170.618475 
L 123.278134 179.273694 
L 126.029727 191.16821 
L 130.982595 212.781073 
L 133.18387 221.306164 
L 134.834826 226.90054 
L 136.485782 231.665154 
L 137.586419 234.334798 
L 138.687057 236.578852 
L 139.787694 238.389591 
L 140.888331 239.767889 
L 141.988969 240.723086 
L 143.089606 241.272679 
L 144.190243 241.441818 
L 145.290881 241.262642 
L 146.391518 240.773451 
L 147.492155 240.017751 
L 149.143111 238.48954 
L 151.344386 235.985214 
L 155.196617 231.484589 
L 156.847573 229.924637 
L 157.94821 229.104854 
L 159.048848 228.494341 
L 160.149485 228.113412 
L 161.250122 227.974659 
L 162.35076 228.082653 
L 163.451397 228.433835 
L 164.552034 229.016606 
L 165.652672 229.811595 
L 167.303628 231.341767 
L 169.504902 233.82187 
L 173.357133 238.345315 
L 175.008089 239.906884 
L 176.108727 240.692622 
L 177.209364 241.217601 
L 178.310001 241.43774 
L 179.410639 241.314032 
L 180.511276 240.813522 
L 181.611913 239.910145 
L 182.712551 238.585417 
L 183.813188 236.828956 
L 184.913825 234.63882 
L 186.014463 232.02166 
L 187.665419 227.33078 
L 189.316375 221.80118 
L 190.967331 215.557181 
L 193.168605 206.396231 
L 200.873067 173.21121 
L 202.524023 167.189366 
L 204.174979 161.927327 
L 205.825935 157.537133 
L 206.926572 155.132116 
L 208.02721 153.158525 
L 209.127847 151.618707 
L 210.228484 150.506468 
L 211.329122 149.807323 
L 212.429759 149.498921 
L 213.530396 149.551656 
L 214.631034 149.929432 
L 215.731671 150.590576 
L 216.832308 151.488871 
L 218.483265 153.171764 
L 221.234858 156.435346 
L 223.986451 159.578233 
L 225.637407 161.108405 
L 226.738045 161.903394 
L 227.838682 162.486165 
L 228.939319 162.837347 
L 230.039957 162.945341 
L 231.140594 162.806588 
L 232.241231 162.425659 
L 233.341869 161.815146 
L 234.442506 160.995363 
L 236.093462 159.435411 
L 238.294737 156.933258 
L 242.146968 152.43046 
L 243.797924 150.902249 
L 244.898561 150.146549 
L 245.999198 149.657358 
L 247.099836 149.478182 
L 248.200473 149.647321 
L 249.30111 150.196914 
L 250.401748 151.152111 
L 251.502385 152.530409 
L 252.603022 154.341148 
L 253.70366 156.585202 
L 254.804297 159.254846 
L 256.455253 164.01946 
L 258.106209 169.613836 
L 260.307484 178.138927 
L 263.059077 189.947814 
L 268.562264 213.902357 
L 270.763539 222.291215 
L 272.414495 227.755172 
L 274.065451 232.371719 
L 275.166088 234.936159 
L 276.266725 237.072273 
L 277.367363 238.774485 
L 278.468 240.045807 
L 279.568638 240.897654 
L 280.669275 241.349489 
L 281.769912 241.428281 
L 282.87055 241.16779 
L 283.971187 240.607713 
L 285.071824 239.792691 
L 286.72278 238.19897 
L 288.924055 235.653187 
L 292.225967 231.776188 
L 293.876923 230.159203 
L 294.97756 229.291138 
L 296.078198 228.62611 
L 297.178835 228.186297 
L 298.279472 227.986255 
L 299.38011 228.032578 
L 300.480747 228.323739 
L 301.581385 228.850132 
L 302.682022 229.594292 
L 304.332978 231.062464 
L 305.983934 232.850755 
L 311.487121 239.175259 
L 312.587758 240.125193 
L 313.688395 240.850111 
L 314.789033 241.302833 
L 315.88967 241.440446 
L 316.990307 241.225372 
L 318.090945 240.626303 
L 319.191582 239.619012 
L 320.29222 238.186998 
L 321.392857 236.321966 
L 322.493494 234.024115 
L 323.594132 231.302243 
L 325.245088 226.464517 
L 326.896044 220.806251 
L 329.097318 212.215322 
L 331.848912 200.362473 
L 332.949549 195.46 
L 332.949549 195.46 
" style="fill:none;stroke:#1f77b4;stroke-linecap:square;stroke-width:1.5;"/>
   </g>
   <g id="patch_8">
    <path d="M 44.610079 246.04 
L 44.610079 144.88 
" style="fill:none;stroke:#000000;stroke-linecap:square;stroke-linejoin:miter;stroke-width:0.8;"/>
   </g>
   <g id="patch_9">
    <path d="M 346.68 246.04 
L 346.68 144.88 
" style="fill:none;stroke:#000000;stroke-linecap:square;stroke-linejoin:miter;stroke-width:0.8;"/>
   </g>
   <g id="patch_10">
    <path d="M 44.610079 246.04 
L 346.68 246.04 
" style="fill:none;stroke:#000000;stroke-linecap:square;stroke-linejoin:miter;stroke-width:0.8;"/>
   </g>
   <g id="patch_11">
    <path d="M 44.610079 144.88 
L 346.68 144.88 
" style="fill:none;stroke:#000000;stroke-linecap:square;stroke-linejoin:miter;stroke-width:0.8;"/>
   </g>
  </g>
 </g>
 <defs>
  <clipPath id="p4fe80e448f">
   <rect height="101.16" width="302.069921" x="44.610079" y="13.32"/>
  </clipPath>
  <clipPath id="pdf0f29c12d">
   <rect height="101.16" width="302.069921" x="44.610079" y="144.88"/>
  </clipPath>
 </defs>
</svg>
