<svg width="300" height="259" viewBox="0 0 300 259" fill="none" xmlns="http://www.w3.org/2000/svg">
<g clip-path="url(#clip0)">
<path d="M76 83H119V40H76V83Z" fill="#A9E34B" stroke="#ADB5BD" stroke-width="1.4472"/>
<path d="M119 83H162V40H119V83Z" fill="#F8F9FA" stroke="#ADB5BD" stroke-width="1.4472"/>
<path d="M162 83H206V40H162V83Z" fill="#F8F9FA" stroke="#ADB5BD" stroke-width="1.4472"/>
<path d="M206 83H249V40H206V83Z" fill="#F8F9FA" stroke="#ADB5BD" stroke-width="1.4472"/>
<path d="M249 83H292V40H249V83Z" fill="#F8F9FA" stroke="#ADB5BD" stroke-width="1.4472"/>
<path d="M76 126H119V83H76V126Z" fill="#F8F9FA" stroke="#ADB5BD" stroke-width="1.4472"/>
<path d="M119 126H162V83H119V126Z" fill="#A9E34B" stroke="#ADB5BD" stroke-width="1.4472"/>
<path d="M162 126H206V83H162V126Z" fill="#F8F9FA" stroke="#ADB5BD" stroke-width="1.4472"/>
<path d="M206 126H249V83H206V126Z" fill="#F8F9FA" stroke="#ADB5BD" stroke-width="1.4472"/>
<path d="M249 126H292V83H249V126Z" fill="#F8F9FA" stroke="#ADB5BD" stroke-width="1.4472"/>
<path d="M76 169H119V126H76V169Z" fill="#F8F9FA" stroke="#ADB5BD" stroke-width="1.4472"/>
<path d="M119 169H162V126H119V169Z" fill="#F8F9FA" stroke="#ADB5BD" stroke-width="1.4472"/>
<path d="M162 169H206V126H162V169Z" fill="#A9E34B" stroke="#ADB5BD" stroke-width="1.4472"/>
<path d="M206 169H249V126H206V169Z" fill="#F8F9FA" stroke="#ADB5BD" stroke-width="1.4472"/>
<path d="M249 169H292V126H249V169Z" fill="#F8F9FA" stroke="#ADB5BD" stroke-width="1.4472"/>
<path d="M76 212H119V169H76V212Z" fill="#F8F9FA" stroke="#ADB5BD" stroke-width="1.4472"/>
<path d="M119 212H162V169H119V212Z" fill="#F8F9FA" stroke="#ADB5BD" stroke-width="1.4472"/>
<path d="M162 212H206V169H162V212Z" fill="#F8F9FA" stroke="#ADB5BD" stroke-width="1.4472"/>
<path d="M206 212H249V169H206V212Z" fill="#F8F9FA" stroke="#ADB5BD" stroke-width="1.4472"/>
<path d="M249 212H292V169H249V212Z" fill="#A9E34B" stroke="#ADB5BD" stroke-width="1.4472"/>
<path d="M76 256H119V212H76V256Z" fill="#F8F9FA" stroke="#ADB5BD" stroke-width="1.4472"/>
<path d="M119 256H162V212H119V256Z" fill="#F8F9FA" stroke="#ADB5BD" stroke-width="1.4472"/>
<path d="M162 256H206V212H162V256Z" fill="#F8F9FA" stroke="#ADB5BD" stroke-width="1.4472"/>
<path d="M206 256H249V212H206V256Z" fill="#A9E34B" stroke="#ADB5BD" stroke-width="1.4472"/>
<path d="M249 256H292V212H249V256Z" fill="#F8F9FA" stroke="#ADB5BD" stroke-width="1.4472"/>
<path d="M58.0902 52.2727H57.0334V61H58.0902V52.2727ZM61.0785 52.2727H60.0728V61H61.0785V52.2727Z" fill="black"/>
<path d="M47.4602 97.4545H46.3693L44.5625 102.67H44.4943L42.6875 97.4545H41.5966L44.017 104H45.0398L47.4602 97.4545ZM51.2124 104.136C52.9851 104.136 54.1783 102.79 54.1783 100.761C54.1783 98.7159 52.9851 97.3693 51.2124 97.3693C49.4396 97.3693 48.2464 98.7159 48.2464 100.761C48.2464 102.79 49.4396 104.136 51.2124 104.136ZM51.2124 103.233C49.8658 103.233 49.2521 102.074 49.2521 100.761C49.2521 99.4489 49.8658 98.2727 51.2124 98.2727C52.5589 98.2727 53.1726 99.4489 53.1726 100.761C53.1726 102.074 52.5589 103.233 51.2124 103.233ZM55.7134 104H56.7191V97.4545H55.7134V104ZM56.2248 96.3636C56.6168 96.3636 56.9407 96.0568 56.9407 95.6818C56.9407 95.3068 56.6168 95 56.2248 95C55.8327 95 55.5089 95.3068 55.5089 95.6818C55.5089 96.0568 55.8327 96.3636 56.2248 96.3636ZM61.4077 97.4545H60.0099V95.8864H59.0043V97.4545H58.0156V98.3068H59.0043V102.398C59.0043 103.54 59.9247 104.085 60.777 104.085C61.152 104.085 61.3906 104.017 61.527 103.966L61.3224 103.062C61.2372 103.08 61.1009 103.114 60.8793 103.114C60.4361 103.114 60.0099 102.977 60.0099 102.125V98.3068H61.4077V97.4545Z" fill="black"/>
<path d="M54.3168 139.273H53.3111V148H54.3168V139.273ZM58.0849 148.153C59.2269 148.153 59.8235 147.54 60.0281 147.114H60.0792V148H61.0849V143.688C61.0849 141.608 59.4996 141.369 58.6644 141.369C57.6758 141.369 56.5508 141.71 56.0394 142.903L56.994 143.244C57.2156 142.767 57.7397 142.256 58.6985 142.256C59.6232 142.256 60.0792 142.746 60.0792 143.585V143.619C60.0792 144.105 59.5849 144.062 58.3917 144.216C57.1772 144.374 55.8519 144.642 55.8519 146.142C55.8519 147.42 56.8406 148.153 58.0849 148.153ZM58.2383 147.25C57.4371 147.25 56.8576 146.892 56.8576 146.193C56.8576 145.426 57.5565 145.188 58.3406 145.085C58.7667 145.034 59.9087 144.915 60.0792 144.71V145.631C60.0792 146.449 59.4315 147.25 58.2383 147.25Z" fill="black"/>
<path d="M22.4322 191H23.4379V186.909C23.4379 185.95 24.1367 185.273 24.9208 185.273C25.6836 185.273 26.2163 185.771 26.2163 186.517V191H27.239V186.739C27.239 185.895 27.7674 185.273 28.6879 185.273C29.4038 185.273 30.0174 185.652 30.0174 186.619V191H31.0231V186.619C31.0231 185.081 30.1964 184.369 29.0288 184.369C28.0913 184.369 27.4052 184.8 27.0685 185.477H27.0004C26.6765 184.778 26.1055 184.369 25.2447 184.369C24.3924 184.369 23.7617 184.778 23.489 185.477H23.4038V184.455H22.4322V191ZM34.788 191.153C35.93 191.153 36.5266 190.54 36.7312 190.114H36.7823V191H37.788V186.688C37.788 184.608 36.2028 184.369 35.3675 184.369C34.3789 184.369 33.2539 184.71 32.7425 185.903L33.6971 186.244C33.9187 185.767 34.4428 185.256 35.4016 185.256C36.3263 185.256 36.7823 185.746 36.7823 186.585V186.619C36.7823 187.105 36.288 187.062 35.0948 187.216C33.8803 187.374 32.555 187.642 32.555 189.142C32.555 190.42 33.5437 191.153 34.788 191.153ZM34.9414 190.25C34.1403 190.25 33.5607 189.892 33.5607 189.193C33.5607 188.426 34.2596 188.188 35.0437 188.085C35.4698 188.034 36.6119 187.915 36.7823 187.71V188.631C36.7823 189.449 36.1346 190.25 34.9414 190.25ZM39.6236 191H40.6293V184.455H39.6236V191ZM40.1349 183.364C40.527 183.364 40.8509 183.057 40.8509 182.682C40.8509 182.307 40.527 182 40.1349 182C39.7429 182 39.419 182.307 39.419 182.682C39.419 183.057 39.7429 183.364 40.1349 183.364ZM47.1076 185.92C46.7923 184.991 46.0849 184.369 44.7894 184.369C43.4087 184.369 42.386 185.153 42.386 186.261C42.386 187.165 42.9229 187.77 44.1246 188.051L45.2156 188.307C45.8761 188.46 46.1871 188.776 46.1871 189.227C46.1871 189.79 45.5906 190.25 44.6531 190.25C43.8306 190.25 43.315 189.896 43.136 189.193L42.1815 189.432C42.4158 190.544 43.332 191.136 44.6701 191.136C46.1914 191.136 47.2269 190.305 47.2269 189.176C47.2269 188.264 46.6559 187.689 45.4883 187.403L44.5167 187.165C43.7411 186.973 43.3917 186.713 43.3917 186.21C43.3917 185.648 43.9883 185.239 44.7894 185.239C45.6673 185.239 46.0295 185.724 46.2042 186.176L47.1076 185.92ZM51.3999 191.136C53.1726 191.136 54.3658 189.79 54.3658 187.761C54.3658 185.716 53.1726 184.369 51.3999 184.369C49.6271 184.369 48.4339 185.716 48.4339 187.761C48.4339 189.79 49.6271 191.136 51.3999 191.136ZM51.3999 190.233C50.0533 190.233 49.4396 189.074 49.4396 187.761C49.4396 186.449 50.0533 185.273 51.3999 185.273C52.7464 185.273 53.3601 186.449 53.3601 187.761C53.3601 189.074 52.7464 190.233 51.3999 190.233ZM56.9066 187.062C56.9066 185.92 57.614 185.273 58.5771 185.273C59.5103 185.273 60.0771 185.882 60.0771 186.909V191H61.0827V186.841C61.0827 185.17 60.1921 184.369 58.8668 184.369C57.8782 184.369 57.2646 184.812 56.9577 185.477H56.8725V184.455H55.9009V191H56.9066V187.062Z" fill="black"/>
<path d="M30.2251 234H31.2308V229.858C31.2308 228.972 31.9297 228.324 32.8842 228.324C33.1527 228.324 33.4297 228.375 33.4979 228.392V227.369C33.3828 227.361 33.1186 227.352 32.9695 227.352C32.1854 227.352 31.5036 227.795 31.2649 228.443H31.1967V227.455H30.2251V234ZM37.1499 234.136C38.9226 234.136 40.1158 232.79 40.1158 230.761C40.1158 228.716 38.9226 227.369 37.1499 227.369C35.3771 227.369 34.1839 228.716 34.1839 230.761C34.1839 232.79 35.3771 234.136 37.1499 234.136ZM37.1499 233.233C35.8033 233.233 35.1896 232.074 35.1896 230.761C35.1896 229.449 35.8033 228.273 37.1499 228.273C38.4964 228.273 39.1101 229.449 39.1101 230.761C39.1101 232.074 38.4964 233.233 37.1499 233.233ZM45.7759 231.324C45.7759 232.551 44.8384 233.114 44.0884 233.114C43.2532 233.114 42.6566 232.5 42.6566 231.545V227.455H41.6509V231.614C41.6509 233.284 42.5373 234.085 43.7646 234.085C44.7532 234.085 45.4009 233.557 45.7077 232.892H45.7759V234H46.7816V227.455H45.7759V231.324ZM51.2656 236.591C52.8338 236.591 54.0952 235.875 54.0952 234.188V227.455H53.1236V228.494H53.0213C52.7997 228.153 52.3906 227.369 51.1122 227.369C49.4588 227.369 48.3168 228.682 48.3168 230.693C48.3168 232.739 49.5099 233.898 51.0952 233.898C52.3736 233.898 52.7827 233.148 53.0043 232.79H53.0895V234.119C53.0895 235.21 52.3224 235.705 51.2656 235.705C50.0767 235.705 49.6591 235.078 49.3906 234.716L48.5895 235.278C48.9986 235.964 49.804 236.591 51.2656 236.591ZM51.2315 232.994C49.9702 232.994 49.3224 232.04 49.3224 230.676C49.3224 229.347 49.9531 228.273 51.2315 228.273C52.4588 228.273 53.1065 229.261 53.1065 230.676C53.1065 232.125 52.4418 232.994 51.2315 232.994ZM58.6804 234.136C60.0099 234.136 60.9815 233.472 61.2884 232.483L60.3168 232.21C60.0611 232.892 59.4688 233.233 58.6804 233.233C57.5 233.233 56.6861 232.47 56.6392 231.068H61.3906V230.642C61.3906 228.205 59.9418 227.369 58.5781 227.369C56.8054 227.369 55.6293 228.767 55.6293 230.778C55.6293 232.79 56.7884 234.136 58.6804 234.136ZM56.6392 230.199C56.7074 229.18 57.4276 228.273 58.5781 228.273C59.669 228.273 60.3679 229.091 60.3679 230.199H56.6392Z" fill="black"/>
<path d="M96.7473 29.2527L97.4946 28.5054L94.7344 25.7453L98.0249 22.4549L100.785 25.215L101.532 24.4677L95.3612 18.2966L94.6139 19.0439L97.362 21.7919L94.0715 25.0824L91.3234 22.3343L90.5762 23.0816L96.7473 29.2527ZM104.969 21.2239C105.909 20.2838 106.126 19.1267 105.644 18.2107L104.764 18.7049C105.065 19.3678 104.888 20.0277 104.33 20.5851C103.495 21.4198 102.381 21.456 101.356 20.4978L104.716 17.138L104.414 16.8367C102.691 15.1131 101.076 15.547 100.112 16.5112C98.858 17.7647 99.0147 19.5847 100.437 21.007C101.859 22.4292 103.631 22.5618 104.969 21.2239ZM100.741 19.8831C100.069 19.1147 99.9368 17.9636 100.75 17.15C101.522 16.3787 102.594 16.463 103.378 17.2465L100.741 19.8831Z" fill="black"/>
<path d="M140.337 22.479C139.458 22.0451 138.517 22.1053 137.601 23.0213C136.625 23.9976 136.456 25.2752 137.24 26.0587C137.879 26.6975 138.686 26.7457 139.735 26.0948L140.687 25.5043C141.263 25.1457 141.705 25.1487 142.025 25.4681C142.423 25.8658 142.326 26.6131 141.663 27.276C141.082 27.8576 140.467 27.9721 139.843 27.6015L139.337 28.4452C140.289 29.0659 141.356 28.8369 142.302 27.8907C143.378 26.815 143.522 25.4952 142.724 24.6967C142.079 24.0519 141.269 24.0489 140.241 24.6726L139.385 25.1909C138.701 25.6037 138.27 25.667 137.915 25.3114C137.517 24.9137 137.65 24.2025 138.216 23.636C138.837 23.0153 139.437 23.1027 139.879 23.2986L140.337 22.479ZM147.121 23.0718C148.061 22.1317 148.278 20.9746 147.796 20.0586L146.916 20.5527C147.217 21.2157 147.04 21.8756 146.482 22.433C145.648 23.2677 144.533 23.3038 143.508 22.3456L146.868 18.9859L146.567 18.6845C144.843 16.961 143.228 17.3949 142.264 18.3591C141.01 19.6126 141.167 21.4326 142.589 22.8549C144.011 24.2771 145.783 24.4097 147.121 23.0718ZM142.893 21.7309C142.222 20.9625 142.089 19.8115 142.902 18.9979C143.674 18.2265 144.747 18.3109 145.53 19.0943L142.893 21.7309ZM152.06 18.1331C153 17.193 153.217 16.0359 152.735 15.1199L151.855 15.614C152.156 16.277 151.978 16.9369 151.421 17.4943C150.586 18.329 149.471 18.3651 148.447 17.4069L151.807 14.0472L151.505 13.7458C149.782 12.0223 148.167 12.4562 147.202 13.4204C145.949 14.6739 146.106 16.4939 147.528 17.9162C148.95 19.3384 150.722 19.471 152.06 18.1331ZM147.832 16.7922C147.16 16.0238 147.028 14.8728 147.841 14.0592C148.613 13.2878 149.685 13.3722 150.469 14.1556L147.832 16.7922ZM154.648 8.16834C153.768 7.73443 152.828 7.79469 151.912 8.71072C150.936 9.68701 150.767 10.9646 151.55 11.7481C152.189 12.3869 152.997 12.4351 154.045 11.7842L154.998 11.1936C155.573 10.8351 156.016 10.8381 156.336 11.1575C156.733 11.5552 156.637 12.3025 155.974 12.9654C155.392 13.547 154.778 13.6615 154.154 13.2908L153.648 14.1345C154.6 14.7553 155.667 14.5263 156.613 13.5801C157.688 12.5044 157.833 11.1846 157.035 10.3861C156.39 9.74125 155.579 9.73823 154.552 10.362L153.696 10.8803C153.012 11.2931 152.581 11.3563 152.225 11.0008C151.828 10.603 151.96 9.89191 152.527 9.32542C153.148 8.70469 153.747 8.79208 154.19 8.98794L154.648 8.16834Z" fill="black"/>
<path d="M181.035 22.708L180.047 23.6963L178.938 22.5874L178.227 23.2986L179.336 24.4074L178.637 25.1065L179.239 25.7092L179.939 25.0101L182.831 27.9028C183.639 28.7103 184.675 28.4452 185.278 27.8425C185.543 27.5774 185.664 27.3604 185.724 27.2278L184.941 26.7337C184.892 26.806 184.82 26.9265 184.663 27.0832C184.35 27.3966 183.952 27.6015 183.35 26.9988L180.65 24.299L181.638 23.3106L181.035 22.708ZM184.76 22.6718C183.952 21.8643 184.009 20.891 184.712 20.1889C185.38 19.52 186.206 19.538 186.941 20.2733L189.834 23.166L190.545 22.4549L187.604 19.5139C186.414 18.3237 185.224 18.399 184.278 19.3452C183.548 20.0744 183.437 20.7946 183.699 21.4906L183.639 21.5509L181.373 19.2849L180.662 19.9961L186.833 26.1672L187.544 25.456L184.76 22.6718ZM193.883 19.3098C194.823 18.3697 195.04 17.2126 194.558 16.2965L193.678 16.7907C193.979 17.4536 193.802 18.1135 193.244 18.671C192.41 19.5056 191.295 19.5418 190.27 18.5836L193.63 15.2238L193.329 14.9225C191.605 13.1989 189.99 13.6328 189.026 14.5971C187.772 15.8506 187.929 17.6706 189.351 19.0928C190.773 20.5151 192.545 20.6477 193.883 19.3098ZM189.655 17.9689C188.984 17.2005 188.851 16.0495 189.665 15.2359C190.436 14.4645 191.509 14.5489 192.292 15.3323L189.655 17.9689Z" fill="black"/>
<path d="M226.651 29.3491L227.362 28.638L224.433 25.7092C223.806 25.0824 223.843 24.1302 224.517 23.4553C224.707 23.2654 224.939 23.1057 225 23.0696L224.276 22.3464C224.189 22.4217 223.996 22.6025 223.891 22.708C223.336 23.2624 223.168 24.0579 223.457 24.6847L223.409 24.7329L222.71 24.0338L222.023 24.7208L226.651 29.3491ZM231.704 24.4888C232.644 23.5487 232.861 22.3916 232.379 21.4756L231.499 21.9697C231.8 22.6326 231.623 23.2925 231.065 23.85C230.231 24.6847 229.116 24.7208 228.091 23.7626L231.451 20.4028L231.15 20.1015C229.426 18.3779 227.811 18.8118 226.847 19.7761C225.593 21.0296 225.75 22.8496 227.172 24.2718C228.594 25.6941 230.366 25.8267 231.704 24.4888ZM227.476 23.1479C226.805 22.3795 226.672 21.2285 227.486 20.4149C228.257 19.6435 229.33 19.7279 230.113 20.5113L227.476 23.1479ZM236.45 19.7429C237.342 18.851 237.089 17.9953 236.992 17.5855L237.077 17.5011L237.788 18.2122L238.475 17.5252L232.304 11.3541L231.593 12.0652L233.871 14.3432L233.81 14.4035C233.413 14.3191 232.581 14.0419 231.677 14.9459C230.508 16.115 230.628 17.8506 232.087 19.309C233.557 20.7795 235.293 20.9 236.45 19.7429ZM235.908 19.0077C235.016 19.8996 233.774 19.5742 232.786 18.5859C231.81 17.6096 231.496 16.4043 232.4 15.5003C233.268 14.6325 234.425 14.8735 235.462 15.9101C236.51 16.9587 236.763 18.1519 235.908 19.0077Z" fill="black"/>
<path d="M267.578 25.8538C266.77 25.0462 266.827 24.073 267.53 23.3709C268.198 22.7019 269.024 22.72 269.759 23.4553L272.652 26.348L273.363 25.6368L270.422 22.6959C269.232 21.5057 268.042 21.581 267.096 22.5272C266.366 23.2564 266.255 23.9765 266.517 24.6726L266.457 24.7329L264.191 22.4669L263.48 23.178L269.651 29.3491L270.362 28.638L267.578 25.8538ZM276.641 22.552C277.894 21.2985 277.786 19.5026 276.352 18.0683C274.905 16.622 273.109 16.5135 271.856 17.767C270.602 19.0205 270.711 20.8164 272.157 22.2628C273.591 23.6971 275.387 23.8055 276.641 22.552ZM276.002 21.9132C275.05 22.8654 273.796 22.4797 272.868 21.5516C271.94 20.6236 271.542 19.358 272.495 18.4058C273.447 17.4536 274.712 17.8514 275.64 18.7795C276.568 19.7075 276.954 20.961 276.002 21.9132ZM280.752 14.4637C281.619 15.3316 281.354 16.3922 280.824 16.9225C280.233 17.5131 279.378 17.5011 278.703 16.8261L275.81 13.9334L275.099 14.6445L278.04 17.5855C279.221 18.7667 280.414 18.7064 281.282 17.8386C281.981 17.1395 282.065 16.3078 281.812 15.6208L281.86 15.5726L282.644 16.3561L283.355 15.6449L278.727 11.0166L278.016 11.7277L280.752 14.4637ZM284.344 7.47228C283.464 7.03837 282.524 7.09864 281.608 8.01466C280.632 8.99095 280.463 10.2686 281.247 11.052C281.885 11.6908 282.693 11.739 283.742 11.0882L284.694 10.4976C285.269 10.139 285.712 10.142 286.032 10.4614C286.429 10.8592 286.333 11.6064 285.67 12.2694C285.088 12.8509 284.474 12.9654 283.85 12.5948L283.344 13.4385C284.296 14.0592 285.363 13.8302 286.309 12.8841C287.385 11.8083 287.529 10.4885 286.731 9.69002C286.086 9.04519 285.275 9.04217 284.248 9.66592L283.392 10.1842C282.708 10.597 282.277 10.6603 281.922 10.3047C281.524 9.90697 281.656 9.19585 282.223 8.62936C282.844 8.00863 283.443 8.09602 283.886 8.29188L284.344 7.47228ZM291.128 8.06513C292.068 7.125 292.285 5.96792 291.803 5.05189L290.923 5.54606C291.224 6.20898 291.046 6.86888 290.489 7.42633C289.654 8.26099 288.539 8.29715 287.515 7.33894L290.875 3.97918L290.573 3.67786C288.85 1.95428 287.235 2.38819 286.27 3.35243C285.017 4.60593 285.174 6.42593 286.596 7.84818C288.018 9.27043 289.79 9.40301 291.128 8.06513ZM286.9 6.72424C286.228 5.95586 286.096 4.80481 286.909 3.99123C287.681 3.21984 288.753 3.30421 289.537 4.08766L286.9 6.72424Z" fill="black"/>
</g>
<defs>
<clipPath id="clip0">
<rect width="299.722" height="258.242" fill="white"/>
</clipPath>
</defs>
</svg>
