<svg width="1089" height="500" viewBox="0 0 1089 500" fill="none" xmlns="http://www.w3.org/2000/svg">
<g clip-path="url(#clip0)">
<path d="M17.7071 24.2929C17.3166 23.9024 16.6834 23.9024 16.2929 24.2929L9.92893 30.6569C9.53841 31.0474 9.53841 31.6805 9.92893 32.0711C10.3195 32.4616 10.9526 32.4616 11.3431 32.0711L17 26.4142L22.6569 32.0711C23.0474 32.4616 23.6805 32.4616 24.0711 32.0711C24.4616 31.6805 24.4616 31.0474 24.0711 30.6569L17.7071 24.2929ZM18 66L18 25L16 25L16 66L18 66Z" fill="black"/>
<path d="M16.2929 333.707C16.6834 334.098 17.3166 334.098 17.7071 333.707L24.0711 327.343C24.4616 326.953 24.4616 326.319 24.0711 325.929C23.6805 325.538 23.0474 325.538 22.6569 325.929L17 331.586L11.3431 325.929C10.9526 325.538 10.3195 325.538 9.92893 325.929C9.53841 326.319 9.53841 326.953 9.92893 327.343L16.2929 333.707ZM16 292L16 333L18 333L18 292L16 292Z" fill="black"/>
<path d="M6.59375 235.359C7.16146 235.359 7.66667 235.51 8.10938 235.813C8.55208 236.109 8.89844 236.513 9.14844 237.023C9.40365 236.43 9.77604 235.961 10.2656 235.617C10.7552 235.268 11.3099 235.094 11.9297 235.094C12.9141 235.094 13.6979 235.427 14.2813 236.094C14.8646 236.755 15.1563 237.628 15.1563 238.711C15.1563 239.805 14.8646 240.682 14.2813 241.344C13.6927 242 12.9089 242.328 11.9297 242.328C11.3151 242.328 10.7604 242.161 10.2656 241.828C9.77083 241.49 9.39583 241.023 9.14063 240.43C8.89063 240.935 8.54427 241.333 8.10156 241.625C7.65885 241.917 7.15625 242.063 6.59375 242.063C5.63542 242.063 4.875 241.755 4.3125 241.141C3.75 240.526 3.46875 239.716 3.46875 238.711C3.46875 237.711 3.75 236.904 4.3125 236.289C4.875 235.669 5.63542 235.359 6.59375 235.359ZM11.8984 236.539C11.263 236.539 10.7448 236.742 10.3438 237.148C9.94271 237.549 9.74219 238.076 9.74219 238.727C9.74219 239.378 9.9401 239.901 10.3359 240.297C10.7318 240.688 11.2526 240.883 11.8984 240.883C12.5443 240.883 13.0521 240.693 13.4219 240.313C13.7917 239.927 13.9766 239.393 13.9766 238.711C13.9766 238.034 13.7917 237.503 13.4219 237.117C13.0469 236.732 12.5391 236.539 11.8984 236.539ZM4.65625 238.711C4.65625 239.279 4.83333 239.74 5.1875 240.094C5.53646 240.443 6.01302 240.617 6.61719 240.617C7.19531 240.617 7.66406 240.445 8.02344 240.102C8.3776 239.753 8.55469 239.289 8.55469 238.711C8.55469 238.133 8.3776 237.672 8.02344 237.328C7.66406 236.979 7.19531 236.805 6.61719 236.805C6.03906 236.805 5.56771 236.984 5.20313 237.344C4.83854 237.703 4.65625 238.159 4.65625 238.711ZM10.1484 226.141C11.8411 226.141 13.099 226.43 13.9219 227.008C14.7448 227.586 15.1563 228.49 15.1563 229.719C15.1563 230.932 14.7552 231.831 13.9531 232.414C13.1458 232.997 11.9427 233.299 10.3438 233.32L8.41406 233.32C6.74219 233.32 5.5 233.031 4.6875 232.453C3.875 231.875 3.46875 230.969 3.46875 229.734C3.46875 228.51 3.86198 227.609 4.64844 227.031C5.42969 226.453 6.63802 226.156 8.27344 226.141L10.1484 226.141ZM8.17188 227.586C6.94792 227.586 6.05729 227.758 5.5 228.102C4.9375 228.445 4.65625 228.99 4.65625 229.734C4.65625 230.474 4.9349 231.013 5.49219 231.352C6.04948 231.69 6.90625 231.865 8.0625 231.875L10.375 231.875C11.6042 231.875 12.513 231.698 13.1016 231.344C13.6849 230.984 13.9766 230.443 13.9766 229.719C13.9766 229.005 13.7005 228.477 13.1484 228.133C12.5964 227.784 11.7266 227.602 10.5391 227.586L8.17188 227.586ZM2.85156 219.094L3.41406 218.266C4.07552 218.75 4.78906 219 5.55469 219.016L6.61719 219.016L6.61719 220.453L5.71094 220.453C5.17969 220.453 4.65365 220.328 4.13281 220.078C3.61198 219.823 3.1849 219.495 2.85156 219.094ZM2.85156 216.633L3.41406 215.805C4.07552 216.289 4.78906 216.539 5.55469 216.555L6.61719 216.555L6.61719 217.992L5.71094 217.992C5.17969 217.992 4.65365 217.867 4.13281 217.617C3.61198 217.362 3.1849 217.034 2.85156 216.633ZM15.1563 211.477C15.1563 212.622 14.7813 213.555 14.0313 214.273C13.276 214.992 12.2682 215.352 11.0078 215.352L10.7422 215.352C9.90365 215.352 9.15625 215.193 8.5 214.875C7.83854 214.552 7.32292 214.104 6.95313 213.531C6.57813 212.953 6.39063 212.328 6.39063 211.656C6.39063 210.557 6.7526 209.703 7.47656 209.094C8.20052 208.484 9.23698 208.18 10.5859 208.18L11.1875 208.18L11.1875 213.906C12.0208 213.885 12.6953 213.643 13.2109 213.18C13.7214 212.711 13.9766 212.117 13.9766 211.398C13.9766 210.888 13.8724 210.456 13.6641 210.102C13.4557 209.747 13.1797 209.438 12.8359 209.172L13.5234 208.289C14.612 208.997 15.1563 210.06 15.1563 211.477ZM7.57813 211.656C7.57813 212.24 7.79167 212.729 8.21875 213.125C8.64063 213.521 9.23438 213.766 10 213.859L10 209.625L9.89063 209.625C9.15625 209.667 8.58854 209.865 8.1875 210.219C7.78125 210.573 7.57813 211.052 7.57813 211.656ZM13.0391 203.82L6.54688 201.727L6.54688 200.25L15 203.281L15 204.383L6.54688 207.445L6.54688 205.969L13.0391 203.82ZM15.1563 195.461C15.1563 196.607 14.7813 197.539 14.0313 198.258C13.276 198.977 12.2682 199.336 11.0078 199.336L10.7422 199.336C9.90365 199.336 9.15625 199.177 8.5 198.859C7.83854 198.536 7.32292 198.089 6.95313 197.516C6.57813 196.938 6.39063 196.313 6.39063 195.641C6.39063 194.542 6.7526 193.688 7.47656 193.078C8.20052 192.469 9.23698 192.164 10.5859 192.164L11.1875 192.164L11.1875 197.891C12.0208 197.87 12.6953 197.628 13.2109 197.164C13.7214 196.695 13.9766 196.102 13.9766 195.383C13.9766 194.872 13.8724 194.44 13.6641 194.086C13.4557 193.732 13.1797 193.422 12.8359 193.156L13.5234 192.273C14.612 192.982 15.1563 194.044 15.1563 195.461ZM7.57813 195.641C7.57813 196.224 7.79167 196.714 8.21875 197.109C8.64063 197.505 9.23438 197.75 10 197.844L10 193.609L9.89063 193.609C9.15625 193.651 8.58854 193.849 8.1875 194.203C7.78125 194.557 7.57813 195.036 7.57813 195.641ZM6.54688 189.117L7.60938 189.07C6.79688 188.424 6.39063 187.581 6.39063 186.539C6.39063 184.753 7.39844 183.852 9.41406 183.836L15 183.836L15 185.281L9.40625 185.281C8.79688 185.286 8.34636 185.427 8.05469 185.703C7.76302 185.974 7.61719 186.398 7.61719 186.977C7.61719 187.445 7.74219 187.857 7.99219 188.211C8.24219 188.565 8.57031 188.841 8.97656 189.039L15 189.039L15 190.484L6.54688 190.484L6.54688 189.117ZM15 180.086L15 181.531L3 181.531L3 180.086L15 180.086ZM12.8828 175L6.54688 173.031L6.54688 171.484L16.3047 174.883C17.7109 175.409 18.4141 176.245 18.4141 177.391L18.3906 177.664L18.2891 178.203L17.1172 178.203L17.1484 177.813C17.1484 177.323 17.0495 176.943 16.8516 176.672C16.6536 176.396 16.2917 176.169 15.7656 175.992L14.9063 175.672L6.54688 178.688L6.54688 177.109L12.8828 175ZM12.7578 161.297C12.3672 161.297 12.0651 161.445 11.8516 161.742C11.6328 162.034 11.4453 162.547 11.2891 163.281C11.1328 164.01 10.9453 164.591 10.7266 165.023C10.5078 165.451 10.2474 165.768 9.94531 165.977C9.64323 166.18 9.28386 166.281 8.86719 166.281C8.17448 166.281 7.58854 165.99 7.10938 165.406C6.63021 164.818 6.39063 164.068 6.39063 163.156C6.39063 162.198 6.63802 161.422 7.13281 160.828C7.62761 160.229 8.26042 159.93 9.03125 159.93L9.03125 161.383C8.63542 161.383 8.29427 161.552 8.00781 161.891C7.72136 162.224 7.57813 162.646 7.57813 163.156C7.57813 163.682 7.69271 164.094 7.92188 164.391C8.15104 164.688 8.45052 164.836 8.82031 164.836C9.16927 164.836 9.43229 164.698 9.60938 164.422C9.78646 164.146 9.95573 163.648 10.1172 162.93C10.2786 162.206 10.4714 161.62 10.6953 161.172C10.9193 160.724 11.1901 160.393 11.5078 160.18C11.8203 159.961 12.2031 159.852 12.6563 159.852C13.4115 159.852 14.0182 160.154 14.4766 160.758C14.9297 161.362 15.1563 162.146 15.1563 163.109C15.1563 163.786 15.0365 164.385 14.7969 164.906C14.5573 165.427 14.224 165.836 13.7969 166.133C13.3646 166.424 12.8984 166.57 12.3984 166.57L12.3984 165.125C12.8828 165.099 13.2682 164.906 13.5547 164.547C13.8359 164.182 13.9766 163.703 13.9766 163.109C13.9766 162.563 13.8672 162.125 13.6484 161.797C13.4245 161.464 13.1276 161.297 12.7578 161.297ZM10.8672 150.828C12.1536 150.828 13.1901 151.122 13.9766 151.711C14.763 152.299 15.1563 153.096 15.1563 154.102C15.1563 155.128 14.8307 155.935 14.1797 156.523L18.25 156.523L18.25 157.969L6.54688 157.969L6.54688 156.648L7.48438 156.578C6.75521 155.99 6.39063 155.172 6.39063 154.125C6.39063 153.109 6.77344 152.307 7.53906 151.719C8.30469 151.125 9.36979 150.828 10.7344 150.828L10.8672 150.828ZM10.7031 152.273C9.75 152.273 8.9974 152.477 8.44531 152.883C7.89323 153.289 7.61719 153.846 7.61719 154.555C7.61719 155.43 8.00521 156.086 8.78125 156.523L12.8203 156.523C13.5911 156.091 13.9766 155.43 13.9766 154.539C13.9766 153.846 13.7031 153.297 13.1563 152.891C12.6042 152.479 11.7865 152.273 10.7031 152.273ZM15 143.766C14.8333 143.849 14.5365 143.917 14.1094 143.969C14.8073 144.641 15.1563 145.443 15.1563 146.375C15.1563 147.208 14.9219 147.893 14.4531 148.43C13.9792 148.961 13.3802 149.227 12.6563 149.227C11.776 149.227 11.0938 148.893 10.6094 148.227C10.1198 147.555 9.875 146.612 9.875 145.398L9.875 143.992L9.21094 143.992C8.70573 143.992 8.30469 144.143 8.00781 144.445C7.70573 144.747 7.55469 145.193 7.55469 145.781C7.55469 146.297 7.6849 146.729 7.94531 147.078C8.20573 147.427 8.52083 147.602 8.89063 147.602L8.89063 149.055C8.46875 149.055 8.0625 148.906 7.67188 148.609C7.27604 148.307 6.96354 147.901 6.73438 147.391C6.50521 146.875 6.39063 146.31 6.39063 145.695C6.39063 144.721 6.63542 143.958 7.125 143.406C7.60938 142.854 8.27865 142.568 9.13281 142.547L13.0234 142.547C13.7995 142.547 14.4167 142.448 14.875 142.25L15 142.25L15 143.766ZM13.8984 146.164C13.8984 145.711 13.7813 145.281 13.5469 144.875C13.3125 144.469 13.0078 144.174 12.6328 143.992L10.8984 143.992L10.8984 145.125C10.8984 146.896 11.4167 147.781 12.4531 147.781C12.9063 147.781 13.2604 147.63 13.5156 147.328C13.7708 147.026 13.8984 146.638 13.8984 146.164ZM13.9766 136.891C13.9766 136.375 13.8203 135.924 13.5078 135.539C13.1953 135.154 12.8047 134.94 12.3359 134.898L12.3359 133.531C12.8203 133.557 13.2813 133.724 13.7188 134.031C14.1563 134.339 14.5052 134.75 14.7656 135.266C15.026 135.776 15.1563 136.318 15.1563 136.891C15.1563 138.042 14.7734 138.958 14.0078 139.641C13.237 140.318 12.1849 140.656 10.8516 140.656L10.6094 140.656C9.78646 140.656 9.05469 140.505 8.41406 140.203C7.77344 139.901 7.27604 139.469 6.92188 138.906C6.56771 138.339 6.39063 137.669 6.39063 136.898C6.39063 135.951 6.67448 135.164 7.24219 134.539C7.8099 133.909 8.54688 133.573 9.45313 133.531L9.45313 134.898C8.90625 134.94 8.45833 135.148 8.10938 135.523C7.75521 135.893 7.57813 136.352 7.57813 136.898C7.57813 137.633 7.84375 138.203 8.375 138.609C8.90104 139.01 9.66406 139.211 10.6641 139.211L10.9375 139.211C11.9115 139.211 12.6615 139.01 13.1875 138.609C13.7135 138.208 13.9766 137.635 13.9766 136.891ZM15.1563 128.398C15.1563 129.544 14.7813 130.477 14.0313 131.195C13.276 131.914 12.2682 132.273 11.0078 132.273L10.7422 132.273C9.90365 132.273 9.15625 132.115 8.5 131.797C7.83854 131.474 7.32292 131.026 6.95313 130.453C6.57813 129.875 6.39063 129.25 6.39063 128.578C6.39063 127.479 6.75261 126.625 7.47656 126.016C8.20052 125.406 9.23698 125.102 10.5859 125.102L11.1875 125.102L11.1875 130.828C12.0208 130.807 12.6953 130.565 13.2109 130.102C13.7214 129.633 13.9766 129.039 13.9766 128.32C13.9766 127.81 13.8724 127.378 13.6641 127.023C13.4557 126.669 13.1797 126.359 12.8359 126.094L13.5234 125.211C14.612 125.919 15.1563 126.982 15.1563 128.398ZM7.57813 128.578C7.57813 129.161 7.79167 129.651 8.21875 130.047C8.64063 130.443 9.23438 130.688 10 130.781L10 126.547L9.89063 126.547C9.15625 126.589 8.58854 126.786 8.1875 127.141C7.78125 127.495 7.57813 127.974 7.57813 128.578ZM10.7031 123.773C9.40625 123.773 8.36458 123.466 7.57813 122.852C6.78646 122.237 6.39063 121.432 6.39063 120.438C6.39063 119.448 6.72917 118.664 7.40625 118.086L3 118.086L3 116.641L15 116.641L15 117.969L14.0938 118.039C14.8021 118.617 15.1563 119.422 15.1563 120.453C15.1563 121.432 14.7552 122.232 13.9531 122.852C13.151 123.466 12.1042 123.773 10.8125 123.773L10.7031 123.773ZM10.8672 122.328C11.8255 122.328 12.5755 122.13 13.1172 121.734C13.6589 121.339 13.9297 120.792 13.9297 120.094C13.9297 119.177 13.5182 118.508 12.6953 118.086L8.8125 118.086C8.01563 118.518 7.61719 119.182 7.61719 120.078C7.61719 120.786 7.89063 121.339 8.4375 121.734C8.98438 122.13 9.79427 122.328 10.8672 122.328ZM6.82813 114.195L6.26563 115.016C5.58854 114.531 4.875 114.281 4.125 114.266L3 114.266L3 112.836L4.01563 112.836C4.53646 112.841 5.05729 112.971 5.57813 113.227C6.09375 113.477 6.51042 113.799 6.82813 114.195ZM6.82813 111.797L6.26563 112.617C5.58854 112.133 4.875 111.883 4.125 111.867L3 111.867L3 110.438L4.01563 110.438C4.53646 110.443 5.05729 110.573 5.57813 110.828C6.09375 111.078 6.51042 111.401 6.82813 111.797ZM34 254.055L26.6641 254.055L26.6641 255.391L25.5469 255.391L25.5469 254.055L24.6797 254.055C23.7734 254.055 23.0729 253.813 22.5781 253.328C22.0833 252.844 21.8359 252.159 21.8359 251.273C21.8359 250.94 21.8802 250.609 21.9688 250.281L23.1406 250.359C23.0938 250.604 23.0703 250.865 23.0703 251.141C23.0703 251.609 23.2083 251.971 23.4844 252.227C23.7552 252.482 24.1458 252.609 24.6563 252.609L25.5469 252.609L25.5469 250.805L26.6641 250.805L26.6641 252.609L34 252.609L34 254.055ZM26.8438 245.117C26.8073 245.336 26.7891 245.573 26.7891 245.828C26.7891 246.776 27.1927 247.419 28 247.758L34 247.758L34 249.203L25.5469 249.203L25.5469 247.797L26.5234 247.773C25.7682 247.299 25.3906 246.628 25.3906 245.758C25.3906 245.477 25.4271 245.263 25.5 245.117L26.8438 245.117ZM34.1563 240.43C34.1563 241.576 33.7813 242.508 33.0313 243.227C32.276 243.945 31.2682 244.305 30.0078 244.305L29.7422 244.305C28.9036 244.305 28.1563 244.146 27.5 243.828C26.8385 243.505 26.3229 243.057 25.9531 242.484C25.5781 241.906 25.3906 241.281 25.3906 240.609C25.3906 239.51 25.7526 238.656 26.4766 238.047C27.2005 237.438 28.237 237.133 29.5859 237.133L30.1875 237.133L30.1875 242.859C31.0208 242.839 31.6953 242.596 32.2109 242.133C32.7214 241.664 32.9766 241.07 32.9766 240.352C32.9766 239.841 32.8724 239.409 32.6641 239.055C32.4557 238.701 32.1797 238.391 31.8359 238.125L32.5234 237.242C33.612 237.951 34.1563 239.013 34.1563 240.43ZM26.5781 240.609C26.5781 241.193 26.7917 241.682 27.2188 242.078C27.6406 242.474 28.2344 242.719 29 242.813L29 238.578L28.8906 238.578C28.1563 238.62 27.5885 238.818 27.1875 239.172C26.7813 239.526 26.5781 240.005 26.5781 240.609ZM29.7031 235.805C28.375 235.805 27.3255 235.5 26.5547 234.891C25.7786 234.281 25.3906 233.464 25.3906 232.438C25.3906 231.438 25.7266 230.648 26.3984 230.07L25.5469 230.008L25.5469 228.68L37.25 228.68L37.25 230.125L33.2188 230.125C33.8438 230.708 34.1563 231.484 34.1563 232.453C34.1563 233.474 33.7604 234.289 32.9688 234.898C32.1719 235.503 31.1172 235.805 29.8047 235.805L29.7031 235.805ZM29.8672 234.359C30.8359 234.359 31.5964 234.156 32.1484 233.75C32.7005 233.339 32.9766 232.786 32.9766 232.094C32.9766 231.234 32.5964 230.578 31.8359 230.125L27.6953 230.125C26.9505 230.583 26.5781 231.234 26.5781 232.078C26.5781 232.776 26.8568 233.331 27.4141 233.742C27.9661 234.154 28.7839 234.359 29.8672 234.359ZM33.1641 221.141C33.8255 221.703 34.1563 222.529 34.1563 223.617C34.1563 224.518 33.8958 225.206 33.375 225.68C32.849 226.148 32.0729 226.385 31.0469 226.391L25.5469 226.391L25.5469 224.945L31.0078 224.945C32.2891 224.945 32.9297 224.424 32.9297 223.383C32.9297 222.279 32.5182 221.544 31.6953 221.18L25.5469 221.18L25.5469 219.734L34 219.734L34 221.109L33.1641 221.141ZM34.1563 214.023C34.1563 215.169 33.7813 216.102 33.0313 216.82C32.276 217.539 31.2682 217.898 30.0078 217.898L29.7422 217.898C28.9036 217.898 28.1563 217.74 27.5 217.422C26.8385 217.099 26.3229 216.651 25.9531 216.078C25.5781 215.5 25.3906 214.875 25.3906 214.203C25.3906 213.104 25.7526 212.25 26.4766 211.641C27.2005 211.031 28.237 210.727 29.5859 210.727L30.1875 210.727L30.1875 216.453C31.0208 216.432 31.6953 216.19 32.2109 215.727C32.7214 215.258 32.9766 214.664 32.9766 213.945C32.9766 213.435 32.8724 213.003 32.6641 212.648C32.4557 212.294 32.1797 211.984 31.8359 211.719L32.5234 210.836C33.612 211.544 34.1563 212.607 34.1563 214.023ZM26.5781 214.203C26.5781 214.786 26.7917 215.276 27.2188 215.672C27.6406 216.068 28.2344 216.313 29 216.406L29 212.172L28.8906 212.172C28.1563 212.214 27.5885 212.411 27.1875 212.766C26.7813 213.12 26.5781 213.599 26.5781 214.203ZM25.5469 207.68L26.6094 207.633C25.7969 206.987 25.3906 206.143 25.3906 205.102C25.3906 203.315 26.3984 202.414 28.4141 202.398L34 202.398L34 203.844L28.4063 203.844C27.7969 203.849 27.3464 203.99 27.0547 204.266C26.763 204.536 26.6172 204.961 26.6172 205.539C26.6172 206.008 26.7422 206.419 26.9922 206.773C27.2422 207.128 27.5703 207.404 27.9766 207.602L34 207.602L34 209.047L25.5469 209.047L25.5469 207.68ZM32.9766 196.828C32.9766 196.313 32.8203 195.862 32.5078 195.477C32.1953 195.091 31.8047 194.878 31.3359 194.836L31.3359 193.469C31.8203 193.495 32.2813 193.661 32.7188 193.969C33.1563 194.276 33.5052 194.688 33.7656 195.203C34.026 195.714 34.1563 196.255 34.1563 196.828C34.1563 197.979 33.7734 198.896 33.0078 199.578C32.237 200.255 31.1849 200.594 29.8516 200.594L29.6094 200.594C28.7865 200.594 28.0547 200.443 27.4141 200.141C26.7734 199.839 26.276 199.406 25.9219 198.844C25.5677 198.276 25.3906 197.607 25.3906 196.836C25.3906 195.888 25.6745 195.102 26.2422 194.477C26.8099 193.846 27.5469 193.51 28.4531 193.469L28.4531 194.836C27.9063 194.878 27.4583 195.086 27.1094 195.461C26.7552 195.831 26.5781 196.289 26.5781 196.836C26.5781 197.57 26.8438 198.141 27.375 198.547C27.901 198.948 28.6641 199.148 29.6641 199.148L29.9375 199.148C30.9115 199.148 31.6615 198.948 32.1875 198.547C32.7135 198.146 32.9766 197.573 32.9766 196.828ZM34 190.273L34 191.719L25.5469 191.719L25.5469 190.273L34 190.273ZM23.3047 191.836C23.0703 191.836 22.8724 191.766 22.7109 191.625C22.5495 191.479 22.4688 191.266 22.4688 190.984C22.4688 190.703 22.5495 190.49 22.7109 190.344C22.8724 190.198 23.0703 190.125 23.3047 190.125C23.5391 190.125 23.7344 190.198 23.8906 190.344C24.0469 190.49 24.125 190.703 24.125 190.984C24.125 191.266 24.0469 191.479 23.8906 191.625C23.7344 191.766 23.5391 191.836 23.3047 191.836ZM34.1563 184.445C34.1563 185.591 33.7813 186.523 33.0313 187.242C32.276 187.961 31.2682 188.32 30.0078 188.32L29.7422 188.32C28.9036 188.32 28.1563 188.161 27.5 187.844C26.8385 187.521 26.3229 187.073 25.9531 186.5C25.5781 185.922 25.3906 185.297 25.3906 184.625C25.3906 183.526 25.7526 182.672 26.4766 182.063C27.2005 181.453 28.237 181.148 29.5859 181.148L30.1875 181.148L30.1875 186.875C31.0208 186.854 31.6953 186.612 32.2109 186.148C32.7214 185.68 32.9766 185.086 32.9766 184.367C32.9766 183.857 32.8724 183.424 32.6641 183.07C32.4557 182.716 32.1797 182.406 31.8359 182.141L32.5234 181.258C33.612 181.966 34.1563 183.029 34.1563 184.445ZM26.5781 184.625C26.5781 185.208 26.7917 185.698 27.2188 186.094C27.6406 186.49 28.2344 186.734 29 186.828L29 182.594L28.8906 182.594C28.1563 182.635 27.5885 182.833 27.1875 183.188C26.7813 183.542 26.5781 184.021 26.5781 184.625ZM31.7578 174.547C31.3672 174.547 31.0651 174.695 30.8516 174.992C30.6328 175.284 30.4453 175.797 30.2891 176.531C30.1328 177.26 29.9453 177.841 29.7266 178.273C29.5078 178.701 29.2474 179.018 28.9453 179.227C28.6432 179.43 28.2839 179.531 27.8672 179.531C27.1745 179.531 26.5885 179.24 26.1094 178.656C25.6302 178.068 25.3906 177.318 25.3906 176.406C25.3906 175.448 25.638 174.672 26.1328 174.078C26.6276 173.479 27.2604 173.18 28.0313 173.18L28.0313 174.633C27.6354 174.633 27.2943 174.802 27.0078 175.141C26.7214 175.474 26.5781 175.896 26.5781 176.406C26.5781 176.932 26.6927 177.344 26.9219 177.641C27.151 177.938 27.4505 178.086 27.8203 178.086C28.1693 178.086 28.4323 177.948 28.6094 177.672C28.7865 177.396 28.9557 176.898 29.1172 176.18C29.2786 175.456 29.4714 174.87 29.6953 174.422C29.9193 173.974 30.1901 173.643 30.5078 173.43C30.8203 173.211 31.2031 173.102 31.6563 173.102C32.4115 173.102 33.0182 173.404 33.4766 174.008C33.9297 174.612 34.1563 175.396 34.1563 176.359C34.1563 177.036 34.0365 177.635 33.7969 178.156C33.5573 178.677 33.224 179.086 32.7969 179.383C32.3646 179.674 31.8984 179.82 31.3984 179.82L31.3984 178.375C31.8828 178.349 32.2682 178.156 32.5547 177.797C32.8359 177.432 32.9766 176.953 32.9766 176.359C32.9766 175.813 32.8672 175.375 32.6484 175.047C32.4245 174.714 32.1276 174.547 31.7578 174.547ZM29.3828 167.305C28.2057 167.305 27.0755 167.148 25.9922 166.836C24.9089 166.518 23.9245 166.047 23.0391 165.422C22.1536 164.797 21.5286 164.148 21.1641 163.477L22.1172 163.18C22.7005 163.94 23.5911 164.565 24.7891 165.055C25.987 165.539 27.3281 165.805 28.8125 165.852L29.4766 165.859C31.487 165.859 33.2318 165.492 34.7109 164.758C35.5964 164.315 36.2891 163.789 36.7891 163.18L37.6719 163.477C37.2865 164.169 36.6406 164.831 35.7344 165.461C33.9635 166.69 31.8464 167.305 29.3828 167.305ZM32.9766 158.391C32.9766 157.875 32.8203 157.424 32.5078 157.039C32.1953 156.654 31.8047 156.44 31.3359 156.398L31.3359 155.031C31.8203 155.057 32.2813 155.224 32.7188 155.531C33.1563 155.839 33.5052 156.25 33.7656 156.766C34.026 157.276 34.1563 157.818 34.1563 158.391C34.1563 159.542 33.7734 160.458 33.0078 161.141C32.237 161.818 31.1849 162.156 29.8516 162.156L29.6094 162.156C28.7865 162.156 28.0547 162.005 27.4141 161.703C26.7734 161.401 26.276 160.969 25.9219 160.406C25.5677 159.839 25.3906 159.169 25.3906 158.398C25.3906 157.451 25.6745 156.664 26.2422 156.039C26.8099 155.409 27.5469 155.073 28.4531 155.031L28.4531 156.398C27.9063 156.44 27.4583 156.648 27.1094 157.023C26.7552 157.393 26.5781 157.852 26.5781 158.398C26.5781 159.133 26.8438 159.703 27.375 160.109C27.901 160.51 28.6641 160.711 29.6641 160.711L29.9375 160.711C30.9115 160.711 31.6615 160.51 32.1875 160.109C32.7135 159.708 32.9766 159.135 32.9766 158.391ZM26.5703 151.961C25.7839 151.32 25.3906 150.487 25.3906 149.461C25.3906 147.674 26.3984 146.773 28.4141 146.758L34 146.758L34 148.203L28.4063 148.203C27.7969 148.208 27.3464 148.349 27.0547 148.625C26.763 148.896 26.6172 149.32 26.6172 149.898C26.6172 150.367 26.7422 150.779 26.9922 151.133C27.2422 151.487 27.5703 151.763 27.9766 151.961L34 151.961L34 153.406L22 153.406L22 151.961L26.5703 151.961ZM34 139.375C33.8333 139.458 33.5365 139.526 33.1094 139.578C33.8073 140.25 34.1563 141.052 34.1563 141.984C34.1563 142.818 33.9219 143.503 33.4531 144.039C32.9792 144.57 32.3802 144.836 31.6563 144.836C30.776 144.836 30.0938 144.503 29.6094 143.836C29.1198 143.164 28.875 142.221 28.875 141.008L28.875 139.602L28.2109 139.602C27.7057 139.602 27.3047 139.753 27.0078 140.055C26.7057 140.357 26.5547 140.802 26.5547 141.391C26.5547 141.906 26.6849 142.339 26.9453 142.688C27.2057 143.036 27.5208 143.211 27.8906 143.211L27.8906 144.664C27.4688 144.664 27.0625 144.516 26.6719 144.219C26.276 143.917 25.9635 143.51 25.7344 143C25.5052 142.484 25.3906 141.919 25.3906 141.305C25.3906 140.331 25.6354 139.568 26.125 139.016C26.6094 138.464 27.2786 138.177 28.1328 138.156L32.0234 138.156C32.7995 138.156 33.4167 138.057 33.875 137.859L34 137.859L34 139.375ZM32.8984 141.773C32.8984 141.32 32.7813 140.891 32.5469 140.484C32.3125 140.078 32.0078 139.784 31.6328 139.602L29.8984 139.602L29.8984 140.734C29.8984 142.505 30.4167 143.391 31.4531 143.391C31.9063 143.391 32.2604 143.24 32.5156 142.938C32.7708 142.635 32.8984 142.247 32.8984 141.773ZM25.5469 134.523L26.6094 134.477C25.7969 133.831 25.3906 132.987 25.3906 131.945C25.3906 130.159 26.3984 129.258 28.4141 129.242L34 129.242L34 130.688L28.4063 130.688C27.7969 130.693 27.3464 130.833 27.0547 131.109C26.763 131.38 26.6172 131.805 26.6172 132.383C26.6172 132.852 26.7422 133.263 26.9922 133.617C27.2422 133.971 27.5703 134.247 27.9766 134.445L34 134.445L34 135.891L25.5469 135.891L25.5469 134.523ZM25.5469 125.695L26.6094 125.648C25.7969 125.003 25.3906 124.159 25.3906 123.117C25.3906 121.331 26.3984 120.43 28.4141 120.414L34 120.414L34 121.859L28.4063 121.859C27.7969 121.865 27.3464 122.005 27.0547 122.281C26.763 122.552 26.6172 122.977 26.6172 123.555C26.6172 124.023 26.7422 124.435 26.9922 124.789C27.2422 125.143 27.5703 125.419 27.9766 125.617L34 125.617L34 127.063L25.5469 127.063L25.5469 125.695ZM34.1563 114.727C34.1563 115.872 33.7813 116.805 33.0313 117.523C32.276 118.242 31.2682 118.602 30.0078 118.602L29.7422 118.602C28.9036 118.602 28.1563 118.443 27.5 118.125C26.8385 117.802 26.3229 117.354 25.9531 116.781C25.5781 116.203 25.3906 115.578 25.3906 114.906C25.3906 113.807 25.7526 112.953 26.4766 112.344C27.2005 111.734 28.237 111.43 29.5859 111.43L30.1875 111.43L30.1875 117.156C31.0208 117.135 31.6953 116.893 32.2109 116.43C32.7214 115.961 32.9766 115.367 32.9766 114.648C32.9766 114.138 32.8724 113.706 32.6641 113.352C32.4557 112.997 32.1797 112.688 31.8359 112.422L32.5234 111.539C33.612 112.247 34.1563 113.31 34.1563 114.727ZM26.5781 114.906C26.5781 115.49 26.7917 115.979 27.2188 116.375C27.6406 116.771 28.2344 117.016 29 117.109L29 112.875L28.8906 112.875C28.1563 112.917 27.5885 113.115 27.1875 113.469C26.7813 113.823 26.5781 114.302 26.5781 114.906ZM34 108.18L34 109.625L22 109.625L22 108.18L34 108.18ZM31.7578 100.938C31.3672 100.938 31.0651 101.086 30.8516 101.383C30.6328 101.674 30.4453 102.188 30.2891 102.922C30.1328 103.651 29.9453 104.232 29.7266 104.664C29.5078 105.091 29.2474 105.409 28.9453 105.617C28.6432 105.82 28.2839 105.922 27.8672 105.922C27.1745 105.922 26.5885 105.63 26.1094 105.047C25.6302 104.458 25.3906 103.708 25.3906 102.797C25.3906 101.839 25.638 101.063 26.1328 100.469C26.6276 99.8698 27.2604 99.5703 28.0313 99.5703L28.0313 101.023C27.6354 101.023 27.2943 101.193 27.0078 101.531C26.7214 101.865 26.5781 102.286 26.5781 102.797C26.5781 103.323 26.6927 103.734 26.9219 104.031C27.151 104.328 27.4505 104.477 27.8203 104.477C28.1693 104.477 28.4323 104.339 28.6094 104.063C28.7865 103.786 28.9557 103.289 29.1172 102.57C29.2786 101.846 29.4714 101.26 29.6953 100.813C29.9193 100.365 30.1901 100.034 30.5078 99.8203C30.8203 99.6016 31.2031 99.4922 31.6563 99.4922C32.4115 99.4922 33.0182 99.7943 33.4766 100.398C33.9297 101.003 34.1563 101.786 34.1563 102.75C34.1563 103.427 34.0365 104.026 33.7969 104.547C33.5573 105.068 33.224 105.477 32.7969 105.773C32.3646 106.065 31.8984 106.211 31.3984 106.211L31.3984 104.766C31.8828 104.74 32.2682 104.547 32.5547 104.188C32.8359 103.823 32.9766 103.344 32.9766 102.75C32.9766 102.203 32.8672 101.766 32.6484 101.438C32.4245 101.104 32.1276 100.938 31.7578 100.938ZM29.4609 94.2734C30.6224 94.2734 31.737 94.4271 32.8047 94.7344C33.8672 95.0365 34.849 95.5026 35.75 96.1328C36.651 96.7578 37.2917 97.4141 37.6719 98.1016L36.7891 98.4063C36.1745 97.6042 35.2214 96.9609 33.9297 96.4766C32.6328 95.987 31.1953 95.737 29.6172 95.7266L29.3672 95.7266C28.2734 95.7266 27.2578 95.8411 26.3203 96.0703C25.3776 96.2995 24.5339 96.6198 23.7891 97.0313C23.0443 97.4375 22.4635 97.8958 22.0469 98.4063L21.1641 98.1016C21.5443 97.4141 22.1797 96.7604 23.0703 96.1406C23.9609 95.5156 24.9427 95.0495 26.0156 94.7422C27.0885 94.4297 28.237 94.2734 29.4609 94.2734Z" fill="black"/>
<path d="M443.749 28H435.364V26.8311L439.794 21.9092C440.45 21.165 440.901 20.5615 441.147 20.0986C441.399 19.6299 441.525 19.1465 441.525 18.6484C441.525 17.9805 441.323 17.4326 440.919 17.0049C440.515 16.5771 439.976 16.3633 439.302 16.3633C438.493 16.3633 437.863 16.5947 437.412 17.0576C436.967 17.5146 436.744 18.1533 436.744 18.9736H435.118C435.118 17.7959 435.496 16.8438 436.252 16.1172C437.014 15.3906 438.03 15.0273 439.302 15.0273C440.491 15.0273 441.432 15.3408 442.123 15.9678C442.814 16.5889 443.16 17.418 443.16 18.4551C443.16 19.7148 442.357 21.2148 440.752 22.9551L437.324 26.6729H443.749V28ZM453.496 22.542C453.496 24.4463 453.171 25.8613 452.521 26.7871C451.87 27.7129 450.854 28.1758 449.471 28.1758C448.105 28.1758 447.095 27.7246 446.438 26.8223C445.782 25.9141 445.442 24.5605 445.419 22.7617V20.5908C445.419 18.71 445.744 17.3125 446.395 16.3984C447.045 15.4844 448.064 15.0273 449.453 15.0273C450.83 15.0273 451.844 15.4697 452.494 16.3545C453.145 17.2334 453.479 18.5928 453.496 20.4326V22.542ZM451.87 20.3184C451.87 18.9414 451.677 17.9395 451.29 17.3125C450.903 16.6797 450.291 16.3633 449.453 16.3633C448.621 16.3633 448.015 16.6768 447.634 17.3037C447.253 17.9307 447.057 18.8945 447.045 20.1953V22.7969C447.045 24.1797 447.244 25.2021 447.643 25.8643C448.047 26.5205 448.656 26.8486 449.471 26.8486C450.273 26.8486 450.868 26.5381 451.255 25.917C451.647 25.2959 451.853 24.3174 451.87 22.9814V20.3184ZM455.438 17.6641C455.438 16.8965 455.682 16.2637 456.168 15.7656C456.66 15.2676 457.29 15.0186 458.058 15.0186C458.837 15.0186 459.467 15.2705 459.947 15.7744C460.434 16.2725 460.677 16.9199 460.677 17.7168V18.3408C460.677 19.1143 460.431 19.7471 459.938 20.2393C459.452 20.7256 458.831 20.9688 458.075 20.9688C457.313 20.9688 456.684 20.7256 456.186 20.2393C455.688 19.7471 455.438 19.0938 455.438 18.2793V17.6641ZM456.651 18.3408C456.651 18.7979 456.78 19.1758 457.038 19.4746C457.296 19.7676 457.642 19.9141 458.075 19.9141C458.491 19.9141 458.825 19.7705 459.077 19.4834C459.335 19.1963 459.464 18.8037 459.464 18.3057V17.6641C459.464 17.207 459.338 16.8291 459.086 16.5303C458.834 16.2314 458.491 16.082 458.058 16.082C457.624 16.082 457.281 16.2314 457.029 16.5303C456.777 16.8291 456.651 17.2187 456.651 17.6992V18.3408ZM461.67 24.8623C461.67 24.0947 461.913 23.4648 462.399 22.9727C462.892 22.4746 463.521 22.2256 464.289 22.2256C465.057 22.2256 465.687 22.4717 466.179 22.9639C466.671 23.4561 466.917 24.1094 466.917 24.9238V25.5479C466.917 26.3154 466.671 26.9482 466.179 27.4463C465.692 27.9385 465.068 28.1846 464.307 28.1846C463.545 28.1846 462.915 27.9414 462.417 27.4551C461.919 26.9629 461.67 26.3096 461.67 25.4951V24.8623ZM462.883 25.5479C462.883 26.0107 463.012 26.3916 463.27 26.6904C463.527 26.9834 463.873 27.1299 464.307 27.1299C464.729 27.1299 465.065 26.9863 465.317 26.6992C465.569 26.4062 465.695 26.0107 465.695 25.5127V24.8623C465.695 24.3994 465.566 24.0215 465.309 23.7285C465.057 23.4355 464.717 23.2891 464.289 23.2891C463.873 23.2891 463.533 23.4355 463.27 23.7285C463.012 24.0156 462.883 24.4053 462.883 24.8975V25.5479ZM458.444 27.0332L457.521 26.4531L463.771 16.4512L464.693 17.0312L458.444 27.0332Z" fill="black"/>
<path d="M435.654 110H434.02V99.1631L430.741 100.367V98.8906L435.399 97.1416H435.654V110ZM448.442 104.542C448.442 106.446 448.117 107.861 447.467 108.787C446.816 109.713 445.8 110.176 444.417 110.176C443.052 110.176 442.041 109.725 441.385 108.822C440.729 107.914 440.389 106.561 440.365 104.762V102.591C440.365 100.71 440.69 99.3125 441.341 98.3984C441.991 97.4844 443.011 97.0273 444.399 97.0273C445.776 97.0273 446.79 97.4697 447.44 98.3545C448.091 99.2334 448.425 100.593 448.442 102.433V104.542ZM446.816 102.318C446.816 100.941 446.623 99.9395 446.236 99.3125C445.85 98.6797 445.237 98.3633 444.399 98.3633C443.567 98.3633 442.961 98.6768 442.58 99.3037C442.199 99.9307 442.003 100.895 441.991 102.195V104.797C441.991 106.18 442.19 107.202 442.589 107.864C442.993 108.521 443.603 108.849 444.417 108.849C445.22 108.849 445.814 108.538 446.201 107.917C446.594 107.296 446.799 106.317 446.816 104.981V102.318ZM458.55 104.542C458.55 106.446 458.225 107.861 457.574 108.787C456.924 109.713 455.907 110.176 454.524 110.176C453.159 110.176 452.148 109.725 451.492 108.822C450.836 107.914 450.496 106.561 450.473 104.762V102.591C450.473 100.71 450.798 99.3125 451.448 98.3984C452.099 97.4844 453.118 97.0273 454.507 97.0273C455.884 97.0273 456.897 97.4697 457.548 98.3545C458.198 99.2334 458.532 100.593 458.55 102.433V104.542ZM456.924 102.318C456.924 100.941 456.73 99.9395 456.344 99.3125C455.957 98.6797 455.345 98.3633 454.507 98.3633C453.675 98.3633 453.068 98.6768 452.688 99.3037C452.307 99.9307 452.11 100.895 452.099 102.195V104.797C452.099 106.18 452.298 107.202 452.696 107.864C453.101 108.521 453.71 108.849 454.524 108.849C455.327 108.849 455.922 108.538 456.309 107.917C456.701 107.296 456.906 106.317 456.924 104.981V102.318ZM460.492 99.6641C460.492 98.8965 460.735 98.2637 461.222 97.7656C461.714 97.2676 462.344 97.0186 463.111 97.0186C463.891 97.0186 464.521 97.2705 465.001 97.7744C465.487 98.2725 465.73 98.9199 465.73 99.7168V100.341C465.73 101.114 465.484 101.747 464.992 102.239C464.506 102.726 463.885 102.969 463.129 102.969C462.367 102.969 461.737 102.726 461.239 102.239C460.741 101.747 460.492 101.094 460.492 100.279V99.6641ZM461.705 100.341C461.705 100.798 461.834 101.176 462.092 101.475C462.35 101.768 462.695 101.914 463.129 101.914C463.545 101.914 463.879 101.771 464.131 101.483C464.389 101.196 464.518 100.804 464.518 100.306V99.6641C464.518 99.207 464.392 98.8291 464.14 98.5303C463.888 98.2314 463.545 98.082 463.111 98.082C462.678 98.082 462.335 98.2314 462.083 98.5303C461.831 98.8291 461.705 99.2188 461.705 99.6992V100.341ZM466.724 106.862C466.724 106.095 466.967 105.465 467.453 104.973C467.945 104.475 468.575 104.226 469.343 104.226C470.11 104.226 470.74 104.472 471.232 104.964C471.725 105.456 471.971 106.109 471.971 106.924V107.548C471.971 108.315 471.725 108.948 471.232 109.446C470.746 109.938 470.122 110.185 469.36 110.185C468.599 110.185 467.969 109.941 467.471 109.455C466.973 108.963 466.724 108.31 466.724 107.495V106.862ZM467.937 107.548C467.937 108.011 468.065 108.392 468.323 108.69C468.581 108.983 468.927 109.13 469.36 109.13C469.782 109.13 470.119 108.986 470.371 108.699C470.623 108.406 470.749 108.011 470.749 107.513V106.862C470.749 106.399 470.62 106.021 470.362 105.729C470.11 105.436 469.771 105.289 469.343 105.289C468.927 105.289 468.587 105.436 468.323 105.729C468.065 106.016 467.937 106.405 467.937 106.897V107.548ZM463.498 109.033L462.575 108.453L468.824 98.4512L469.747 99.0312L463.498 109.033Z" fill="black"/>
<path opacity="0.5" d="M453.442 176.542C453.442 178.446 453.117 179.861 452.467 180.787C451.816 181.713 450.8 182.176 449.417 182.176C448.052 182.176 447.041 181.725 446.385 180.822C445.729 179.914 445.389 178.561 445.365 176.762V174.591C445.365 172.71 445.69 171.312 446.341 170.398C446.991 169.484 448.011 169.027 449.399 169.027C450.776 169.027 451.79 169.47 452.44 170.354C453.091 171.233 453.425 172.593 453.442 174.433V176.542ZM451.816 174.318C451.816 172.941 451.623 171.939 451.236 171.312C450.85 170.68 450.237 170.363 449.399 170.363C448.567 170.363 447.961 170.677 447.58 171.304C447.199 171.931 447.003 172.895 446.991 174.195V176.797C446.991 178.18 447.19 179.202 447.589 179.864C447.993 180.521 448.603 180.849 449.417 180.849C450.22 180.849 450.814 180.538 451.201 179.917C451.594 179.296 451.799 178.317 451.816 176.981V174.318ZM455.385 171.664C455.385 170.896 455.628 170.264 456.114 169.766C456.606 169.268 457.236 169.019 458.004 169.019C458.783 169.019 459.413 169.271 459.894 169.774C460.38 170.272 460.623 170.92 460.623 171.717V172.341C460.623 173.114 460.377 173.747 459.885 174.239C459.398 174.726 458.777 174.969 458.021 174.969C457.26 174.969 456.63 174.726 456.132 174.239C455.634 173.747 455.385 173.094 455.385 172.279V171.664ZM456.598 172.341C456.598 172.798 456.727 173.176 456.984 173.475C457.242 173.768 457.588 173.914 458.021 173.914C458.438 173.914 458.771 173.771 459.023 173.483C459.281 173.196 459.41 172.804 459.41 172.306V171.664C459.41 171.207 459.284 170.829 459.032 170.53C458.78 170.231 458.438 170.082 458.004 170.082C457.57 170.082 457.228 170.231 456.976 170.53C456.724 170.829 456.598 171.219 456.598 171.699V172.341ZM461.616 178.862C461.616 178.095 461.859 177.465 462.346 176.973C462.838 176.475 463.468 176.226 464.235 176.226C465.003 176.226 465.633 176.472 466.125 176.964C466.617 177.456 466.863 178.109 466.863 178.924V179.548C466.863 180.315 466.617 180.948 466.125 181.446C465.639 181.938 465.015 182.185 464.253 182.185C463.491 182.185 462.861 181.941 462.363 181.455C461.865 180.963 461.616 180.31 461.616 179.495V178.862ZM462.829 179.548C462.829 180.011 462.958 180.392 463.216 180.69C463.474 180.983 463.819 181.13 464.253 181.13C464.675 181.13 465.012 180.986 465.264 180.699C465.516 180.406 465.642 180.011 465.642 179.513V178.862C465.642 178.399 465.513 178.021 465.255 177.729C465.003 177.436 464.663 177.289 464.235 177.289C463.819 177.289 463.479 177.436 463.216 177.729C462.958 178.016 462.829 178.405 462.829 178.897V179.548ZM458.391 181.033L457.468 180.453L463.717 170.451L464.64 171.031L458.391 181.033Z" fill="black"/>
<path d="M447.229 257.702H449.004V259.029H447.229V262H445.594V259.029H439.767V258.071L445.497 249.203H447.229V257.702ZM441.612 257.702H445.594V251.427L445.4 251.778L441.612 257.702ZM458.496 256.542C458.496 258.446 458.171 259.861 457.521 260.787C456.87 261.713 455.854 262.176 454.471 262.176C453.105 262.176 452.095 261.725 451.438 260.822C450.782 259.914 450.442 258.561 450.419 256.762V254.591C450.419 252.71 450.744 251.312 451.395 250.398C452.045 249.484 453.064 249.027 454.453 249.027C455.83 249.027 456.844 249.47 457.494 250.354C458.145 251.233 458.479 252.593 458.496 254.433V256.542ZM456.87 254.318C456.87 252.941 456.677 251.939 456.29 251.312C455.903 250.68 455.291 250.363 454.453 250.363C453.621 250.363 453.015 250.677 452.634 251.304C452.253 251.931 452.057 252.895 452.045 254.195V256.797C452.045 258.18 452.244 259.202 452.643 259.864C453.047 260.521 453.656 260.849 454.471 260.849C455.273 260.849 455.868 260.538 456.255 259.917C456.647 259.296 456.853 258.317 456.87 256.981V254.318ZM460.438 251.664C460.438 250.896 460.682 250.264 461.168 249.766C461.66 249.268 462.29 249.019 463.058 249.019C463.837 249.019 464.467 249.271 464.947 249.774C465.434 250.272 465.677 250.92 465.677 251.717V252.341C465.677 253.114 465.431 253.747 464.938 254.239C464.452 254.726 463.831 254.969 463.075 254.969C462.313 254.969 461.684 254.726 461.186 254.239C460.688 253.747 460.438 253.094 460.438 252.279V251.664ZM461.651 252.341C461.651 252.798 461.78 253.176 462.038 253.475C462.296 253.768 462.642 253.914 463.075 253.914C463.491 253.914 463.825 253.771 464.077 253.483C464.335 253.196 464.464 252.804 464.464 252.306V251.664C464.464 251.207 464.338 250.829 464.086 250.53C463.834 250.231 463.491 250.082 463.058 250.082C462.624 250.082 462.281 250.231 462.029 250.53C461.777 250.829 461.651 251.219 461.651 251.699V252.341ZM466.67 258.862C466.67 258.095 466.913 257.465 467.399 256.973C467.892 256.475 468.521 256.226 469.289 256.226C470.057 256.226 470.687 256.472 471.179 256.964C471.671 257.456 471.917 258.109 471.917 258.924V259.548C471.917 260.315 471.671 260.948 471.179 261.446C470.692 261.938 470.068 262.185 469.307 262.185C468.545 262.185 467.915 261.941 467.417 261.455C466.919 260.963 466.67 260.31 466.67 259.495V258.862ZM467.883 259.548C467.883 260.011 468.012 260.392 468.27 260.69C468.527 260.983 468.873 261.13 469.307 261.13C469.729 261.13 470.065 260.986 470.317 260.699C470.569 260.406 470.695 260.011 470.695 259.513V258.862C470.695 258.399 470.566 258.021 470.309 257.729C470.057 257.436 469.717 257.289 469.289 257.289C468.873 257.289 468.533 257.436 468.27 257.729C468.012 258.016 467.883 258.405 467.883 258.897V259.548ZM463.444 261.033L462.521 260.453L468.771 250.451L469.693 251.031L463.444 261.033Z" fill="black"/>
<path opacity="0.5" d="M453.442 334.542C453.442 336.446 453.117 337.861 452.467 338.787C451.816 339.713 450.8 340.176 449.417 340.176C448.052 340.176 447.041 339.725 446.385 338.822C445.729 337.914 445.389 336.561 445.365 334.762V332.591C445.365 330.71 445.69 329.312 446.341 328.398C446.991 327.484 448.011 327.027 449.399 327.027C450.776 327.027 451.79 327.47 452.44 328.354C453.091 329.233 453.425 330.593 453.442 332.433V334.542ZM451.816 332.318C451.816 330.941 451.623 329.939 451.236 329.312C450.85 328.68 450.237 328.363 449.399 328.363C448.567 328.363 447.961 328.677 447.58 329.304C447.199 329.931 447.003 330.895 446.991 332.195V334.797C446.991 336.18 447.19 337.202 447.589 337.864C447.993 338.521 448.603 338.849 449.417 338.849C450.22 338.849 450.814 338.538 451.201 337.917C451.594 337.296 451.799 336.317 451.816 334.981V332.318ZM455.385 329.664C455.385 328.896 455.628 328.264 456.114 327.766C456.606 327.268 457.236 327.019 458.004 327.019C458.783 327.019 459.413 327.271 459.894 327.774C460.38 328.272 460.623 328.92 460.623 329.717V330.341C460.623 331.114 460.377 331.747 459.885 332.239C459.398 332.726 458.777 332.969 458.021 332.969C457.26 332.969 456.63 332.726 456.132 332.239C455.634 331.747 455.385 331.094 455.385 330.279V329.664ZM456.598 330.341C456.598 330.798 456.727 331.176 456.984 331.475C457.242 331.768 457.588 331.914 458.021 331.914C458.438 331.914 458.771 331.771 459.023 331.483C459.281 331.196 459.41 330.804 459.41 330.306V329.664C459.41 329.207 459.284 328.829 459.032 328.53C458.78 328.231 458.438 328.082 458.004 328.082C457.57 328.082 457.228 328.231 456.976 328.53C456.724 328.829 456.598 329.219 456.598 329.699V330.341ZM461.616 336.862C461.616 336.095 461.859 335.465 462.346 334.973C462.838 334.475 463.468 334.226 464.235 334.226C465.003 334.226 465.633 334.472 466.125 334.964C466.617 335.456 466.863 336.109 466.863 336.924V337.548C466.863 338.315 466.617 338.948 466.125 339.446C465.639 339.938 465.015 340.185 464.253 340.185C463.491 340.185 462.861 339.941 462.363 339.455C461.865 338.963 461.616 338.31 461.616 337.495V336.862ZM462.829 337.548C462.829 338.011 462.958 338.392 463.216 338.69C463.474 338.983 463.819 339.13 464.253 339.13C464.675 339.13 465.012 338.986 465.264 338.699C465.516 338.406 465.642 338.011 465.642 337.513V336.862C465.642 336.399 465.513 336.021 465.255 335.729C465.003 335.436 464.663 335.289 464.235 335.289C463.819 335.289 463.479 335.436 463.216 335.729C462.958 336.016 462.829 336.405 462.829 336.897V337.548ZM458.391 339.033L457.468 338.453L463.717 328.451L464.64 329.031L458.391 339.033Z" fill="black"/>
<path d="M546 245.234C547.521 245.093 549.064 245.02 550.61 245.015C575.612 244.97 594.424 266.811 620.616 266.761C650.299 266.707 664.38 245.209 694.262 245.259C720.014 245.308 736.946 266.906 763.858 266.876C792.861 266.841 806.362 245.139 836.114 245.139C862.436 245.139 878.798 266.771 907.67 266.771C930.672 266.771 954.824 244.911 978.216 245C1004.9 245.09 1023.17 266.995 1049.85 266.861C1078.85 266.697 1092.75 245.393 1121.59 245.03C1146.71 244.712 1165.35 266.94 1193.12 266.861C1219.13 266.786 1236.9 245.095 1264.4 245.095C1293.4 245.095 1306.49 266.955 1335.31 266.861C1348.93 266.821 1361.79 260.949 1367.92 257.461L1369.15 256.86C1376.75 252.289 1392.91 245.154 1407.66 245.129C1432.66 245.085 1451.48 266.925 1477.67 266.876C1507.35 266.821 1521.44 245.323 1551.32 245.373C1577.07 245.423 1598.1 267.03 1625 267" stroke="#1956EE" stroke-width="3" stroke-miterlimit="10"/>
<path d="M546 76.0504C561.1 75.9504 572.43 123.68 588.2 123.57C606.11 123.45 614.6 76.4704 632.63 76.5704C648.15 76.6704 658.37 123.86 674.63 123.8C692.15 123.73 700.26 76.3004 718.21 76.3004C734.09 76.3004 743.95 123.57 761.37 123.57C775.26 123.57 789.8 75.8404 803.91 76.0004C820 76.1904 831.03 124.06 847.12 123.73C864.63 123.37 872.99 76.8204 890.38 76.0304C905.53 75.3404 916.78 123.91 933.53 123.73C949.18 123.57 959.93 76.1704 976.53 76.1704C994 76.1704 1001.91 123.9 1019.29 123.73C1027.51 123.65 1035.29 110.81 1038.96 103.2L1039.71 101.88C1044.29 91.8804 1054.03 76.3104 1062.93 76.2504C1078.03 76.1504 1089.36 123.88 1105.13 123.77C1123.04 123.65 1131.53 76.6704 1149.55 76.7704C1165.08 76.8704 1175.3 124.06 1191.55 123.99C1209.01 123.96 1217.12 76.5504 1235.07 76.5504C1250.94 76.5504 1260.81 123.81 1278.23 123.81C1292.12 123.81 1306.66 76.0904 1320.77 76.2504C1336.86 76.4404 1347.89 124.31 1363.98 123.98C1373.91 123.77 1392.76 76.3604 1408.81 76.3004C1423.91 76.2404 1435.24 123.92 1451.01 123.81C1468.91 123.69 1477.41 76.7204 1495.43 76.8104C1510.96 76.9104 1521.18 124.11 1537.43 124.04C1554.94 123.97 1563.06 76.5504 1581 76.5404C1596.88 76.5404 1609 123.8 1626.38 123.8" stroke="#FF8A00" stroke-width="3" stroke-miterlimit="10"/>
<path d="M542 24.3708C544.569 22.7192 548.818 21.0199 552.277 21.012C559.865 20.9921 565.564 29.881 573.482 29.8592C582.479 29.8295 586.748 21.0893 595.806 21.1052C603.603 21.125 608.732 29.9127 616.89 29.8989C625.688 29.887 629.766 21.0556 638.784 21.0556C646.782 21.0556 651.711 29.8572 660.468 29.8572C667.466 29.8572 674.754 20.9703 681.842 21.0001C689.92 21.0358 695.459 29.9484 703.547 29.887C712.344 29.8196 716.543 21.1627 725.281 21.006C732.889 20.8771 738.537 29.9286 746.955 29.887C754.823 29.8572 760.221 21.0318 768.549 21.0318C777.327 21.0318 781.306 29.9187 790.033 29.887C794.162 29.8731 798.031 27.4818 799.921 26.0641L800.291 25.8183C802.59 23.9584 807.489 21.0596 811.958 21.0457C819.546 21.0278 825.234 29.9147 833.162 29.8949C842.159 29.8711 846.428 21.125 855.476 21.1468C863.284 21.1646 868.412 29.9524 876.56 29.9405C885.368 29.9326 889.477 21.1052 898.474 21.1052C906.472 21.1052 911.411 29.9068 920.159 29.9068C927.157 29.9068 934.445 21.0199 941.533 21.0496C949.621 21.0853 955.159 30 963.237 29.9385C968.236 29.9008 977.703 21.0695 985.761 21.0596C993.349 21.0477 999.037 29.9266 1006.97 29.9068C1015.96 29.885 1020.23 21.1369 1029.28 21.1587C1037.09 21.1765 1042.22 29.9663 1050.36 29.9524C1059.15 29.9365 1063.23 21.1052 1072.24 21.1052C1080.24 21.1052 1085.17 29.9068 1093.92 29.9068C1100.92 29.9068 1108.21 21.0179 1115.3 21.0496C1123.38 21.0853 1128.92 29.998 1137 29.9365C1145.8 29.8691 1150 21.2122 1158.73 21.0556C1166.4 20.9267 1172 29.9702 1180.4 29.9365C1188.26 29.9068 1193.67 21.0794 1201.99 21.0794C1210.77 21.0794 1214.75 29.9683 1223.48 29.9365C1227.61 29.9227 1231.47 27.5314 1233.35 26.1137L1233.73 25.8678C1236.05 24.008 1240.95 21.1052 1245.38 21.1052C1252.97 21.0873 1258.66 29.9742 1266.59 29.9544C1275.58 29.9306 1279.84 21.1825 1288.9 21.2043C1296.7 21.2241 1301.84 30.0119 1309.98 30C1318.78 29.9861 1322.86 21.1547 1331.88 21.1547C1339.88 21.1547 1344.81 29.9564 1353.56 29.9564C1360.56 29.9564 1367.85 21.0695 1374.94 21.0992C1383.02 21.1349 1387.56 29.9484 1396.64 29.9881C1404.91 30.0238 1412.17 21.0972 1418.81 21.1012C1426.4 21.1012 1432.09 29.9702 1440.02 29.9504C1449.02 29.9266 1453.29 21.1805 1462.33 21.2023C1470.14 21.2202 1475.27 30.0079 1483.43 29.996C1492.31 29.9722 1496.31 21.1409 1505.31 21.1409C1513.31 21.1409 1518.25 29.9425 1527 29.9425C1533.99 29.9425 1541.28 21.0556 1548.37 21.0873C1556.46 21.121 1562 30.0357 1570.08 29.9742C1578.88 29.9068 1583.08 21.2499 1591.82 21.0913C1599.43 20.9644 1605.07 30.0139 1613.49 29.9742C1616.6 29.9623 1619.33 28.5744 1622 26.9009" stroke="#EECD30" stroke-width="3" stroke-miterlimit="10"/>
<path d="M546 245.234C547.521 245.093 549.064 245.02 550.61 245.015C575.612 244.97 594.424 266.811 620.616 266.761C650.299 266.707 664.38 245.209 694.262 245.259C720.014 245.308 736.946 266.906 763.858 266.876C792.861 266.841 806.362 245.139 836.114 245.139C862.436 245.139 878.798 266.771 907.67 266.771C930.672 266.771 954.824 244.911 978.216 245C1004.9 245.09 1023.17 266.995 1049.85 266.861C1078.85 266.697 1092.75 245.393 1121.59 245.03C1146.71 244.712 1165.35 266.94 1193.12 266.861C1219.13 266.786 1236.9 245.095 1264.4 245.095C1293.4 245.095 1306.49 266.955 1335.31 266.861C1348.93 266.821 1361.79 260.949 1367.92 257.461L1369.15 256.86C1376.75 252.289 1392.91 245.154 1407.66 245.129C1432.66 245.085 1451.48 266.925 1477.67 266.876C1507.35 266.821 1521.44 245.323 1551.32 245.373C1577.07 245.423 1598.1 267.03 1625 267" stroke="#1956EE" stroke-width="3" stroke-miterlimit="10"/>
<path d="M546 76.0504C561.1 75.9504 572.43 123.68 588.2 123.57C606.11 123.45 614.6 76.4704 632.63 76.5704C648.15 76.6704 658.37 123.86 674.63 123.8C692.15 123.73 700.26 76.3004 718.21 76.3004C734.09 76.3004 743.95 123.57 761.37 123.57C775.26 123.57 789.8 75.8404 803.91 76.0004C820 76.1904 831.03 124.06 847.12 123.73C864.63 123.37 872.99 76.8204 890.38 76.0304C905.53 75.3404 916.78 123.91 933.53 123.73C949.18 123.57 959.93 76.1704 976.53 76.1704C994 76.1704 1001.91 123.9 1019.29 123.73C1027.51 123.65 1035.29 110.81 1038.96 103.2L1039.71 101.88C1044.29 91.8804 1054.03 76.3104 1062.93 76.2504C1078.03 76.1504 1089.36 123.88 1105.13 123.77C1123.04 123.65 1131.53 76.6704 1149.55 76.7704C1165.08 76.8704 1175.3 124.06 1191.55 123.99C1209.01 123.96 1217.12 76.5504 1235.07 76.5504C1250.94 76.5504 1260.81 123.81 1278.23 123.81C1292.12 123.81 1306.66 76.0904 1320.77 76.2504C1336.86 76.4404 1347.89 124.31 1363.98 123.98C1373.91 123.77 1392.76 76.3604 1408.81 76.3004C1423.91 76.2404 1435.24 123.92 1451.01 123.81C1468.91 123.69 1477.41 76.7204 1495.43 76.8104C1510.96 76.9104 1521.18 124.11 1537.43 124.04C1554.94 123.97 1563.06 76.5504 1581 76.5404C1596.88 76.5404 1609 123.8 1626.38 123.8" stroke="#FF8A00" stroke-width="3" stroke-miterlimit="10"/>
<path d="M542 24.3708C544.569 22.7192 548.818 21.0199 552.277 21.012C559.865 20.9921 565.564 29.881 573.482 29.8592C582.479 29.8295 586.748 21.0893 595.806 21.1052C603.603 21.125 608.732 29.9127 616.89 29.8989C625.688 29.887 629.766 21.0556 638.784 21.0556C646.782 21.0556 651.711 29.8572 660.468 29.8572C667.466 29.8572 674.754 20.9703 681.842 21.0001C689.92 21.0358 695.459 29.9484 703.547 29.887C712.344 29.8196 716.543 21.1627 725.281 21.006C732.889 20.8771 738.537 29.9286 746.955 29.887C754.823 29.8572 760.221 21.0318 768.549 21.0318C777.327 21.0318 781.306 29.9187 790.033 29.887C794.162 29.8731 798.031 27.4818 799.921 26.0641L800.291 25.8183C802.59 23.9584 807.489 21.0596 811.958 21.0457C819.546 21.0278 825.234 29.9147 833.162 29.8949C842.159 29.8711 846.428 21.125 855.476 21.1468C863.284 21.1646 868.412 29.9524 876.56 29.9405C885.368 29.9326 889.477 21.1052 898.474 21.1052C906.472 21.1052 911.411 29.9068 920.159 29.9068C927.157 29.9068 934.445 21.0199 941.533 21.0496C949.621 21.0853 955.159 30 963.237 29.9385C968.236 29.9008 977.703 21.0695 985.761 21.0596C993.349 21.0477 999.037 29.9266 1006.97 29.9068C1015.96 29.885 1020.23 21.1369 1029.28 21.1587C1037.09 21.1765 1042.22 29.9663 1050.36 29.9524C1059.15 29.9365 1063.23 21.1052 1072.24 21.1052C1080.24 21.1052 1085.17 29.9068 1093.92 29.9068C1100.92 29.9068 1108.21 21.0179 1115.3 21.0496C1123.38 21.0853 1128.92 29.998 1137 29.9365C1145.8 29.8691 1150 21.2122 1158.73 21.0556C1166.4 20.9267 1172 29.9702 1180.4 29.9365C1188.26 29.9068 1193.67 21.0794 1201.99 21.0794C1210.77 21.0794 1214.75 29.9683 1223.48 29.9365C1227.61 29.9227 1231.47 27.5314 1233.35 26.1137L1233.73 25.8678C1236.05 24.008 1240.95 21.1052 1245.38 21.1052C1252.97 21.0873 1258.66 29.9742 1266.59 29.9544C1275.58 29.9306 1279.84 21.1825 1288.9 21.2043C1296.7 21.2241 1301.84 30.0119 1309.98 30C1318.78 29.9861 1322.86 21.1547 1331.88 21.1547C1339.88 21.1547 1344.81 29.9564 1353.56 29.9564C1360.56 29.9564 1367.85 21.0695 1374.94 21.0992C1383.02 21.1349 1387.56 29.9484 1396.64 29.9881C1404.91 30.0238 1412.17 21.0972 1418.81 21.1012C1426.4 21.1012 1432.09 29.9702 1440.02 29.9504C1449.02 29.9266 1453.29 21.1805 1462.33 21.2023C1470.14 21.2202 1475.27 30.0079 1483.43 29.996C1492.31 29.9722 1496.31 21.1409 1505.31 21.1409C1513.31 21.1409 1518.25 29.9425 1527 29.9425C1533.99 29.9425 1541.28 21.0556 1548.37 21.0873C1556.46 21.121 1562 30.0357 1570.08 29.9742C1578.88 29.9068 1583.08 21.2499 1591.82 21.0913C1599.43 20.9644 1605.07 30.0139 1613.49 29.9742C1616.6 29.9623 1619.33 28.5744 1622 26.9009" stroke="#EECD30" stroke-width="3" stroke-miterlimit="10"/>
<path d="M796.453 354.691H781.793V351.861H796.453V354.691ZM796.453 361.986H781.793V359.174H796.453V361.986Z" fill="black"/>
<mask id="mask0" mask-type="alpha" maskUnits="userSpaceOnUse" x="55" y="0" width="278" height="350">
<rect x="55" width="278" height="350" fill="#C4C4C4"/>
</mask>
<g mask="url(#mask0)">
<path d="M61.43 300.26C68.4319 299.479 75.4751 299.128 82.52 299.21C156.13 299.11 211.33 347.08 288.22 346.97C375.48 346.84 416.89 299.63 504.73 299.75C580.42 299.85 630.21 347.28 709.3 347.21C794.69 347.14 834.3 299.48 921.71 299.48C999.1 299.48 1055.49 348.91 1140.37 348.91" stroke="#6A29FB" stroke-width="3" stroke-miterlimit="10"/>
<path d="M62.14 229.72C63.6605 229.437 65.2033 229.289 66.75 229.28C91.75 229.19 110.56 273.15 136.75 273.05C166.43 272.94 180.51 229.67 210.39 229.77C236.14 229.87 253.07 273.34 279.98 273.28C308.98 273.21 322.48 229.53 352.23 229.53C378.55 229.53 394.91 273.07 423.78 273.07C446.78 273.07 470.93 229.07 494.32 229.25C521 229.43 539.27 273.52 565.95 273.25C594.95 272.92 608.84 230.04 637.68 229.31C662.8 228.67 681.44 273.41 709.21 273.25C735.21 273.1 752.98 229.44 780.48 229.44C809.48 229.44 822.57 273.44 851.38 273.25C865 273.17 877.86 261.35 883.99 254.33L885.22 253.12C892.82 243.92 908.98 229.56 923.73 229.51C948.73 229.42 967.54 273.38 993.73 273.28C1023.41 273.17 1037.5 229.9 1067.38 230C1093.12 230.1 1114.15 273.59 1141.05 273.53" stroke="#1956EE" stroke-width="3" stroke-miterlimit="10"/>
<path d="M61.68 151.53C80.55 151.43 96.24 196.17 115.94 196.07C138.31 195.95 148.94 151.99 171.44 152.07C190.83 152.17 203.6 196.33 223.87 196.27C245.75 196.2 255.87 151.82 278.31 151.82C298.15 151.82 310.47 196.05 332.23 196.05C349.58 196.05 367.75 151.39 385.38 151.54C405.48 151.72 419.25 196.54 439.38 196.2C461.26 195.87 471.7 152.31 493.38 151.57C512.31 150.93 526.38 196.37 547.28 196.2C566.84 196.05 580.28 151.7 600.98 151.7C622.82 151.7 632.7 196.36 654.41 196.2C664.68 196.13 674.41 184.12 678.98 176.99L679.91 175.75C685.63 166.41 697.81 151.83 708.91 151.75C727.78 151.66 741.91 196.32 761.64 196.22C784 196.1 794.64 152.15 817.13 152.22C836.53 152.31 849.29 196.47 869.56 196.41C891.45 196.34 901.56 151.97 924 151.97C943.84 151.97 956.17 196.19 977.92 196.19C995.28 196.19 1013.45 151.53 1031.07 151.69C1051.18 151.86 1064.95 196.69 1085.07 196.35C1097.47 196.16 1121.07 151.78 1141.07 151.73" stroke="#009C48" stroke-width="3" stroke-miterlimit="10"/>
<path d="M60.5 73.5001C75.6 73.4001 86.93 121.13 102.7 121.02C120.61 120.9 129.1 73.9201 147.13 74.0201C162.65 74.1201 172.87 121.31 189.13 121.25C206.65 121.18 214.76 73.7501 232.71 73.7501C248.59 73.7501 258.45 121.02 275.87 121.02C289.76 121.02 304.3 73.2901 318.41 73.4501C334.5 73.6401 345.53 121.51 361.62 121.18C379.13 120.82 387.49 74.2701 404.88 73.4801C420.03 72.7901 431.28 121.36 448.03 121.18C463.68 121.02 474.43 73.6201 491.03 73.6201C508.5 73.6201 516.41 121.35 533.79 121.18C542.01 121.1 549.79 108.26 553.46 100.65L554.21 99.3301C558.79 89.3301 568.53 73.7601 577.43 73.7001C592.53 73.6001 603.86 121.33 619.63 121.22C637.54 121.1 646.03 74.1201 664.05 74.2201C679.58 74.3201 689.8 121.51 706.05 121.44C723.51 121.41 731.62 74.0001 749.57 74.0001C765.44 74.0001 775.31 121.26 792.73 121.26C806.62 121.26 821.16 73.5401 835.27 73.7001C851.36 73.8901 862.39 121.76 878.48 121.43C888.41 121.22 907.26 73.8101 923.31 73.7501C938.41 73.6901 949.74 121.37 965.51 121.26C983.41 121.14 991.91 74.1701 1009.93 74.2601C1025.46 74.3601 1035.68 121.56 1051.93 121.49C1069.44 121.42 1077.56 74.0001 1095.5 73.9901C1111.38 73.9901 1123.5 121.25 1140.88 121.25" stroke="#FF8A00" stroke-width="3" stroke-miterlimit="10"/>
<path d="M61.43 18.4701C64 10.1401 68.25 1.5701 71.71 1.5301C79.3 1.4301 85 46.2601 92.92 46.1501C101.92 46.0001 106.19 1.9201 115.25 2.0001C123.05 2.1001 128.18 46.4201 136.34 46.3501C145.14 46.2901 149.22 1.7501 158.24 1.7501C166.24 1.7501 171.17 46.1401 179.93 46.1401C186.93 46.1401 194.22 1.3201 201.31 1.4701C209.39 1.6501 214.93 46.6001 223.02 46.2901C231.82 45.9501 236.02 2.2901 244.76 1.5001C252.37 0.850102 258.02 46.5001 266.44 46.2901C274.31 46.1401 279.71 1.6301 288.04 1.6301C296.82 1.6301 300.8 46.4501 309.53 46.2901C313.66 46.2201 317.53 34.1601 319.42 27.0101L319.79 25.7701C322.09 16.3901 326.99 1.7701 331.46 1.7001C339.05 1.6101 344.74 46.4301 352.67 46.3301C361.67 46.2101 365.94 2.1001 374.99 2.2101C382.8 2.3001 387.93 46.6201 396.08 46.5601C404.89 46.5201 409 2.0001 418 2.0001C426 2.0001 430.94 46.3901 439.69 46.3901C446.69 46.3901 453.98 1.5701 461.07 1.7201C469.16 1.9001 474.7 46.8601 482.78 46.5501C487.78 46.3601 497.25 1.8201 505.31 1.7701C512.9 1.7101 518.59 46.4901 526.52 46.3901C535.52 46.2801 539.79 2.1601 548.84 2.2701C556.65 2.3601 561.78 46.6901 569.93 46.6201C578.72 46.5401 582.8 2.0001 591.81 2.0001C599.81 2.0001 604.75 46.3901 613.5 46.3901C620.5 46.3901 627.79 1.5601 634.88 1.7201C642.97 1.9001 648.51 46.8501 656.59 46.5401C665.39 46.2001 669.59 2.5401 678.33 1.7501C686 1.1001 691.6 46.7101 700 46.5401C707.86 46.3901 713.27 1.8701 721.6 1.8701C730.38 1.8701 734.36 46.7001 743.09 46.5401C747.22 46.4701 751.09 34.4101 752.97 27.2601L753.35 26.0201C755.67 16.6401 760.57 2.0001 765 2.0001C772.59 1.9101 778.28 46.7301 786.21 46.6301C795.21 46.5101 799.47 2.3901 808.53 2.5001C816.33 2.6001 821.47 46.9201 829.62 46.8601C838.42 46.7901 842.5 2.2501 851.52 2.2501C859.52 2.2501 864.46 46.6401 873.21 46.6401C880.21 46.6401 887.5 1.8201 894.59 1.9701C902.68 2.1501 907.22 46.6001 916.3 46.8001C924.57 46.9801 931.83 1.9601 938.48 1.9801C946.07 1.9801 951.76 46.7101 959.69 46.6101C968.69 46.4901 972.96 2.3801 982.01 2.4901C989.82 2.5801 994.95 46.9001 1003.11 46.8401C1012 46.7201 1016 2.1801 1025 2.1801C1033 2.1801 1037.94 46.5701 1046.69 46.5701C1053.69 46.5701 1060.98 1.7501 1068.07 1.9101C1076.16 2.0801 1081.7 47.0401 1089.79 46.7301C1098.59 46.3901 1102.79 2.7301 1111.53 1.9301C1119.14 1.2901 1124.79 46.9301 1133.21 46.7301C1136.32 46.6701 1139.05 39.6701 1141.72 31.2301" stroke="#EECD30" stroke-width="3" stroke-miterlimit="10"/>
</g>
<path d="M544 426.769C549.429 432.223 561.039 447.408 564.046 464.524C567.053 481.639 576.575 485.918 580.96 485.918C583.048 485.708 588.978 487.428 595.994 495.986C604.764 506.683 621.052 489.693 623.557 432.432C625.562 386.624 644.23 421.107 653 426.769" stroke="#FF1493" stroke-width="3"/>
<path d="M653 426.769C658.429 432.223 670.039 447.408 673.046 464.524C676.053 481.639 685.575 485.918 689.96 485.918C692.048 485.708 697.978 487.428 704.994 495.986C713.764 506.683 730.052 489.693 732.557 432.432C734.562 386.624 753.23 421.107 762 426.769" stroke="#FF1493" stroke-width="3"/>
<path d="M979 425.769C984.429 431.223 996.039 446.408 999.046 463.524C1002.05 480.639 1011.57 484.918 1015.96 484.918C1018.05 484.708 1023.98 486.428 1030.99 494.986C1039.76 505.683 1056.05 488.693 1058.56 431.432C1060.56 385.624 1079.23 420.107 1088 425.769" stroke="#FF1493" stroke-width="3"/>
<path d="M762 426.769C767.429 432.223 779.039 447.408 782.046 464.524C785.053 481.639 794.575 485.918 798.96 485.918C801.048 485.708 806.978 487.428 813.994 495.986C822.764 506.683 839.052 489.693 841.557 432.432C843.562 386.624 862.23 421.107 871 426.769" stroke="#FF1493" stroke-width="3"/>
<path d="M871 426.769C876.429 432.223 888.039 447.408 891.046 464.524C894.053 481.639 903.575 485.918 907.96 485.918C910.048 485.708 915.978 487.428 922.994 495.986C931.764 506.683 948.052 489.693 950.557 432.432C952.562 386.624 971.23 421.107 980 426.769" stroke="#FF1493" stroke-width="3"/>
</g>
<defs>
<clipPath id="clip0">
<rect width="1089" height="500" fill="white"/>
</clipPath>
</defs>
</svg>
