<svg width="462" height="425" viewBox="0 0 462 425" fill="none" xmlns="http://www.w3.org/2000/svg">
<path d="M462 0H43V425H462V0Z" fill="white"/>
<path d="M103.799 15.3879H455.407V308.491H103.799V15.3879Z" stroke="#DDDDDD" stroke-miterlimit="10"/>
<path d="M103.799 308.491H455.407" stroke="#DDDDDD" stroke-miterlimit="10"/>
<path d="M103.799 235.216H455.407" stroke="#DDDDDD" stroke-miterlimit="10"/>
<path d="M103.799 161.94H455.407" stroke="#DDDDDD" stroke-miterlimit="10"/>
<path d="M103.799 88.6638H455.407" stroke="#DDDDDD" stroke-miterlimit="10"/>
<path d="M103.799 15.3879H455.407" stroke="#DDDDDD" stroke-miterlimit="10"/>
<path d="M174.121 308.491V315.819" stroke="#888888" stroke-miterlimit="10"/>
<path d="M244.442 308.491V315.819" stroke="#888888" stroke-miterlimit="10"/>
<path d="M314.764 308.491V315.819" stroke="#888888" stroke-miterlimit="10"/>
<path d="M385.086 308.491V315.819" stroke="#888888" stroke-miterlimit="10"/>
<path d="M131.274 369.609L134.029 372.365L133.101 373.293L126.064 366.254L128.659 363.658C129.429 362.888 130.228 362.482 131.056 362.44C131.888 362.395 132.627 362.696 133.275 363.344C133.958 364.027 134.27 364.768 134.212 365.568C134.154 366.361 133.727 367.155 132.932 367.951L131.274 369.609ZM130.515 368.85L132.183 367.182C132.679 366.686 132.943 366.19 132.975 365.693C133.004 365.194 132.798 364.723 132.357 364.282C131.938 363.863 131.47 363.66 130.955 363.673C130.439 363.685 129.946 363.917 129.476 364.369L127.756 366.09L130.515 368.85ZM142.375 364.016C142.221 363.964 141.995 363.822 141.699 363.59C141.715 364.438 141.434 365.15 140.858 365.727C140.342 366.243 139.773 366.522 139.152 366.564C138.53 366.599 137.995 366.393 137.547 365.945C137.003 365.4 136.787 364.772 136.899 364.059C137.012 363.341 137.444 362.606 138.195 361.855L139.065 360.985L138.654 360.574C138.341 360.261 138 360.106 137.629 360.109C137.255 360.109 136.887 360.292 136.522 360.656C136.204 360.975 136.017 361.323 135.962 361.7C135.907 362.077 135.994 362.38 136.223 362.609L135.324 363.508C135.063 363.247 134.903 362.904 134.845 362.478C134.787 362.047 134.845 361.602 135.019 361.144C135.197 360.683 135.475 360.263 135.856 359.882C136.458 359.28 137.082 358.959 137.726 358.92C138.367 358.878 138.958 359.115 139.5 359.631L141.906 362.038C142.386 362.519 142.829 362.839 143.235 363.001L143.313 363.078L142.375 364.016ZM140.21 364.818C140.49 364.538 140.684 364.2 140.79 363.803C140.896 363.407 140.89 363.036 140.771 362.691L139.698 361.618L138.997 362.319C137.901 363.415 137.674 364.283 138.316 364.925C138.596 365.205 138.908 365.331 139.253 365.302C139.598 365.273 139.917 365.112 140.21 364.818ZM142.631 354.903C142.473 355.016 142.316 355.151 142.158 355.309C141.571 355.895 141.423 356.543 141.713 357.252L145.425 360.965L144.531 361.86L139.301 356.629L140.171 355.758L140.79 356.348C140.616 355.588 140.798 354.938 141.336 354.4C141.51 354.226 141.665 354.116 141.8 354.071L142.631 354.903ZM150.92 355.468C150.765 355.417 150.54 355.275 150.243 355.043C150.259 355.891 149.979 356.603 149.402 357.18C148.887 357.695 148.318 357.974 147.696 358.016C147.074 358.052 146.54 357.845 146.092 357.397C145.547 356.853 145.331 356.224 145.444 355.512C145.557 354.793 145.989 354.058 146.739 353.307L147.609 352.437L147.198 352.026C146.886 351.714 146.544 351.559 146.174 351.562C145.8 351.562 145.431 351.744 145.067 352.108C144.748 352.427 144.561 352.776 144.507 353.153C144.452 353.53 144.539 353.833 144.767 354.061L143.869 354.961C143.608 354.7 143.448 354.356 143.39 353.931C143.332 353.499 143.39 353.054 143.564 352.597C143.741 352.136 144.02 351.715 144.4 351.335C145.003 350.732 145.626 350.411 146.271 350.373C146.912 350.331 147.503 350.568 148.044 351.083L150.451 353.491C150.931 353.971 151.374 354.292 151.78 354.453L151.857 354.53L150.92 355.468ZM148.755 356.271C149.035 355.99 149.228 355.652 149.335 355.256C149.441 354.859 149.435 354.489 149.315 354.144L148.242 353.07L147.542 353.771C146.446 354.867 146.219 355.736 146.86 356.377C147.14 356.658 147.453 356.783 147.798 356.754C148.142 356.725 148.461 356.564 148.755 356.271ZM148.687 347.24L149.291 347.796C149.223 346.961 149.515 346.218 150.166 345.567C150.897 344.836 151.675 344.618 152.5 344.915C152.423 344.489 152.445 344.06 152.568 343.629C152.694 343.193 152.946 342.786 153.327 342.405C154.474 341.258 155.664 341.282 156.898 342.478L160.402 345.983L159.508 346.877L156.057 343.426C155.683 343.052 155.319 342.858 154.965 342.845C154.607 342.829 154.227 343.023 153.824 343.426C153.493 343.757 153.317 344.133 153.298 344.552C153.275 344.968 153.414 345.361 153.713 345.732L157.183 349.203L156.284 350.102L152.858 346.674C152.097 345.914 151.345 345.906 150.601 346.65C150.014 347.237 149.863 347.888 150.147 348.603L153.965 352.423L153.07 353.317L147.841 348.086L148.687 347.24ZM164.022 342.555C163.313 343.264 162.504 343.609 161.596 343.59C160.684 343.567 159.838 343.166 159.058 342.386L158.894 342.222C158.375 341.703 158.011 341.142 157.802 340.539C157.593 339.93 157.551 339.334 157.676 338.751C157.802 338.161 158.073 337.658 158.488 337.242C159.168 336.562 159.92 336.258 160.745 336.328C161.57 336.399 162.4 336.852 163.234 337.687L163.606 338.059L160.064 341.603C160.592 342.106 161.159 342.373 161.765 342.405C162.371 342.431 162.896 342.222 163.34 341.777C163.656 341.461 163.859 341.129 163.949 340.781C164.04 340.433 164.061 340.07 164.012 339.693L164.984 339.572C165.219 340.684 164.898 341.679 164.022 342.555ZM159.223 337.977C158.862 338.338 158.691 338.773 158.711 339.282C158.727 339.788 158.943 340.307 159.358 340.839L161.978 338.219L161.91 338.151C161.43 337.722 160.956 337.494 160.489 337.465C160.019 337.432 159.597 337.603 159.223 337.977ZM161.721 331.668L162.988 332.935L163.964 331.958L164.655 332.649L163.679 333.626L166.922 336.87C167.131 337.079 167.332 337.194 167.526 337.213C167.716 337.229 167.916 337.133 168.125 336.923C168.228 336.82 168.351 336.659 168.492 336.44L169.217 337.165C169.047 337.465 168.85 337.726 168.628 337.948C168.228 338.348 167.806 338.528 167.361 338.489C166.917 338.451 166.472 338.209 166.028 337.764L162.785 334.52L161.833 335.473L161.141 334.781L162.094 333.829L160.827 332.562L161.721 331.668ZM168.343 329.183C168.185 329.296 168.027 329.431 167.869 329.589C167.283 330.176 167.134 330.824 167.424 331.533L171.136 335.245L170.242 336.14L165.013 330.909L165.883 330.039L166.501 330.629C166.327 329.868 166.509 329.218 167.047 328.68C167.221 328.506 167.376 328.397 167.511 328.351L168.343 329.183ZM174.567 331.813L173.673 332.707L168.444 327.476L169.338 326.582L174.567 331.813ZM166.985 326.161C166.84 326.016 166.761 325.85 166.748 325.663C166.738 325.473 166.82 325.291 166.994 325.117C167.168 324.943 167.35 324.861 167.54 324.871C167.73 324.88 167.898 324.958 168.043 325.103C168.188 325.248 168.264 325.414 168.27 325.601C168.277 325.788 168.193 325.968 168.019 326.142C167.845 326.316 167.664 326.4 167.477 326.393C167.294 326.384 167.13 326.306 166.985 326.161ZM177.467 327.646C177.786 327.327 177.968 326.951 178.013 326.519C178.058 326.087 177.949 325.713 177.685 325.398L178.53 324.551C178.814 324.867 178.996 325.256 179.077 325.717C179.157 326.178 179.118 326.648 178.961 327.128C178.806 327.605 178.551 328.021 178.197 328.376C177.485 329.088 176.681 329.418 175.785 329.367C174.89 329.309 174.029 328.867 173.205 328.042L173.055 327.892C172.546 327.383 172.186 326.837 171.977 326.253C171.768 325.67 171.727 325.095 171.856 324.527C171.988 323.957 172.293 323.433 172.77 322.956C173.356 322.37 174.018 322.058 174.756 322.023C175.497 321.984 176.161 322.233 176.747 322.768L175.901 323.614C175.537 323.301 175.131 323.153 174.683 323.169C174.236 323.178 173.842 323.353 173.504 323.691C173.05 324.145 172.861 324.663 172.939 325.243C173.016 325.817 173.364 326.413 173.983 327.032L174.152 327.201C174.754 327.804 175.342 328.144 175.916 328.221C176.489 328.298 177.006 328.106 177.467 327.646Z" fill="black"/>
<path d="M191.519 380.734C192.176 381.565 192.476 382.416 192.418 383.286C192.36 384.15 191.947 384.965 191.181 385.733C190.349 386.564 189.384 386.933 188.286 386.84C187.19 386.743 186.143 386.195 185.144 385.196L184.468 384.519C183.814 383.865 183.354 383.173 183.09 382.445C182.829 381.713 182.781 381.001 182.945 380.308C183.106 379.612 183.469 378.982 184.033 378.418C184.78 377.67 185.589 377.28 186.459 377.248C187.325 377.212 188.165 377.527 188.977 378.191L188.044 379.124C187.403 378.644 186.821 378.413 186.299 378.432C185.781 378.449 185.28 378.698 184.796 379.182C184.203 379.775 183.957 380.46 184.057 381.236C184.16 382.01 184.616 382.801 185.425 383.61L186.106 384.292C186.87 385.056 187.636 385.504 188.406 385.636C189.176 385.768 189.848 385.547 190.422 384.974C190.937 384.458 191.216 383.947 191.258 383.441C191.3 382.929 191.076 382.337 190.586 381.667L191.519 380.734ZM191.983 379.409C191.471 378.897 191.11 378.336 190.9 377.727C190.694 377.114 190.659 376.518 190.794 375.938C190.932 375.354 191.232 374.832 191.693 374.371C192.405 373.659 193.227 373.33 194.158 373.385C195.092 373.437 195.968 373.872 196.787 374.69L196.85 374.753C197.359 375.263 197.718 375.819 197.927 376.421C198.137 377.017 198.172 377.611 198.034 378.2C197.898 378.787 197.595 379.316 197.125 379.786C196.416 380.495 195.595 380.824 194.66 380.772C193.729 380.718 192.858 380.284 192.046 379.472L191.983 379.409ZM192.988 378.616C193.568 379.196 194.167 379.528 194.786 379.612C195.408 379.693 195.944 379.507 196.395 379.056C196.85 378.602 197.033 378.063 196.946 377.441C196.856 376.816 196.49 376.183 195.849 375.541C195.276 374.968 194.675 374.641 194.046 374.56C193.418 374.473 192.879 374.655 192.427 375.106C191.986 375.548 191.806 376.08 191.886 376.702C191.967 377.324 192.334 377.962 192.988 378.616ZM196.144 370.112L196.83 370.741C196.727 369.838 196.998 369.065 197.642 368.42C198.747 367.315 199.928 367.381 201.185 368.618L204.64 372.075L203.746 372.969L200.286 369.508C199.906 369.134 199.54 368.942 199.189 368.933C198.841 368.92 198.488 369.092 198.13 369.45C197.84 369.74 197.663 370.072 197.599 370.446C197.534 370.82 197.566 371.193 197.695 371.567L201.422 375.295L200.527 376.189L195.298 370.958L196.144 370.112ZM207.453 367.995C207.772 367.676 207.954 367.3 207.999 366.868C208.044 366.436 207.935 366.062 207.671 365.747L208.516 364.901C208.8 365.216 208.982 365.605 209.062 366.066C209.143 366.527 209.104 366.997 208.946 367.477C208.792 367.954 208.537 368.37 208.183 368.725C207.471 369.437 206.667 369.767 205.771 369.716C204.876 369.658 204.015 369.216 203.19 368.391L203.041 368.241C202.532 367.732 202.172 367.186 201.963 366.602C201.753 366.019 201.713 365.444 201.842 364.876C201.974 364.306 202.279 363.782 202.755 363.305C203.342 362.719 204.004 362.408 204.742 362.372C205.483 362.333 206.147 362.582 206.733 363.117L205.887 363.963C205.523 363.65 205.117 363.502 204.669 363.518C204.221 363.528 203.828 363.702 203.49 364.04C203.036 364.494 202.847 365.012 202.925 365.592C203.002 366.166 203.35 366.762 203.969 367.381L204.138 367.55C204.74 368.153 205.328 368.493 205.902 368.57C206.475 368.647 206.992 368.456 207.453 367.995ZM214.398 362.314C214.243 362.262 214.018 362.121 213.721 361.889C213.738 362.736 213.457 363.449 212.88 364.025C212.365 364.541 211.796 364.82 211.174 364.862C210.553 364.897 210.018 364.691 209.57 364.243C209.025 363.698 208.81 363.07 208.922 362.358C209.035 361.639 209.467 360.904 210.218 360.153L211.087 359.283L210.677 358.872C210.364 358.559 210.023 358.405 209.652 358.408C209.278 358.408 208.909 358.59 208.545 358.954C208.226 359.273 208.039 359.621 207.985 359.998C207.93 360.375 208.017 360.678 208.246 360.907L207.347 361.806C207.086 361.545 206.926 361.202 206.868 360.777C206.81 360.345 206.868 359.9 207.042 359.442C207.219 358.981 207.498 358.561 207.878 358.181C208.481 357.578 209.104 357.257 209.749 357.218C210.39 357.177 210.981 357.413 211.522 357.929L213.929 360.337C214.409 360.817 214.852 361.138 215.258 361.299L215.336 361.376L214.398 362.314ZM212.233 363.117C212.513 362.836 212.706 362.498 212.813 362.101C212.919 361.705 212.913 361.334 212.793 360.989L211.721 359.916L211.02 360.617C209.924 361.713 209.697 362.582 210.338 363.223C210.619 363.503 210.931 363.629 211.276 363.6C211.621 363.571 211.94 363.41 212.233 363.117ZM211.271 352.447L212.537 353.713L213.514 352.737L214.205 353.428L213.228 354.405L216.471 357.649C216.681 357.858 216.882 357.973 217.075 357.992C217.266 358.008 217.465 357.911 217.675 357.702C217.778 357.599 217.9 357.438 218.042 357.218L218.767 357.944C218.596 358.243 218.4 358.504 218.177 358.727C217.778 359.126 217.356 359.307 216.911 359.268C216.467 359.23 216.022 358.988 215.577 358.543L212.334 355.299L211.382 356.252L210.691 355.56L211.643 354.608L210.377 353.341L211.271 352.447ZM222.058 354.845C221.349 355.554 220.541 355.899 219.632 355.879C218.72 355.857 217.875 355.455 217.095 354.675L216.93 354.511C216.412 353.992 216.048 353.431 215.838 352.829C215.629 352.22 215.587 351.623 215.713 351.04C215.838 350.45 216.109 349.947 216.525 349.532C217.204 348.851 217.957 348.547 218.781 348.618C219.606 348.689 220.436 349.142 221.27 349.976L221.643 350.349L218.1 353.892C218.628 354.395 219.196 354.663 219.801 354.695C220.407 354.721 220.932 354.511 221.377 354.066C221.693 353.75 221.896 353.419 221.986 353.07C222.076 352.722 222.097 352.36 222.049 351.983L223.02 351.862C223.255 352.974 222.935 353.968 222.058 354.845ZM217.259 350.266C216.898 350.627 216.727 351.062 216.747 351.572C216.763 352.078 216.979 352.597 217.394 353.128L220.014 350.508L219.946 350.44C219.466 350.012 218.993 349.783 218.525 349.754C218.055 349.722 217.633 349.893 217.259 350.266ZM220.657 345.591L221.343 346.22C221.24 345.317 221.51 344.544 222.155 343.899C223.26 342.794 224.441 342.86 225.697 344.098L229.153 347.554L228.259 348.449L224.799 344.987C224.418 344.613 224.053 344.421 223.701 344.412C223.353 344.399 223.001 344.571 222.643 344.929C222.353 345.219 222.176 345.551 222.111 345.925C222.047 346.299 222.079 346.673 222.208 347.047L225.934 350.774L225.04 351.668L219.811 346.437L220.657 345.591ZM233.73 342.976C233.575 342.924 233.35 342.783 233.053 342.55C233.069 343.398 232.789 344.11 232.212 344.687C231.697 345.203 231.128 345.482 230.506 345.524C229.884 345.559 229.35 345.353 228.902 344.905C228.357 344.36 228.141 343.732 228.254 343.019C228.367 342.301 228.799 341.566 229.549 340.815L230.419 339.945L230.008 339.534C229.696 339.221 229.354 339.066 228.984 339.07C228.61 339.07 228.241 339.252 227.877 339.616C227.558 339.935 227.371 340.283 227.316 340.66C227.262 341.037 227.349 341.34 227.577 341.569L226.679 342.468C226.418 342.207 226.258 341.864 226.2 341.439C226.142 341.007 226.2 340.562 226.374 340.104C226.551 339.643 226.83 339.223 227.21 338.842C227.813 338.24 228.436 337.919 229.08 337.88C229.722 337.838 230.313 338.075 230.854 338.591L233.261 340.999C233.741 341.479 234.184 341.8 234.59 341.961L234.667 342.038L233.73 342.976ZM231.565 343.778C231.845 343.498 232.038 343.16 232.145 342.763C232.251 342.367 232.244 341.996 232.125 341.651L231.052 340.578L230.352 341.279C229.256 342.375 229.029 343.243 229.67 343.885C229.95 344.165 230.263 344.291 230.608 344.262C230.952 344.233 231.271 344.072 231.565 343.778ZM230.603 333.109L231.869 334.375L232.845 333.399L233.536 334.09L232.56 335.067L235.803 338.311C236.013 338.52 236.214 338.635 236.407 338.654C236.597 338.67 236.797 338.573 237.007 338.364C237.11 338.261 237.232 338.099 237.374 337.88L238.099 338.606C237.928 338.905 237.731 339.166 237.509 339.389C237.11 339.788 236.688 339.969 236.243 339.93C235.798 339.891 235.354 339.65 234.909 339.205L231.666 335.961L230.714 336.913L230.023 336.222L230.975 335.27L229.709 334.003L230.603 333.109ZM240.095 336.609L239.201 337.503L233.971 332.272L234.866 331.378L240.095 336.609ZM232.512 330.957C232.367 330.812 232.288 330.646 232.275 330.459C232.265 330.269 232.348 330.087 232.522 329.913C232.696 329.739 232.878 329.657 233.068 329.666C233.258 329.676 233.425 329.753 233.57 329.899C233.715 330.044 233.791 330.21 233.797 330.396C233.804 330.583 233.72 330.764 233.546 330.938C233.372 331.112 233.192 331.196 233.005 331.189C232.821 331.18 232.657 331.102 232.512 330.957ZM242.042 332.234L239.321 326.92L240.235 326.007L243.589 333.113L242.908 333.795L235.784 330.459L236.697 329.546L242.042 332.234ZM248.523 328.371C247.815 329.08 247.006 329.425 246.097 329.405C245.185 329.383 244.34 328.982 243.56 328.202L243.396 328.037C242.877 327.518 242.513 326.958 242.303 326.355C242.094 325.746 242.052 325.149 242.178 324.566C242.303 323.976 242.574 323.473 242.99 323.058C243.67 322.378 244.422 322.073 245.247 322.144C246.072 322.215 246.901 322.668 247.736 323.502L248.108 323.875L244.565 327.418C245.094 327.921 245.661 328.189 246.266 328.221C246.872 328.247 247.397 328.037 247.842 327.592C248.158 327.277 248.361 326.945 248.451 326.597C248.541 326.248 248.562 325.886 248.514 325.509L249.485 325.388C249.72 326.5 249.4 327.494 248.523 328.371ZM243.724 323.793C243.363 324.153 243.193 324.589 243.212 325.098C243.228 325.604 243.444 326.123 243.86 326.655L246.479 324.034L246.411 323.967C245.931 323.538 245.458 323.309 244.991 323.28C244.52 323.248 244.098 323.419 243.724 323.793Z" fill="black"/>
<path d="M273.377 361.11L271.115 363.373L277.388 369.648L276.465 370.571L270.192 364.296L267.935 366.554L267.171 365.79L272.613 360.346L273.377 361.11ZM283.231 363.803C283.077 363.752 282.851 363.61 282.555 363.378C282.571 364.225 282.29 364.938 281.714 365.515C281.198 366.03 280.629 366.309 280.008 366.351C279.386 366.386 278.851 366.18 278.403 365.732C277.859 365.187 277.643 364.559 277.755 363.847C277.868 363.128 278.3 362.393 279.051 361.642L279.921 360.772L279.51 360.361C279.197 360.048 278.856 359.894 278.485 359.897C278.111 359.897 277.743 360.079 277.378 360.443C277.06 360.762 276.873 361.11 276.818 361.487C276.763 361.864 276.85 362.167 277.079 362.396L276.18 363.295C275.919 363.034 275.759 362.691 275.701 362.266C275.643 361.834 275.701 361.389 275.875 360.931C276.053 360.47 276.331 360.05 276.712 359.67C277.314 359.067 277.937 358.746 278.582 358.708C279.223 358.666 279.814 358.902 280.356 359.418L282.762 361.826C283.242 362.306 283.685 362.627 284.091 362.788L284.169 362.865L283.231 363.803ZM281.066 364.606C281.346 364.325 281.54 363.987 281.646 363.59C281.752 363.194 281.746 362.823 281.627 362.478L280.554 361.405L279.853 362.106C278.757 363.202 278.53 364.071 279.171 364.712C279.452 364.992 279.764 365.118 280.109 365.089C280.454 365.06 280.773 364.899 281.066 364.606ZM286.851 358.915C287.17 358.596 287.352 358.221 287.397 357.789C287.442 357.357 287.333 356.983 287.069 356.667L287.914 355.821C288.198 356.137 288.38 356.526 288.46 356.986C288.541 357.447 288.502 357.918 288.344 358.398C288.19 358.875 287.935 359.291 287.581 359.645C286.869 360.358 286.065 360.688 285.169 360.636C284.273 360.578 283.413 360.137 282.588 359.312L282.439 359.162C281.929 358.653 281.57 358.106 281.361 357.523C281.151 356.94 281.111 356.364 281.24 355.797C281.372 355.227 281.677 354.703 282.153 354.226C282.74 353.639 283.402 353.328 284.14 353.293C284.881 353.254 285.545 353.502 286.131 354.037L285.285 354.883C284.921 354.571 284.515 354.422 284.067 354.439C283.619 354.448 283.226 354.622 282.888 354.961C282.434 355.415 282.245 355.932 282.323 356.513C282.4 357.086 282.748 357.683 283.366 358.301L283.536 358.471C284.138 359.073 284.726 359.413 285.3 359.491C285.873 359.568 286.39 359.376 286.851 358.915ZM287.668 354.037C287.156 353.525 286.795 352.964 286.585 352.355C286.379 351.743 286.344 351.146 286.479 350.566C286.617 349.983 286.917 349.461 287.378 349C288.09 348.287 288.911 347.959 289.843 348.014C290.777 348.065 291.653 348.5 292.472 349.319L292.535 349.382C293.044 349.891 293.403 350.447 293.612 351.05C293.822 351.646 293.857 352.239 293.719 352.829C293.583 353.415 293.28 353.944 292.81 354.414C292.101 355.124 291.28 355.452 290.345 355.401C289.414 355.346 288.543 354.912 287.731 354.1L287.668 354.037ZM288.673 353.244C289.253 353.825 289.852 354.157 290.471 354.24C291.093 354.321 291.629 354.136 292.08 353.684C292.535 353.23 292.718 352.692 292.631 352.07C292.541 351.444 292.175 350.811 291.534 350.17C290.961 349.596 290.36 349.269 289.731 349.188C289.103 349.101 288.564 349.283 288.112 349.735C287.671 350.176 287.491 350.708 287.571 351.33C287.652 351.952 288.019 352.59 288.673 353.244ZM290.93 343.106L292.196 344.373L293.173 343.397L293.864 344.088L292.887 345.064L296.13 348.308C296.34 348.518 296.541 348.632 296.734 348.652C296.925 348.668 297.124 348.571 297.334 348.362C297.437 348.258 297.559 348.097 297.701 347.878L298.426 348.603C298.255 348.903 298.059 349.164 297.836 349.387C297.437 349.786 297.015 349.967 296.57 349.928C296.125 349.889 295.681 349.648 295.236 349.203L291.993 345.959L291.041 346.911L290.35 346.22L291.302 345.268L290.036 344.001L290.93 343.106ZM297.551 340.622C297.393 340.734 297.235 340.87 297.078 341.028C296.491 341.614 296.343 342.262 296.633 342.971L300.345 346.684L299.451 347.578L294.221 342.347L295.091 341.477L295.71 342.067C295.536 341.306 295.718 340.657 296.256 340.119C296.43 339.945 296.585 339.835 296.72 339.79L297.551 340.622ZM299.808 341.893C299.296 341.381 298.935 340.82 298.726 340.211C298.519 339.598 298.484 339.002 298.619 338.422C298.758 337.838 299.057 337.316 299.518 336.855C300.23 336.143 301.052 335.814 301.983 335.869C302.917 335.921 303.794 336.356 304.612 337.174L304.675 337.237C305.184 337.747 305.543 338.303 305.753 338.905C305.962 339.502 305.998 340.095 305.859 340.684C305.724 341.271 305.421 341.8 304.95 342.27C304.242 342.979 303.42 343.308 302.486 343.256C301.554 343.202 300.683 342.768 299.871 341.956L299.808 341.893ZM300.813 341.1C301.393 341.68 301.993 342.012 302.611 342.096C303.233 342.177 303.77 341.991 304.221 341.54C304.675 341.086 304.859 340.547 304.772 339.925C304.681 339.3 304.316 338.667 303.675 338.025C303.101 337.452 302.5 337.125 301.872 337.044C301.244 336.957 300.704 337.139 300.253 337.59C299.811 338.032 299.631 338.564 299.712 339.186C299.792 339.808 300.159 340.446 300.813 341.1ZM303.969 332.596L304.656 333.225C304.552 332.322 304.823 331.549 305.468 330.904C306.573 329.799 307.754 329.865 309.01 331.102L312.466 334.559L311.572 335.453L308.111 331.992C307.731 331.618 307.365 331.426 307.014 331.417C306.666 331.404 306.313 331.576 305.956 331.934C305.666 332.224 305.488 332.556 305.424 332.93C305.36 333.304 305.392 333.678 305.521 334.051L309.247 337.779L308.353 338.673L303.124 333.442L303.969 332.596ZM320.788 326.234L316.177 330.846L315.535 330.203L315.264 325.059C315.216 324.289 315.132 323.709 315.013 323.319C314.893 322.922 314.697 322.587 314.423 322.313C314.056 321.946 313.643 321.756 313.186 321.743C312.728 321.73 312.314 321.909 311.944 322.279C311.499 322.724 311.28 323.198 311.286 323.701C311.293 324.197 311.522 324.671 311.973 325.122L311.079 326.016C310.431 325.369 310.115 324.637 310.131 323.822C310.151 323.003 310.51 322.244 311.209 321.544C311.863 320.89 312.553 320.545 313.278 320.51C313.999 320.471 314.645 320.737 315.216 321.308C315.908 322.001 316.292 323.267 316.366 325.107L316.525 329.038L320.058 325.504L320.788 326.234Z" fill="black"/>
<path d="M341.205 374.309C341.308 374.889 341.23 375.478 340.973 376.078C340.715 376.671 340.303 377.251 339.735 377.818C339.162 378.392 338.519 378.768 337.807 378.945C337.092 379.119 336.364 379.08 335.623 378.829C334.885 378.574 334.186 378.123 333.525 377.475L332.911 376.861C331.851 375.801 331.276 374.732 331.186 373.656C331.099 372.576 331.503 371.588 332.399 370.692C333.134 369.957 333.913 369.555 334.738 369.484C335.56 369.41 336.365 369.667 337.155 370.257L336.227 371.185C335.122 370.428 334.102 370.517 333.167 371.451C332.546 372.073 332.293 372.765 332.409 373.525C332.525 374.28 332.995 375.072 333.82 375.904L334.395 376.479C335.184 377.269 335.993 377.717 336.821 377.823C337.646 377.926 338.366 377.67 338.982 377.055C339.329 376.706 339.595 376.363 339.779 376.025C339.963 375.686 340.048 375.34 340.035 374.985L338.455 373.404L336.826 375.034L336.072 374.28L338.624 371.727L341.205 374.309ZM341.64 366.863C341.482 366.976 341.324 367.112 341.166 367.269C340.58 367.856 340.431 368.504 340.721 369.213L344.433 372.926L343.539 373.82L338.31 368.589L339.18 367.719L339.798 368.309C339.624 367.548 339.806 366.899 340.344 366.361C340.518 366.187 340.673 366.077 340.808 366.032L341.64 366.863ZM343.897 368.135C343.384 367.622 343.023 367.062 342.814 366.452C342.608 365.84 342.572 365.244 342.708 364.664C342.846 364.08 343.146 363.558 343.607 363.097C344.319 362.385 345.14 362.056 346.071 362.111C347.006 362.163 347.882 362.598 348.701 363.416L348.763 363.479C349.272 363.988 349.632 364.544 349.841 365.147C350.051 365.743 350.086 366.336 349.947 366.926C349.812 367.513 349.509 368.041 349.039 368.512C348.33 369.221 347.508 369.55 346.574 369.498C345.643 369.443 344.771 369.01 343.959 368.198L343.897 368.135ZM344.902 367.342C345.482 367.922 346.081 368.254 346.7 368.338C347.322 368.418 347.858 368.233 348.309 367.782C348.763 367.327 348.947 366.789 348.86 366.167C348.77 365.542 348.404 364.909 347.763 364.267C347.189 363.694 346.589 363.366 345.96 363.286C345.332 363.199 344.792 363.381 344.341 363.832C343.9 364.274 343.719 364.805 343.8 365.427C343.881 366.05 344.248 366.688 344.902 367.342ZM355.153 361.168C355.214 361.926 354.908 362.641 354.234 363.315C353.677 363.872 353.09 364.137 352.475 364.108C351.86 364.072 351.233 363.739 350.595 363.107L347.193 359.703L348.087 358.809L351.465 362.188C352.258 362.981 352.976 363.055 353.62 362.411C354.304 361.727 354.503 361.018 354.22 360.284L350.416 356.479L351.31 355.584L356.54 360.815L355.689 361.666L355.153 361.168ZM353.519 353.375L354.205 354.003C354.102 353.101 354.373 352.328 355.017 351.683C356.122 350.577 357.303 350.643 358.56 351.881L362.015 355.338L361.121 356.232L357.661 352.771C357.281 352.397 356.915 352.205 356.564 352.195C356.216 352.182 355.863 352.355 355.505 352.713C355.215 353.003 355.038 353.335 354.974 353.709C354.909 354.082 354.942 354.456 355.07 354.83L358.797 358.558L357.902 359.452L352.673 354.221L353.519 353.375ZM360.488 351.548C359.686 350.745 359.232 349.91 359.125 349.043C359.016 348.173 359.269 347.43 359.884 346.815C360.496 346.202 361.19 345.927 361.967 345.988L359.241 343.261L360.135 342.367L367.559 349.793L366.737 350.614L366.133 350.097C366.214 350.893 365.935 351.61 365.297 352.249C364.691 352.854 363.948 353.101 363.069 352.988C362.193 352.872 361.355 352.415 360.556 351.615L360.488 351.548ZM361.484 350.755C362.077 351.348 362.663 351.689 363.243 351.78C363.823 351.87 364.329 351.699 364.76 351.267C365.327 350.7 365.487 350.031 365.239 349.261L362.837 346.858C362.077 346.632 361.419 346.797 360.865 347.351C360.427 347.79 360.255 348.3 360.348 348.884C360.441 349.467 360.82 350.091 361.484 350.755ZM366.123 338.233L367.39 339.5L368.366 338.523L369.057 339.215L368.081 340.191L371.324 343.435C371.533 343.645 371.734 343.759 371.928 343.778C372.118 343.795 372.318 343.698 372.527 343.488C372.63 343.385 372.753 343.224 372.894 343.005L373.619 343.73C373.448 344.03 373.252 344.291 373.03 344.513C372.63 344.913 372.208 345.093 371.763 345.055C371.319 345.016 370.874 344.774 370.429 344.33L367.187 341.086L366.234 342.038L365.543 341.347L366.495 340.394L365.229 339.128L366.123 338.233ZM372.744 335.748C372.587 335.861 372.429 335.996 372.271 336.154C371.684 336.741 371.536 337.389 371.826 338.098L375.538 341.811L374.644 342.705L369.415 337.474L370.284 336.604L370.903 337.194C370.729 336.433 370.911 335.784 371.449 335.246C371.623 335.071 371.778 334.962 371.913 334.917L372.744 335.748ZM380.709 335.603C380.77 336.361 380.464 337.076 379.791 337.75C379.233 338.307 378.647 338.572 378.032 338.543C377.416 338.507 376.79 338.174 376.152 337.542L372.749 334.138L373.643 333.244L377.022 336.623C377.814 337.416 378.533 337.49 379.177 336.846C379.86 336.162 380.06 335.453 379.776 334.719L375.973 330.914L376.867 330.019L382.096 335.25L381.246 336.101L380.709 335.603ZM378.177 326.176L379.443 327.443L380.419 326.466L381.11 327.157L380.134 328.134L383.377 331.378C383.586 331.587 383.788 331.702 383.981 331.721C384.171 331.737 384.371 331.641 384.58 331.431C384.683 331.328 384.806 331.167 384.948 330.948L385.673 331.673C385.502 331.973 385.305 332.234 385.083 332.456C384.683 332.856 384.261 333.036 383.817 332.997C383.372 332.959 382.927 332.717 382.483 332.272L379.24 329.028L378.288 329.981L377.597 329.289L378.549 328.337L377.283 327.07L378.177 326.176ZM382.995 325.156C382.905 324.273 383.177 323.514 383.812 322.879C384.917 321.773 386.098 321.839 387.354 323.077L390.81 326.534L389.916 327.428L386.456 323.967C386.075 323.593 385.71 323.401 385.358 323.391C385.01 323.378 384.658 323.551 384.3 323.909C384.01 324.199 383.833 324.531 383.768 324.904C383.704 325.278 383.736 325.652 383.865 326.026L387.591 329.753L386.697 330.648L379.274 323.222L380.168 322.328L382.995 325.156Z" fill="black"/>
<path d="M103.799 308.491H455.407" stroke="#888888" stroke-miterlimit="10"/>
<path d="M263.491 401.341L266.048 408.559L268.59 401.341H271.284V411.294H269.226V408.573L269.431 403.877L266.745 411.294H265.337L262.657 403.884L262.862 408.573V411.294H260.811V401.341H263.491ZM272.637 407.527C272.637 406.793 272.779 406.139 273.061 405.565C273.344 404.991 273.749 404.547 274.278 404.232C274.811 403.918 275.429 403.76 276.131 403.76C277.129 403.76 277.942 404.066 278.571 404.677C279.204 405.287 279.558 406.117 279.631 407.165L279.644 407.671C279.644 408.805 279.327 409.717 278.694 410.405C278.061 411.089 277.211 411.43 276.144 411.43C275.078 411.43 274.226 411.089 273.588 410.405C272.954 409.721 272.637 408.792 272.637 407.616V407.527ZM274.613 407.671C274.613 408.372 274.745 408.91 275.009 409.284C275.274 409.653 275.652 409.838 276.144 409.838C276.623 409.838 276.996 409.655 277.265 409.291C277.534 408.922 277.669 408.334 277.669 407.527C277.669 406.839 277.534 406.306 277.265 405.927C276.996 405.549 276.618 405.36 276.131 405.36C275.647 405.36 275.274 405.549 275.009 405.927C274.745 406.301 274.613 406.882 274.613 407.671ZM280.553 407.541C280.553 406.388 280.811 405.469 281.326 404.786C281.845 404.102 282.554 403.76 283.452 403.76C284.172 403.76 284.767 404.029 285.236 404.567V400.794H287.218V411.294H285.434L285.339 410.508C284.846 411.123 284.213 411.43 283.438 411.43C282.568 411.43 281.868 411.089 281.34 410.405C280.815 409.717 280.553 408.762 280.553 407.541ZM282.529 407.684C282.529 408.377 282.65 408.908 282.891 409.277C283.133 409.646 283.484 409.831 283.944 409.831C284.555 409.831 284.985 409.573 285.236 409.058V406.139C284.99 405.624 284.564 405.367 283.958 405.367C283.005 405.367 282.529 406.139 282.529 407.684ZM292.154 411.43C291.069 411.43 290.185 411.098 289.502 410.432C288.823 409.767 288.483 408.881 288.483 407.773V407.582C288.483 406.839 288.627 406.176 288.914 405.593C289.201 405.005 289.606 404.553 290.131 404.239C290.659 403.92 291.261 403.76 291.935 403.76C292.947 403.76 293.742 404.08 294.321 404.718C294.904 405.356 295.196 406.26 295.196 407.431V408.238H290.486C290.55 408.721 290.741 409.108 291.06 409.4C291.384 409.692 291.792 409.838 292.284 409.838C293.045 409.838 293.64 409.562 294.068 409.01L295.039 410.097C294.743 410.517 294.341 410.845 293.836 411.082C293.33 411.314 292.769 411.43 292.154 411.43ZM291.928 405.36C291.536 405.36 291.217 405.492 290.971 405.757C290.73 406.021 290.575 406.399 290.507 406.891H293.255V406.734C293.245 406.297 293.127 405.959 292.899 405.722C292.671 405.481 292.348 405.36 291.928 405.36ZM298.409 411.294H296.426V400.794H298.409V411.294Z" fill="black"/>
<path d="M103.799 308.491H96.4738" stroke="#888888" stroke-miterlimit="10"/>
<path d="M103.799 235.216H96.4738" stroke="#888888" stroke-miterlimit="10"/>
<path d="M103.799 161.94H96.4738" stroke="#888888" stroke-miterlimit="10"/>
<path d="M103.799 88.6638H96.4738" stroke="#888888" stroke-miterlimit="10"/>
<path d="M103.799 15.3879H96.4738" stroke="#888888" stroke-miterlimit="10"/>
<path d="M76.7956 305.641H77.7458C78.3428 305.632 78.8122 305.475 79.154 305.169C79.4958 304.864 79.6667 304.452 79.6667 303.932C79.6667 302.765 79.0857 302.182 77.9236 302.182C77.3767 302.182 76.9392 302.339 76.6111 302.654C76.2875 302.964 76.1257 303.376 76.1257 303.891H74.8611C74.8611 303.103 75.1482 302.449 75.7224 301.929C76.3012 301.405 77.0349 301.143 77.9236 301.143C78.8624 301.143 79.5984 301.391 80.1316 301.888C80.6648 302.385 80.9314 303.075 80.9314 303.959C80.9314 304.392 80.7901 304.812 80.5076 305.217C80.2296 305.623 79.849 305.926 79.366 306.126C79.9128 306.299 80.3344 306.587 80.6306 306.988C80.9314 307.389 81.0818 307.879 81.0818 308.457C81.0818 309.351 80.7901 310.059 80.2068 310.583C79.6234 311.107 78.8647 311.369 77.9304 311.369C76.9962 311.369 76.2351 311.117 75.6472 310.611C75.0639 310.105 74.7722 309.437 74.7722 308.608H76.0437C76.0437 309.132 76.2146 309.551 76.5564 309.866C76.8982 310.18 77.3562 310.337 77.9304 310.337C78.5411 310.337 79.0082 310.178 79.3318 309.859C79.6553 309.54 79.8171 309.082 79.8171 308.485C79.8171 307.906 79.6394 307.462 79.2839 307.152C78.9285 306.842 78.4158 306.682 77.7458 306.673H76.7956V305.641ZM82.9753 310.57C82.9753 310.351 83.0391 310.169 83.1667 310.023C83.2989 309.877 83.4949 309.804 83.7546 309.804C84.0144 309.804 84.2104 309.877 84.3425 310.023C84.4792 310.169 84.5476 310.351 84.5476 310.57C84.5476 310.779 84.4792 310.955 84.3425 311.096C84.2104 311.237 84.0144 311.308 83.7546 311.308C83.4949 311.308 83.2989 311.237 83.1667 311.096C83.0391 310.955 82.9753 310.779 82.9753 310.57ZM92.7507 306.988C92.7507 308.469 92.4978 309.569 91.9919 310.289C91.4861 311.009 90.6954 311.369 89.6199 311.369C88.558 311.369 87.7719 311.019 87.2615 310.317C86.751 309.61 86.4867 308.558 86.4685 307.159V305.47C86.4685 304.007 86.7214 302.92 87.2273 302.209C87.7331 301.498 88.5261 301.143 89.6062 301.143C90.6772 301.143 91.4656 301.487 91.9714 302.175C92.4773 302.859 92.7371 303.916 92.7507 305.347V306.988ZM91.4861 305.258C91.4861 304.187 91.3357 303.408 91.0349 302.92C90.7341 302.428 90.2579 302.182 89.6062 302.182C88.9591 302.182 88.4874 302.426 88.1912 302.913C87.8949 303.401 87.7423 304.151 87.7331 305.162V307.186C87.7331 308.261 87.8881 309.057 88.198 309.572C88.5124 310.082 88.9864 310.337 89.6199 310.337C90.2442 310.337 90.7068 310.096 91.0076 309.613C91.3129 309.13 91.4724 308.368 91.4861 307.329V305.258Z" fill="black"/>
<path d="M76.7956 232.365H77.7458C78.3428 232.356 78.8122 232.199 79.154 231.893C79.4958 231.588 79.6667 231.176 79.6667 230.656C79.6667 229.489 79.0857 228.906 77.9236 228.906C77.3767 228.906 76.9392 229.063 76.6111 229.378C76.2875 229.688 76.1257 230.1 76.1257 230.615H74.8611C74.8611 229.827 75.1482 229.173 75.7224 228.653C76.3012 228.129 77.0349 227.867 77.9236 227.867C78.8624 227.867 79.5984 228.115 80.1316 228.612C80.6648 229.109 80.9314 229.799 80.9314 230.683C80.9314 231.116 80.7901 231.536 80.5076 231.941C80.2296 232.347 79.849 232.65 79.366 232.85C79.9128 233.024 80.3344 233.311 80.6306 233.712C80.9314 234.113 81.0818 234.603 81.0818 235.182C81.0818 236.075 80.7901 236.783 80.2068 237.307C79.6234 237.832 78.8647 238.094 77.9304 238.094C76.9962 238.094 76.2351 237.841 75.6472 237.335C75.0639 236.829 74.7722 236.161 74.7722 235.332H76.0437C76.0437 235.856 76.2146 236.275 76.5564 236.59C76.8982 236.904 77.3562 237.061 77.9304 237.061C78.5411 237.061 79.0082 236.902 79.3318 236.583C79.6553 236.264 79.8171 235.806 79.8171 235.209C79.8171 234.63 79.6394 234.186 79.2839 233.876C78.9285 233.566 78.4158 233.406 77.7458 233.397H76.7956V232.365ZM82.9753 237.294C82.9753 237.075 83.0391 236.893 83.1667 236.747C83.2989 236.601 83.4949 236.528 83.7546 236.528C84.0144 236.528 84.2104 236.601 84.3425 236.747C84.4792 236.893 84.5476 237.075 84.5476 237.294C84.5476 237.503 84.4792 237.679 84.3425 237.82C84.2104 237.961 84.0144 238.032 83.7546 238.032C83.4949 238.032 83.2989 237.961 83.1667 237.82C83.0391 237.679 82.9753 237.503 82.9753 237.294ZM87.0906 232.967L87.5964 228.004H92.696V229.173H88.6697L88.3689 231.887C88.8565 231.599 89.4102 231.456 90.03 231.456C90.9369 231.456 91.657 231.757 92.1902 232.358C92.7234 232.955 92.99 233.764 92.99 234.785C92.99 235.81 92.712 236.619 92.156 237.212C91.6046 237.8 90.8321 238.094 89.8386 238.094C88.9591 238.094 88.2413 237.85 87.6853 237.362C87.1293 236.875 86.8126 236.2 86.7351 235.339H87.9314C88.0089 235.908 88.2117 236.339 88.5398 236.631C88.8679 236.918 89.3009 237.061 89.8386 237.061C90.4265 237.061 90.8868 236.861 91.2195 236.46C91.5567 236.059 91.7253 235.505 91.7253 234.799C91.7253 234.133 91.543 233.6 91.1785 233.199C90.8184 232.793 90.3376 232.591 89.7361 232.591C89.1846 232.591 88.7517 232.711 88.4372 232.953L88.1023 233.226L87.0906 232.967Z" fill="black"/>
<path d="M80.2956 161.338H81.6765V162.37H80.2956V164.681H79.0242V162.37H74.4919V161.625L78.949 154.728H80.2956V161.338ZM75.9275 161.338H79.0242V156.457L78.8738 156.731L75.9275 161.338ZM82.9753 164.018C82.9753 163.799 83.0391 163.617 83.1667 163.471C83.2989 163.325 83.4949 163.252 83.7546 163.252C84.0144 163.252 84.2104 163.325 84.3425 163.471C84.4792 163.617 84.5476 163.799 84.5476 164.018C84.5476 164.228 84.4792 164.403 84.3425 164.544C84.2104 164.686 84.0144 164.756 83.7546 164.756C83.4949 164.756 83.2989 164.686 83.1667 164.544C83.0391 164.403 82.9753 164.228 82.9753 164.018ZM92.7507 160.436C92.7507 161.917 92.4978 163.018 91.9919 163.738C91.4861 164.458 90.6954 164.818 89.6199 164.818C88.558 164.818 87.7719 164.467 87.2615 163.765C86.751 163.059 86.4867 162.006 86.4685 160.607V158.918C86.4685 157.455 86.7214 156.369 87.2273 155.658C87.7331 154.947 88.5261 154.591 89.6062 154.591C90.6772 154.591 91.4656 154.935 91.9714 155.623C92.4773 156.307 92.7371 157.364 92.7507 158.795V160.436ZM91.4861 158.706C91.4861 157.635 91.3357 156.856 91.0349 156.369C90.7341 155.876 90.2579 155.63 89.6062 155.63C88.9591 155.63 88.4874 155.874 88.1912 156.362C87.8949 156.849 87.7423 157.599 87.7331 158.611V160.634C87.7331 161.71 87.8881 162.505 88.198 163.02C88.5124 163.53 88.9864 163.786 89.6199 163.786C90.2442 163.786 90.7068 163.544 91.0076 163.061C91.3129 162.578 91.4724 161.817 91.4861 160.778V158.706Z" fill="black"/>
<path d="M80.2956 88.0624H81.6765V89.0946H80.2956V91.4052H79.0242V89.0946H74.4919V88.3495L78.949 81.452H80.2956V88.0624ZM75.9275 88.0624H79.0242V83.1815L78.8738 83.455L75.9275 88.0624ZM82.9753 90.7421C82.9753 90.5233 83.0391 90.341 83.1667 90.1952C83.2989 90.0494 83.4949 89.9765 83.7546 89.9765C84.0144 89.9765 84.2104 90.0494 84.3425 90.1952C84.4792 90.341 84.5476 90.5233 84.5476 90.7421C84.5476 90.9517 84.4792 91.1272 84.3425 91.2684C84.2104 91.4097 84.0144 91.4804 83.7546 91.4804C83.4949 91.4804 83.2989 91.4097 83.1667 91.2684C83.0391 91.1272 82.9753 90.9517 82.9753 90.7421ZM87.0906 86.4149L87.5964 81.452H92.696V82.621H88.6697L88.3689 85.3349C88.8565 85.0477 89.4102 84.9042 90.03 84.9042C90.9369 84.9042 91.657 85.205 92.1902 85.8065C92.7234 86.4035 92.99 87.2125 92.99 88.2333C92.99 89.2587 92.712 90.0676 92.156 90.66C91.6046 91.2479 90.8321 91.5419 89.8386 91.5419C88.9591 91.5419 88.2413 91.2981 87.6853 90.8104C87.1293 90.3228 86.8126 89.6483 86.7351 88.787H87.9314C88.0089 89.3567 88.2117 89.7873 88.5398 90.079C88.8679 90.3661 89.3009 90.5097 89.8386 90.5097C90.4265 90.5097 90.8868 90.3091 91.2195 89.9081C91.5567 89.5071 91.7253 88.9533 91.7253 88.247C91.7253 87.5816 91.543 87.0484 91.1785 86.6474C90.8184 86.2418 90.3376 86.039 89.7361 86.039C89.1846 86.039 88.7517 86.1597 88.4372 86.4013L88.1023 86.6747L87.0906 86.4149Z" fill="black"/>
<path d="M75.5378 13.1391L76.0437 8.17619H81.1433V9.34513H77.1169L76.8162 12.059C77.3038 11.7719 77.8575 11.6283 78.4773 11.6283C79.3842 11.6283 80.1042 11.9291 80.6374 12.5307C81.1706 13.1277 81.4372 13.9366 81.4372 14.9574C81.4372 15.9828 81.1593 16.7917 80.6033 17.3842C80.0518 17.9721 79.2794 18.266 78.2859 18.266C77.4063 18.266 76.6885 18.0222 76.1326 17.5346C75.5766 17.047 75.2598 16.3725 75.1824 15.5111H76.3787C76.4561 16.0808 76.6589 16.5115 76.9871 16.8031C77.3152 17.0902 77.7481 17.2338 78.2859 17.2338C78.8738 17.2338 79.3341 17.0333 79.6667 16.6322C80.004 16.2312 80.1726 15.6775 80.1726 14.9711C80.1726 14.3057 79.9903 13.7725 79.6257 13.3715C79.2657 12.9659 78.7849 12.7631 78.1833 12.7631C77.6319 12.7631 77.199 12.8839 76.8845 13.1254L76.5496 13.3988L75.5378 13.1391ZM82.9753 17.4662C82.9753 17.2475 83.0391 17.0652 83.1667 16.9193C83.2989 16.7735 83.4949 16.7006 83.7546 16.7006C84.0144 16.7006 84.2104 16.7735 84.3425 16.9193C84.4792 17.0652 84.5476 17.2475 84.5476 17.4662C84.5476 17.6759 84.4792 17.8513 84.3425 17.9926C84.2104 18.1339 84.0144 18.2045 83.7546 18.2045C83.4949 18.2045 83.2989 18.1339 83.1667 17.9926C83.0391 17.8513 82.9753 17.6759 82.9753 17.4662ZM92.7507 13.8842C92.7507 15.3653 92.4978 16.4659 91.9919 17.186C91.4861 17.906 90.6954 18.266 89.6199 18.266C88.558 18.266 87.7719 17.9151 87.2615 17.2133C86.751 16.5069 86.4867 15.4542 86.4685 14.0551V12.3666C86.4685 10.9037 86.7214 9.81681 87.2273 9.10587C87.7331 8.39494 88.5261 8.03947 89.6062 8.03947C90.6772 8.03947 91.4656 8.38354 91.9714 9.07169C92.4773 9.75529 92.7371 10.8126 92.7507 12.2436V13.8842ZM91.4861 12.1547C91.4861 11.0837 91.3357 10.3044 91.0349 9.81681C90.7341 9.32462 90.2579 9.07853 89.6062 9.07853C88.9591 9.07853 88.4874 9.32234 88.1912 9.80997C87.8949 10.2976 87.7423 11.0473 87.7331 12.059V14.0824C87.7331 15.158 87.8881 15.9532 88.198 16.4682C88.5124 16.9786 88.9864 17.2338 89.6199 17.2338C90.2442 17.2338 90.7068 16.9923 91.0076 16.5092C91.3129 16.0261 91.4724 15.2651 91.4861 14.226V12.1547Z" fill="black"/>
<path d="M103.799 308.491V15.3879" stroke="#888888" stroke-miterlimit="10"/>
<path d="M173.388 249.724V221.586" stroke="#E45756" stroke-miterlimit="10"/>
<path d="M243.71 150.216V123.543" stroke="#4C78A8" stroke-miterlimit="10"/>
<path d="M314.031 93.7931V74.4483" stroke="#72B7B2" stroke-miterlimit="10"/>
<path d="M384.353 83.681V68.1466" stroke="#F58518" stroke-miterlimit="10"/>
<path opacity="0.7" d="M178.568 235.655C178.568 237.029 178.022 238.347 177.051 239.319C176.079 240.291 174.762 240.837 173.388 240.837C172.014 240.837 170.697 240.291 169.725 239.319C168.754 238.347 168.208 237.029 168.208 235.655C168.208 234.281 168.754 232.963 169.725 231.991C170.697 231.02 172.014 230.474 173.388 230.474C174.762 230.474 176.079 231.02 177.051 231.991C178.022 232.963 178.568 234.281 178.568 235.655" fill="#E45756"/>
<path opacity="0.7" d="M248.889 136.879C248.889 138.254 248.344 139.571 247.372 140.543C246.401 141.515 245.083 142.061 243.71 142.061C242.336 142.061 241.019 141.515 240.047 140.543C239.076 139.571 238.53 138.254 238.53 136.879C238.53 135.505 239.076 134.187 240.047 133.216C241.019 132.244 242.336 131.698 243.71 131.698C245.083 131.698 246.401 132.244 247.372 133.216C248.344 134.187 248.889 135.505 248.889 136.879" fill="#4C78A8"/>
<path opacity="0.7" d="M319.211 84.1207C319.211 85.4949 318.665 86.8128 317.694 87.7845C316.723 88.7562 315.405 89.3021 314.031 89.3021C312.658 89.3021 311.34 88.7562 310.369 87.7845C309.397 86.8128 308.852 85.4949 308.852 84.1207C308.852 82.7465 309.397 81.4286 310.369 80.4569C311.34 79.4852 312.658 78.9393 314.031 78.9393C315.405 78.9393 316.723 79.4852 317.694 80.4569C318.665 81.4286 319.211 82.7465 319.211 84.1207" fill="#72B7B2"/>
<path opacity="0.7" d="M389.533 75.9138C389.533 77.288 388.987 78.6059 388.016 79.5776C387.044 80.5493 385.727 81.0952 384.353 81.0952C382.979 81.0952 381.662 80.5493 380.69 79.5776C379.719 78.6059 379.173 77.288 379.173 75.9138C379.173 74.5396 379.719 73.2217 380.69 72.25C381.662 71.2783 382.979 70.7324 384.353 70.7324C385.727 70.7324 387.044 71.2783 388.016 72.25C388.987 73.2217 389.533 74.5396 389.533 75.9138" fill="#F58518"/>
<path d="M27.0469 173.289L34.2656 170.733L27.0469 168.19V165.496H37V167.554H34.2793L29.583 167.349L37 170.035V171.444L29.5898 174.123L34.2793 173.918H37V175.969H27.0469V173.289ZM32.249 155.53C33.2288 155.53 34.0879 155.703 34.8262 156.049C35.5645 156.395 36.1341 156.892 36.5352 157.539C36.9362 158.182 37.1367 158.92 37.1367 159.754C37.1367 160.579 36.9385 161.315 36.542 161.962C36.1455 162.609 35.5804 163.111 34.8467 163.466C34.1084 163.822 33.2607 164.002 32.3037 164.006H31.8115C30.8317 164.006 29.9704 163.831 29.2275 163.48C28.4801 163.124 27.9082 162.625 27.5117 161.983C27.1107 161.336 26.9102 160.597 26.9102 159.768C26.9102 158.938 27.1107 158.202 27.5117 157.56C27.9082 156.913 28.4801 156.414 29.2275 156.063C29.9704 155.707 30.8294 155.53 31.8047 155.53H32.249ZM31.7979 157.608C30.7542 157.608 29.9613 157.795 29.4189 158.168C28.8766 158.542 28.6055 159.075 28.6055 159.768C28.6055 160.456 28.8743 160.987 29.4121 161.361C29.9453 161.734 30.7292 161.923 31.7637 161.928H32.249C33.2653 161.928 34.0537 161.741 34.6143 161.367C35.1748 160.994 35.4551 160.456 35.4551 159.754C35.4551 159.066 35.1862 158.537 34.6484 158.168C34.1061 157.799 33.3177 157.612 32.2832 157.608H31.7979ZM34.3887 148.878C34.0013 148.878 33.7051 149.015 33.5 149.288C33.2904 149.562 33.0716 150.054 32.8438 150.765C32.6113 151.476 32.3835 152.039 32.1602 152.453C31.5495 153.584 30.7269 154.149 29.6924 154.149C29.1546 154.149 28.6761 153.998 28.2568 153.698C27.833 153.392 27.5026 152.957 27.2656 152.392C27.0286 151.822 26.9102 151.184 26.9102 150.478C26.9102 149.767 27.04 149.133 27.2998 148.577C27.555 148.021 27.9173 147.591 28.3867 147.285C28.8561 146.976 29.3893 146.821 29.9863 146.821V148.871C29.5306 148.871 29.1774 149.015 28.9268 149.302C28.6715 149.589 28.5439 149.992 28.5439 150.512C28.5439 151.013 28.651 151.403 28.8652 151.681C29.0749 151.959 29.3529 152.098 29.6992 152.098C30.0228 152.098 30.2939 151.936 30.5127 151.613C30.7314 151.284 30.9365 150.804 31.1279 150.17C31.4788 149.004 31.9141 148.154 32.4336 147.62C32.9531 147.087 33.6003 146.821 34.375 146.821C35.2363 146.821 35.9131 147.146 36.4053 147.798C36.8929 148.45 37.1367 149.327 37.1367 150.43C37.1367 151.196 36.9977 151.893 36.7197 152.522C36.4372 153.151 36.0521 153.631 35.5645 153.964C35.0768 154.292 34.5117 154.456 33.8691 154.456V152.399C34.9674 152.399 35.5166 151.742 35.5166 150.43C35.5166 149.942 35.4186 149.562 35.2227 149.288C35.0221 149.015 34.7441 148.878 34.3887 148.878Z" fill="black"/>
<path d="M38.6689 306.604H34.6221L33.8564 311H32.5713L34.3008 301.047H40.2891L40.0977 302.127H35.3945L34.8066 305.531H38.8604L38.6689 306.604ZM44.2471 311C44.2152 310.868 44.1992 310.738 44.1992 310.61L44.2197 310.221C43.5407 310.85 42.8206 311.155 42.0596 311.137C41.4079 311.128 40.877 310.923 40.4668 310.521C40.0612 310.116 39.8766 309.61 39.9131 309.004C39.9587 308.22 40.3005 307.609 40.9385 307.172C41.5811 306.73 42.4242 306.509 43.4678 306.509L44.7598 306.516L44.8418 305.928C44.8874 305.486 44.8008 305.137 44.582 304.882C44.3678 304.622 44.0443 304.488 43.6113 304.479C43.1875 304.469 42.8115 304.574 42.4834 304.793C42.1598 305.007 41.9616 305.292 41.8887 305.647L40.6445 305.654C40.6855 305.221 40.8542 304.839 41.1504 304.506C41.4466 304.169 41.8271 303.909 42.292 303.727C42.7568 303.54 43.2376 303.451 43.7344 303.46C44.5046 303.478 45.1038 303.713 45.5322 304.164C45.9606 304.611 46.1406 305.205 46.0723 305.948L45.4707 309.612L45.4365 310.139C45.4274 310.389 45.4548 310.638 45.5186 310.884L45.5049 311H44.2471ZM42.3057 310.043C42.7021 310.052 43.0758 309.959 43.4268 309.763C43.7822 309.562 44.0876 309.286 44.3428 308.936L44.6094 307.411L43.6729 307.404C42.8936 307.404 42.2965 307.527 41.8818 307.773C41.4671 308.02 41.2324 308.368 41.1777 308.819C41.1367 309.166 41.2165 309.455 41.417 309.688C41.6221 309.915 41.9183 310.034 42.3057 310.043ZM48.5264 311H47.2959L48.5811 303.604H49.8115L48.5264 311ZM49.5449 300.903C49.7546 300.894 49.9277 300.958 50.0645 301.095C50.2057 301.227 50.2764 301.402 50.2764 301.621C50.2718 301.835 50.2012 302.011 50.0645 302.147C49.9323 302.284 49.7591 302.357 49.5449 302.366C49.3307 302.375 49.1553 302.314 49.0186 302.182C48.8818 302.049 48.8158 301.876 48.8203 301.662C48.8249 301.448 48.8932 301.27 49.0254 301.129C49.1576 300.988 49.3307 300.912 49.5449 300.903ZM55.1504 304.731L54.5693 304.67C53.7764 304.67 53.152 305.028 52.6963 305.743L51.7871 311H50.5498L51.835 303.604L53.0312 303.597L52.8467 304.458C53.3708 303.77 53.9883 303.435 54.6992 303.453C54.8496 303.453 55.0456 303.487 55.2871 303.556L55.1504 304.731Z" fill="black"/>
<path d="M6.71094 14.3994H2.52734L1.91211 17.9268H6.7793L6.58789 19H0.442383L2.17188 9.04688H8.24902L8.05762 10.127H3.26562L2.71191 13.3262H6.89551L6.71094 14.3994ZM11.2227 14.2969L13.2324 11.6035H14.75L11.7832 15.3223L13.5879 19H12.2412L11.0176 16.2383L8.93262 19H7.42188L10.4775 15.1992L8.72754 11.6035H10.0811L11.2227 14.2969ZM17.8398 18.1113C18.2819 18.1204 18.6807 17.9928 19.0361 17.7285C19.3916 17.4596 19.624 17.1087 19.7334 16.6758L20.9023 16.6689C20.834 17.1338 20.6471 17.5576 20.3418 17.9404C20.041 18.3232 19.6605 18.6217 19.2002 18.8359C18.7399 19.0501 18.2682 19.1504 17.7852 19.1367C17.1699 19.1276 16.6481 18.9681 16.2197 18.6582C15.7959 18.3438 15.4837 17.9085 15.2832 17.3525C15.0827 16.792 15.0143 16.1631 15.0781 15.4658L15.1123 15.124C15.1989 14.4131 15.4062 13.7773 15.7344 13.2168C16.0625 12.6562 16.4909 12.221 17.0195 11.9111C17.5482 11.5967 18.1315 11.4486 18.7695 11.4668C19.5443 11.485 20.1641 11.7448 20.6289 12.2461C21.0938 12.7474 21.3262 13.3831 21.3262 14.1533L20.1709 14.1465C20.1618 13.6634 20.0273 13.2738 19.7676 12.9775C19.5078 12.6768 19.1569 12.5173 18.7148 12.499C18.0723 12.4854 17.5368 12.7246 17.1084 13.2168C16.6846 13.709 16.4202 14.3971 16.3154 15.2812L16.2949 15.459C16.2676 15.7507 16.263 16.0514 16.2812 16.3613C16.3132 16.8945 16.4635 17.3161 16.7324 17.626C17.0013 17.9359 17.3704 18.0977 17.8398 18.1113ZM25.0928 19.1367C24.1722 19.1185 23.4521 18.779 22.9326 18.1182C22.4131 17.4574 22.1943 16.612 22.2764 15.582L22.3105 15.2881C22.388 14.5544 22.6045 13.8844 22.96 13.2783C23.32 12.6722 23.7575 12.2165 24.2725 11.9111C24.7874 11.6012 25.3434 11.4531 25.9404 11.4668C26.7015 11.485 27.2985 11.738 27.7314 12.2256C28.1644 12.7132 28.4014 13.374 28.4424 14.208C28.4561 14.5042 28.4469 14.8005 28.415 15.0967L28.3398 15.6641H23.5068C23.4248 16.334 23.5342 16.9036 23.835 17.373C24.1403 17.8424 24.5938 18.0863 25.1953 18.1045C25.9245 18.1227 26.599 17.7946 27.2188 17.1201L27.9297 17.7217C27.6198 18.1683 27.2188 18.5192 26.7266 18.7744C26.2389 19.0251 25.6943 19.1458 25.0928 19.1367ZM25.8789 12.499C25.3685 12.4854 24.9219 12.6585 24.5391 13.0186C24.1608 13.3786 23.86 13.9141 23.6367 14.625L27.2324 14.6318L27.2598 14.5225C27.3327 13.9482 27.2393 13.472 26.9795 13.0938C26.7243 12.7109 26.3574 12.5127 25.8789 12.499ZM30.4932 19H29.2627L31.0811 8.5H32.3184L30.4932 19ZM33.8564 19H32.626L34.4443 8.5H35.6816L33.8564 19ZM39.0791 19.1367C38.1585 19.1185 37.4385 18.779 36.9189 18.1182C36.3994 17.4574 36.1807 16.612 36.2627 15.582L36.2969 15.2881C36.3743 14.5544 36.5908 13.8844 36.9463 13.2783C37.3063 12.6722 37.7438 12.2165 38.2588 11.9111C38.7738 11.6012 39.3298 11.4531 39.9268 11.4668C40.6878 11.485 41.2848 11.738 41.7178 12.2256C42.1507 12.7132 42.3877 13.374 42.4287 14.208C42.4424 14.5042 42.4333 14.8005 42.4014 15.0967L42.3262 15.6641H37.4932C37.4111 16.334 37.5205 16.9036 37.8213 17.373C38.1266 17.8424 38.5801 18.0863 39.1816 18.1045C39.9108 18.1227 40.5853 17.7946 41.2051 17.1201L41.916 17.7217C41.6061 18.1683 41.2051 18.5192 40.7129 18.7744C40.2253 19.0251 39.6807 19.1458 39.0791 19.1367ZM39.8652 12.499C39.3548 12.4854 38.9082 12.6585 38.5254 13.0186C38.1471 13.3786 37.8464 13.9141 37.623 14.625L41.2188 14.6318L41.2461 14.5225C41.319 13.9482 41.2256 13.472 40.9658 13.0938C40.7106 12.7109 40.3438 12.5127 39.8652 12.499ZM45.5938 11.5967L45.416 12.5332C46.0814 11.804 46.8379 11.4486 47.6855 11.4668C48.3828 11.485 48.8978 11.7266 49.2305 12.1914C49.5632 12.6562 49.6862 13.3102 49.5996 14.1533L48.793 19H47.5557L48.3691 14.1328C48.3965 13.9095 48.3988 13.7021 48.376 13.5107C48.2985 12.8727 47.9225 12.5469 47.248 12.5332C46.5052 12.5195 45.8535 12.916 45.293 13.7227L44.377 19H43.1396L44.4248 11.6035L45.5938 11.5967ZM53.9678 9.8125L53.6533 11.6035H55L54.8291 12.5811H53.4893L52.7168 17.1816C52.7031 17.3001 52.7008 17.4095 52.71 17.5098C52.7419 17.8652 52.9355 18.043 53.291 18.043C53.4414 18.043 53.6419 18.0202 53.8926 17.9746L53.7969 19.0068C53.5007 19.0889 53.1999 19.1299 52.8945 19.1299C52.4023 19.1208 52.0332 18.9408 51.7871 18.5898C51.541 18.2344 51.4453 17.7581 51.5 17.1611L52.252 12.5811H50.9463L51.1172 11.6035H52.4229L52.7373 9.8125H53.9678Z" fill="black"/>
</svg>
