<svg width="455" height="435" viewBox="0 0 455 435" fill="none" xmlns="http://www.w3.org/2000/svg">
<path d="M50.8 269.6L54.8 253.7L58.7 235.5L62.7 215.5L66.7 194.2L70.7 172.3L74.6 150.3L78.6 129L82.6 108.8L86.6 90.3L90.5 74.2L94.5 60.7L98.5 50.4L102.5 43.3L106.4 39.6L110.4 39.4L114.4 42.5L118.4 48.7L122.3 57.8L126.3 69.3L130.3 82.7L134.3 97.4L138.2 113L142.2 128.8L146.2 144.2L150.2 158.6L154.1 171.5L158.1 182.5L162.1 191.1L166.1 197.1L170 200.4L174 200.8L178 198.4L182 193.4L185.9 186L189.9 176.6L193.9 165.6L197.9 153.6L201.8 141.1L205.8 128.6L209.8 116.9L213.8 106.3L217.7 97.6L221.7 91.1L225.7 87.2L229.7 86.3L233.6 88.5L237.6 94L241.6 102.7L245.6 114.5L249.5 129.1L253.5 146.2L257.5 165.4L261.5 186.1L265.4 207.8L269.4 229.8L273.4 251.6L277.4 272.4L281.3 291.8L285.3 309.1L289.3 324L293.3 336L297.2 344.7L301.2 350.1L305.2 352L309.2 350.6L313.1 345.9L317.1 338.2L321.1 327.8L325.1 315.3L329 301.2L333 285.9L337 270.2L341 254.5L344.9 239.6L348.9 225.9L352.9 213.9L356.9 204L360.8 196.6L364.8 192L368.8 190.1L372.8 191.2L376.7 194.9L380.7 201.1L384.7 209.6L388.7 219.8L392.6 231.4L396.6 243.7L400.6 256.3L404.6 268.5L408.5 279.7L412.5 289.4L416.5 297.1L420.5 302.3L424.4 304.7L428.4 304.1L432.4 300.2L436.4 293.1L440.3 282.9L444.3 269.6H444.31" stroke="#FF0000" stroke-width="4"/>
<path d="M444.3 184.5V272.6H444.31M50.8 184.5V272.6V184.5ZM86.6 184.5V96.5V184.5ZM104.5 184.5V30.5V184.5ZM122.3 184.5V52.5V184.5ZM140.2 184.5V118.5V184.5ZM176 184.5V206.6V184.5ZM193.9 184.5V162.5V184.5ZM211.8 184.5V118.5V184.5ZM229.7 184.5V96.5V184.5ZM247.6 184.5V118.5V184.5ZM265.4 184.5V206.6V184.5ZM283.3 184.5V294.6V184.5ZM301.2 184.5V360.6V184.5ZM319.1 184.5V338.6V184.5ZM337 184.5V272.6V184.5ZM354.9 184.5V206.6V184.5ZM390.6 184.5V228.6V184.5ZM408.5 184.5V272.6V184.5ZM426.4 184.5V294.6V184.5Z" stroke="#74C0FC" stroke-width="1.5"/>
<line x1="35" y1="184.5" x2="455" y2="184.5" stroke="black"/>
<circle cx="51" cy="273" r="5" fill="#1C7ED6"/>
<circle cx="85" cy="98" r="5" fill="#1C7ED6"/>
<circle cx="104" cy="34" r="5" fill="#1C7ED6"/>
<circle cx="122" cy="54" r="5" fill="#1C7ED6"/>
<circle cx="141" cy="119" r="5" fill="#1C7ED6"/>
<circle cx="176" cy="201" r="5" fill="#1C7ED6"/>
<circle cx="194" cy="164" r="5" fill="#1C7ED6"/>
<circle cx="211" cy="119" r="5" fill="#1C7ED6"/>
<circle cx="229" cy="92" r="5" fill="#1C7ED6"/>
<circle cx="248" cy="119" r="5" fill="#1C7ED6"/>
<circle cx="265" cy="206" r="5" fill="#1C7ED6"/>
<circle cx="282" cy="294" r="5" fill="#1C7ED6"/>
<circle cx="301" cy="356" r="5" fill="#1C7ED6"/>
<circle cx="320" cy="339" r="5" fill="#1C7ED6"/>
<circle cx="336" cy="273" r="5" fill="#1C7ED6"/>
<circle cx="355" cy="206" r="5" fill="#1C7ED6"/>
<circle cx="408" cy="277" r="5" fill="#1C7ED6"/>
<circle cx="426" cy="299" r="5" fill="#1C7ED6"/>
<circle cx="444" cy="272" r="5" fill="#1C7ED6"/>
<circle cx="390" cy="230" r="5" fill="#1C7ED6"/>
<line x1="34.5" y1="383" x2="34.5" y2="2.18557e-08" stroke="black"/>
<path d="M15 209.536L11.7045 208.365L11.7045 203.661L15 202.49L15 201.013L3.36364 205.286L3.36364 206.74L15 211.013L15 209.536ZM10.4545 207.922L5.20455 206.058L5.20455 205.967L10.4545 204.104L10.4545 207.922ZM15 199.382L15 198.041L9.54545 198.041C8.26705 198.041 7.36364 197.109 7.36364 196.064C7.36364 195.047 8.02841 194.337 9.02273 194.337L15 194.337L15 192.973L9.31818 192.973C8.19318 192.973 7.36364 192.268 7.36364 191.041C7.36364 190.087 7.86932 189.268 9.15909 189.268L15 189.268L15 187.928L9.15909 187.928C7.10795 187.928 6.15909 189.03 6.15909 190.587C6.15909 191.837 6.73295 192.751 7.63636 193.2L7.63636 193.291C6.70455 193.723 6.15909 194.484 6.15909 195.632C6.15909 196.768 6.70455 197.609 7.63636 197.973L7.63636 198.087L6.27273 198.087L6.27273 199.382L15 199.382ZM18.2727 185.476L18.2727 184.135L13.6591 184.135L13.6591 184.021C14.1364 183.726 15.1818 183.158 15.1818 181.476C15.1818 179.294 13.4318 177.771 10.6591 177.771C7.90909 177.771 6.15909 179.294 6.15909 181.499C6.15909 183.203 7.20455 183.726 7.65909 184.021L7.65909 184.18L6.27273 184.18L6.27273 185.476L18.2727 185.476ZM10.6364 184.158C8.68182 184.158 7.36364 183.294 7.36364 181.658C7.36364 179.953 8.79545 179.112 10.6364 179.112C12.5 179.112 13.9773 179.976 13.9773 181.658C13.9773 183.271 12.6136 184.158 10.6364 184.158ZM3.36364 174.385L3.36364 175.726L15 175.726L15 174.385L3.36364 174.385ZM15 171.929L15 170.588L6.27273 170.588L6.27273 171.929L15 171.929ZM4.81818 171.247C4.81818 170.724 4.40909 170.293 3.90909 170.293C3.40909 170.293 3 170.724 3 171.247C3 171.77 3.40909 172.202 3.90909 172.202C4.40909 172.202 4.81818 171.77 4.81818 171.247ZM6.27273 164.337L6.27273 166.2L4.18182 166.2L4.18182 167.541L6.27273 167.541L6.27273 168.859L7.40909 168.859L7.40909 167.541L12.8636 167.541C14.3864 167.541 15.1136 166.314 15.1136 165.178C15.1136 164.678 15.0227 164.359 14.9545 164.178L13.75 164.45C13.7727 164.564 13.8182 164.746 13.8182 165.041C13.8182 165.632 13.6364 166.2 12.5 166.2L7.40909 166.2L7.40909 164.337L6.27273 164.337ZM11.4318 156.82C13.0682 156.82 13.8182 158.07 13.8182 159.07C13.8182 160.183 13 160.979 11.7273 160.979L6.27273 160.979L6.27273 162.32L11.8182 162.32C14.0455 162.32 15.1136 161.138 15.1136 159.501C15.1136 158.183 14.4091 157.32 13.5227 156.911L13.5227 156.82L15 156.82L15 155.479L6.27273 155.479L6.27273 156.82L11.4318 156.82ZM15.1818 149.727C15.1818 148.045 14.1364 147.477 13.6591 147.182L13.6591 147.023L15 147.023L15 145.727L3.36364 145.727L3.36364 147.068L7.65909 147.068L7.65909 147.182C7.20455 147.477 6.15909 148 6.15909 149.705C6.15909 151.909 7.90909 153.432 10.6591 153.432C13.4318 153.432 15.1818 151.909 15.1818 149.727ZM13.9773 149.545C13.9773 151.227 12.5 152.091 10.6364 152.091C8.79546 152.091 7.36364 151.25 7.36364 149.545C7.36364 147.909 8.68182 147.045 10.6364 147.045C12.6136 147.045 13.9773 147.932 13.9773 149.545ZM15.1818 139.426C15.1818 137.653 14.2955 136.358 12.9773 135.949L12.6136 137.244C13.5227 137.585 13.9773 138.375 13.9773 139.426C13.9773 141 12.9602 142.085 11.0909 142.148L11.0909 135.813L10.5227 135.813C7.27273 135.813 6.15909 137.744 6.15909 139.563C6.15909 141.926 8.02273 143.494 10.7045 143.494C13.3864 143.494 15.1818 141.949 15.1818 139.426ZM9.93182 142.148C8.57386 142.057 7.36364 141.097 7.36364 139.563C7.36364 138.108 8.45455 137.176 9.93182 137.176L9.93182 142.148Z" fill="black"/>
<path d="M210.695 420.614H214.354V431H215.763V420.614H219.422V419.364H210.695V420.614ZM221.415 431H222.756V422.273H221.415V431ZM222.097 420.818C222.619 420.818 223.051 420.409 223.051 419.909C223.051 419.409 222.619 419 222.097 419C221.574 419 221.142 419.409 221.142 419.909C221.142 420.409 221.574 420.818 222.097 420.818ZM225.212 431H226.553V425.545C226.553 424.267 227.484 423.364 228.53 423.364C229.547 423.364 230.257 424.028 230.257 425.023V431H231.621V425.318C231.621 424.193 232.325 423.364 233.553 423.364C234.507 423.364 235.325 423.869 235.325 425.159V431H236.666V425.159C236.666 423.108 235.564 422.159 234.007 422.159C232.757 422.159 231.842 422.733 231.393 423.636H231.303C230.871 422.705 230.109 422.159 228.962 422.159C227.825 422.159 226.984 422.705 226.621 423.636H226.507V422.273H225.212V431ZM242.777 431.182C244.55 431.182 245.845 430.295 246.254 428.977L244.959 428.614C244.618 429.523 243.828 429.977 242.777 429.977C241.203 429.977 240.118 428.96 240.055 427.091H246.391V426.523C246.391 423.273 244.459 422.159 242.641 422.159C240.277 422.159 238.709 424.023 238.709 426.705C238.709 429.386 240.254 431.182 242.777 431.182ZM240.055 425.932C240.146 424.574 241.107 423.364 242.641 423.364C244.095 423.364 245.027 424.455 245.027 425.932H240.055ZM253.408 426.091C253.408 428.955 254.18 431.341 255.567 433.364H256.749C255.658 431.864 254.794 428.795 254.794 426.091C254.794 423.386 255.658 420.318 256.749 418.818H255.567C254.18 420.841 253.408 423.227 253.408 426.091ZM262.795 419.364H261.386L258.477 421.295V422.727L261.318 420.841H261.386V431H262.795V419.364ZM266.165 431H267.506V425.545C267.506 424.267 268.438 423.364 269.483 423.364C270.5 423.364 271.21 424.028 271.21 425.023V431H272.574V425.318C272.574 424.193 273.278 423.364 274.506 423.364C275.46 423.364 276.278 423.869 276.278 425.159V431H277.619V425.159C277.619 423.108 276.517 422.159 274.96 422.159C273.71 422.159 272.795 422.733 272.347 423.636H272.256C271.824 422.705 271.062 422.159 269.915 422.159C268.778 422.159 267.938 422.705 267.574 423.636H267.46V422.273H266.165V431ZM286.253 424.227C285.832 422.989 284.889 422.159 283.162 422.159C281.321 422.159 279.957 423.205 279.957 424.682C279.957 425.886 280.673 426.693 282.276 427.068L283.73 427.409C284.611 427.614 285.026 428.034 285.026 428.636C285.026 429.386 284.23 430 282.98 430C281.884 430 281.196 429.528 280.957 428.591L279.685 428.909C279.997 430.392 281.219 431.182 283.003 431.182C285.031 431.182 286.412 430.074 286.412 428.568C286.412 427.352 285.651 426.585 284.094 426.205L282.798 425.886C281.764 425.631 281.298 425.284 281.298 424.614C281.298 423.864 282.094 423.318 283.162 423.318C284.332 423.318 284.815 423.966 285.048 424.568L286.253 424.227ZM291.294 426.091C291.294 423.227 290.521 420.841 289.135 418.818H287.953C289.044 420.318 289.908 423.386 289.908 426.091C289.908 428.795 289.044 431.864 287.953 433.364H289.135C290.521 431.341 291.294 428.955 291.294 426.091Z" fill="black"/>
<path d="M448.354 401.354C448.549 401.158 448.549 400.842 448.354 400.646L445.172 397.464C444.976 397.269 444.66 397.269 444.464 397.464C444.269 397.66 444.269 397.976 444.464 398.172L447.293 401L444.464 403.828C444.269 404.024 444.269 404.34 444.464 404.536C444.66 404.731 444.976 404.731 445.172 404.536L448.354 401.354ZM41 401.5H448V400.5H41V401.5Z" fill="black"/>
</svg>
