<svg width="561" height="113" viewBox="0 0 561 113" fill="none" xmlns="http://www.w3.org/2000/svg">
<path d="M4.31534 39.1392C6.34872 39.1392 7.76562 37.951 7.77557 36.2955C7.76562 35.0078 6.90554 33.9141 5.80682 33.7102V33.6506C6.76136 33.402 7.38778 32.4673 7.39773 31.3835C7.38778 29.8324 6.08523 28.679 4.31534 28.679C2.52557 28.679 1.22301 29.8324 1.23295 31.3835C1.22301 32.4673 1.84943 33.402 2.82386 33.6506V33.7102C1.70526 33.9141 0.84517 35.0078 0.855114 36.2955C0.84517 37.951 2.26207 39.1392 4.31534 39.1392ZM4.31534 38.0455C2.91832 38.0455 2.05824 37.3295 2.06818 36.2358C2.05824 35.0874 3.00781 34.267 4.31534 34.267C5.60298 34.267 6.55256 35.0874 6.5625 36.2358C6.55256 37.3295 5.69247 38.0455 4.31534 38.0455ZM4.31534 33.2131C3.2017 33.2131 2.41619 32.517 2.42614 31.4631C2.41619 30.429 3.17188 29.7528 4.31534 29.7528C5.43892 29.7528 6.1946 30.429 6.20455 31.4631C6.1946 32.517 5.40909 33.2131 4.31534 33.2131ZM9.70082 39H10.8741V36.1413L11.6944 35.3807L14.5531 39H16.0446L12.5794 34.625L15.8059 31.3636H14.3542L11.0133 34.7642H10.8741V28.8182H9.70082V39ZM17.4751 39H18.7081V34.446H24.1371V39H25.37V28.8182H24.1371V33.3523H18.7081V28.8182H17.4751V39ZM27.4606 39H33.4464V37.9062H29.0913V37.8267L33.3072 32.2983V31.3636H27.5998V32.4574H31.7958V32.5369L27.4606 38.1051V39Z" fill="#343A40"/>
<path d="M78.6335 28.8182H77.4006L74.8551 30.5085V31.7614L77.3409 30.1108H77.4006V39H78.6335V28.8182ZM85.1413 28.8182H83.9084L81.3629 30.5085V31.7614L83.8487 30.1108H83.9084V39H85.1413V28.8182ZM88.343 39.0795C88.8352 39.0795 89.2379 38.6768 89.2379 38.1847C89.2379 37.6925 88.8352 37.2898 88.343 37.2898C87.8509 37.2898 87.4482 37.6925 87.4482 38.1847C87.4482 38.6768 87.8509 39.0795 88.343 39.0795ZM94.2891 39.1392C96.5362 39.1392 97.8288 37.2351 97.8288 33.9091C97.8288 30.608 96.5163 28.679 94.2891 28.679C92.0618 28.679 90.7493 30.608 90.7493 33.9091C90.7493 37.2351 92.0419 39.1392 94.2891 39.1392ZM94.2891 38.0455C92.8075 38.0455 91.9425 36.5589 91.9425 33.9091C91.9425 31.2642 92.8175 29.7528 94.2891 29.7528C95.7607 29.7528 96.6357 31.2642 96.6357 33.9091C96.6357 36.5589 95.7706 38.0455 94.2891 38.0455ZM102.9 39.1392C104.839 39.1392 106.261 37.7074 106.261 35.7585C106.261 33.7848 104.888 32.3381 103.019 32.3381C102.333 32.3381 101.667 32.5817 101.249 32.9148H101.19L101.548 29.9119H105.803V28.8182H100.513L99.897 33.8295L101.05 33.9688C101.473 33.6655 102.194 33.4467 102.82 33.4517C104.118 33.4616 105.067 34.446 105.067 35.7784C105.067 37.0859 104.153 38.0455 102.9 38.0455C101.856 38.0455 101.026 37.3743 100.931 36.4545H99.7379C99.8125 38.0057 101.15 39.1392 102.9 39.1392ZM108.256 39H109.429V36.1413L110.249 35.3807L113.108 39H114.599L111.134 34.625L114.361 31.3636H112.909L109.568 34.7642H109.429V28.8182H108.256V39ZM116.03 39H117.263V34.446H122.692V39H123.925V28.8182H122.692V33.3523H117.263V28.8182H116.03V39ZM126.015 39H132.001V37.9062H127.646V37.8267L131.862 32.2983V31.3636H126.154V32.4574H130.35V32.5369L126.015 38.1051V39Z" fill="#343A40"/>
<path d="M171.634 28.8182H170.401L167.855 30.5085V31.7614L170.341 30.1108H170.401V39H171.634V28.8182ZM177.942 39.1392C180.001 39.1641 181.343 37.6129 181.343 35.7188C181.343 33.75 179.886 32.3381 178.141 32.3381C177.092 32.3381 176.192 32.8501 175.636 33.6903H175.556C175.561 31.2095 176.526 29.7727 178.102 29.7727C179.175 29.7727 179.822 30.4489 180.05 31.3636H181.263C181.015 29.7827 179.812 28.679 178.102 28.679C175.81 28.679 174.403 30.7074 174.403 34.3068C174.403 38.0703 176.272 39.1193 177.942 39.1392ZM177.942 38.0455C176.665 38.0455 175.73 36.9567 175.735 35.7386C175.74 34.5206 176.719 33.4318 177.982 33.4318C179.23 33.4318 180.15 34.456 180.15 35.7188C180.15 37.0114 179.19 38.0455 177.942 38.0455ZM183.318 39H184.491V36.1413L185.312 35.3807L188.17 39H189.662L186.197 34.625L189.423 31.3636H187.971L184.631 34.7642H184.491V28.8182H183.318V39ZM191.092 39H192.325V34.446H197.754V39H198.987V28.8182H197.754V33.3523H192.325V28.8182H191.092V39ZM201.078 39H207.064V37.9062H202.708V37.8267L206.924 32.2983V31.3636H201.217V32.4574H205.413V32.5369L201.078 38.1051V39Z" fill="#343A40"/>
<path d="M235.054 39H241.477V37.9062H236.744V37.8267L239.031 35.3807C240.781 33.5064 241.298 32.6314 241.298 31.5028C241.298 29.9318 240.026 28.679 238.236 28.679C236.451 28.679 235.094 29.892 235.094 31.6818H236.267C236.267 30.5234 237.018 29.7528 238.196 29.7528C239.3 29.7528 240.145 30.429 240.145 31.5028C240.145 32.4425 239.593 33.1385 238.415 34.4261L235.054 38.1051V39ZM243.531 39H249.954V37.9062H245.221V37.8267L247.508 35.3807C249.258 33.5064 249.775 32.6314 249.775 31.5028C249.775 29.9318 248.502 28.679 246.712 28.679C244.928 28.679 243.57 29.892 243.57 31.6818H244.744C244.744 30.5234 245.494 29.7528 246.673 29.7528C247.776 29.7528 248.621 30.429 248.621 31.5028C248.621 32.4425 248.07 33.1385 246.891 34.4261L243.531 38.1051V39ZM252.882 39.0795C253.374 39.0795 253.777 38.6768 253.777 38.1847C253.777 37.6925 253.374 37.2898 252.882 37.2898C252.39 37.2898 251.987 37.6925 251.987 38.1847C251.987 38.6768 252.39 39.0795 252.882 39.0795ZM258.828 39.1392C261.075 39.1392 262.368 37.2351 262.368 33.9091C262.368 30.608 261.055 28.679 258.828 28.679C256.601 28.679 255.288 30.608 255.288 33.9091C255.288 37.2351 256.581 39.1392 258.828 39.1392ZM258.828 38.0455C257.347 38.0455 256.482 36.5589 256.482 33.9091C256.482 31.2642 257.357 29.7528 258.828 29.7528C260.3 29.7528 261.175 31.2642 261.175 33.9091C261.175 36.5589 260.31 38.0455 258.828 38.0455ZM267.439 39.1392C269.378 39.1392 270.8 37.7074 270.8 35.7585C270.8 33.7848 269.428 32.3381 267.558 32.3381C266.872 32.3381 266.206 32.5817 265.788 32.9148H265.729L266.087 29.9119H270.342V28.8182H265.053L264.436 33.8295L265.589 33.9688C266.012 33.6655 266.733 33.4467 267.359 33.4517C268.657 33.4616 269.607 34.446 269.607 35.7784C269.607 37.0859 268.692 38.0455 267.439 38.0455C266.395 38.0455 265.565 37.3743 265.47 36.4545H264.277C264.352 38.0057 265.689 39.1392 267.439 39.1392ZM272.795 39H273.968V36.1413L274.788 35.3807L277.647 39H279.138L275.673 34.625L278.9 31.3636H277.448L274.107 34.7642H273.968V28.8182H272.795V39ZM280.569 39H281.802V34.446H287.231V39H288.464V28.8182H287.231V33.3523H281.802V28.8182H280.569V39ZM290.554 39H296.54V37.9062H292.185V37.8267L296.401 32.2983V31.3636H290.694V32.4574H294.89V32.5369L290.554 38.1051V39Z" fill="#343A40"/>
<path d="M314.054 39H320.477V37.9062H315.744V37.8267L318.031 35.3807C319.781 33.5064 320.298 32.6314 320.298 31.5028C320.298 29.9318 319.026 28.679 317.236 28.679C315.451 28.679 314.094 29.892 314.094 31.6818H315.267C315.267 30.5234 316.018 29.7528 317.196 29.7528C318.3 29.7528 319.145 30.429 319.145 31.5028C319.145 32.4425 318.593 33.1385 317.415 34.4261L314.054 38.1051V39ZM322.073 36.9119H326.866V39H328.039V36.9119H329.431V35.8182H328.039V28.8182H326.548L322.073 35.8977V36.9119ZM326.866 35.8182H323.406V35.7386L326.786 30.3892H326.866V35.8182ZM331.314 39H332.487V36.1413L333.308 35.3807L336.166 39H337.658L334.193 34.625L337.419 31.3636H335.968L332.627 34.7642H332.487V28.8182H331.314V39ZM339.088 39H340.321V34.446H345.75V39H346.983V28.8182H345.75V33.3523H340.321V28.8182H339.088V39ZM349.074 39H355.06V37.9062H350.705V37.8267L354.92 32.2983V31.3636H349.213V32.4574H353.409V32.5369L349.074 38.1051V39Z" fill="#343A40"/>
<path d="M15 53H511" stroke="#868E96" stroke-width="2.16"/>
<path d="M511 53H560" stroke="#74C0FC" stroke-width="2.16" stroke-dasharray="5 5"/>
<path d="M506.837 87H507.792V86.2159C507.792 85.5852 508.099 85.0398 508.457 84.5284L507.911 84.0852C507.229 84.6307 506.837 85.5341 506.837 86.233V87ZM509.019 87H509.974V86.2159C509.974 85.5852 510.281 85.0398 510.638 84.5284L510.093 84.0852C509.411 84.6307 509.019 85.5341 509.019 86.233V87ZM511.885 93H512.942V89.0966H517.595V93H518.652V84.2727H517.595V88.1591H512.942V84.2727H511.885V93ZM520.631 93H521.637V86.4545H520.631V93ZM521.143 85.3636C521.535 85.3636 521.859 85.0568 521.859 84.6818C521.859 84.3068 521.535 84 521.143 84C520.751 84 520.427 84.3068 520.427 84.6818C520.427 85.0568 520.751 85.3636 521.143 85.3636ZM526.121 95.5909C527.689 95.5909 528.951 94.875 528.951 93.1875V86.4545H527.979V87.4943H527.877C527.655 87.1534 527.246 86.3693 525.968 86.3693C524.314 86.3693 523.172 87.6818 523.172 89.6932C523.172 91.7386 524.365 92.8977 525.951 92.8977C527.229 92.8977 527.638 92.1477 527.86 91.7898H527.945V93.1193C527.945 94.2102 527.178 94.7045 526.121 94.7045C524.932 94.7045 524.515 94.0781 524.246 93.7159L523.445 94.2784C523.854 94.9645 524.659 95.5909 526.121 95.5909ZM526.087 91.9943C524.826 91.9943 524.178 91.0398 524.178 89.6761C524.178 88.3466 524.809 87.2727 526.087 87.2727C527.314 87.2727 527.962 88.2614 527.962 89.6761C527.962 91.125 527.297 91.9943 526.087 91.9943ZM531.797 89.0625C531.797 87.9205 532.526 87.2727 533.519 87.2727C534.465 87.2727 535.036 87.8693 535.036 88.9091V93H536.042V88.8409C536.042 87.1577 535.147 86.3693 533.809 86.3693C532.777 86.3693 532.189 86.7997 531.882 87.4773H531.797V84.2727H530.792V93H531.797V89.0625ZM541.631 88.7898H537.813V89.7273H541.631V88.7898ZM543.401 93H544.407V88.858C544.407 87.9716 545.105 87.3239 546.06 87.3239C546.328 87.3239 546.605 87.375 546.674 87.392V86.3693C546.559 86.3608 546.294 86.3523 546.145 86.3523C545.361 86.3523 544.679 86.7955 544.441 87.4432H544.373V86.4545H543.401V93ZM550.411 93.1364C551.74 93.1364 552.712 92.4716 553.019 91.483L552.047 91.2102C551.792 91.892 551.199 92.233 550.411 92.233C549.23 92.233 548.417 91.4702 548.37 90.0682H553.121V89.642C553.121 87.2045 551.672 86.3693 550.309 86.3693C548.536 86.3693 547.36 87.767 547.36 89.7784C547.36 91.7898 548.519 93.1364 550.411 93.1364ZM548.37 89.1989C548.438 88.1804 549.158 87.2727 550.309 87.2727C551.4 87.2727 552.098 88.0909 552.098 89.1989H548.37ZM559.287 87.9205C558.972 86.9915 558.265 86.3693 556.969 86.3693C555.588 86.3693 554.566 87.1534 554.566 88.2614C554.566 89.1648 555.103 89.7699 556.304 90.0511L557.395 90.3068C558.056 90.4602 558.367 90.7756 558.367 91.2273C558.367 91.7898 557.77 92.25 556.833 92.25C556.01 92.25 555.495 91.8963 555.316 91.1932L554.361 91.4318C554.596 92.544 555.512 93.1364 556.85 93.1364C558.371 93.1364 559.407 92.3054 559.407 91.1761C559.407 90.2642 558.836 89.6889 557.668 89.4034L556.696 89.1648C555.921 88.973 555.571 88.7131 555.571 88.2102C555.571 87.6477 556.168 87.2386 556.969 87.2386C557.847 87.2386 558.209 87.7244 558.384 88.1761L559.287 87.9205ZM527.081 109.153C528.223 109.153 528.82 108.54 529.024 108.114H529.075V109H530.081V104.688C530.081 102.608 528.496 102.369 527.661 102.369C526.672 102.369 525.547 102.71 525.036 103.903L525.99 104.244C526.212 103.767 526.736 103.256 527.695 103.256C528.619 103.256 529.075 103.746 529.075 104.585V104.619C529.075 105.105 528.581 105.062 527.388 105.216C526.173 105.374 524.848 105.642 524.848 107.142C524.848 108.42 525.837 109.153 527.081 109.153ZM527.234 108.25C526.433 108.25 525.854 107.892 525.854 107.193C525.854 106.426 526.553 106.188 527.337 106.085C527.763 106.034 528.905 105.915 529.075 105.71V106.631C529.075 107.449 528.428 108.25 527.234 108.25ZM536.042 106.324C536.042 107.551 535.104 108.114 534.354 108.114C533.519 108.114 532.922 107.5 532.922 106.545V102.455H531.917V106.614C531.917 108.284 532.803 109.085 534.03 109.085C535.019 109.085 535.667 108.557 535.973 107.892H536.042V109H537.047V102.455H536.042V106.324ZM541.361 109.136C542.622 109.136 543.048 108.352 543.27 107.994H543.389V109H544.361V100.273H543.355V103.494H543.27C543.048 103.153 542.656 102.369 541.378 102.369C539.724 102.369 538.582 103.682 538.582 105.744C538.582 107.824 539.724 109.136 541.361 109.136ZM541.497 108.233C540.236 108.233 539.588 107.125 539.588 105.727C539.588 104.347 540.219 103.273 541.497 103.273C542.724 103.273 543.372 104.261 543.372 105.727C543.372 107.21 542.707 108.233 541.497 108.233ZM546.342 109H547.348V102.455H546.342V109ZM546.854 101.364C547.246 101.364 547.57 101.057 547.57 100.682C547.57 100.307 547.246 100 546.854 100C546.462 100 546.138 100.307 546.138 100.682C546.138 101.057 546.462 101.364 546.854 101.364ZM551.849 109.136C553.622 109.136 554.815 107.79 554.815 105.761C554.815 103.716 553.622 102.369 551.849 102.369C550.076 102.369 548.883 103.716 548.883 105.761C548.883 107.79 550.076 109.136 551.849 109.136ZM551.849 108.233C550.502 108.233 549.889 107.074 549.889 105.761C549.889 104.449 550.502 103.273 551.849 103.273C553.196 103.273 553.809 104.449 553.809 105.761C553.809 107.074 553.196 108.233 551.849 108.233ZM557.237 100.273H556.282V101.057C556.282 101.688 555.975 102.233 555.617 102.744L556.163 103.188C556.844 102.642 557.237 101.739 557.237 101.04V100.273ZM559.418 100.273H558.464V101.057C558.464 101.688 558.157 102.233 557.799 102.744L558.344 103.188C559.026 102.642 559.418 101.739 559.418 101.04V100.273Z" fill="#74C0FC"/>
<path d="M205.933 88H207.024C206.7 86.3125 205.285 85.1534 203.444 85.1534C201.207 85.1534 199.626 86.875 199.626 89.6364C199.626 92.3977 201.194 94.1193 203.512 94.1193C205.592 94.1193 207.075 92.7344 207.075 90.5739V89.6364H203.751V90.5739H206.052C206.022 92.142 204.991 93.1307 203.512 93.1307C201.893 93.1307 200.649 91.9034 200.649 89.6364C200.649 87.3693 201.893 86.142 203.444 86.142C204.706 86.142 205.562 86.8537 205.933 88ZM211.408 94.1364C213.18 94.1364 214.374 92.7898 214.374 90.7614C214.374 88.7159 213.18 87.3693 211.408 87.3693C209.635 87.3693 208.442 88.7159 208.442 90.7614C208.442 92.7898 209.635 94.1364 211.408 94.1364ZM211.408 93.233C210.061 93.233 209.447 92.0739 209.447 90.7614C209.447 89.4489 210.061 88.2727 211.408 88.2727C212.754 88.2727 213.368 89.4489 213.368 90.7614C213.368 92.0739 212.754 93.233 211.408 93.233ZM218.568 94.1364C220.341 94.1364 221.534 92.7898 221.534 90.7614C221.534 88.7159 220.341 87.3693 218.568 87.3693C216.795 87.3693 215.602 88.7159 215.602 90.7614C215.602 92.7898 216.795 94.1364 218.568 94.1364ZM218.568 93.233C217.221 93.233 216.608 92.0739 216.608 90.7614C216.608 89.4489 217.221 88.2727 218.568 88.2727C219.914 88.2727 220.528 89.4489 220.528 90.7614C220.528 92.0739 219.914 93.233 218.568 93.233ZM225.54 94.1364C226.802 94.1364 227.228 93.3523 227.45 92.9943H227.569V94H228.54V85.2727H227.535V88.4943H227.45C227.228 88.1534 226.836 87.3693 225.558 87.3693C223.904 87.3693 222.762 88.6818 222.762 90.7443C222.762 92.8239 223.904 94.1364 225.54 94.1364ZM225.677 93.233C224.415 93.233 223.768 92.125 223.768 90.7273C223.768 89.3466 224.398 88.2727 225.677 88.2727C226.904 88.2727 227.552 89.2614 227.552 90.7273C227.552 92.2102 226.887 93.233 225.677 93.233ZM233.897 94H234.903V89.858C234.903 88.9716 235.602 88.3239 236.556 88.3239C236.825 88.3239 237.102 88.375 237.17 88.392V87.3693C237.055 87.3608 236.79 87.3523 236.641 87.3523C235.857 87.3523 235.175 87.7955 234.937 88.4432H234.869V87.4545H233.897V94ZM240.288 94.1534C241.43 94.1534 242.027 93.5398 242.231 93.1136H242.282V94H243.288V89.6875C243.288 87.608 241.703 87.3693 240.868 87.3693C239.879 87.3693 238.754 87.7102 238.243 88.9034L239.197 89.2443C239.419 88.767 239.943 88.2557 240.902 88.2557C241.826 88.2557 242.282 88.7457 242.282 89.5852V89.6193C242.282 90.1051 241.788 90.0625 240.595 90.2159C239.38 90.3736 238.055 90.642 238.055 92.142C238.055 93.4205 239.044 94.1534 240.288 94.1534ZM240.441 93.25C239.64 93.25 239.061 92.892 239.061 92.1932C239.061 91.4261 239.76 91.1875 240.544 91.0852C240.97 91.0341 242.112 90.9148 242.282 90.7102V91.6307C242.282 92.4489 241.635 93.25 240.441 93.25ZM246.129 90.0625C246.129 88.9205 246.837 88.2727 247.8 88.2727C248.733 88.2727 249.3 88.8821 249.3 89.9091V94H250.305V89.8409C250.305 88.1705 249.415 87.3693 248.089 87.3693C247.101 87.3693 246.487 87.8125 246.18 88.4773H246.095V87.4545H245.124V94H246.129V90.0625ZM254.785 96.5909C256.353 96.5909 257.615 95.875 257.615 94.1875V87.4545H256.643V88.4943H256.541C256.319 88.1534 255.91 87.3693 254.632 87.3693C252.978 87.3693 251.836 88.6818 251.836 90.6932C251.836 92.7386 253.029 93.8977 254.615 93.8977C255.893 93.8977 256.302 93.1477 256.524 92.7898H256.609V94.1193C256.609 95.2102 255.842 95.7045 254.785 95.7045C253.596 95.7045 253.179 95.0781 252.91 94.7159L252.109 95.2784C252.518 95.9645 253.324 96.5909 254.785 96.5909ZM254.751 92.9943C253.49 92.9943 252.842 92.0398 252.842 90.6761C252.842 89.3466 253.473 88.2727 254.751 88.2727C255.978 88.2727 256.626 89.2614 256.626 90.6761C256.626 92.125 255.961 92.9943 254.751 92.9943ZM262.2 94.1364C263.529 94.1364 264.501 93.4716 264.808 92.483L263.836 92.2102C263.581 92.892 262.988 93.233 262.2 93.233C261.02 93.233 260.206 92.4702 260.159 91.0682H264.91V90.642C264.91 88.2045 263.461 87.3693 262.098 87.3693C260.325 87.3693 259.149 88.767 259.149 90.7784C259.149 92.7898 260.308 94.1364 262.2 94.1364ZM260.159 90.1989C260.227 89.1804 260.947 88.2727 262.098 88.2727C263.189 88.2727 263.887 89.0909 263.887 90.1989H260.159ZM272.73 87.4545H271.264V86.7898C271.264 86.142 271.537 85.8011 272.201 85.8011C272.491 85.8011 272.662 85.8693 272.764 85.9034L273.054 85.0341C272.9 84.9659 272.593 84.8636 272.099 84.8636C271.162 84.8636 270.258 85.4261 270.258 86.5511V87.4545H269.201V88.3068H270.258V94H271.264V88.3068H272.73V87.4545ZM276.529 94.1364C278.301 94.1364 279.495 92.7898 279.495 90.7614C279.495 88.7159 278.301 87.3693 276.529 87.3693C274.756 87.3693 273.563 88.7159 273.563 90.7614C273.563 92.7898 274.756 94.1364 276.529 94.1364ZM276.529 93.233C275.182 93.233 274.569 92.0739 274.569 90.7614C274.569 89.4489 275.182 88.2727 276.529 88.2727C277.875 88.2727 278.489 89.4489 278.489 90.7614C278.489 92.0739 277.875 93.233 276.529 93.233ZM281.03 94H282.036V89.858C282.036 88.9716 282.734 88.3239 283.689 88.3239C283.957 88.3239 284.234 88.375 284.303 88.392V87.3693C284.188 87.3608 283.923 87.3523 283.774 87.3523C282.99 87.3523 282.308 87.7955 282.07 88.4432H282.001V87.4545H281.03V94ZM288.529 86.2102H291.273V94H292.33V86.2102H295.074V85.2727H288.529V86.2102ZM296.228 86.2102H298.972V94H300.029V86.2102H302.773V85.2727H296.228V86.2102ZM309.177 87.4545H310.2C310.153 86.1378 308.939 85.1534 307.251 85.1534C305.581 85.1534 304.268 86.125 304.268 87.5909C304.268 88.767 305.12 89.4659 306.484 89.858L307.558 90.1648C308.478 90.4205 309.297 90.7443 309.297 91.6136C309.297 92.5682 308.376 93.1989 307.166 93.1989C306.126 93.1989 305.206 92.7386 305.12 91.75H304.029C304.132 93.1818 305.291 94.1534 307.166 94.1534C309.177 94.1534 310.319 93.0455 310.319 91.6307C310.319 89.9943 308.768 89.4659 307.865 89.2273L306.978 88.9886C306.331 88.8182 305.291 88.4773 305.291 87.5398C305.291 86.7045 306.058 86.0909 307.217 86.0909C308.274 86.0909 309.075 86.5938 309.177 87.4545Z" fill="#40C057"/>
<path d="M560.495 70.495C560.768 70.2216 560.768 69.7784 560.495 69.505L556.04 65.0502C555.767 64.7769 555.324 64.7769 555.05 65.0502C554.777 65.3236 554.777 65.7668 555.05 66.0402L559.01 70L555.05 73.9598C554.777 74.2332 554.777 74.6764 555.05 74.9497C555.324 75.2231 555.767 75.2231 556.04 74.9497L560.495 70.495ZM511 70.7L560 70.7L560 69.3L511 69.3L511 70.7Z" fill="#74C0FC"/>
<path d="M456.223 21.9119H461.015V24H462.188V21.9119H463.581V20.8182H462.188V13.8182H460.697L456.223 20.8977V21.9119ZM461.015 20.8182H457.555V20.7386L460.936 15.3892H461.015V20.8182ZM465.205 21.9119H469.998V24H471.171V21.9119H472.563V20.8182H471.171V13.8182H469.679L465.205 20.8977V21.9119ZM469.998 20.8182H466.537V20.7386L469.918 15.3892H469.998V20.8182ZM474.823 24.0795C475.315 24.0795 475.717 23.6768 475.717 23.1847C475.717 22.6925 475.315 22.2898 474.823 22.2898C474.33 22.2898 473.928 22.6925 473.928 23.1847C473.928 23.6768 474.33 24.0795 474.823 24.0795ZM480.166 13.8182H478.933L476.387 15.5085V16.7614L478.873 15.1108H478.933V24H480.166V13.8182ZM483.114 24H484.287V21.1413L485.108 20.3807L487.966 24H489.458L485.992 19.625L489.219 16.3636H487.767L484.426 19.7642H484.287V13.8182H483.114V24ZM490.888 24H492.121V19.446H497.55V24H498.783V13.8182H497.55V18.3523H492.121V13.8182H490.888V24ZM500.874 24H506.859V22.9062H502.504V22.8267L506.72 17.2983V16.3636H501.013V17.4574H505.209V17.5369L500.874 23.1051V24Z" fill="#343A40"/>
<path d="M444.388 35.3182C444.388 37.4659 444.967 39.2557 446.007 40.7727H446.893C446.075 39.6477 445.428 37.3466 445.428 35.3182C445.428 33.2898 446.075 30.9886 446.893 29.8636H446.007C444.967 31.3807 444.388 33.1705 444.388 35.3182ZM448.037 33H448.991V32.2159C448.991 31.5852 449.298 31.0398 449.656 30.5284L449.11 30.0852C448.429 30.6307 448.037 31.5341 448.037 32.233V33ZM450.218 33H451.173V32.2159C451.173 31.5852 451.48 31.0398 451.838 30.5284L451.292 30.0852C450.61 30.6307 450.218 31.5341 450.218 32.233V33ZM460.107 33C459.783 31.2102 458.351 30.1534 456.596 30.1534C454.363 30.1534 452.743 31.875 452.743 34.6364C452.743 37.3977 454.363 39.1193 456.596 39.1193C458.351 39.1193 459.783 38.0625 460.107 36.2727H459.05C458.794 37.483 457.755 38.1307 456.596 38.1307C455.01 38.1307 453.766 36.9034 453.766 34.6364C453.766 32.3693 455.01 31.142 456.596 31.142C457.755 31.142 458.794 31.7898 459.05 33H460.107ZM464.508 39C467.167 39 468.667 37.3466 468.667 34.6193C468.667 31.9091 467.167 30.2727 464.627 30.2727H461.815V39H464.508ZM462.871 38.0625V31.2102H464.559C466.604 31.2102 467.644 32.5057 467.644 34.6193C467.644 36.75 466.604 38.0625 464.44 38.0625H462.871ZM479.15 41.4545V32.4545H478.178V33.4943H478.059C477.837 33.1534 477.445 32.3693 476.167 32.3693C474.513 32.3693 473.371 33.6818 473.371 35.7443C473.371 37.8239 474.513 39.1364 476.15 39.1364C477.411 39.1364 477.837 38.3523 478.059 37.9943H478.144V41.4545H479.15ZM478.161 35.7273C478.161 37.2102 477.496 38.233 476.286 38.233C475.025 38.233 474.377 37.125 474.377 35.7273C474.377 34.3466 475.008 33.2727 476.286 33.2727C477.513 33.2727 478.161 34.2614 478.161 35.7273ZM485.116 36.3239C485.116 37.5511 484.178 38.1136 483.428 38.1136C482.593 38.1136 481.996 37.5 481.996 36.5455V32.4545H480.991V36.6136C480.991 38.2841 481.877 39.0852 483.104 39.0852C484.093 39.0852 484.741 38.5568 485.048 37.892H485.116V39H486.121V32.4545H485.116V36.3239ZM489.89 39.1534C491.032 39.1534 491.628 38.5398 491.833 38.1136H491.884V39H492.89V34.6875C492.89 32.608 491.304 32.3693 490.469 32.3693C489.48 32.3693 488.355 32.7102 487.844 33.9034L488.799 34.2443C489.02 33.767 489.544 33.2557 490.503 33.2557C491.428 33.2557 491.884 33.7457 491.884 34.5852V34.6193C491.884 35.1051 491.39 35.0625 490.196 35.2159C488.982 35.3736 487.657 35.642 487.657 37.142C487.657 38.4205 488.645 39.1534 489.89 39.1534ZM490.043 38.25C489.242 38.25 488.662 37.892 488.662 37.1932C488.662 36.4261 489.361 36.1875 490.145 36.0852C490.571 36.0341 491.713 35.9148 491.884 35.7102V36.6307C491.884 37.4489 491.236 38.25 490.043 38.25ZM495.731 30.2727H494.725V39H495.731V30.2727ZM497.573 39H498.578V32.4545H497.573V39ZM498.084 31.3636C498.476 31.3636 498.8 31.0568 498.8 30.6818C498.8 30.3068 498.476 30 498.084 30C497.692 30 497.368 30.3068 497.368 30.6818C497.368 31.0568 497.692 31.3636 498.084 31.3636ZM503.267 32.4545H501.869V30.8864H500.864V32.4545H499.875V33.3068H500.864V37.3977C500.864 38.5398 501.784 39.0852 502.636 39.0852C503.011 39.0852 503.25 39.017 503.386 38.9659L503.182 38.0625C503.097 38.0795 502.96 38.1136 502.739 38.1136C502.295 38.1136 501.869 37.9773 501.869 37.125V33.3068H503.267V32.4545ZM505.428 41.4545C506.335 41.4545 506.974 40.973 507.354 39.9545L510.141 32.4716L509.041 32.4545L507.234 37.6705H507.166L505.359 32.4545H504.268L506.689 39.0341L506.501 39.5455C506.135 40.5426 505.683 40.6364 504.95 40.4489L504.695 41.3352C504.797 41.3864 505.087 41.4545 505.428 41.4545ZM512.779 30.2727H511.825V31.0568C511.825 31.6875 511.518 32.233 511.16 32.7443L511.706 33.1875C512.387 32.642 512.779 31.7386 512.779 31.0398V30.2727ZM514.961 30.2727H514.007V31.0568C514.007 31.6875 513.7 32.233 513.342 32.7443L513.887 33.1875C514.569 32.642 514.961 31.7386 514.961 31.0398V30.2727ZM518.611 35.3182C518.611 33.1705 518.032 31.3807 516.992 29.8636H516.105C516.924 30.9886 517.571 33.2898 517.571 35.3182C517.571 37.3466 516.924 39.6477 516.105 40.7727H516.992C518.032 39.2557 518.611 37.4659 518.611 35.3182Z" fill="#868E96"/>
<path d="M16 58.3137L16 47" stroke="#343A40" stroke-width="2.16"/>
<path d="M104 58.3137L104 47" stroke="#343A40" stroke-width="2.16"/>
<path d="M321 58.3137L321 47" stroke="#343A40" stroke-width="2.16"/>
<path d="M483 58.3137L483 47" stroke="#343A40" stroke-width="2.16"/>
<path d="M280 58.3137L280 47" stroke="#343A40" stroke-width="2.16"/>
<path d="M188 58.3137L188 47" stroke="#343A40" stroke-width="2.16"/>
<path d="M188 78.3137L188 67" stroke="#40C057" stroke-width="2.16"/>
<path d="M322 78L187 78" stroke="#40C057" stroke-width="2.16"/>
<path d="M321 78.3137L321 67" stroke="#40C057" stroke-width="2.16"/>
</svg>
