<svg width="280" height="128" viewBox="0 0 280 128" fill="none" xmlns="http://www.w3.org/2000/svg">
<path opacity="0.3" d="M17 32C20.9782 32 24.7936 30.4196 27.6066 27.6066C30.4196 24.7936 32 20.9782 32 17C32 13.0218 30.4196 9.20644 27.6066 6.3934C24.7936 3.58035 20.9782 2 17 2C13.0218 2 9.20644 3.58035 6.3934 6.3934C3.58035 9.20644 2 13.0218 2 17C2 20.9782 3.58035 24.7936 6.3934 27.6066C9.20644 30.4196 13.0218 32 17 32Z" stroke="#0000FF" stroke-width="2.16"/>
<path opacity="0.3" d="M15.6973 21H14.5723V12.4688H15.6973V21ZM18.7676 21H17.6836V12H18.7676V21Z" fill="#0000FF"/>
<path opacity="0.3" d="M53 32C56.9782 32 60.7936 30.4196 63.6066 27.6066C66.4196 24.7936 68 20.9782 68 17C68 13.0218 66.4196 9.20644 63.6066 6.3934C60.7936 3.58035 56.9782 2 53 2C49.0218 2 45.2064 3.58035 42.3934 6.3934C39.5804 9.20644 38 13.0218 38 17C38 20.9782 39.5804 24.7936 42.3934 27.6066C45.2064 30.4196 49.0218 32 53 32Z" stroke="#0000FF" stroke-width="2.16"/>
<path opacity="0.3" d="M54.2344 21C54.1719 20.875 54.1211 20.6523 54.082 20.332C53.5781 20.8555 52.9766 21.1172 52.2773 21.1172C51.6523 21.1172 51.1387 20.9414 50.7363 20.5898C50.3379 20.2344 50.1387 19.7852 50.1387 19.2422C50.1387 18.582 50.3887 18.0703 50.8887 17.707C51.3926 17.3398 52.0996 17.1562 53.0098 17.1562H54.0645V16.6582C54.0645 16.2793 53.9512 15.9785 53.7246 15.7559C53.498 15.5293 53.1641 15.416 52.7227 15.416C52.3359 15.416 52.0117 15.5137 51.75 15.709C51.4883 15.9043 51.3574 16.1406 51.3574 16.418H50.2676C50.2676 16.1016 50.3789 15.7969 50.6016 15.5039C50.8281 15.207 51.1328 14.9727 51.5156 14.8008C51.9023 14.6289 52.3262 14.543 52.7871 14.543C53.5176 14.543 54.0898 14.7266 54.5039 15.0938C54.918 15.457 55.1328 15.959 55.1484 16.5996V19.5176C55.1484 20.0996 55.2227 20.5625 55.3711 20.9062V21H54.2344ZM52.4355 20.1738C52.7754 20.1738 53.0977 20.0859 53.4023 19.9102C53.707 19.7344 53.9277 19.5059 54.0645 19.2246V17.9238H53.2148C51.8867 17.9238 51.2227 18.3125 51.2227 19.0898C51.2227 19.4297 51.3359 19.6953 51.5625 19.8867C51.7891 20.0781 52.0801 20.1738 52.4355 20.1738Z" fill="#0000FF"/>
<path opacity="0.3" d="M89 32H128C131.978 32 135.794 30.4197 138.607 27.6067C141.42 24.7936 143 20.9783 143 17C143 13.0218 141.42 9.20649 138.607 6.39345C135.794 3.5804 131.978 2.00005 128 2.00005H89C86.9477 1.86292 84.8891 2.14934 82.9522 2.84152C81.0153 3.53369 79.2414 4.61683 77.7409 6.02362C76.2403 7.4304 75.0451 9.13077 74.2295 11.0191C73.4139 12.9073 72.9954 14.9432 73 17C72.9954 19.0569 73.4139 21.0928 74.2295 22.981C75.0451 24.8693 76.2403 26.5697 77.7409 27.9765C79.2414 29.3833 81.0153 30.4664 82.9522 31.1586C84.8891 31.8508 86.9477 32.1372 89 32Z" stroke="#0000FF" stroke-width="2.16"/>
<path opacity="0.3" d="M91.3398 14.6602L91.3691 15.3633C91.834 14.8164 92.4609 14.543 93.25 14.543C94.1367 14.543 94.7402 14.8828 95.0605 15.5625C95.2715 15.2578 95.5449 15.0117 95.8809 14.8242C96.2207 14.6367 96.6211 14.543 97.082 14.543C98.4727 14.543 99.1797 15.2793 99.2031 16.752V21H98.1191V16.8164C98.1191 16.3633 98.0156 16.0254 97.8086 15.8027C97.6016 15.5762 97.2539 15.4629 96.7656 15.4629C96.3633 15.4629 96.0293 15.584 95.7637 15.8262C95.498 16.0645 95.3438 16.3867 95.3008 16.793V21H94.2109V16.8457C94.2109 15.9238 93.7598 15.4629 92.8574 15.4629C92.1465 15.4629 91.6602 15.7656 91.3984 16.3711V21H90.3145V14.6602H91.3398ZM104.758 21C104.695 20.875 104.645 20.6523 104.605 20.332C104.102 20.8555 103.5 21.1172 102.801 21.1172C102.176 21.1172 101.662 20.9414 101.26 20.5898C100.861 20.2344 100.662 19.7852 100.662 19.2422C100.662 18.582 100.912 18.0703 101.412 17.707C101.916 17.3398 102.623 17.1562 103.533 17.1562H104.588V16.6582C104.588 16.2793 104.475 15.9785 104.248 15.7559C104.021 15.5293 103.688 15.416 103.246 15.416C102.859 15.416 102.535 15.5137 102.273 15.709C102.012 15.9043 101.881 16.1406 101.881 16.418H100.791C100.791 16.1016 100.902 15.7969 101.125 15.5039C101.352 15.207 101.656 14.9727 102.039 14.8008C102.426 14.6289 102.85 14.543 103.311 14.543C104.041 14.543 104.613 14.7266 105.027 15.0938C105.441 15.457 105.656 15.959 105.672 16.5996V19.5176C105.672 20.0996 105.746 20.5625 105.895 20.9062V21H104.758ZM102.959 20.1738C103.299 20.1738 103.621 20.0859 103.926 19.9102C104.23 19.7344 104.451 19.5059 104.588 19.2246V17.9238H103.738C102.41 17.9238 101.746 18.3125 101.746 19.0898C101.746 19.4297 101.859 19.6953 102.086 19.8867C102.312 20.0781 102.604 20.1738 102.959 20.1738ZM108.396 14.6602L108.432 15.457C108.916 14.8477 109.549 14.543 110.33 14.543C111.67 14.543 112.346 15.2988 112.357 16.8105V21H111.273V16.8047C111.27 16.3477 111.164 16.0098 110.957 15.791C110.754 15.5723 110.436 15.4629 110.002 15.4629C109.65 15.4629 109.342 15.5566 109.076 15.7441C108.811 15.9316 108.604 16.1777 108.455 16.4824V21H107.371V14.6602H108.396ZM113.734 17.7773C113.734 16.7891 113.963 16.0039 114.42 15.4219C114.877 14.8359 115.482 14.543 116.236 14.543C117.01 14.543 117.613 14.8164 118.047 15.3633L118.1 14.6602H119.09V20.8477C119.09 21.668 118.846 22.3145 118.357 22.7871C117.873 23.2598 117.221 23.4961 116.4 23.4961C115.943 23.4961 115.496 23.3984 115.059 23.2031C114.621 23.0078 114.287 22.7402 114.057 22.4004L114.619 21.75C115.084 22.3242 115.652 22.6113 116.324 22.6113C116.852 22.6113 117.262 22.4629 117.555 22.166C117.852 21.8691 118 21.4512 118 20.9121V20.3672C117.566 20.8672 116.975 21.1172 116.225 21.1172C115.482 21.1172 114.881 20.8184 114.42 20.2207C113.963 19.623 113.734 18.8086 113.734 17.7773ZM114.824 17.9004C114.824 18.6152 114.971 19.1777 115.264 19.5879C115.557 19.9941 115.967 20.1973 116.494 20.1973C117.178 20.1973 117.68 19.8867 118 19.2656V16.3711C117.668 15.7656 117.17 15.4629 116.506 15.4629C115.979 15.4629 115.566 15.668 115.27 16.0781C114.973 16.4883 114.824 17.0957 114.824 17.9004ZM123.361 21.1172C122.502 21.1172 121.803 20.8359 121.264 20.2734C120.725 19.707 120.455 18.9512 120.455 18.0059V17.8066C120.455 17.1777 120.574 16.6172 120.812 16.125C121.055 15.6289 121.391 15.2422 121.82 14.9648C122.254 14.6836 122.723 14.543 123.227 14.543C124.051 14.543 124.691 14.8145 125.148 15.3574C125.605 15.9004 125.834 16.6777 125.834 17.6895V18.1406H121.539C121.555 18.7656 121.736 19.2715 122.084 19.6582C122.436 20.041 122.881 20.2324 123.42 20.2324C123.803 20.2324 124.127 20.1543 124.393 19.998C124.658 19.8418 124.891 19.6348 125.09 19.377L125.752 19.8926C125.221 20.709 124.424 21.1172 123.361 21.1172ZM123.227 15.4336C122.789 15.4336 122.422 15.5938 122.125 15.9141C121.828 16.2305 121.645 16.6758 121.574 17.25H124.75V17.168C124.719 16.6172 124.57 16.1914 124.305 15.8906C124.039 15.5859 123.68 15.4336 123.227 15.4336ZM123.754 12H125.066L123.496 13.7227H122.623L123.754 12Z" fill="#0000FF"/>
<path opacity="0.3" d="M164 32H166C168.052 32.1372 170.111 31.8508 172.048 31.1586C173.985 30.4664 175.759 29.3833 177.259 27.9765C178.76 26.5697 179.955 24.8693 180.771 22.981C181.586 21.0928 182.005 19.0569 182 17C182.005 14.9432 181.586 12.9073 180.771 11.0191C179.955 9.13077 178.76 7.4304 177.259 6.02362C175.759 4.61683 173.985 3.53369 172.048 2.84152C170.111 2.14934 168.052 1.86292 166 2.00005H164C160.022 2.00005 156.206 3.5804 153.393 6.39345C150.58 9.20649 149 13.0218 149 17C149 20.9783 150.58 24.7936 153.393 27.6067C156.206 30.4197 160.022 32 164 32Z" stroke="#0000FF" stroke-width="2.16"/>
<path opacity="0.3" d="M162.734 20.373C162.312 20.8691 161.693 21.1172 160.877 21.1172C160.201 21.1172 159.686 20.9219 159.33 20.5312C158.979 20.1367 158.801 19.5547 158.797 18.7852V14.6602H159.881V18.7559C159.881 19.7168 160.271 20.1973 161.053 20.1973C161.881 20.1973 162.432 19.8887 162.705 19.2715V14.6602H163.789V21H162.758L162.734 20.373ZM166.467 14.6602L166.502 15.457C166.986 14.8477 167.619 14.543 168.4 14.543C169.74 14.543 170.416 15.2988 170.428 16.8105V21H169.344V16.8047C169.34 16.3477 169.234 16.0098 169.027 15.791C168.824 15.5723 168.506 15.4629 168.072 15.4629C167.721 15.4629 167.412 15.5566 167.146 15.7441C166.881 15.9316 166.674 16.1777 166.525 16.4824V21H165.441V14.6602H166.467Z" fill="#0000FF"/>
<path opacity="0.3" d="M202 32H263C266.978 32 270.794 30.4196 273.607 27.6066C276.42 24.7936 278 20.9782 278 17C278 13.0218 276.42 9.20644 273.607 6.3934C270.794 3.58035 266.978 2 263 2H202C198.022 2 194.206 3.58035 191.393 6.3934C188.58 9.20644 187 13.0218 187 17C187 20.9782 188.58 24.7936 191.393 27.6066C194.206 30.4196 198.022 32 202 32Z" stroke="#0000FF" stroke-width="2.16"/>
<path opacity="0.3" d="M211.012 19.3184C211.012 19.0254 210.9 18.7988 210.678 18.6387C210.459 18.4746 210.074 18.334 209.523 18.2168C208.977 18.0996 208.541 17.959 208.217 17.7949C207.896 17.6309 207.658 17.4355 207.502 17.209C207.35 16.9824 207.273 16.7129 207.273 16.4004C207.273 15.8809 207.492 15.4414 207.93 15.082C208.371 14.7227 208.934 14.543 209.617 14.543C210.336 14.543 210.918 14.7285 211.363 15.0996C211.812 15.4707 212.037 15.9453 212.037 16.5234H210.947C210.947 16.2266 210.82 15.9707 210.566 15.7559C210.316 15.541 210 15.4336 209.617 15.4336C209.223 15.4336 208.914 15.5195 208.691 15.6914C208.469 15.8633 208.357 16.0879 208.357 16.3652C208.357 16.627 208.461 16.8242 208.668 16.957C208.875 17.0898 209.248 17.2168 209.787 17.3379C210.33 17.459 210.77 17.6035 211.105 17.7715C211.441 17.9395 211.689 18.1426 211.85 18.3809C212.014 18.6152 212.096 18.9023 212.096 19.2422C212.096 19.8086 211.869 20.2637 211.416 20.6074C210.963 20.9473 210.375 21.1172 209.652 21.1172C209.145 21.1172 208.695 21.0273 208.305 20.8477C207.914 20.668 207.607 20.418 207.385 20.0977C207.166 19.7734 207.057 19.4238 207.057 19.0488H208.141C208.16 19.4121 208.305 19.7012 208.574 19.916C208.848 20.127 209.207 20.2324 209.652 20.2324C210.062 20.2324 210.391 20.1504 210.637 19.9863C210.887 19.8184 211.012 19.5957 211.012 19.3184ZM217.422 21C217.359 20.875 217.309 20.6523 217.27 20.332C216.766 20.8555 216.164 21.1172 215.465 21.1172C214.84 21.1172 214.326 20.9414 213.924 20.5898C213.525 20.2344 213.326 19.7852 213.326 19.2422C213.326 18.582 213.576 18.0703 214.076 17.707C214.58 17.3398 215.287 17.1562 216.197 17.1562H217.252V16.6582C217.252 16.2793 217.139 15.9785 216.912 15.7559C216.686 15.5293 216.352 15.416 215.91 15.416C215.523 15.416 215.199 15.5137 214.938 15.709C214.676 15.9043 214.545 16.1406 214.545 16.418H213.455C213.455 16.1016 213.566 15.7969 213.789 15.5039C214.016 15.207 214.32 14.9727 214.703 14.8008C215.09 14.6289 215.514 14.543 215.975 14.543C216.705 14.543 217.277 14.7266 217.691 15.0938C218.105 15.457 218.32 15.959 218.336 16.5996V19.5176C218.336 20.0996 218.41 20.5625 218.559 20.9062V21H217.422ZM215.623 20.1738C215.963 20.1738 216.285 20.0859 216.59 19.9102C216.895 19.7344 217.115 19.5059 217.252 19.2246V17.9238H216.402C215.074 17.9238 214.41 18.3125 214.41 19.0898C214.41 19.4297 214.523 19.6953 214.75 19.8867C214.977 20.0781 215.268 20.1738 215.623 20.1738ZM221.061 14.6602L221.096 15.457C221.58 14.8477 222.213 14.543 222.994 14.543C224.334 14.543 225.01 15.2988 225.021 16.8105V21H223.938V16.8047C223.934 16.3477 223.828 16.0098 223.621 15.791C223.418 15.5723 223.1 15.4629 222.666 15.4629C222.314 15.4629 222.006 15.5566 221.74 15.7441C221.475 15.9316 221.268 16.1777 221.119 16.4824V21H220.035V14.6602H221.061ZM226.393 17.7773C226.393 16.8047 226.623 16.0234 227.084 15.4336C227.545 14.8398 228.148 14.543 228.895 14.543C229.637 14.543 230.225 14.7969 230.658 15.3047V12H231.742V21H230.746L230.693 20.3203C230.26 20.8516 229.656 21.1172 228.883 21.1172C228.148 21.1172 227.549 20.8164 227.084 20.2148C226.623 19.6133 226.393 18.8281 226.393 17.8594V17.7773ZM227.477 17.9004C227.477 18.6191 227.625 19.1816 227.922 19.5879C228.219 19.9941 228.629 20.1973 229.152 20.1973C229.84 20.1973 230.342 19.8887 230.658 19.2715V16.3594C230.334 15.7617 229.836 15.4629 229.164 15.4629C228.633 15.4629 228.219 15.668 227.922 16.0781C227.625 16.4883 227.477 17.0957 227.477 17.9004ZM239.043 19.5059L240.262 14.6602H241.346L239.5 21H238.621L237.08 16.1953L235.58 21H234.701L232.861 14.6602H233.939L235.188 19.4062L236.664 14.6602H237.537L239.043 19.5059ZM243.631 21H242.547V14.6602H243.631V21ZM242.459 12.9785C242.459 12.8027 242.512 12.6543 242.617 12.5332C242.727 12.4121 242.887 12.3516 243.098 12.3516C243.309 12.3516 243.469 12.4121 243.578 12.5332C243.688 12.6543 243.742 12.8027 243.742 12.9785C243.742 13.1543 243.688 13.3008 243.578 13.418C243.469 13.5352 243.309 13.5938 243.098 13.5938C242.887 13.5938 242.727 13.5352 242.617 13.418C242.512 13.3008 242.459 13.1543 242.459 12.9785ZM247.914 20.2324C248.301 20.2324 248.639 20.1152 248.928 19.8809C249.217 19.6465 249.377 19.3535 249.408 19.002H250.434C250.414 19.3652 250.289 19.7109 250.059 20.0391C249.828 20.3672 249.52 20.6289 249.133 20.8242C248.75 21.0195 248.344 21.1172 247.914 21.1172C247.051 21.1172 246.363 20.8301 245.852 20.2559C245.344 19.6777 245.09 18.8887 245.09 17.8887V17.707C245.09 17.0898 245.203 16.541 245.43 16.0605C245.656 15.5801 245.98 15.207 246.402 14.9414C246.828 14.6758 247.33 14.543 247.908 14.543C248.619 14.543 249.209 14.7559 249.678 15.1816C250.15 15.6074 250.402 16.1602 250.434 16.8398H249.408C249.377 16.4297 249.221 16.0938 248.939 15.832C248.662 15.5664 248.318 15.4336 247.908 15.4336C247.357 15.4336 246.93 15.6328 246.625 16.0312C246.324 16.4258 246.174 16.998 246.174 17.748V17.9531C246.174 18.6836 246.324 19.2461 246.625 19.6406C246.926 20.0352 247.355 20.2324 247.914 20.2324ZM252.736 15.4277C253.217 14.8379 253.842 14.543 254.611 14.543C255.951 14.543 256.627 15.2988 256.639 16.8105V21H255.555V16.8047C255.551 16.3477 255.445 16.0098 255.238 15.791C255.035 15.5723 254.717 15.4629 254.283 15.4629C253.932 15.4629 253.623 15.5566 253.357 15.7441C253.092 15.9316 252.885 16.1777 252.736 16.4824V21H251.652V12H252.736V15.4277Z" fill="#0000FF"/>
<path d="M43 112H49C52.9782 112 56.7936 110.42 59.6066 107.607C62.4196 104.794 64 100.978 64 97C64 93.0218 62.4196 89.2064 59.6066 86.3934C56.7936 83.5803 52.9782 82 49 82H43C39.0218 82 35.2064 83.5803 32.3934 86.3934C29.5804 89.2064 28 93.0218 28 97C28 100.978 29.5804 104.794 32.3934 107.607C35.2064 110.42 39.0218 112 43 112Z" stroke="#FFA8A8" stroke-width="2.16"/>
<path d="M46.0469 101H44.916V97.0566H40.6152V101H39.4902V92.4688H40.6152V96.1367H44.916V92.4688H46.0469V101ZM50.5059 101.117C49.6465 101.117 48.9473 100.836 48.4082 100.273C47.8691 99.707 47.5996 98.9512 47.5996 98.0059V97.8066C47.5996 97.1777 47.7188 96.6172 47.957 96.125C48.1992 95.6289 48.5352 95.2422 48.9648 94.9648C49.3984 94.6836 49.8672 94.543 50.3711 94.543C51.1953 94.543 51.8359 94.8145 52.293 95.3574C52.75 95.9004 52.9785 96.6777 52.9785 97.6895V98.1406H48.6836C48.6992 98.7656 48.8809 99.2715 49.2285 99.6582C49.5801 100.041 50.0254 100.232 50.5645 100.232C50.9473 100.232 51.2715 100.154 51.5371 99.998C51.8027 99.8418 52.0352 99.6348 52.2344 99.377L52.8965 99.8926C52.3652 100.709 51.5684 101.117 50.5059 101.117ZM50.3711 95.4336C49.9336 95.4336 49.5664 95.5938 49.2695 95.9141C48.9727 96.2305 48.7891 96.6758 48.7188 97.25H51.8945V97.168C51.8633 96.6172 51.7148 96.1914 51.4492 95.8906C51.1836 95.5859 50.8242 95.4336 50.3711 95.4336Z" fill="#FFA8A8"/>
<path d="M85 112H95C98.9783 112 102.794 110.42 105.607 107.607C108.42 104.794 110 100.978 110 97C110 93.0217 108.42 89.2064 105.607 86.3934C102.794 83.5803 98.9783 82 95 82H85C82.9477 81.8629 80.8891 82.1493 78.9522 82.8415C77.0153 83.5336 75.2414 84.6168 73.7409 86.0236C72.2403 87.4303 71.0451 89.1307 70.2295 91.019C69.4139 92.9073 68.9954 94.9431 69 97C68.9954 99.0569 69.4139 101.093 70.2295 102.981C71.0451 104.869 72.2403 106.57 73.7409 107.976C75.2414 109.383 77.0153 110.466 78.9522 111.159C80.8891 111.851 82.9477 112.137 85 112V112Z" stroke="#FF0000" stroke-width="2.16"/>
<path d="M82.2422 95.4277C82.7227 94.8379 83.3477 94.543 84.1172 94.543C85.457 94.543 86.1328 95.2988 86.1445 96.8105V101H85.0605V96.8047C85.0566 96.3477 84.9512 96.0098 84.7441 95.791C84.541 95.5723 84.2227 95.4629 83.7891 95.4629C83.4375 95.4629 83.1289 95.5566 82.8633 95.7441C82.5977 95.9316 82.3906 96.1777 82.2422 96.4824V101H81.1582V92H82.2422V95.4277ZM91.6816 101C91.6191 100.875 91.5684 100.652 91.5293 100.332C91.0254 100.855 90.4238 101.117 89.7246 101.117C89.0996 101.117 88.5859 100.941 88.1836 100.59C87.7852 100.234 87.5859 99.7852 87.5859 99.2422C87.5859 98.582 87.8359 98.0703 88.3359 97.707C88.8398 97.3398 89.5469 97.1562 90.457 97.1562H91.5117V96.6582C91.5117 96.2793 91.3984 95.9785 91.1719 95.7559C90.9453 95.5293 90.6113 95.416 90.1699 95.416C89.7832 95.416 89.459 95.5137 89.1973 95.709C88.9355 95.9043 88.8047 96.1406 88.8047 96.418H87.7148C87.7148 96.1016 87.8262 95.7969 88.0488 95.5039C88.2754 95.207 88.5801 94.9727 88.9629 94.8008C89.3496 94.6289 89.7734 94.543 90.2344 94.543C90.9648 94.543 91.5371 94.7266 91.9512 95.0938C92.3652 95.457 92.5801 95.959 92.5957 96.5996V99.5176C92.5957 100.1 92.6699 100.562 92.8184 100.906V101H91.6816ZM89.8828 100.174C90.2227 100.174 90.5449 100.086 90.8496 99.9102C91.1543 99.7344 91.375 99.5059 91.5117 99.2246V97.9238H90.6621C89.334 97.9238 88.6699 98.3125 88.6699 99.0898C88.6699 99.4297 88.7832 99.6953 89.0098 99.8867C89.2363 100.078 89.5273 100.174 89.8828 100.174ZM97.9863 99.3184C97.9863 99.0254 97.875 98.7988 97.6523 98.6387C97.4336 98.4746 97.0488 98.334 96.498 98.2168C95.9512 98.0996 95.5156 97.959 95.1914 97.7949C94.8711 97.6309 94.6328 97.4355 94.4766 97.209C94.3242 96.9824 94.248 96.7129 94.248 96.4004C94.248 95.8809 94.4668 95.4414 94.9043 95.082C95.3457 94.7227 95.9082 94.543 96.5918 94.543C97.3105 94.543 97.8926 94.7285 98.3379 95.0996C98.7871 95.4707 99.0117 95.9453 99.0117 96.5234H97.9219C97.9219 96.2266 97.7949 95.9707 97.541 95.7559C97.291 95.541 96.9746 95.4336 96.5918 95.4336C96.1973 95.4336 95.8887 95.5195 95.666 95.6914C95.4434 95.8633 95.332 96.0879 95.332 96.3652C95.332 96.627 95.4355 96.8242 95.6426 96.957C95.8496 97.0898 96.2227 97.2168 96.7617 97.3379C97.3047 97.459 97.7441 97.6035 98.0801 97.7715C98.416 97.9395 98.6641 98.1426 98.8242 98.3809C98.9883 98.6152 99.0703 98.9023 99.0703 99.2422C99.0703 99.8086 98.8438 100.264 98.3906 100.607C97.9375 100.947 97.3496 101.117 96.627 101.117C96.1191 101.117 95.6699 101.027 95.2793 100.848C94.8887 100.668 94.582 100.418 94.3594 100.098C94.1406 99.7734 94.0312 99.4238 94.0312 99.0488H95.1152C95.1348 99.4121 95.2793 99.7012 95.5488 99.916C95.8223 100.127 96.1816 100.232 96.627 100.232C97.0371 100.232 97.3652 100.15 97.6113 99.9863C97.8613 99.8184 97.9863 99.5957 97.9863 99.3184Z" fill="#FF0000"/>
<path d="M131 112H139C142.978 112 146.794 110.42 149.607 107.607C152.42 104.794 154 100.978 154 97C154 93.0218 152.42 89.2064 149.607 86.3934C146.794 83.5803 142.978 82 139 82H131C127.022 82 123.206 83.5803 120.393 86.3934C117.58 89.2064 116 93.0218 116 97C116 100.978 117.58 104.794 120.393 107.607C123.206 110.42 127.022 112 131 112Z" stroke="#FF0000" stroke-width="2.16"/>
<path d="M131.234 101C131.172 100.875 131.121 100.652 131.082 100.332C130.578 100.855 129.977 101.117 129.277 101.117C128.652 101.117 128.139 100.941 127.736 100.59C127.338 100.234 127.139 99.7852 127.139 99.2422C127.139 98.582 127.389 98.0703 127.889 97.707C128.393 97.3398 129.1 97.1562 130.01 97.1562H131.064V96.6582C131.064 96.2793 130.951 95.9785 130.725 95.7559C130.498 95.5293 130.164 95.416 129.723 95.416C129.336 95.416 129.012 95.5137 128.75 95.709C128.488 95.9043 128.357 96.1406 128.357 96.418H127.268C127.268 96.1016 127.379 95.7969 127.602 95.5039C127.828 95.207 128.133 94.9727 128.516 94.8008C128.902 94.6289 129.326 94.543 129.787 94.543C130.518 94.543 131.09 94.7266 131.504 95.0938C131.918 95.457 132.133 95.959 132.148 96.5996V99.5176C132.148 100.1 132.223 100.562 132.371 100.906V101H131.234ZM129.436 100.174C129.775 100.174 130.098 100.086 130.402 99.9102C130.707 99.7344 130.928 99.5059 131.064 99.2246V97.9238H130.215C128.887 97.9238 128.223 98.3125 128.223 99.0898C128.223 99.4297 128.336 99.6953 128.562 99.8867C128.789 100.078 129.08 100.174 129.436 100.174ZM135.318 93.125V94.6602H136.502V95.498H135.318V99.4297C135.318 99.6836 135.371 99.875 135.477 100.004C135.582 100.129 135.762 100.191 136.016 100.191C136.141 100.191 136.312 100.168 136.531 100.121V101C136.246 101.078 135.969 101.117 135.699 101.117C135.215 101.117 134.85 100.971 134.604 100.678C134.357 100.385 134.234 99.9688 134.234 99.4297V95.498H133.08V94.6602H134.234V93.125H135.318ZM140.404 101.117C139.545 101.117 138.846 100.836 138.307 100.273C137.768 99.707 137.498 98.9512 137.498 98.0059V97.8066C137.498 97.1777 137.617 96.6172 137.855 96.125C138.098 95.6289 138.434 95.2422 138.863 94.9648C139.297 94.6836 139.766 94.543 140.27 94.543C141.094 94.543 141.734 94.8145 142.191 95.3574C142.648 95.9004 142.877 96.6777 142.877 97.6895V98.1406H138.582C138.598 98.7656 138.779 99.2715 139.127 99.6582C139.479 100.041 139.924 100.232 140.463 100.232C140.846 100.232 141.17 100.154 141.436 99.998C141.701 99.8418 141.934 99.6348 142.133 99.377L142.795 99.8926C142.264 100.709 141.467 101.117 140.404 101.117ZM140.27 95.4336C139.832 95.4336 139.465 95.5938 139.168 95.9141C138.871 96.2305 138.688 96.6758 138.617 97.25H141.793V97.168C141.762 96.6172 141.613 96.1914 141.348 95.8906C141.082 95.5859 140.723 95.4336 140.27 95.4336Z" fill="#FF0000"/>
<path d="M71 126.5C74.5 123.5 83.2 118.7 90 123.5C96.8 128.3 106.5 125.5 110.5 123.5C115.167 120.833 125.9 117.1 131.5 123.5C137.1 129.9 149.833 123.167 155.5 119" stroke="#FFA500" stroke-width="3"/>
</svg>
