<svg width="227" height="115" viewBox="0 0 227 115" fill="none" xmlns="http://www.w3.org/2000/svg">
<path d="M17 32H22C23.9698 32 25.9204 31.612 27.7403 30.8582C29.5601 30.1044 31.2137 28.9995 32.6066 27.6066C33.9995 26.2137 35.1044 24.5601 35.8582 22.7403C36.612 20.9204 37 18.9698 37 17C37 15.0302 36.612 13.0796 35.8582 11.2597C35.1044 9.43986 33.9995 7.78628 32.6066 6.3934C31.2137 5.00052 29.5601 3.89563 27.7403 3.14181C25.9204 2.38799 23.9698 2 22 2H17C13.0218 2 9.20644 3.58035 6.3934 6.3934C3.58035 9.20644 2 13.0218 2 17C2 20.9782 3.58035 24.7936 6.3934 27.6066C9.20644 30.4196 13.0218 32 17 32Z" stroke="#FF0000" stroke-width="2.16"/>
<path d="M20.0469 21H18.916V17.0566H14.6152V21H13.4902V12.4688H14.6152V16.1367H18.916V12.4688H20.0469V21ZM24.5059 21.1172C23.6465 21.1172 22.9473 20.8359 22.4082 20.2734C21.8691 19.707 21.5996 18.9512 21.5996 18.0059V17.8066C21.5996 17.1777 21.7188 16.6172 21.957 16.125C22.1992 15.6289 22.5352 15.2422 22.9648 14.9648C23.3984 14.6836 23.8672 14.543 24.3711 14.543C25.1953 14.543 25.8359 14.8145 26.293 15.3574C26.75 15.9004 26.9785 16.6777 26.9785 17.6895V18.1406H22.6836C22.6992 18.7656 22.8809 19.2715 23.2285 19.6582C23.5801 20.041 24.0254 20.2324 24.5645 20.2324C24.9473 20.2324 25.2715 20.1543 25.5371 19.998C25.8027 19.8418 26.0352 19.6348 26.2344 19.377L26.8965 19.8926C26.3652 20.709 25.5684 21.1172 24.5059 21.1172ZM24.3711 15.4336C23.9336 15.4336 23.5664 15.5938 23.2695 15.9141C22.9727 16.2305 22.7891 16.6758 22.7188 17.25H25.8945V17.168C25.8633 16.6172 25.7148 16.1914 25.4492 15.8906C25.1836 15.5859 24.8242 15.4336 24.3711 15.4336Z" fill="#FF0000"/>
<path d="M58 32H93C95.0523 32.1371 97.1109 31.8507 99.0478 31.1585C100.985 30.4663 102.759 29.3832 104.259 27.9764C105.76 26.5696 106.955 24.8693 107.771 22.981C108.586 21.0927 109.005 19.0569 109 17C109.005 14.9431 108.586 12.9073 107.771 11.019C106.955 9.13071 105.76 7.43034 104.259 6.02356C102.759 4.61677 100.985 3.53363 99.0478 2.84146C97.1109 2.14928 95.0523 1.86286 93 1.99999H58C54.0218 1.99999 50.2064 3.58034 47.3934 6.39339C44.5804 9.20643 43 13.0217 43 17C43 20.9782 44.5804 24.7935 47.3934 27.6066C50.2064 30.4196 54.0218 32 58 32Z" stroke="#FF0000" stroke-width="2.16"/>
<path d="M59.8398 14.6602L59.8691 15.3633C60.334 14.8164 60.9609 14.543 61.75 14.543C62.6367 14.543 63.2402 14.8828 63.5605 15.5625C63.7715 15.2578 64.0449 15.0117 64.3809 14.8242C64.7207 14.6367 65.1211 14.543 65.582 14.543C66.9727 14.543 67.6797 15.2793 67.7031 16.752V21H66.6191V16.8164C66.6191 16.3633 66.5156 16.0254 66.3086 15.8027C66.1016 15.5762 65.7539 15.4629 65.2656 15.4629C64.8633 15.4629 64.5293 15.584 64.2637 15.8262C63.998 16.0645 63.8438 16.3867 63.8008 16.793V21H62.7109V16.8457C62.7109 15.9238 62.2598 15.4629 61.3574 15.4629C60.6465 15.4629 60.1602 15.7656 59.8984 16.3711V21H58.8145V14.6602H59.8398ZM73.2578 21C73.1953 20.875 73.1445 20.6523 73.1055 20.332C72.6016 20.8555 72 21.1172 71.3008 21.1172C70.6758 21.1172 70.1621 20.9414 69.7598 20.5898C69.3613 20.2344 69.1621 19.7852 69.1621 19.2422C69.1621 18.582 69.4121 18.0703 69.9121 17.707C70.416 17.3398 71.123 17.1562 72.0332 17.1562H73.0879V16.6582C73.0879 16.2793 72.9746 15.9785 72.748 15.7559C72.5215 15.5293 72.1875 15.416 71.7461 15.416C71.3594 15.416 71.0352 15.5137 70.7734 15.709C70.5117 15.9043 70.3809 16.1406 70.3809 16.418H69.291C69.291 16.1016 69.4023 15.7969 69.625 15.5039C69.8516 15.207 70.1562 14.9727 70.5391 14.8008C70.9258 14.6289 71.3496 14.543 71.8105 14.543C72.541 14.543 73.1133 14.7266 73.5273 15.0938C73.9414 15.457 74.1562 15.959 74.1719 16.5996V19.5176C74.1719 20.0996 74.2461 20.5625 74.3945 20.9062V21H73.2578ZM71.459 20.1738C71.7988 20.1738 72.1211 20.0859 72.4258 19.9102C72.7305 19.7344 72.9512 19.5059 73.0879 19.2246V17.9238H72.2383C70.9102 17.9238 70.2461 18.3125 70.2461 19.0898C70.2461 19.4297 70.3594 19.6953 70.5859 19.8867C70.8125 20.0781 71.1035 20.1738 71.459 20.1738ZM77.6406 18.0645L76.9609 18.7734V21H75.877V12H76.9609V17.4434L77.541 16.7461L79.5156 14.6602H80.834L78.3672 17.3086L81.1211 21H79.8496L77.6406 18.0645ZM84.4668 21.1172C83.6074 21.1172 82.9082 20.8359 82.3691 20.2734C81.8301 19.707 81.5605 18.9512 81.5605 18.0059V17.8066C81.5605 17.1777 81.6797 16.6172 81.918 16.125C82.1602 15.6289 82.4961 15.2422 82.9258 14.9648C83.3594 14.6836 83.8281 14.543 84.332 14.543C85.1562 14.543 85.7969 14.8145 86.2539 15.3574C86.7109 15.9004 86.9395 16.6777 86.9395 17.6895V18.1406H82.6445C82.6602 18.7656 82.8418 19.2715 83.1895 19.6582C83.541 20.041 83.9863 20.2324 84.5254 20.2324C84.9082 20.2324 85.2324 20.1543 85.498 19.998C85.7637 19.8418 85.9961 19.6348 86.1953 19.377L86.8574 19.8926C86.3262 20.709 85.5293 21.1172 84.4668 21.1172ZM84.332 15.4336C83.8945 15.4336 83.5273 15.5938 83.2305 15.9141C82.9336 16.2305 82.75 16.6758 82.6797 17.25H85.8555V17.168C85.8242 16.6172 85.6758 16.1914 85.4102 15.8906C85.1445 15.5859 84.7852 15.4336 84.332 15.4336ZM91.8906 19.3184C91.8906 19.0254 91.7793 18.7988 91.5566 18.6387C91.3379 18.4746 90.9531 18.334 90.4023 18.2168C89.8555 18.0996 89.4199 17.959 89.0957 17.7949C88.7754 17.6309 88.5371 17.4355 88.3809 17.209C88.2285 16.9824 88.1523 16.7129 88.1523 16.4004C88.1523 15.8809 88.3711 15.4414 88.8086 15.082C89.25 14.7227 89.8125 14.543 90.4961 14.543C91.2148 14.543 91.7969 14.7285 92.2422 15.0996C92.6914 15.4707 92.916 15.9453 92.916 16.5234H91.8262C91.8262 16.2266 91.6992 15.9707 91.4453 15.7559C91.1953 15.541 90.8789 15.4336 90.4961 15.4336C90.1016 15.4336 89.793 15.5195 89.5703 15.6914C89.3477 15.8633 89.2363 16.0879 89.2363 16.3652C89.2363 16.627 89.3398 16.8242 89.5469 16.957C89.7539 17.0898 90.127 17.2168 90.666 17.3379C91.209 17.459 91.6484 17.6035 91.9844 17.7715C92.3203 17.9395 92.5684 18.1426 92.7285 18.3809C92.8926 18.6152 92.9746 18.9023 92.9746 19.2422C92.9746 19.8086 92.748 20.2637 92.2949 20.6074C91.8418 20.9473 91.2539 21.1172 90.5312 21.1172C90.0234 21.1172 89.5742 21.0273 89.1836 20.8477C88.793 20.668 88.4863 20.418 88.2637 20.0977C88.0449 19.7734 87.9355 19.4238 87.9355 19.0488H89.0195C89.0391 19.4121 89.1836 19.7012 89.4531 19.916C89.7266 20.127 90.0859 20.2324 90.5312 20.2324C90.9414 20.2324 91.2695 20.1504 91.5156 19.9863C91.7656 19.8184 91.8906 19.5957 91.8906 19.3184Z" fill="#FF0000"/>
<path d="M129 32C132.978 32 136.794 30.4196 139.607 27.6066C142.42 24.7936 144 20.9782 144 17C144 13.0218 142.42 9.20644 139.607 6.3934C136.794 3.58035 132.978 2 129 2C125.022 2 121.206 3.58035 118.393 6.3934C115.58 9.20644 114 13.0218 114 17C114 20.9782 115.58 24.7936 118.393 27.6066C121.206 30.4196 125.022 32 129 32Z" stroke="#FF0000" stroke-width="2.16"/>
<path d="M130.234 21C130.172 20.875 130.121 20.6523 130.082 20.332C129.578 20.8555 128.977 21.1172 128.277 21.1172C127.652 21.1172 127.139 20.9414 126.736 20.5898C126.338 20.2344 126.139 19.7852 126.139 19.2422C126.139 18.582 126.389 18.0703 126.889 17.707C127.393 17.3398 128.1 17.1562 129.01 17.1562H130.064V16.6582C130.064 16.2793 129.951 15.9785 129.725 15.7559C129.498 15.5293 129.164 15.416 128.723 15.416C128.336 15.416 128.012 15.5137 127.75 15.709C127.488 15.9043 127.357 16.1406 127.357 16.418H126.268C126.268 16.1016 126.379 15.7969 126.602 15.5039C126.828 15.207 127.133 14.9727 127.516 14.8008C127.902 14.6289 128.326 14.543 128.787 14.543C129.518 14.543 130.09 14.7266 130.504 15.0938C130.918 15.457 131.133 15.959 131.148 16.5996V19.5176C131.148 20.0996 131.223 20.5625 131.371 20.9062V21H130.234ZM128.436 20.1738C128.775 20.1738 129.098 20.0859 129.402 19.9102C129.707 19.7344 129.928 19.5059 130.064 19.2246V17.9238H129.215C127.887 17.9238 127.223 18.3125 127.223 19.0898C127.223 19.4297 127.336 19.6953 127.562 19.8867C127.789 20.0781 128.08 20.1738 128.436 20.1738Z" fill="#FF0000"/>
<path d="M165 32H186C189.978 32 193.794 30.4196 196.607 27.6066C199.42 24.7936 201 20.9782 201 17C201 13.0218 199.42 9.20644 196.607 6.3934C193.794 3.58035 189.978 2 186 2H165C161.022 2 157.206 3.58035 154.393 6.3934C151.58 9.20644 150 13.0218 150 17C150 20.9782 151.58 24.7936 154.393 27.6066C157.206 30.4196 161.022 32 165 32Z" stroke="#FF0000" stroke-width="2.16"/>
<path d="M165.363 20.2324C165.75 20.2324 166.088 20.1152 166.377 19.8809C166.666 19.6465 166.826 19.3535 166.857 19.002H167.883C167.863 19.3652 167.738 19.7109 167.508 20.0391C167.277 20.3672 166.969 20.6289 166.582 20.8242C166.199 21.0195 165.793 21.1172 165.363 21.1172C164.5 21.1172 163.812 20.8301 163.301 20.2559C162.793 19.6777 162.539 18.8887 162.539 17.8887V17.707C162.539 17.0898 162.652 16.541 162.879 16.0605C163.105 15.5801 163.43 15.207 163.852 14.9414C164.277 14.6758 164.779 14.543 165.357 14.543C166.068 14.543 166.658 14.7559 167.127 15.1816C167.6 15.6074 167.852 16.1602 167.883 16.8398H166.857C166.826 16.4297 166.67 16.0938 166.389 15.832C166.111 15.5664 165.768 15.4336 165.357 15.4336C164.807 15.4336 164.379 15.6328 164.074 16.0312C163.773 16.4258 163.623 16.998 163.623 17.748V17.9531C163.623 18.6836 163.773 19.2461 164.074 19.6406C164.375 20.0352 164.805 20.2324 165.363 20.2324ZM173.016 21C172.953 20.875 172.902 20.6523 172.863 20.332C172.359 20.8555 171.758 21.1172 171.059 21.1172C170.434 21.1172 169.92 20.9414 169.518 20.5898C169.119 20.2344 168.92 19.7852 168.92 19.2422C168.92 18.582 169.17 18.0703 169.67 17.707C170.174 17.3398 170.881 17.1562 171.791 17.1562H172.846V16.6582C172.846 16.2793 172.732 15.9785 172.506 15.7559C172.279 15.5293 171.945 15.416 171.504 15.416C171.117 15.416 170.793 15.5137 170.531 15.709C170.27 15.9043 170.139 16.1406 170.139 16.418H169.049C169.049 16.1016 169.16 15.7969 169.383 15.5039C169.609 15.207 169.914 14.9727 170.297 14.8008C170.684 14.6289 171.107 14.543 171.568 14.543C172.299 14.543 172.871 14.7266 173.285 15.0938C173.699 15.457 173.914 15.959 173.93 16.5996V19.5176C173.93 20.0996 174.004 20.5625 174.152 20.9062V21H173.016ZM171.217 20.1738C171.557 20.1738 171.879 20.0859 172.184 19.9102C172.488 19.7344 172.709 19.5059 172.846 19.2246V17.9238H171.996C170.668 17.9238 170.004 18.3125 170.004 19.0898C170.004 19.4297 170.117 19.6953 170.344 19.8867C170.57 20.0781 170.861 20.1738 171.217 20.1738ZM177.398 18.0645L176.719 18.7734V21H175.635V12H176.719V17.4434L177.299 16.7461L179.273 14.6602H180.592L178.125 17.3086L180.879 21H179.607L177.398 18.0645ZM184.225 21.1172C183.365 21.1172 182.666 20.8359 182.127 20.2734C181.588 19.707 181.318 18.9512 181.318 18.0059V17.8066C181.318 17.1777 181.438 16.6172 181.676 16.125C181.918 15.6289 182.254 15.2422 182.684 14.9648C183.117 14.6836 183.586 14.543 184.09 14.543C184.914 14.543 185.555 14.8145 186.012 15.3574C186.469 15.9004 186.697 16.6777 186.697 17.6895V18.1406H182.402C182.418 18.7656 182.6 19.2715 182.947 19.6582C183.299 20.041 183.744 20.2324 184.283 20.2324C184.666 20.2324 184.99 20.1543 185.256 19.998C185.521 19.8418 185.754 19.6348 185.953 19.377L186.615 19.8926C186.084 20.709 185.287 21.1172 184.225 21.1172ZM184.09 15.4336C183.652 15.4336 183.285 15.5938 182.988 15.9141C182.691 16.2305 182.508 16.6758 182.438 17.25H185.613V17.168C185.582 16.6172 185.434 16.1914 185.168 15.8906C184.902 15.5859 184.543 15.4336 184.09 15.4336Z" fill="#FF0000"/>
<path d="M49 112C52.9782 112 56.7935 110.42 59.6066 107.607C62.4196 104.794 64 100.978 64 97C64 93.0217 62.4196 89.2064 59.6066 86.3934C56.7935 83.5803 52.9782 82 49 82C46.9477 81.8629 44.8891 82.1493 42.9522 82.8415C41.0153 83.5336 39.2414 84.6168 37.7408 86.0236C36.2402 87.4303 35.045 89.1307 34.2295 91.019C33.4139 92.9073 32.9954 94.9431 33 97C32.9954 99.0569 33.4139 101.093 34.2295 102.981C35.045 104.869 36.2402 106.57 37.7408 107.976C39.2414 109.383 41.0153 110.466 42.9522 111.159C44.8891 111.851 46.9477 112.137 49 112V112Z" stroke="#0000FF" stroke-width="2.16"/>
<path d="M47.6973 101H46.5723V92.4688H47.6973V101ZM50.7676 101H49.6836V92H50.7676V101Z" fill="#0000FF"/>
<path d="M85 112H94C97.9782 112 101.794 110.42 104.607 107.607C107.42 104.794 109 100.978 109 97C109 93.0217 107.42 89.2064 104.607 86.3934C101.794 83.5803 97.9782 82 94 82H85C82.9477 81.8629 80.8891 82.1493 78.9522 82.8415C77.0153 83.5336 75.2414 84.6168 73.7408 86.0236C72.2402 87.4303 71.045 89.1307 70.2295 91.019C69.4139 92.9073 68.9954 94.9431 69 97C68.9954 99.0569 69.4139 101.093 70.2295 102.981C71.045 104.869 72.2402 106.57 73.7408 107.976C75.2414 109.383 77.0153 110.466 78.9522 111.159C80.8891 111.851 82.9477 112.137 85 112V112Z" stroke="#0000FF" stroke-width="2.16"/>
<path d="M81.3535 101V95.498H80.3516V94.6602H81.3535V94.0098C81.3535 93.3301 81.5352 92.8047 81.8984 92.4336C82.2617 92.0625 82.7754 91.877 83.4395 91.877C83.6895 91.877 83.9375 91.9102 84.1836 91.9766L84.125 92.8555C83.9414 92.8203 83.7461 92.8027 83.5391 92.8027C83.1875 92.8027 82.916 92.9062 82.7246 93.1133C82.5332 93.3164 82.4375 93.6094 82.4375 93.9922V94.6602H83.791V95.498H82.4375V101H81.3535ZM88.9062 101C88.8438 100.875 88.793 100.652 88.7539 100.332C88.25 100.855 87.6484 101.117 86.9492 101.117C86.3242 101.117 85.8105 100.941 85.4082 100.59C85.0098 100.234 84.8105 99.7852 84.8105 99.2422C84.8105 98.582 85.0605 98.0703 85.5605 97.707C86.0645 97.3398 86.7715 97.1562 87.6816 97.1562H88.7363V96.6582C88.7363 96.2793 88.623 95.9785 88.3965 95.7559C88.1699 95.5293 87.8359 95.416 87.3945 95.416C87.0078 95.416 86.6836 95.5137 86.4219 95.709C86.1602 95.9043 86.0293 96.1406 86.0293 96.418H84.9395C84.9395 96.1016 85.0508 95.7969 85.2734 95.5039C85.5 95.207 85.8047 94.9727 86.1875 94.8008C86.5742 94.6289 86.998 94.543 87.459 94.543C88.1895 94.543 88.7617 94.7266 89.1758 95.0938C89.5898 95.457 89.8047 95.959 89.8203 96.5996V99.5176C89.8203 100.1 89.8945 100.562 90.043 100.906V101H88.9062ZM87.1074 100.174C87.4473 100.174 87.7695 100.086 88.0742 99.9102C88.3789 99.7344 88.5996 99.5059 88.7363 99.2246V97.9238H87.8867C86.5586 97.9238 85.8945 98.3125 85.8945 99.0898C85.8945 99.4297 86.0078 99.6953 86.2344 99.8867C86.4609 100.078 86.752 100.174 87.1074 100.174ZM92.6973 101H91.6133V94.6602H92.6973V101ZM91.5254 92.9785C91.5254 92.8027 91.5781 92.6543 91.6836 92.5332C91.793 92.4121 91.9531 92.3516 92.1641 92.3516C92.375 92.3516 92.5352 92.4121 92.6445 92.5332C92.7539 92.6543 92.8086 92.8027 92.8086 92.9785C92.8086 93.1543 92.7539 93.3008 92.6445 93.418C92.5352 93.5352 92.375 93.5938 92.1641 93.5938C91.9531 93.5938 91.793 93.5352 91.6836 93.418C91.5781 93.3008 91.5254 93.1543 91.5254 92.9785ZM95.9082 93.125V94.6602H97.0918V95.498H95.9082V99.4297C95.9082 99.6836 95.9609 99.875 96.0664 100.004C96.1719 100.129 96.3516 100.191 96.6055 100.191C96.7305 100.191 96.9023 100.168 97.1211 100.121V101C96.8359 101.078 96.5586 101.117 96.2891 101.117C95.8047 101.117 95.4395 100.971 95.1934 100.678C94.9473 100.385 94.8242 99.9688 94.8242 99.4297V95.498H93.6699V94.6602H94.8242V93.125H95.9082Z" fill="#0000FF"/>
<path d="M130 112H132C135.978 112 139.794 110.42 142.607 107.607C145.42 104.794 147 100.978 147 97C147 93.0218 145.42 89.2064 142.607 86.3934C139.794 83.5803 135.978 82 132 82H130C126.022 82 122.206 83.5803 119.393 86.3934C116.58 89.2064 115 93.0218 115 97C115 100.978 116.58 104.794 119.393 107.607C122.206 110.42 126.022 112 130 112Z" stroke="#0000FF" stroke-width="2.16"/>
<path d="M128.734 100.373C128.312 100.869 127.693 101.117 126.877 101.117C126.201 101.117 125.686 100.922 125.33 100.531C124.979 100.137 124.801 99.5547 124.797 98.7852V94.6602H125.881V98.7559C125.881 99.7168 126.271 100.197 127.053 100.197C127.881 100.197 128.432 99.8887 128.705 99.2715V94.6602H129.789V101H128.758L128.734 100.373ZM132.467 94.6602L132.502 95.457C132.986 94.8477 133.619 94.543 134.4 94.543C135.74 94.543 136.416 95.2988 136.428 96.8105V101H135.344V96.8047C135.34 96.3477 135.234 96.0098 135.027 95.791C134.824 95.5723 134.506 95.4629 134.072 95.4629C133.721 95.4629 133.412 95.5566 133.146 95.7441C132.881 95.9316 132.674 96.1777 132.525 96.4824V101H131.441V94.6602H132.467Z" fill="#0000FF"/>
<path d="M168 112H208C210.052 112.137 212.111 111.851 214.048 111.159C215.985 110.466 217.759 109.383 219.259 107.976C220.76 106.57 221.955 104.869 222.771 102.981C223.586 101.093 224.005 99.0569 224 97C224.005 94.9431 223.586 92.9073 222.771 91.019C221.955 89.1307 220.76 87.4303 219.259 86.0236C217.759 84.6168 215.985 83.5336 214.048 82.8415C212.111 82.1493 210.052 81.8629 208 82H168C164.022 82 160.206 83.5803 157.393 86.3934C154.58 89.2064 153 93.0217 153 97C153 100.978 154.58 104.794 157.393 107.607C160.206 110.42 164.022 112 168 112Z" stroke="#0000FF" stroke-width="2.16"/>
<path d="M170.062 97.7773C170.062 96.7891 170.291 96.0039 170.748 95.4219C171.205 94.8359 171.811 94.543 172.564 94.543C173.338 94.543 173.941 94.8164 174.375 95.3633L174.428 94.6602H175.418V100.848C175.418 101.668 175.174 102.314 174.686 102.787C174.201 103.26 173.549 103.496 172.729 103.496C172.271 103.496 171.824 103.398 171.387 103.203C170.949 103.008 170.615 102.74 170.385 102.4L170.947 101.75C171.412 102.324 171.98 102.611 172.652 102.611C173.18 102.611 173.59 102.463 173.883 102.166C174.18 101.869 174.328 101.451 174.328 100.912V100.367C173.895 100.867 173.303 101.117 172.553 101.117C171.811 101.117 171.209 100.818 170.748 100.221C170.291 99.623 170.062 98.8086 170.062 97.7773ZM171.152 97.9004C171.152 98.6152 171.299 99.1777 171.592 99.5879C171.885 99.9941 172.295 100.197 172.822 100.197C173.506 100.197 174.008 99.8867 174.328 99.2656V96.3711C173.996 95.7656 173.498 95.4629 172.834 95.4629C172.307 95.4629 171.895 95.668 171.598 96.0781C171.301 96.4883 171.152 97.0957 171.152 97.9004ZM180.973 101C180.91 100.875 180.859 100.652 180.82 100.332C180.316 100.855 179.715 101.117 179.016 101.117C178.391 101.117 177.877 100.941 177.475 100.59C177.076 100.234 176.877 99.7852 176.877 99.2422C176.877 98.582 177.127 98.0703 177.627 97.707C178.131 97.3398 178.838 97.1562 179.748 97.1562H180.803V96.6582C180.803 96.2793 180.689 95.9785 180.463 95.7559C180.236 95.5293 179.902 95.416 179.461 95.416C179.074 95.416 178.75 95.5137 178.488 95.709C178.227 95.9043 178.096 96.1406 178.096 96.418H177.006C177.006 96.1016 177.117 95.7969 177.34 95.5039C177.566 95.207 177.871 94.9727 178.254 94.8008C178.641 94.6289 179.064 94.543 179.525 94.543C180.256 94.543 180.828 94.7266 181.242 95.0938C181.656 95.457 181.871 95.959 181.887 96.5996V99.5176C181.887 100.1 181.961 100.562 182.109 100.906V101H180.973ZM179.174 100.174C179.514 100.174 179.836 100.086 180.141 99.9102C180.445 99.7344 180.666 99.5059 180.803 99.2246V97.9238H179.953C178.625 97.9238 177.961 98.3125 177.961 99.0898C177.961 99.4297 178.074 99.6953 178.301 99.8867C178.527 100.078 178.818 100.174 179.174 100.174ZM181.418 93.6055V93.6641H180.521L179.643 92.668L178.77 93.6641H177.873V93.5938L179.314 92H179.971L181.418 93.6055ZM185.057 93.125V94.6602H186.24V95.498H185.057V99.4297C185.057 99.6836 185.109 99.875 185.215 100.004C185.32 100.129 185.5 100.191 185.754 100.191C185.879 100.191 186.051 100.168 186.27 100.121V101C185.984 101.078 185.707 101.117 185.438 101.117C184.953 101.117 184.588 100.971 184.342 100.678C184.096 100.385 183.973 99.9688 183.973 99.4297V95.498H182.818V94.6602H183.973V93.125H185.057ZM190.143 101.117C189.283 101.117 188.584 100.836 188.045 100.273C187.506 99.707 187.236 98.9512 187.236 98.0059V97.8066C187.236 97.1777 187.355 96.6172 187.594 96.125C187.836 95.6289 188.172 95.2422 188.602 94.9648C189.035 94.6836 189.504 94.543 190.008 94.543C190.832 94.543 191.473 94.8145 191.93 95.3574C192.387 95.9004 192.615 96.6777 192.615 97.6895V98.1406H188.32C188.336 98.7656 188.518 99.2715 188.865 99.6582C189.217 100.041 189.662 100.232 190.201 100.232C190.584 100.232 190.908 100.154 191.174 99.998C191.439 99.8418 191.672 99.6348 191.871 99.377L192.533 99.8926C192.002 100.709 191.205 101.117 190.143 101.117ZM190.008 95.4336C189.57 95.4336 189.203 95.5938 188.906 95.9141C188.609 96.2305 188.426 96.6758 188.355 97.25H191.531V97.168C191.5 96.6172 191.352 96.1914 191.086 95.8906C190.82 95.5859 190.461 95.4336 190.008 95.4336ZM197.789 101C197.727 100.875 197.676 100.652 197.637 100.332C197.133 100.855 196.531 101.117 195.832 101.117C195.207 101.117 194.693 100.941 194.291 100.59C193.893 100.234 193.693 99.7852 193.693 99.2422C193.693 98.582 193.943 98.0703 194.443 97.707C194.947 97.3398 195.654 97.1562 196.564 97.1562H197.619V96.6582C197.619 96.2793 197.506 95.9785 197.279 95.7559C197.053 95.5293 196.719 95.416 196.277 95.416C195.891 95.416 195.566 95.5137 195.305 95.709C195.043 95.9043 194.912 96.1406 194.912 96.418H193.822C193.822 96.1016 193.934 95.7969 194.156 95.5039C194.383 95.207 194.688 94.9727 195.07 94.8008C195.457 94.6289 195.881 94.543 196.342 94.543C197.072 94.543 197.645 94.7266 198.059 95.0938C198.473 95.457 198.688 95.959 198.703 96.5996V99.5176C198.703 100.1 198.777 100.562 198.926 100.906V101H197.789ZM195.99 100.174C196.33 100.174 196.652 100.086 196.957 99.9102C197.262 99.7344 197.482 99.5059 197.619 99.2246V97.9238H196.77C195.441 97.9238 194.777 98.3125 194.777 99.0898C194.777 99.4297 194.891 99.6953 195.117 99.8867C195.344 100.078 195.635 100.174 195.99 100.174ZM204.316 100.373C203.895 100.869 203.275 101.117 202.459 101.117C201.783 101.117 201.268 100.922 200.912 100.531C200.561 100.137 200.383 99.5547 200.379 98.7852V94.6602H201.463V98.7559C201.463 99.7168 201.854 100.197 202.635 100.197C203.463 100.197 204.014 99.8887 204.287 99.2715V94.6602H205.371V101H204.34L204.316 100.373Z" fill="#0000FF"/>
<path d="M49 82L39 74L47 69L49 82Z" fill="black"/>
<path d="M20 32L46 77" stroke="black" stroke-width="2.16"/>
<path d="M89 82L82 72L90 69L89 82Z" fill="black"/>
<path d="M76 32L88 76" stroke="black" stroke-width="2.16"/>
<path d="M131 82L126 70H135L131 82Z" fill="black"/>
<path d="M129 32L131 76" stroke="black" stroke-width="2.16"/>
<path d="M188 82L181 71L190 69L188 82Z" fill="black"/>
<path d="M175 32L187 76" stroke="black" stroke-width="2.16"/>
<path d="M89 82L97 72L101 80L89 82Z" fill="#90EE90"/>
<path d="M175 32L94 79" stroke="#90EE90" stroke-width="2.16"/>
</svg>
