<svg width="275" height="34" viewBox="0 0 275 34" fill="none" xmlns="http://www.w3.org/2000/svg">
<path d="M17 32H27C30.9782 32 34.7936 30.4196 37.6066 27.6066C40.4196 24.7936 42 20.9782 42 17C42 13.0218 40.4196 9.20644 37.6066 6.3934C34.7936 3.58035 30.9782 2 27 2H17C13.0218 2 9.20644 3.58035 6.3934 6.3934C3.58035 9.20644 2 13.0218 2 17C2 20.9782 3.58035 24.7936 6.3934 27.6066C9.20644 30.4196 13.0218 32 17 32Z" stroke="#FF0000" stroke-width="2.16"/>
<path d="M13.9902 20V11.4688H16.3984C17.1406 11.4688 17.7969 11.6328 18.3672 11.9609C18.9375 12.2891 19.377 12.7559 19.6855 13.3613C19.998 13.9668 20.1562 14.6621 20.1602 15.4473V15.9922C20.1602 16.7969 20.0039 17.502 19.6914 18.1074C19.3828 18.7129 18.9395 19.1777 18.3613 19.502C17.7871 19.8262 17.1172 19.9922 16.3516 20H13.9902ZM15.1152 12.3945V19.0801H16.2988C17.166 19.0801 17.8398 18.8105 18.3203 18.2715C18.8047 17.7324 19.0469 16.9648 19.0469 15.9688V15.4707C19.0469 14.502 18.8184 13.75 18.3613 13.2148C17.9082 12.6758 17.2637 12.4023 16.4277 12.3945H15.1152ZM22.873 20H21.7891V13.6602H22.873V20ZM21.7012 11.9785C21.7012 11.8027 21.7539 11.6543 21.8594 11.5332C21.9688 11.4121 22.1289 11.3516 22.3398 11.3516C22.5508 11.3516 22.7109 11.4121 22.8203 11.5332C22.9297 11.6543 22.9844 11.8027 22.9844 11.9785C22.9844 12.1543 22.9297 12.3008 22.8203 12.418C22.7109 12.5352 22.5508 12.5938 22.3398 12.5938C22.1289 12.5938 21.9688 12.5352 21.8594 12.418C21.7539 12.3008 21.7012 12.1543 21.7012 11.9785ZM24.3496 16.7773C24.3496 15.8047 24.5801 15.0234 25.041 14.4336C25.502 13.8398 26.1055 13.543 26.8516 13.543C27.5938 13.543 28.1816 13.7969 28.6152 14.3047V11H29.6992V20H28.7031L28.6504 19.3203C28.2168 19.8516 27.6133 20.1172 26.8398 20.1172C26.1055 20.1172 25.5059 19.8164 25.041 19.2148C24.5801 18.6133 24.3496 17.8281 24.3496 16.8594V16.7773ZM25.4336 16.9004C25.4336 17.6191 25.582 18.1816 25.8789 18.5879C26.1758 18.9941 26.5859 19.1973 27.1094 19.1973C27.7969 19.1973 28.2988 18.8887 28.6152 18.2715V15.3594C28.291 14.7617 27.793 14.4629 27.1211 14.4629C26.5898 14.4629 26.1758 14.668 25.8789 15.0781C25.582 15.4883 25.4336 16.0957 25.4336 16.9004Z" fill="#FF0000"/>
<path d="M63 32H74C77.9782 32 81.7936 30.4196 84.6066 27.6066C87.4197 24.7936 89 20.9782 89 17C89 13.0218 87.4197 9.20644 84.6066 6.3934C81.7936 3.58035 77.9782 2 74 2H63C59.0218 2 55.2064 3.58035 52.3934 6.3934C49.5804 9.20644 48 13.0218 48 17C48 20.9782 49.5804 24.7936 52.3934 27.6066C55.2064 30.4196 59.0218 32 63 32Z" stroke="#0000FF" stroke-width="2.16"/>
<path d="M61.8945 18.4121L63.3711 13.6602H64.5312L61.9824 20.9785C61.5879 22.0332 60.9609 22.5605 60.1016 22.5605L59.8965 22.543L59.4922 22.4668V21.5879L59.7852 21.6113C60.1523 21.6113 60.4375 21.5371 60.6406 21.3887C60.8477 21.2402 61.0176 20.9688 61.1504 20.5742L61.3906 19.9297L59.1289 13.6602H60.3125L61.8945 18.4121ZM65.123 16.7715C65.123 16.1504 65.2441 15.5918 65.4863 15.0957C65.7324 14.5996 66.0723 14.2168 66.5059 13.9473C66.9434 13.6777 67.4414 13.543 68 13.543C68.8633 13.543 69.5605 13.8418 70.0918 14.4395C70.627 15.0371 70.8945 15.832 70.8945 16.8242V16.9004C70.8945 17.5176 70.7754 18.0723 70.5371 18.5645C70.3027 19.0527 69.9648 19.4336 69.5234 19.707C69.0859 19.9805 68.582 20.1172 68.0117 20.1172C67.1523 20.1172 66.4551 19.8184 65.9199 19.2207C65.3887 18.623 65.123 17.832 65.123 16.8477V16.7715ZM66.2129 16.9004C66.2129 17.6035 66.375 18.168 66.6992 18.5938C67.0273 19.0195 67.4648 19.2324 68.0117 19.2324C68.5625 19.2324 69 19.0176 69.3242 18.5879C69.6484 18.1543 69.8105 17.5488 69.8105 16.7715C69.8105 16.0762 69.6445 15.5137 69.3125 15.084C68.9844 14.6504 68.5469 14.4336 68 14.4336C67.4648 14.4336 67.0332 14.6465 66.7051 15.0723C66.377 15.498 66.2129 16.1074 66.2129 16.9004ZM76.168 19.373C75.7461 19.8691 75.127 20.1172 74.3105 20.1172C73.6348 20.1172 73.1191 19.9219 72.7637 19.5312C72.4121 19.1367 72.2344 18.5547 72.2305 17.7852V13.6602H73.3145V17.7559C73.3145 18.7168 73.7051 19.1973 74.4863 19.1973C75.3145 19.1973 75.8652 18.8887 76.1387 18.2715V13.6602H77.2227V20H76.1914L76.168 19.373Z" fill="#0000FF"/>
<path d="M110 32H120C123.978 32 127.794 30.4196 130.607 27.6066C133.42 24.7936 135 20.9782 135 17C135 13.0218 133.42 9.20644 130.607 6.3934C127.794 3.58035 123.978 2 120 2H110C106.022 2 102.206 3.58035 99.3934 6.3934C96.5803 9.20644 95 13.0218 95 17C95 20.9782 96.5803 24.7936 99.3934 27.6066C102.206 30.4196 106.022 32 110 32Z" stroke="#FF6347" stroke-width="2.16"/>
<path d="M110.012 18.3184C110.012 18.0254 109.9 17.7988 109.678 17.6387C109.459 17.4746 109.074 17.334 108.523 17.2168C107.977 17.0996 107.541 16.959 107.217 16.7949C106.896 16.6309 106.658 16.4355 106.502 16.209C106.35 15.9824 106.273 15.7129 106.273 15.4004C106.273 14.8809 106.492 14.4414 106.93 14.082C107.371 13.7227 107.934 13.543 108.617 13.543C109.336 13.543 109.918 13.7285 110.363 14.0996C110.812 14.4707 111.037 14.9453 111.037 15.5234H109.947C109.947 15.2266 109.82 14.9707 109.566 14.7559C109.316 14.541 109 14.4336 108.617 14.4336C108.223 14.4336 107.914 14.5195 107.691 14.6914C107.469 14.8633 107.357 15.0879 107.357 15.3652C107.357 15.627 107.461 15.8242 107.668 15.957C107.875 16.0898 108.248 16.2168 108.787 16.3379C109.33 16.459 109.77 16.6035 110.105 16.7715C110.441 16.9395 110.689 17.1426 110.85 17.3809C111.014 17.6152 111.096 17.9023 111.096 18.2422C111.096 18.8086 110.869 19.2637 110.416 19.6074C109.963 19.9473 109.375 20.1172 108.652 20.1172C108.145 20.1172 107.695 20.0273 107.305 19.8477C106.914 19.668 106.607 19.418 106.385 19.0977C106.166 18.7734 106.057 18.4238 106.057 18.0488H107.141C107.16 18.4121 107.305 18.7012 107.574 18.916C107.848 19.127 108.207 19.2324 108.652 19.2324C109.062 19.2324 109.391 19.1504 109.637 18.9863C109.887 18.8184 110.012 18.5957 110.012 18.3184ZM115.139 20.1172C114.279 20.1172 113.58 19.8359 113.041 19.2734C112.502 18.707 112.232 17.9512 112.232 17.0059V16.8066C112.232 16.1777 112.352 15.6172 112.59 15.125C112.832 14.6289 113.168 14.2422 113.598 13.9648C114.031 13.6836 114.5 13.543 115.004 13.543C115.828 13.543 116.469 13.8145 116.926 14.3574C117.383 14.9004 117.611 15.6777 117.611 16.6895V17.1406H113.316C113.332 17.7656 113.514 18.2715 113.861 18.6582C114.213 19.041 114.658 19.2324 115.197 19.2324C115.58 19.2324 115.904 19.1543 116.17 18.998C116.436 18.8418 116.668 18.6348 116.867 18.377L117.529 18.8926C116.998 19.709 116.201 20.1172 115.139 20.1172ZM115.004 14.4336C114.566 14.4336 114.199 14.5938 113.902 14.9141C113.605 15.2305 113.422 15.6758 113.352 16.25H116.527V16.168C116.496 15.6172 116.348 15.1914 116.082 14.8906C115.816 14.5859 115.457 14.4336 115.004 14.4336ZM121.502 20.1172C120.643 20.1172 119.943 19.8359 119.404 19.2734C118.865 18.707 118.596 17.9512 118.596 17.0059V16.8066C118.596 16.1777 118.715 15.6172 118.953 15.125C119.195 14.6289 119.531 14.2422 119.961 13.9648C120.395 13.6836 120.863 13.543 121.367 13.543C122.191 13.543 122.832 13.8145 123.289 14.3574C123.746 14.9004 123.975 15.6777 123.975 16.6895V17.1406H119.68C119.695 17.7656 119.877 18.2715 120.225 18.6582C120.576 19.041 121.021 19.2324 121.561 19.2324C121.943 19.2324 122.268 19.1543 122.533 18.998C122.799 18.8418 123.031 18.6348 123.23 18.377L123.893 18.8926C123.361 19.709 122.564 20.1172 121.502 20.1172ZM121.367 14.4336C120.93 14.4336 120.562 14.5938 120.266 14.9141C119.969 15.2305 119.785 15.6758 119.715 16.25H122.891V16.168C122.859 15.6172 122.711 15.1914 122.445 14.8906C122.18 14.5859 121.82 14.4336 121.367 14.4336Z" fill="#FF6347"/>
<path d="M156 32H168C170.052 32.1371 172.111 31.8507 174.048 31.1585C175.985 30.4663 177.759 29.3832 179.259 27.9764C180.76 26.5696 181.955 24.8693 182.771 22.981C183.586 21.0927 184.005 19.0569 184 17C184.005 14.9431 183.586 12.9073 182.771 11.019C181.955 9.13071 180.76 7.43034 179.259 6.02356C177.759 4.61677 175.985 3.53363 174.048 2.84146C172.111 2.14928 170.052 1.86286 168 1.99999H156C153.948 1.86286 151.889 2.14928 149.952 2.84146C148.015 3.53363 146.241 4.61677 144.741 6.02356C143.24 7.43034 142.045 9.13071 141.229 11.019C140.414 12.9073 139.995 14.9431 140 17C139.995 19.0569 140.414 21.0927 141.229 22.981C142.045 24.8693 143.24 26.5696 144.741 27.9764C146.241 29.3832 148.015 30.4663 149.952 31.1585C151.889 31.8507 153.948 32.1371 156 32Z" stroke="#008000" stroke-width="2.16"/>
<path d="M153.404 14.4277C153.885 13.8379 154.51 13.543 155.279 13.543C156.619 13.543 157.295 14.2988 157.307 15.8105V20H156.223V15.8047C156.219 15.3477 156.113 15.0098 155.906 14.791C155.703 14.5723 155.385 14.4629 154.951 14.4629C154.6 14.4629 154.291 14.5566 154.025 14.7441C153.76 14.9316 153.553 15.1777 153.404 15.4824V20H152.32V11H153.404V14.4277ZM160.107 20H159.023V13.6602H160.107V20ZM158.936 11.9785C158.936 11.8027 158.988 11.6543 159.094 11.5332C159.203 11.4121 159.363 11.3516 159.574 11.3516C159.785 11.3516 159.945 11.4121 160.055 11.5332C160.164 11.6543 160.219 11.8027 160.219 11.9785C160.219 12.1543 160.164 12.3008 160.055 12.418C159.945 12.5352 159.785 12.5938 159.574 12.5938C159.363 12.5938 159.203 12.5352 159.094 12.418C158.988 12.3008 158.936 12.1543 158.936 11.9785ZM162.867 13.6602L162.896 14.3633C163.361 13.8164 163.988 13.543 164.777 13.543C165.664 13.543 166.268 13.8828 166.588 14.5625C166.799 14.2578 167.072 14.0117 167.408 13.8242C167.748 13.6367 168.148 13.543 168.609 13.543C170 13.543 170.707 14.2793 170.73 15.752V20H169.646V15.8164C169.646 15.3633 169.543 15.0254 169.336 14.8027C169.129 14.5762 168.781 14.4629 168.293 14.4629C167.891 14.4629 167.557 14.584 167.291 14.8262C167.025 15.0645 166.871 15.3867 166.828 15.793V20H165.738V15.8457C165.738 14.9238 165.287 14.4629 164.385 14.4629C163.674 14.4629 163.188 14.7656 162.926 15.3711V20H161.842V13.6602H162.867Z" fill="#008000"/>
<path d="M204 32H222C225.978 32 229.794 30.4196 232.607 27.6066C235.42 24.7936 237 20.9782 237 17C237 13.0218 235.42 9.20644 232.607 6.3934C229.794 3.58035 225.978 2 222 2H204C200.022 2 196.206 3.58035 193.393 6.3934C190.58 9.20644 189 13.0218 189 17C189 20.9782 190.58 24.7936 193.393 27.6066C196.206 30.4196 200.022 32 204 32Z" stroke="#FF1493" stroke-width="2.16"/>
<path d="M206.201 17.7734H202.627L201.824 20H200.664L203.922 11.4688H204.906L208.17 20H207.016L206.201 17.7734ZM202.967 16.8477H205.867L204.414 12.8574L202.967 16.8477ZM210.168 13.6602L210.197 14.3633C210.662 13.8164 211.289 13.543 212.078 13.543C212.965 13.543 213.568 13.8828 213.889 14.5625C214.1 14.2578 214.373 14.0117 214.709 13.8242C215.049 13.6367 215.449 13.543 215.91 13.543C217.301 13.543 218.008 14.2793 218.031 15.752V20H216.947V15.8164C216.947 15.3633 216.844 15.0254 216.637 14.8027C216.43 14.5762 216.082 14.4629 215.594 14.4629C215.191 14.4629 214.857 14.584 214.592 14.8262C214.326 15.0645 214.172 15.3867 214.129 15.793V20H213.039V15.8457C213.039 14.9238 212.588 14.4629 211.686 14.4629C210.975 14.4629 210.488 14.7656 210.227 15.3711V20H209.143V13.6602H210.168ZM221.746 18.4121L223.223 13.6602H224.383L221.834 20.9785C221.439 22.0332 220.812 22.5605 219.953 22.5605L219.748 22.543L219.344 22.4668V21.5879L219.637 21.6113C220.004 21.6113 220.289 21.5371 220.492 21.3887C220.699 21.2402 220.869 20.9688 221.002 20.5742L221.242 19.9297L218.98 13.6602H220.164L221.746 18.4121Z" fill="#FF1493"/>
<path d="M258 32C261.978 32 265.794 30.4196 268.607 27.6066C271.42 24.7936 273 20.9782 273 17C273 13.0218 271.42 9.20644 268.607 6.3934C265.794 3.58035 261.978 2 258 2C254.022 2 250.206 3.58035 247.393 6.3934C244.58 9.20644 243 13.0218 243 17C243 20.9782 244.58 24.7936 247.393 27.6066C250.206 30.4196 254.022 32 258 32Z" stroke="#808080" stroke-width="2.16"/>
<path d="M257.092 17.5977C257.1 17.1328 257.152 16.7656 257.25 16.4961C257.348 16.2266 257.547 15.9277 257.848 15.5996L258.615 14.8086C258.943 14.4375 259.107 14.0391 259.107 13.6133C259.107 13.2031 259 12.8828 258.785 12.6523C258.57 12.418 258.258 12.3008 257.848 12.3008C257.449 12.3008 257.129 12.4062 256.887 12.6172C256.645 12.8281 256.523 13.1113 256.523 13.4668H255.439C255.447 12.834 255.672 12.3242 256.113 11.9375C256.559 11.5469 257.137 11.3516 257.848 11.3516C258.586 11.3516 259.16 11.5508 259.57 11.9492C259.984 12.3438 260.191 12.8867 260.191 13.5781C260.191 14.2617 259.875 14.9355 259.242 15.5996L258.604 16.2324C258.318 16.5488 258.176 17.0039 258.176 17.5977H257.092ZM257.045 19.4551C257.045 19.2793 257.098 19.1328 257.203 19.0156C257.312 18.8945 257.473 18.834 257.684 18.834C257.895 18.834 258.055 18.8945 258.164 19.0156C258.273 19.1328 258.328 19.2793 258.328 19.4551C258.328 19.6309 258.273 19.7773 258.164 19.8945C258.055 20.0078 257.895 20.0645 257.684 20.0645C257.473 20.0645 257.312 20.0078 257.203 19.8945C257.098 19.7773 257.045 19.6309 257.045 19.4551Z" fill="#808080"/>
</svg>
