<svg width="423" height="115" viewBox="0 0 423 115" fill="none" xmlns="http://www.w3.org/2000/svg">
<path d="M17 32H41C44.9782 32 48.7936 30.4196 51.6066 27.6066C54.4196 24.7936 56 20.9782 56 17C56 13.0218 54.4196 9.20644 51.6066 6.3934C48.7936 3.58035 44.9782 2 41 2H17C13.0218 2 9.20644 3.58035 6.3934 6.3934C3.58035 9.20644 2 13.0218 2 17C2 20.9782 3.58035 24.7936 6.3934 27.6066C9.20644 30.4196 13.0218 32 17 32Z" stroke="#FF0000" stroke-width="2.16"/>
<path d="M16.1369 21H17.1937V17.0966H21.8471V21H22.9039V12.2727H21.8471V16.1591H17.1937V12.2727H16.1369V21ZM26.8095 21.1534C27.9515 21.1534 28.5481 20.5398 28.7527 20.1136H28.8038V21H29.8095V16.6875C29.8095 14.608 28.2243 14.3693 27.389 14.3693C26.4004 14.3693 25.2754 14.7102 24.764 15.9034L25.7186 16.2443C25.9402 15.767 26.4643 15.2557 27.4231 15.2557C28.3478 15.2557 28.8038 15.7457 28.8038 16.5852V16.6193C28.8038 17.1051 28.3095 17.0625 27.1163 17.2159C25.9018 17.3736 24.5765 17.642 24.5765 19.142C24.5765 20.4205 25.5652 21.1534 26.8095 21.1534ZM26.9629 20.25C26.1618 20.25 25.5822 19.892 25.5822 19.1932C25.5822 18.4261 26.2811 18.1875 27.0652 18.0852C27.4913 18.0341 28.6333 17.9148 28.8038 17.7102V18.6307C28.8038 19.4489 28.1561 20.25 26.9629 20.25ZM36.763 14.4545H35.6721L33.8652 19.6705H33.7971L31.9902 14.4545H30.8993L33.3198 21H34.3425L36.763 14.4545ZM40.6003 21.1364C41.9299 21.1364 42.9015 20.4716 43.2083 19.483L42.2367 19.2102C41.981 19.892 41.3887 20.233 40.6003 20.233C39.4199 20.233 38.606 19.4702 38.5591 18.0682H43.3105V17.642C43.3105 15.2045 41.8617 14.3693 40.498 14.3693C38.7253 14.3693 37.5492 15.767 37.5492 17.7784C37.5492 19.7898 38.7083 21.1364 40.6003 21.1364ZM38.5591 17.1989C38.6273 16.1804 39.3475 15.2727 40.498 15.2727C41.589 15.2727 42.2878 16.0909 42.2878 17.1989H38.5591Z" fill="#FF0000"/>
<path d="M77 32H88C91.9782 32 95.7936 30.4196 98.6066 27.6066C101.42 24.7936 103 20.9782 103 17C103 13.0218 101.42 9.20644 98.6066 6.3934C95.7936 3.58035 91.9782 2 88 2H77C73.0218 2 69.2064 3.58035 66.3934 6.3934C63.5803 9.20644 62 13.0218 62 17C62 20.9782 63.5803 24.7936 66.3934 27.6066C69.2064 30.4196 73.0218 32 77 32Z" stroke="#FF0000" stroke-width="2.16"/>
<path d="M74.7733 23.4545C75.6809 23.4545 76.3201 22.973 76.6994 21.9545L79.4863 14.4716L78.3869 14.4545L76.5801 19.6705H76.5119L74.7051 14.4545H73.6142L76.0346 21.0341L75.8471 21.5455C75.4806 22.5426 75.0289 22.6364 74.296 22.4489L74.0403 23.3352C74.1426 23.3864 74.4324 23.4545 74.7733 23.4545ZM83.2417 21.1364C85.0144 21.1364 86.2076 19.7898 86.2076 17.7614C86.2076 15.7159 85.0144 14.3693 83.2417 14.3693C81.4689 14.3693 80.2757 15.7159 80.2757 17.7614C80.2757 19.7898 81.4689 21.1364 83.2417 21.1364ZM83.2417 20.233C81.8951 20.233 81.2814 19.0739 81.2814 17.7614C81.2814 16.4489 81.8951 15.2727 83.2417 15.2727C84.5882 15.2727 85.2019 16.4489 85.2019 17.7614C85.2019 19.0739 84.5882 20.233 83.2417 20.233ZM91.8677 18.3239C91.8677 19.5511 90.9302 20.1136 90.1802 20.1136C89.345 20.1136 88.7484 19.5 88.7484 18.5455V14.4545H87.7427V18.6136C87.7427 20.2841 88.6291 21.0852 89.8564 21.0852C90.845 21.0852 91.4927 20.5568 91.7995 19.892H91.8677V21H92.8734V14.4545H91.8677V18.3239Z" fill="#FF0000"/>
<path d="M124 32H164C166.052 32.1371 168.111 31.8507 170.048 31.1585C171.985 30.4663 173.759 29.3832 175.259 27.9764C176.76 26.5696 177.955 24.8693 178.771 22.981C179.586 21.0927 180.005 19.0569 180 17C180.005 14.9431 179.586 12.9073 178.771 11.019C177.955 9.13071 176.76 7.43034 175.259 6.02356C173.759 4.61677 171.985 3.53363 170.048 2.84146C168.111 2.14928 166.052 1.86286 164 1.99999H124C120.022 1.99999 116.206 3.58034 113.393 6.39339C110.58 9.20643 109 13.0217 109 17C109 20.9782 110.58 24.7935 113.393 27.6066C116.206 30.4196 120.022 32 124 32V32Z" stroke="#FF0000" stroke-width="2.16"/>
<path d="M125.383 21H126.355V19.9943H126.474C126.695 20.3523 127.122 21.1364 128.383 21.1364C130.019 21.1364 131.161 19.8239 131.161 17.7443C131.161 15.6818 130.019 14.3693 128.366 14.3693C127.088 14.3693 126.695 15.1534 126.474 15.4943H126.389V12.2727H125.383V21ZM126.372 17.7273C126.372 16.2614 127.019 15.2727 128.247 15.2727C129.525 15.2727 130.156 16.3466 130.156 17.7273C130.156 19.125 129.508 20.233 128.247 20.233C127.036 20.233 126.372 19.2102 126.372 17.7273ZM135.359 21.1364C137.132 21.1364 138.325 19.7898 138.325 17.7614C138.325 15.7159 137.132 14.3693 135.359 14.3693C133.586 14.3693 132.393 15.7159 132.393 17.7614C132.393 19.7898 133.586 21.1364 135.359 21.1364ZM135.359 20.233C134.012 20.233 133.399 19.0739 133.399 17.7614C133.399 16.4489 134.012 15.2727 135.359 15.2727C136.705 15.2727 137.319 16.4489 137.319 17.7614C137.319 19.0739 136.705 20.233 135.359 20.233ZM143.985 18.3239C143.985 19.5511 143.047 20.1136 142.297 20.1136C141.462 20.1136 140.866 19.5 140.866 18.5455V14.4545H139.86V18.6136C139.86 20.2841 140.746 21.0852 141.974 21.0852C142.962 21.0852 143.61 20.5568 143.917 19.892H143.985V21H144.991V14.4545H143.985V18.3239ZM149.475 23.5909C151.043 23.5909 152.304 22.875 152.304 21.1875V14.4545H151.333V15.4943H151.23C151.009 15.1534 150.6 14.3693 149.321 14.3693C147.668 14.3693 146.526 15.6818 146.526 17.6932C146.526 19.7386 147.719 20.8977 149.304 20.8977C150.583 20.8977 150.992 20.1477 151.213 19.7898H151.298V21.1193C151.298 22.2102 150.531 22.7045 149.475 22.7045C148.286 22.7045 147.868 22.0781 147.6 21.7159L146.798 22.2784C147.208 22.9645 148.013 23.5909 149.475 23.5909ZM149.441 19.9943C148.179 19.9943 147.531 19.0398 147.531 17.6761C147.531 16.3466 148.162 15.2727 149.441 15.2727C150.668 15.2727 151.316 16.2614 151.316 17.6761C151.316 19.125 150.651 19.9943 149.441 19.9943ZM155.151 17.0625C155.151 15.9205 155.879 15.2727 156.872 15.2727C157.818 15.2727 158.389 15.8693 158.389 16.9091V21H159.395V16.8409C159.395 15.1577 158.5 14.3693 157.162 14.3693C156.131 14.3693 155.543 14.7997 155.236 15.4773H155.151V12.2727H154.145V21H155.151V17.0625ZM164.081 14.4545H162.684V12.8864H161.678V14.4545H160.689V15.3068H161.678V19.3977C161.678 20.5398 162.599 21.0852 163.451 21.0852C163.826 21.0852 164.064 21.017 164.201 20.9659L163.996 20.0625C163.911 20.0795 163.775 20.1136 163.553 20.1136C163.11 20.1136 162.684 19.9773 162.684 19.125V15.3068H164.081V14.4545Z" fill="#FF0000"/>
<path d="M200 32H221C224.978 32 228.794 30.4196 231.607 27.6066C234.42 24.7936 236 20.9782 236 17C236 13.0218 234.42 9.20644 231.607 6.3934C228.794 3.58035 224.978 2 221 2H200C196.022 2 192.206 3.58035 189.393 6.3934C186.58 9.20644 185 13.0218 185 17C185 20.9782 186.58 24.7936 189.393 27.6066C192.206 30.4196 196.022 32 200 32Z" stroke="#FF0000" stroke-width="2.16"/>
<path d="M200.225 21.1364C201.555 21.1364 202.526 20.4716 202.833 19.483L201.862 19.2102C201.606 19.892 201.014 20.233 200.225 20.233C199.045 20.233 198.231 19.4702 198.184 18.0682H202.936V17.642C202.936 15.2045 201.487 14.3693 200.123 14.3693C198.35 14.3693 197.174 15.767 197.174 17.7784C197.174 19.7898 198.333 21.1364 200.225 21.1364ZM198.184 17.1989C198.252 16.1804 198.972 15.2727 200.123 15.2727C201.214 15.2727 201.913 16.0909 201.913 17.1989H198.184ZM207.107 23.5909C208.676 23.5909 209.937 22.875 209.937 21.1875V14.4545H208.965V15.4943H208.863C208.642 15.1534 208.232 14.3693 206.954 14.3693C205.301 14.3693 204.159 15.6818 204.159 17.6932C204.159 19.7386 205.352 20.8977 206.937 20.8977C208.215 20.8977 208.624 20.1477 208.846 19.7898H208.931V21.1193C208.931 22.2102 208.164 22.7045 207.107 22.7045C205.919 22.7045 205.501 22.0781 205.232 21.7159L204.431 22.2784C204.84 22.9645 205.646 23.5909 207.107 23.5909ZM207.073 19.9943C205.812 19.9943 205.164 19.0398 205.164 17.6761C205.164 16.3466 205.795 15.2727 207.073 15.2727C208.301 15.2727 208.948 16.2614 208.948 17.6761C208.948 19.125 208.284 19.9943 207.073 19.9943ZM214.42 23.5909C215.988 23.5909 217.249 22.875 217.249 21.1875V14.4545H216.278V15.4943H216.176C215.954 15.1534 215.545 14.3693 214.267 14.3693C212.613 14.3693 211.471 15.6818 211.471 17.6932C211.471 19.7386 212.664 20.8977 214.249 20.8977C215.528 20.8977 215.937 20.1477 216.159 19.7898H216.244V21.1193C216.244 22.2102 215.477 22.7045 214.42 22.7045C213.231 22.7045 212.813 22.0781 212.545 21.7159L211.744 22.2784C212.153 22.9645 212.958 23.5909 214.42 23.5909ZM214.386 19.9943C213.124 19.9943 212.477 19.0398 212.477 17.6761C212.477 16.3466 213.107 15.2727 214.386 15.2727C215.613 15.2727 216.261 16.2614 216.261 17.6761C216.261 19.125 215.596 19.9943 214.386 19.9943ZM223.727 15.9205C223.411 14.9915 222.704 14.3693 221.409 14.3693C220.028 14.3693 219.005 15.1534 219.005 16.2614C219.005 17.1648 219.542 17.7699 220.744 18.0511L221.835 18.3068C222.495 18.4602 222.806 18.7756 222.806 19.2273C222.806 19.7898 222.21 20.25 221.272 20.25C220.45 20.25 219.934 19.8963 219.755 19.1932L218.801 19.4318C219.035 20.544 219.951 21.1364 221.289 21.1364C222.811 21.1364 223.846 20.3054 223.846 19.1761C223.846 18.2642 223.275 17.6889 222.107 17.4034L221.136 17.1648C220.36 16.973 220.011 16.7131 220.011 16.2102C220.011 15.6477 220.607 15.2386 221.409 15.2386C222.286 15.2386 222.649 15.7244 222.823 16.1761L223.727 15.9205Z" fill="#FF0000"/>
<path d="M257 32H278C281.978 32 285.794 30.4196 288.607 27.6066C291.42 24.7936 293 20.9782 293 17C293 13.0218 291.42 9.20644 288.607 6.3934C285.794 3.58035 281.978 2 278 2H257C253.022 2 249.206 3.58035 246.393 6.3934C243.58 9.20644 242 13.0218 242 17C242 20.9782 243.58 24.7936 246.393 27.6066C249.206 30.4196 253.022 32 257 32Z" stroke="#FF0000" stroke-width="2.16"/>
<path d="M259.245 14.4545H257.779V13.7898C257.779 13.142 258.052 12.8011 258.717 12.8011C259.007 12.8011 259.177 12.8693 259.279 12.9034L259.569 12.0341C259.416 11.9659 259.109 11.8636 258.615 11.8636C257.677 11.8636 256.774 12.4261 256.774 13.5511V14.4545H255.717V15.3068H256.774V21H257.779V15.3068H259.245V14.4545ZM260.655 21H261.661V16.858C261.661 15.9716 262.359 15.3239 263.314 15.3239C263.582 15.3239 263.859 15.375 263.928 15.392V14.3693C263.812 14.3608 263.548 14.3523 263.399 14.3523C262.615 14.3523 261.933 14.7955 261.695 15.4432H261.626V14.4545H260.655V21ZM267.58 21.1364C269.352 21.1364 270.545 19.7898 270.545 17.7614C270.545 15.7159 269.352 14.3693 267.58 14.3693C265.807 14.3693 264.614 15.7159 264.614 17.7614C264.614 19.7898 265.807 21.1364 267.58 21.1364ZM267.58 20.233C266.233 20.233 265.619 19.0739 265.619 17.7614C265.619 16.4489 266.233 15.2727 267.58 15.2727C268.926 15.2727 269.54 16.4489 269.54 17.7614C269.54 19.0739 268.926 20.233 267.58 20.233ZM272.081 21H273.086V16.9091C273.086 15.9503 273.785 15.2727 274.569 15.2727C275.332 15.2727 275.865 15.7713 275.865 16.517V21H276.887V16.7386C276.887 15.8949 277.416 15.2727 278.336 15.2727C279.052 15.2727 279.666 15.652 279.666 16.6193V21H280.672V16.6193C280.672 15.081 279.845 14.3693 278.677 14.3693C277.74 14.3693 277.054 14.7997 276.717 15.4773H276.649C276.325 14.7784 275.754 14.3693 274.893 14.3693C274.041 14.3693 273.41 14.7784 273.137 15.4773H273.052V14.4545H272.081V21Z" fill="#FF0000"/>
<path d="M314 32H322C325.978 32 329.794 30.4196 332.607 27.6066C335.42 24.7936 337 20.9782 337 17C337 13.0218 335.42 9.20644 332.607 6.3934C329.794 3.58035 325.978 2 322 2H314C310.022 2 306.206 3.58035 303.393 6.3934C300.58 9.20644 299 13.0218 299 17C299 20.9782 300.58 24.7936 303.393 27.6066C306.206 30.4196 310.022 32 314 32Z" stroke="#FF0000" stroke-width="2.16"/>
<path d="M312.48 14.4545H311.082V12.8864H310.077V14.4545H309.088V15.3068H310.077V19.3977C310.077 20.5398 310.997 21.0852 311.849 21.0852C312.224 21.0852 312.463 21.017 312.599 20.9659L312.395 20.0625C312.309 20.0795 312.173 20.1136 311.952 20.1136C311.508 20.1136 311.082 19.9773 311.082 19.125V15.3068H312.48V14.4545ZM315.139 17.0625C315.139 15.9205 315.868 15.2727 316.861 15.2727C317.807 15.2727 318.378 15.8693 318.378 16.9091V21H319.383V16.8409C319.383 15.1577 318.488 14.3693 317.15 14.3693C316.119 14.3693 315.531 14.7997 315.224 15.4773H315.139V12.2727H314.133V21H315.139V17.0625ZM323.968 21.1364C325.297 21.1364 326.269 20.4716 326.575 19.483L325.604 19.2102C325.348 19.892 324.756 20.233 323.968 20.233C322.787 20.233 321.973 19.4702 321.926 18.0682H326.678V17.642C326.678 15.2045 325.229 14.3693 323.865 14.3693C322.093 14.3693 320.916 15.767 320.916 17.7784C320.916 19.7898 322.075 21.1364 323.968 21.1364ZM321.926 17.1989C321.994 16.1804 322.715 15.2727 323.865 15.2727C324.956 15.2727 325.655 16.0909 325.655 17.1989H321.926Z" fill="#FF0000"/>
<path d="M358 32H391C394.978 32 398.794 30.4196 401.607 27.6066C404.42 24.7936 406 20.9782 406 17C406 13.0218 404.42 9.20644 401.607 6.3934C398.794 3.58035 394.978 2 391 2H358C354.022 2 350.206 3.58035 347.393 6.3934C344.58 9.20644 343 13.0218 343 17C343 20.9782 344.58 24.7936 347.393 27.6066C350.206 30.4196 354.022 32 358 32Z" stroke="#FF0000" stroke-width="2.16"/>
<path d="M362.531 15.9205C362.216 14.9915 361.509 14.3693 360.213 14.3693C358.833 14.3693 357.81 15.1534 357.81 16.2614C357.81 17.1648 358.347 17.7699 359.548 18.0511L360.639 18.3068C361.3 18.4602 361.611 18.7756 361.611 19.2273C361.611 19.7898 361.014 20.25 360.077 20.25C359.254 20.25 358.739 19.8963 358.56 19.1932L357.605 19.4318C357.84 20.544 358.756 21.1364 360.094 21.1364C361.615 21.1364 362.651 20.3054 362.651 19.1761C362.651 18.2642 362.08 17.6889 360.912 17.4034L359.941 17.1648C359.165 16.973 358.816 16.7131 358.816 16.2102C358.816 15.6477 359.412 15.2386 360.213 15.2386C361.091 15.2386 361.453 15.7244 361.628 16.1761L362.531 15.9205ZM367.011 14.4545H365.613V12.8864H364.608V14.4545H363.619V15.3068H364.608V19.3977C364.608 20.5398 365.528 21.0852 366.381 21.0852C366.756 21.0852 366.994 21.017 367.131 20.9659L366.926 20.0625C366.841 20.0795 366.704 20.1136 366.483 20.1136C366.04 20.1136 365.613 19.9773 365.613 19.125V15.3068H367.011V14.4545ZM371.113 21.1364C372.885 21.1364 374.079 19.7898 374.079 17.7614C374.079 15.7159 372.885 14.3693 371.113 14.3693C369.34 14.3693 368.147 15.7159 368.147 17.7614C368.147 19.7898 369.34 21.1364 371.113 21.1364ZM371.113 20.233C369.766 20.233 369.153 19.0739 369.153 17.7614C369.153 16.4489 369.766 15.2727 371.113 15.2727C372.459 15.2727 373.073 16.4489 373.073 17.7614C373.073 19.0739 372.459 20.233 371.113 20.233ZM375.614 21H376.619V16.858C376.619 15.9716 377.318 15.3239 378.273 15.3239C378.541 15.3239 378.818 15.375 378.887 15.392V14.3693C378.771 14.3608 378.507 14.3523 378.358 14.3523C377.574 14.3523 376.892 14.7955 376.654 15.4432H376.585V14.4545H375.614V21ZM382.624 21.1364C383.953 21.1364 384.925 20.4716 385.232 19.483L384.26 19.2102C384.004 19.892 383.412 20.233 382.624 20.233C381.443 20.233 380.629 19.4702 380.583 18.0682H385.334V17.642C385.334 15.2045 383.885 14.3693 382.521 14.3693C380.749 14.3693 379.573 15.767 379.573 17.7784C379.573 19.7898 380.732 21.1364 382.624 21.1364ZM380.583 17.1989C380.651 16.1804 381.371 15.2727 382.521 15.2727C383.612 15.2727 384.311 16.0909 384.311 17.1989H380.583ZM388.176 18.5455H389.199V18.4943C389.216 17.4375 389.489 16.9773 390.239 16.5085C390.989 16.0526 391.432 15.3963 391.432 14.4545C391.432 13.125 390.46 12.1534 388.96 12.1534C387.58 12.1534 386.485 13.0057 386.421 14.4545H387.494C387.558 13.4489 388.262 13.0398 388.96 13.0398C389.762 13.0398 390.409 13.5682 390.409 14.4034C390.409 15.081 390.021 15.5668 389.523 15.8693C388.688 16.3764 388.189 16.8707 388.176 18.4943V18.5455ZM388.722 21.0682C389.144 21.0682 389.489 20.723 389.489 20.3011C389.489 19.8793 389.144 19.5341 388.722 19.5341C388.3 19.5341 387.955 19.8793 387.955 20.3011C387.955 20.723 388.3 21.0682 388.722 21.0682Z" fill="#FF0000"/>
<path d="M57 112H60C63.9782 112 67.7936 110.42 70.6066 107.607C73.4197 104.794 75 100.978 75 97C75 93.0218 73.4197 89.2064 70.6066 86.3934C67.7936 83.5803 63.9782 82 60 82H57C53.0218 82 49.2064 83.5803 46.3934 86.3934C43.5804 89.2064 42 93.0218 42 97C42 100.978 43.5804 104.794 46.3934 107.607C49.2064 110.42 53.0218 112 57 112Z" stroke="#0000FF" stroke-width="2.16"/>
<path d="M51.6889 93.2102H54.4332V101H55.4901V93.2102H58.2344V92.2727H51.6889V93.2102ZM62.9634 98.3239C62.9634 99.5511 62.0259 100.114 61.2759 100.114C60.4407 100.114 59.8441 99.5 59.8441 98.5455V94.4545H58.8384V98.6136C58.8384 100.284 59.7248 101.085 60.9521 101.085C61.9407 101.085 62.5884 100.557 62.8952 99.892H62.9634V101H63.9691V94.4545H62.9634V98.3239Z" fill="#0000FF"/>
<path d="M96 112C99.9782 112 103.794 110.42 106.607 107.607C109.42 104.794 111 100.978 111 97C111 93.0217 109.42 89.2064 106.607 86.3934C103.794 83.5803 99.9782 82 96 82C93.9477 81.8629 91.8891 82.1493 89.9522 82.8415C88.0153 83.5336 86.2414 84.6168 84.7408 86.0236C83.2402 87.4303 82.045 89.1307 81.2295 91.019C80.4139 92.9073 79.9954 94.9431 80 97C79.9954 99.0569 80.4139 101.093 81.2295 102.981C82.045 104.869 83.2402 106.57 84.7408 107.976C86.2414 109.383 88.0153 110.466 89.9522 111.159C91.8891 111.851 93.9477 112.137 96 112V112Z" stroke="#0000FF" stroke-width="2.16"/>
<path d="M91.831 101.153C92.973 101.153 93.5696 100.54 93.7741 100.114H93.8253V101H94.831V96.6875C94.831 94.608 93.2457 94.3693 92.4105 94.3693C91.4219 94.3693 90.2969 94.7102 89.7855 95.9034L90.7401 96.2443C90.9616 95.767 91.4858 95.2557 92.4446 95.2557C93.3693 95.2557 93.8253 95.7457 93.8253 96.5852V96.6193C93.8253 97.1051 93.331 97.0625 92.1378 97.2159C90.9233 97.3736 89.598 97.642 89.598 99.142C89.598 100.42 90.5866 101.153 91.831 101.153ZM91.9844 100.25C91.1832 100.25 90.6037 99.892 90.6037 99.1932C90.6037 98.4261 91.3026 98.1875 92.0866 98.0852C92.5128 98.0341 93.6548 97.9148 93.8253 97.7102V98.6307C93.8253 99.4489 93.1776 100.25 91.9844 100.25ZM101.303 95.9205C100.988 94.9915 100.28 94.3693 98.9847 94.3693C97.604 94.3693 96.5813 95.1534 96.5813 96.2614C96.5813 97.1648 97.1183 97.7699 98.32 98.0511L99.4109 98.3068C100.071 98.4602 100.382 98.7756 100.382 99.2273C100.382 99.7898 99.7859 100.25 98.8484 100.25C98.0259 100.25 97.5103 99.8963 97.3313 99.1932L96.3768 99.4318C96.6112 100.544 97.5273 101.136 98.8654 101.136C100.387 101.136 101.422 100.305 101.422 99.1761C101.422 98.2642 100.851 97.6889 99.6836 97.4034L98.712 97.1648C97.9364 96.973 97.587 96.7131 97.587 96.2102C97.587 95.6477 98.1836 95.2386 98.9847 95.2386C99.8626 95.2386 100.225 95.7244 100.4 96.1761L101.303 95.9205Z" fill="#0000FF"/>
<path d="M132 112H171C174.978 112 178.794 110.42 181.607 107.607C184.42 104.794 186 100.978 186 97C186 93.0217 184.42 89.2064 181.607 86.3934C178.794 83.5803 174.978 82 171 82H132C129.948 81.8629 127.889 82.1493 125.952 82.8415C124.015 83.5336 122.241 84.6168 120.741 86.0236C119.24 87.4303 118.045 89.1307 117.229 91.019C116.414 92.9073 115.995 94.9431 116 97C115.995 99.0569 116.414 101.093 117.229 102.981C118.045 104.869 119.24 106.57 120.741 107.976C122.241 109.383 124.015 110.466 125.952 111.159C127.889 111.851 129.948 112.137 132 112Z" stroke="#0000FF" stroke-width="2.16"/>
<path d="M134.44 101.153C135.582 101.153 136.179 100.54 136.384 100.114H136.435V101H137.44V96.6875C137.44 94.608 135.855 94.3693 135.02 94.3693C134.031 94.3693 132.906 94.7102 132.395 95.9034L133.349 96.2443C133.571 95.767 134.095 95.2557 135.054 95.2557C135.979 95.2557 136.435 95.7457 136.435 96.5852V96.6193C136.435 97.1051 135.94 97.0625 134.747 97.2159C133.533 97.3736 132.207 97.642 132.207 99.142C132.207 100.42 133.196 101.153 134.44 101.153ZM134.594 100.25C133.793 100.25 133.213 99.892 133.213 99.1932C133.213 98.4261 133.912 98.1875 134.696 98.0852C135.122 98.0341 136.264 97.9148 136.435 97.7102V98.6307C136.435 99.4489 135.787 100.25 134.594 100.25ZM141.935 101.136C143.384 101.136 144.338 100.25 144.509 99.0909H143.503C143.316 99.8068 142.719 100.233 141.935 100.233C140.742 100.233 139.975 99.2443 139.975 97.7273C139.975 96.2443 140.759 95.2727 141.935 95.2727C142.821 95.2727 143.35 95.8182 143.503 96.4148H144.509C144.338 95.1875 143.299 94.3693 141.918 94.3693C140.145 94.3693 138.969 95.767 138.969 97.7614C138.969 99.7216 140.094 101.136 141.935 101.136ZM146.985 97.0625C146.985 95.9205 147.713 95.2727 148.706 95.2727C149.652 95.2727 150.223 95.8693 150.223 96.9091V101H151.229V96.8409C151.229 95.1577 150.334 94.3693 148.996 94.3693C147.965 94.3693 147.377 94.7997 147.07 95.4773H146.985V92.2727H145.979V101H146.985V97.0625ZM155.813 101.136C157.143 101.136 158.114 100.472 158.421 99.483L157.45 99.2102C157.194 99.892 156.602 100.233 155.813 100.233C154.633 100.233 153.819 99.4702 153.772 98.0682H158.523V97.642C158.523 95.2045 157.075 94.3693 155.711 94.3693C153.938 94.3693 152.762 95.767 152.762 97.7784C152.762 99.7898 153.921 101.136 155.813 101.136ZM153.772 97.1989C153.84 96.1804 154.56 95.2727 155.711 95.2727C156.802 95.2727 157.501 96.0909 157.501 97.1989H153.772ZM162.9 94.4545H161.502V92.8864H160.496V94.4545H159.508V95.3068H160.496V99.3977C160.496 100.54 161.417 101.085 162.269 101.085C162.644 101.085 162.883 101.017 163.019 100.966L162.815 100.062C162.729 100.08 162.593 100.114 162.371 100.114C161.928 100.114 161.502 99.9773 161.502 99.125V95.3068H162.9V94.4545ZM167.087 101.136C168.416 101.136 169.388 100.472 169.695 99.483L168.723 99.2102C168.467 99.892 167.875 100.233 167.087 100.233C165.906 100.233 165.092 99.4702 165.045 98.0682H169.797V97.642C169.797 95.2045 168.348 94.3693 166.984 94.3693C165.212 94.3693 164.036 95.767 164.036 97.7784C164.036 99.7898 165.195 101.136 167.087 101.136ZM165.045 97.1989C165.114 96.1804 165.834 95.2727 166.984 95.2727C168.075 95.2727 168.774 96.0909 168.774 97.1989H165.045ZM166.473 93.5682H167.359L168.689 91.5909H167.513L166.473 93.5682Z" fill="#0000FF"/>
<path d="M206 112H217C220.978 112 224.794 110.42 227.607 107.607C230.42 104.794 232 100.978 232 97C232 93.0218 230.42 89.2064 227.607 86.3934C224.794 83.5803 220.978 82 217 82H206C202.022 82 198.206 83.5803 195.393 86.3934C192.58 89.2064 191 93.0218 191 97C191 100.978 192.58 104.794 195.393 107.607C198.206 110.42 202.022 112 206 112Z" stroke="#0000FF" stroke-width="2.16"/>
<path d="M202.557 96.7773C202.557 95.8047 202.787 95.0234 203.248 94.4336C203.709 93.8398 204.312 93.543 205.059 93.543C205.801 93.543 206.389 93.7969 206.822 94.3047V91H207.906V100H206.91L206.857 99.3203C206.424 99.8516 205.82 100.117 205.047 100.117C204.312 100.117 203.713 99.8164 203.248 99.2148C202.787 98.6133 202.557 97.8281 202.557 96.8594V96.7773ZM203.641 96.9004C203.641 97.6191 203.789 98.1816 204.086 98.5879C204.383 98.9941 204.793 99.1973 205.316 99.1973C206.004 99.1973 206.506 98.8887 206.822 98.2715V95.3594C206.498 94.7617 206 94.4629 205.328 94.4629C204.797 94.4629 204.383 94.668 204.086 95.0781C203.789 95.4883 203.641 96.0957 203.641 96.9004ZM212.225 100.117C211.365 100.117 210.666 99.8359 210.127 99.2734C209.588 98.707 209.318 97.9512 209.318 97.0059V96.8066C209.318 96.1777 209.438 95.6172 209.676 95.125C209.918 94.6289 210.254 94.2422 210.684 93.9648C211.117 93.6836 211.586 93.543 212.09 93.543C212.914 93.543 213.555 93.8145 214.012 94.3574C214.469 94.9004 214.697 95.6777 214.697 96.6895V97.1406H210.402C210.418 97.7656 210.6 98.2715 210.947 98.6582C211.299 99.041 211.744 99.2324 212.283 99.2324C212.666 99.2324 212.99 99.1543 213.256 98.998C213.521 98.8418 213.754 98.6348 213.953 98.377L214.615 98.8926C214.084 99.709 213.287 100.117 212.225 100.117ZM212.09 94.4336C211.652 94.4336 211.285 94.5938 210.988 94.9141C210.691 95.2305 210.508 95.6758 210.438 96.25H213.613V96.168C213.582 95.6172 213.434 95.1914 213.168 94.8906C212.902 94.5859 212.543 94.4336 212.09 94.4336ZM219.648 98.3184C219.648 98.0254 219.537 97.7988 219.314 97.6387C219.096 97.4746 218.711 97.334 218.16 97.2168C217.613 97.0996 217.178 96.959 216.854 96.7949C216.533 96.6309 216.295 96.4355 216.139 96.209C215.986 95.9824 215.91 95.7129 215.91 95.4004C215.91 94.8809 216.129 94.4414 216.566 94.082C217.008 93.7227 217.57 93.543 218.254 93.543C218.973 93.543 219.555 93.7285 220 94.0996C220.449 94.4707 220.674 94.9453 220.674 95.5234H219.584C219.584 95.2266 219.457 94.9707 219.203 94.7559C218.953 94.541 218.637 94.4336 218.254 94.4336C217.859 94.4336 217.551 94.5195 217.328 94.6914C217.105 94.8633 216.994 95.0879 216.994 95.3652C216.994 95.627 217.098 95.8242 217.305 95.957C217.512 96.0898 217.885 96.2168 218.424 96.3379C218.967 96.459 219.406 96.6035 219.742 96.7715C220.078 96.9395 220.326 97.1426 220.486 97.3809C220.65 97.6152 220.732 97.9023 220.732 98.2422C220.732 98.8086 220.506 99.2637 220.053 99.6074C219.6 99.9473 219.012 100.117 218.289 100.117C217.781 100.117 217.332 100.027 216.941 99.8477C216.551 99.668 216.244 99.418 216.021 99.0977C215.803 98.7734 215.693 98.4238 215.693 98.0488H216.777C216.797 98.4121 216.941 98.7012 217.211 98.916C217.484 99.127 217.844 99.2324 218.289 99.2324C218.699 99.2324 219.027 99.1504 219.273 98.9863C219.523 98.8184 219.648 98.5957 219.648 98.3184Z" fill="#0000FF"/>
<path d="M253 112H271C274.978 112 278.794 110.42 281.607 107.607C284.42 104.794 286 100.978 286 97C286 93.0218 284.42 89.2064 281.607 86.3934C278.794 83.5803 274.978 82 271 82H253C249.022 82 245.206 83.5803 242.393 86.3934C239.58 89.2064 238 93.0218 238 97C238 100.978 239.58 104.794 242.393 107.607C245.206 110.42 249.022 112 253 112Z" stroke="#0000FF" stroke-width="2.16"/>
<path d="M248.568 96.7715C248.568 96.1465 248.686 95.5859 248.92 95.0898C249.158 94.5938 249.49 94.2129 249.916 93.9473C250.346 93.6777 250.838 93.543 251.393 93.543C251.928 93.543 252.391 93.6582 252.781 93.8887C253.176 94.1152 253.492 94.4238 253.73 94.8145C253.984 94.416 254.303 94.1055 254.686 93.8828C255.068 93.6562 255.479 93.543 255.916 93.543C256.725 93.543 257.357 93.791 257.814 94.2871C258.271 94.7832 258.5 95.4902 258.5 96.4082V97.0879H254.293C254.32 97.752 254.494 98.2773 254.814 98.6641C255.135 99.0469 255.557 99.2383 256.08 99.2383C256.814 99.2383 257.416 99.0273 257.885 98.6055L258.318 99.3438C257.783 99.8594 257.037 100.117 256.08 100.117C255.553 100.117 255.088 100.008 254.686 99.7891C254.287 99.5703 253.965 99.2656 253.719 98.875C253.477 99.2617 253.16 99.5664 252.77 99.7891C252.383 100.008 251.928 100.117 251.404 100.117C250.545 100.117 249.857 99.8203 249.342 99.2266C248.826 98.6328 248.568 97.8398 248.568 96.8477V96.7715ZM249.652 96.9004C249.652 97.6152 249.809 98.1836 250.121 98.6055C250.434 99.0273 250.861 99.2383 251.404 99.2383C251.939 99.2383 252.363 99.0293 252.676 98.6113C252.988 98.1895 253.145 97.5762 253.145 96.7715C253.145 96.0605 252.986 95.4941 252.67 95.0723C252.357 94.6465 251.932 94.4336 251.393 94.4336C250.865 94.4336 250.443 94.6426 250.127 95.0605C249.811 95.4785 249.652 96.0918 249.652 96.9004ZM255.916 94.4336C255.529 94.4336 255.189 94.5938 254.896 94.9141C254.604 95.2305 254.414 95.6582 254.328 96.1973H257.41V96.0449C257.41 95.5566 257.275 95.166 257.006 94.873C256.74 94.5801 256.377 94.4336 255.916 94.4336ZM263.633 99.373C263.211 99.8691 262.592 100.117 261.775 100.117C261.1 100.117 260.584 99.9219 260.229 99.5312C259.877 99.1367 259.699 98.5547 259.695 97.7852V93.6602H260.779V97.7559C260.779 98.7168 261.17 99.1973 261.951 99.1973C262.779 99.1973 263.33 98.8887 263.604 98.2715V93.6602H264.688V100H263.656L263.633 99.373ZM266.873 100V94.498H265.871V93.6602H266.873V93.0098C266.873 92.3301 267.055 91.8047 267.418 91.4336C267.781 91.0625 268.295 90.877 268.959 90.877C269.209 90.877 269.457 90.9102 269.703 90.9766L269.645 91.8555C269.461 91.8203 269.266 91.8027 269.059 91.8027C268.707 91.8027 268.436 91.9062 268.244 92.1133C268.053 92.3164 267.957 92.6094 267.957 92.9922V93.6602H269.311V94.498H267.957V100H266.873ZM274.203 98.3184C274.203 98.0254 274.092 97.7988 273.869 97.6387C273.65 97.4746 273.266 97.334 272.715 97.2168C272.168 97.0996 271.732 96.959 271.408 96.7949C271.088 96.6309 270.85 96.4355 270.693 96.209C270.541 95.9824 270.465 95.7129 270.465 95.4004C270.465 94.8809 270.684 94.4414 271.121 94.082C271.562 93.7227 272.125 93.543 272.809 93.543C273.527 93.543 274.109 93.7285 274.555 94.0996C275.004 94.4707 275.229 94.9453 275.229 95.5234H274.139C274.139 95.2266 274.012 94.9707 273.758 94.7559C273.508 94.541 273.191 94.4336 272.809 94.4336C272.414 94.4336 272.105 94.5195 271.883 94.6914C271.66 94.8633 271.549 95.0879 271.549 95.3652C271.549 95.627 271.652 95.8242 271.859 95.957C272.066 96.0898 272.439 96.2168 272.979 96.3379C273.521 96.459 273.961 96.6035 274.297 96.7715C274.633 96.9395 274.881 97.1426 275.041 97.3809C275.205 97.6152 275.287 97.9023 275.287 98.2422C275.287 98.8086 275.061 99.2637 274.607 99.6074C274.154 99.9473 273.566 100.117 272.844 100.117C272.336 100.117 271.887 100.027 271.496 99.8477C271.105 99.668 270.799 99.418 270.576 99.0977C270.357 98.7734 270.248 98.4238 270.248 98.0488H271.332C271.352 98.4121 271.496 98.7012 271.766 98.916C272.039 99.127 272.398 99.2324 272.844 99.2324C273.254 99.2324 273.582 99.1504 273.828 98.9863C274.078 98.8184 274.203 98.5957 274.203 98.3184Z" fill="#0000FF"/>
<path d="M307 112H308C311.978 112 315.794 110.42 318.607 107.607C321.42 104.794 323 100.978 323 97C323 93.0217 321.42 89.2064 318.607 86.3934C315.794 83.5803 311.978 82 308 82H307C304.948 81.8629 302.889 82.1493 300.952 82.8415C299.015 83.5336 297.241 84.6168 295.741 86.0236C294.24 87.4303 293.045 89.1307 292.23 91.019C291.414 92.9073 290.995 94.9431 291 97C290.995 99.0569 291.414 101.093 292.23 102.981C293.045 104.869 294.24 106.57 295.741 107.976C297.241 109.383 299.015 110.466 300.952 111.159C302.889 111.851 304.948 112.137 307 112V112Z" stroke="#0000FF" stroke-width="2.16"/>
<path d="M304.734 100C304.672 99.875 304.621 99.6523 304.582 99.332C304.078 99.8555 303.477 100.117 302.777 100.117C302.152 100.117 301.639 99.9414 301.236 99.5898C300.838 99.2344 300.639 98.7852 300.639 98.2422C300.639 97.582 300.889 97.0703 301.389 96.707C301.893 96.3398 302.6 96.1562 303.51 96.1562H304.564V95.6582C304.564 95.2793 304.451 94.9785 304.225 94.7559C303.998 94.5293 303.664 94.416 303.223 94.416C302.836 94.416 302.512 94.5137 302.25 94.709C301.988 94.9043 301.857 95.1406 301.857 95.418H300.768C300.768 95.1016 300.879 94.7969 301.102 94.5039C301.328 94.207 301.633 93.9727 302.016 93.8008C302.402 93.6289 302.826 93.543 303.287 93.543C304.018 93.543 304.59 93.7266 305.004 94.0938C305.418 94.457 305.633 94.959 305.648 95.5996V98.5176C305.648 99.0996 305.723 99.5625 305.871 99.9062V100H304.734ZM302.936 99.1738C303.275 99.1738 303.598 99.0859 303.902 98.9102C304.207 98.7344 304.428 98.5059 304.564 98.2246V96.9238H303.715C302.387 96.9238 301.723 97.3125 301.723 98.0898C301.723 98.4297 301.836 98.6953 302.062 98.8867C302.289 99.0781 302.58 99.1738 302.936 99.1738ZM311.262 99.373C310.84 99.8691 310.221 100.117 309.404 100.117C308.729 100.117 308.213 99.9219 307.857 99.5312C307.506 99.1367 307.328 98.5547 307.324 97.7852V93.6602H308.408V97.7559C308.408 98.7168 308.799 99.1973 309.58 99.1973C310.408 99.1973 310.959 98.8887 311.232 98.2715V93.6602H312.316V100H311.285L311.262 99.373Z" fill="#0000FF"/>
<path d="M344 112H405C408.978 112 412.794 110.42 415.607 107.607C418.42 104.794 420 100.978 420 97C420 93.0218 418.42 89.2064 415.607 86.3934C412.794 83.5803 408.978 82 405 82H344C340.022 82 336.206 83.5803 333.393 86.3934C330.58 89.2064 329 93.0218 329 97C329 100.978 330.58 104.794 333.393 107.607C336.206 110.42 340.022 112 344 112Z" stroke="#0000FF" stroke-width="2.16"/>
<path d="M350.84 93.6602L350.869 94.3633C351.334 93.8164 351.961 93.543 352.75 93.543C353.637 93.543 354.24 93.8828 354.561 94.5625C354.771 94.2578 355.045 94.0117 355.381 93.8242C355.721 93.6367 356.121 93.543 356.582 93.543C357.973 93.543 358.68 94.2793 358.703 95.752V100H357.619V95.8164C357.619 95.3633 357.516 95.0254 357.309 94.8027C357.102 94.5762 356.754 94.4629 356.266 94.4629C355.863 94.4629 355.529 94.584 355.264 94.8262C354.998 95.0645 354.844 95.3867 354.801 95.793V100H353.711V95.8457C353.711 94.9238 353.26 94.4629 352.357 94.4629C351.646 94.4629 351.16 94.7656 350.898 95.3711V100H349.814V93.6602H350.84ZM364.258 100C364.195 99.875 364.145 99.6523 364.105 99.332C363.602 99.8555 363 100.117 362.301 100.117C361.676 100.117 361.162 99.9414 360.76 99.5898C360.361 99.2344 360.162 98.7852 360.162 98.2422C360.162 97.582 360.412 97.0703 360.912 96.707C361.416 96.3398 362.123 96.1562 363.033 96.1562H364.088V95.6582C364.088 95.2793 363.975 94.9785 363.748 94.7559C363.521 94.5293 363.188 94.416 362.746 94.416C362.359 94.416 362.035 94.5137 361.773 94.709C361.512 94.9043 361.381 95.1406 361.381 95.418H360.291C360.291 95.1016 360.402 94.7969 360.625 94.5039C360.852 94.207 361.156 93.9727 361.539 93.8008C361.926 93.6289 362.35 93.543 362.811 93.543C363.541 93.543 364.113 93.7266 364.527 94.0938C364.941 94.457 365.156 94.959 365.172 95.5996V98.5176C365.172 99.0996 365.246 99.5625 365.395 99.9062V100H364.258ZM362.459 99.1738C362.799 99.1738 363.121 99.0859 363.426 98.9102C363.73 98.7344 363.951 98.5059 364.088 98.2246V96.9238H363.238C361.91 96.9238 361.246 97.3125 361.246 98.0898C361.246 98.4297 361.359 98.6953 361.586 98.8867C361.812 99.0781 362.104 99.1738 362.459 99.1738ZM366.613 96.7773C366.613 95.7891 366.842 95.0039 367.299 94.4219C367.756 93.8359 368.361 93.543 369.115 93.543C369.889 93.543 370.492 93.8164 370.926 94.3633L370.979 93.6602H371.969V99.8477C371.969 100.668 371.725 101.314 371.236 101.787C370.752 102.26 370.1 102.496 369.279 102.496C368.822 102.496 368.375 102.398 367.938 102.203C367.5 102.008 367.166 101.74 366.936 101.4L367.498 100.75C367.963 101.324 368.531 101.611 369.203 101.611C369.73 101.611 370.141 101.463 370.434 101.166C370.73 100.869 370.879 100.451 370.879 99.9121V99.3672C370.445 99.8672 369.854 100.117 369.104 100.117C368.361 100.117 367.76 99.8184 367.299 99.2207C366.842 98.623 366.613 97.8086 366.613 96.7773ZM367.703 96.9004C367.703 97.6152 367.85 98.1777 368.143 98.5879C368.436 98.9941 368.846 99.1973 369.373 99.1973C370.057 99.1973 370.559 98.8867 370.879 98.2656V95.3711C370.547 94.7656 370.049 94.4629 369.385 94.4629C368.857 94.4629 368.445 94.668 368.148 95.0781C367.852 95.4883 367.703 96.0957 367.703 96.9004ZM377.523 100C377.461 99.875 377.41 99.6523 377.371 99.332C376.867 99.8555 376.266 100.117 375.566 100.117C374.941 100.117 374.428 99.9414 374.025 99.5898C373.627 99.2344 373.428 98.7852 373.428 98.2422C373.428 97.582 373.678 97.0703 374.178 96.707C374.682 96.3398 375.389 96.1562 376.299 96.1562H377.354V95.6582C377.354 95.2793 377.24 94.9785 377.014 94.7559C376.787 94.5293 376.453 94.416 376.012 94.416C375.625 94.416 375.301 94.5137 375.039 94.709C374.777 94.9043 374.646 95.1406 374.646 95.418H373.557C373.557 95.1016 373.668 94.7969 373.891 94.5039C374.117 94.207 374.422 93.9727 374.805 93.8008C375.191 93.6289 375.615 93.543 376.076 93.543C376.807 93.543 377.379 93.7266 377.793 94.0938C378.207 94.457 378.422 94.959 378.438 95.5996V98.5176C378.438 99.0996 378.512 99.5625 378.66 99.9062V100H377.523ZM375.725 99.1738C376.064 99.1738 376.387 99.0859 376.691 98.9102C376.996 98.7344 377.217 98.5059 377.354 98.2246V96.9238H376.504C375.176 96.9238 374.512 97.3125 374.512 98.0898C374.512 98.4297 374.625 98.6953 374.852 98.8867C375.078 99.0781 375.369 99.1738 375.725 99.1738ZM383.828 98.3184C383.828 98.0254 383.717 97.7988 383.494 97.6387C383.275 97.4746 382.891 97.334 382.34 97.2168C381.793 97.0996 381.357 96.959 381.033 96.7949C380.713 96.6309 380.475 96.4355 380.318 96.209C380.166 95.9824 380.09 95.7129 380.09 95.4004C380.09 94.8809 380.309 94.4414 380.746 94.082C381.188 93.7227 381.75 93.543 382.434 93.543C383.152 93.543 383.734 93.7285 384.18 94.0996C384.629 94.4707 384.854 94.9453 384.854 95.5234H383.764C383.764 95.2266 383.637 94.9707 383.383 94.7559C383.133 94.541 382.816 94.4336 382.434 94.4336C382.039 94.4336 381.73 94.5195 381.508 94.6914C381.285 94.8633 381.174 95.0879 381.174 95.3652C381.174 95.627 381.277 95.8242 381.484 95.957C381.691 96.0898 382.064 96.2168 382.604 96.3379C383.146 96.459 383.586 96.6035 383.922 96.7715C384.258 96.9395 384.506 97.1426 384.666 97.3809C384.83 97.6152 384.912 97.9023 384.912 98.2422C384.912 98.8086 384.686 99.2637 384.232 99.6074C383.779 99.9473 383.191 100.117 382.469 100.117C381.961 100.117 381.512 100.027 381.121 99.8477C380.73 99.668 380.424 99.418 380.201 99.0977C379.982 98.7734 379.873 98.4238 379.873 98.0488H380.957C380.977 98.4121 381.121 98.7012 381.391 98.916C381.664 99.127 382.023 99.2324 382.469 99.2324C382.879 99.2324 383.207 99.1504 383.453 98.9863C383.703 98.8184 383.828 98.5957 383.828 98.3184ZM387.502 100H386.418V93.6602H387.502V100ZM386.33 91.9785C386.33 91.8027 386.383 91.6543 386.488 91.5332C386.598 91.4121 386.758 91.3516 386.969 91.3516C387.18 91.3516 387.34 91.4121 387.449 91.5332C387.559 91.6543 387.613 91.8027 387.613 91.9785C387.613 92.1543 387.559 92.3008 387.449 92.418C387.34 92.5352 387.18 92.5938 386.969 92.5938C386.758 92.5938 386.598 92.5352 386.488 92.418C386.383 92.3008 386.33 92.1543 386.33 91.9785ZM390.268 93.6602L390.303 94.457C390.787 93.8477 391.42 93.543 392.201 93.543C393.541 93.543 394.217 94.2988 394.229 95.8105V100H393.145V95.8047C393.141 95.3477 393.035 95.0098 392.828 94.791C392.625 94.5723 392.307 94.4629 391.873 94.4629C391.521 94.4629 391.213 94.5566 390.947 94.7441C390.682 94.9316 390.475 95.1777 390.326 95.4824V100H389.242V93.6602H390.268ZM397.135 97.5977C397.143 97.1328 397.195 96.7656 397.293 96.4961C397.391 96.2266 397.59 95.9277 397.891 95.5996L398.658 94.8086C398.986 94.4375 399.15 94.0391 399.15 93.6133C399.15 93.2031 399.043 92.8828 398.828 92.6523C398.613 92.418 398.301 92.3008 397.891 92.3008C397.492 92.3008 397.172 92.4062 396.93 92.6172C396.688 92.8281 396.566 93.1113 396.566 93.4668H395.482C395.49 92.834 395.715 92.3242 396.156 91.9375C396.602 91.5469 397.18 91.3516 397.891 91.3516C398.629 91.3516 399.203 91.5508 399.613 91.9492C400.027 92.3438 400.234 92.8867 400.234 93.5781C400.234 94.2617 399.918 94.9355 399.285 95.5996L398.646 96.2324C398.361 96.5488 398.219 97.0039 398.219 97.5977H397.135ZM397.088 99.4551C397.088 99.2793 397.141 99.1328 397.246 99.0156C397.355 98.8945 397.516 98.834 397.727 98.834C397.938 98.834 398.098 98.8945 398.207 99.0156C398.316 99.1328 398.371 99.2793 398.371 99.4551C398.371 99.6309 398.316 99.7773 398.207 99.8945C398.098 100.008 397.938 100.064 397.727 100.064C397.516 100.064 397.355 100.008 397.246 99.8945C397.141 99.7773 397.088 99.6309 397.088 99.4551Z" fill="#0000FF"/>
<path d="M96 82L84 78L89 71L96 82Z" fill="black"/>
<path d="M29 32L91 78" stroke="black" stroke-width="2.16"/>
<path d="M58 82L59 69L67 73L58 82Z" fill="black"/>
<path d="M83 32L61 76" stroke="black" stroke-width="2.16"/>
<path d="M151 82L145 71L154 70L151 82Z" fill="black"/>
<path d="M144 32L150 76" stroke="black" stroke-width="2.16"/>
<path d="M212 82L207 70H216L212 82Z" fill="black"/>
<path d="M211 32V76" stroke="black" stroke-width="2.16"/>
<path d="M262 82L250 77L256 70L262 82Z" fill="black"/>
<path d="M211 32L258 78" stroke="black" stroke-width="2.16"/>
<path d="M307 82L297 75L304 70L307 82Z" fill="black"/>
<path d="M268 32L304 77" stroke="black" stroke-width="2.16"/>
<path d="M307 82L306 69L314 71L307 82Z" fill="black"/>
<path d="M318 32L309 76" stroke="black" stroke-width="2.16"/>
<path d="M375 82L370 70H379L375 82Z" fill="black"/>
<path d="M375 32V76" stroke="black" stroke-width="2.16"/>
</svg>
