<svg width="228" height="218" viewBox="0 0 228 218" fill="none" xmlns="http://www.w3.org/2000/svg">
<path d="M54 88H97V45H54V88Z" fill="#A9E34B" stroke="#ADB5BD" stroke-width="1.4472"/>
<path d="M97 88H140V45H97V88Z" fill="#F8F9FA" stroke="#ADB5BD" stroke-width="1.4472"/>
<path d="M140 88H184V45H140V88Z" fill="#F8F9FA" stroke="#ADB5BD" stroke-width="1.4472"/>
<path d="M184 88H227V45H184V88Z" fill="#F8F9FA" stroke="#ADB5BD" stroke-width="1.4472"/>
<path d="M54 131H97V88H54V131Z" fill="#F8F9FA" stroke="#ADB5BD" stroke-width="1.4472"/>
<path d="M97 131H140V88H97V131Z" fill="#A9E34B" stroke="#ADB5BD" stroke-width="1.4472"/>
<path d="M140 131H184V88H140V131Z" fill="#F8F9FA" stroke="#ADB5BD" stroke-width="1.4472"/>
<path d="M184 131H227V88H184V131Z" fill="#DCFFA4" stroke="#ADB5BD" stroke-width="1.4472"/>
<path d="M54 174H97V131H54V174Z" fill="#F8F9FA" stroke="#ADB5BD" stroke-width="1.4472"/>
<path d="M97 174H140V131H97V174Z" fill="#F8F9FA" stroke="#ADB5BD" stroke-width="1.4472"/>
<path d="M184 174H227V131H184V174Z" fill="#F8F9FA" stroke="#ADB5BD" stroke-width="1.4472"/>
<path d="M140 174H184V131H140V174Z" fill="#A9E34B" stroke="#ADB5BD" stroke-width="1.4472"/>
<path d="M54 217H97V174H54V217Z" fill="#F8F9FA" stroke="#ADB5BD" stroke-width="1.4472"/>
<path d="M97 217H140V174H97V217Z" fill="#F8F9FA" stroke="#ADB5BD" stroke-width="1.4472"/>
<path d="M140 217H184V174H140V217Z" fill="#F8F9FA" stroke="#ADB5BD" stroke-width="1.4472"/>
<path d="M184 217H227V174H184V217Z" fill="#A9E34B" stroke="#ADB5BD" stroke-width="1.4472"/>
<path d="M36.0902 57.2727H35.0334V66H36.0902V57.2727ZM39.0785 57.2727H38.0728V66H39.0785V57.2727Z" fill="black"/>
<path d="M25.7298 102.455H24.2638V101.79C24.2638 101.142 24.5366 100.801 25.2013 100.801C25.4911 100.801 25.6616 100.869 25.7638 100.903L26.0536 100.034C25.9002 99.9659 25.5934 99.8636 25.0991 99.8636C24.1616 99.8636 23.2582 100.426 23.2582 101.551V102.455H22.2013V103.307H23.2582V109H24.2638V103.307H25.7298V102.455ZM28.8778 109.153C30.0199 109.153 30.6165 108.54 30.821 108.114H30.8722V109H31.8778V104.688C31.8778 102.608 30.2926 102.369 29.4574 102.369C28.4688 102.369 27.3438 102.71 26.8324 103.903L27.7869 104.244C28.0085 103.767 28.5327 103.256 29.4915 103.256C30.4162 103.256 30.8722 103.746 30.8722 104.585V104.619C30.8722 105.105 30.3778 105.062 29.1847 105.216C27.9702 105.374 26.6449 105.642 26.6449 107.142C26.6449 108.42 27.6335 109.153 28.8778 109.153ZM29.0312 108.25C28.2301 108.25 27.6506 107.892 27.6506 107.193C27.6506 106.426 28.3494 106.188 29.1335 106.085C29.5597 106.034 30.7017 105.915 30.8722 105.71V106.631C30.8722 107.449 30.2244 108.25 29.0312 108.25ZM33.7134 109H34.7191V102.455H33.7134V109ZM34.2248 101.364C34.6168 101.364 34.9407 101.057 34.9407 100.682C34.9407 100.307 34.6168 100 34.2248 100C33.8327 100 33.5089 100.307 33.5089 100.682C33.5089 101.057 33.8327 101.364 34.2248 101.364ZM39.4077 102.455H38.0099V100.886H37.0043V102.455H36.0156V103.307H37.0043V107.398C37.0043 108.54 37.9247 109.085 38.777 109.085C39.152 109.085 39.3906 109.017 39.527 108.966L39.3224 108.062C39.2372 108.08 39.1009 108.114 38.8793 108.114C38.4361 108.114 38.0099 107.977 38.0099 107.125V103.307H39.4077V102.455Z" fill="black"/>
<path d="M31.0533 150.324C31.0533 151.551 30.1158 152.114 29.3658 152.114C28.5305 152.114 27.9339 151.5 27.9339 150.545V146.455H26.9283V150.614C26.9283 152.284 27.8146 153.085 29.0419 153.085C30.0305 153.085 30.6783 152.557 30.9851 151.892H31.0533V153H32.0589V146.455H31.0533V150.324ZM34.9066 149.062C34.9066 147.92 35.614 147.273 36.5771 147.273C37.5103 147.273 38.0771 147.882 38.0771 148.909V153H39.0827V148.841C39.0827 147.17 38.1921 146.369 36.8668 146.369C35.8782 146.369 35.2646 146.812 34.9577 147.477H34.8725V146.455H33.9009V153H34.9066V149.062Z" fill="black"/>
<path d="M4.48047 198.591C6.04865 198.591 7.31001 197.875 7.31001 196.188V189.455H6.33842V190.494H6.23615C6.01456 190.153 5.60547 189.369 4.32706 189.369C2.67365 189.369 1.53161 190.682 1.53161 192.693C1.53161 194.739 2.72479 195.898 4.31001 195.898C5.58842 195.898 5.99751 195.148 6.21911 194.79H6.30433V196.119C6.30433 197.21 5.53729 197.705 4.48047 197.705C3.29155 197.705 2.87393 197.078 2.60547 196.716L1.80433 197.278C2.21342 197.964 3.01882 198.591 4.48047 198.591ZM4.44638 194.994C3.18501 194.994 2.53729 194.04 2.53729 192.676C2.53729 191.347 3.16797 190.273 4.44638 190.273C5.67365 190.273 6.32138 191.261 6.32138 192.676C6.32138 194.125 5.65661 194.994 4.44638 194.994ZM11.0771 196.153C12.2191 196.153 12.8157 195.54 13.0202 195.114H13.0714V196H14.0771V191.688C14.0771 189.608 12.4918 189.369 11.6566 189.369C10.668 189.369 9.54297 189.71 9.03161 190.903L9.98615 191.244C10.2077 190.767 10.7319 190.256 11.6907 190.256C12.6154 190.256 13.0714 190.746 13.0714 191.585V191.619C13.0714 192.105 12.5771 192.062 11.3839 192.216C10.1694 192.374 8.84411 192.642 8.84411 194.142C8.84411 195.42 9.83274 196.153 11.0771 196.153ZM11.2305 195.25C10.4293 195.25 9.84979 194.892 9.84979 194.193C9.84979 193.426 10.5487 193.188 11.3327 193.085C11.7589 193.034 12.9009 192.915 13.0714 192.71V193.631C13.0714 194.449 12.4237 195.25 11.2305 195.25ZM10.8384 188.67L11.7248 187.477L12.6112 188.67H13.5657V188.602L12.185 186.83H11.2646L9.88388 188.602V188.67H10.8384ZM18.7592 189.455H17.3615V187.886H16.3558V189.455H15.3672V190.307H16.3558V194.398C16.3558 195.54 17.2763 196.085 18.1286 196.085C18.5036 196.085 18.7422 196.017 18.8786 195.966L18.674 195.062C18.5888 195.08 18.4524 195.114 18.2308 195.114C17.7876 195.114 17.3615 194.977 17.3615 194.125V190.307H18.7592V189.455ZM22.946 196.136C24.2756 196.136 25.2472 195.472 25.554 194.483L24.5824 194.21C24.3267 194.892 23.7344 195.233 22.946 195.233C21.7656 195.233 20.9517 194.47 20.9048 193.068H25.6562V192.642C25.6562 190.205 24.2074 189.369 22.8438 189.369C21.071 189.369 19.8949 190.767 19.8949 192.778C19.8949 194.79 21.054 196.136 22.946 196.136ZM20.9048 192.199C20.973 191.18 21.6932 190.273 22.8438 190.273C23.9347 190.273 24.6335 191.091 24.6335 192.199H20.9048ZM29.1122 196.153C30.2543 196.153 30.8509 195.54 31.0554 195.114H31.1065V196H32.1122V191.688C32.1122 189.608 30.527 189.369 29.6918 189.369C28.7031 189.369 27.5781 189.71 27.0668 190.903L28.0213 191.244C28.2429 190.767 28.767 190.256 29.7259 190.256C30.6506 190.256 31.1065 190.746 31.1065 191.585V191.619C31.1065 192.105 30.6122 192.062 29.419 192.216C28.2045 192.374 26.8793 192.642 26.8793 194.142C26.8793 195.42 27.8679 196.153 29.1122 196.153ZM29.2656 195.25C28.4645 195.25 27.8849 194.892 27.8849 194.193C27.8849 193.426 28.5838 193.188 29.3679 193.085C29.794 193.034 30.9361 192.915 31.1065 192.71V193.631C31.1065 194.449 30.4588 195.25 29.2656 195.25ZM38.0728 193.324C38.0728 194.551 37.1353 195.114 36.3853 195.114C35.5501 195.114 34.9535 194.5 34.9535 193.545V189.455H33.9478V193.614C33.9478 195.284 34.8342 196.085 36.0614 196.085C37.0501 196.085 37.6978 195.557 38.0046 194.892H38.0728V196H39.0785V189.455H38.0728V193.324Z" fill="black"/>
<path d="M74.7473 34.2527L75.4946 33.5054L72.7344 30.7453L76.0249 27.4549L78.785 30.215L79.5323 29.4677L73.3612 23.2966L72.6139 24.0439L75.362 26.7919L72.0715 30.0824L69.3234 27.3343L68.5762 28.0816L74.7473 34.2527ZM82.9689 26.2239C83.909 25.2838 84.126 24.1267 83.6439 23.2107L82.764 23.7049C83.0653 24.3678 82.8875 25.0277 82.3301 25.5851C81.4954 26.4198 80.3805 26.456 79.356 25.4978L82.7158 22.138L82.4145 21.8367C80.6909 20.1131 79.0758 20.547 78.1116 21.5112C76.858 22.7647 77.0147 24.5847 78.437 26.007C79.8592 27.4292 81.631 27.5618 82.9689 26.2239ZM78.7413 24.8831C78.0694 24.1147 77.9368 22.9636 78.7504 22.15C79.5218 21.3787 80.5945 21.463 81.3779 22.2465L78.7413 24.8831Z" fill="black"/>
<path d="M118.651 34.3491L119.362 33.638L116.469 30.7453C115.791 30.0673 115.806 29.0941 116.361 28.5396C116.9 28.0003 117.629 27.9761 118.157 28.5035L121.327 31.6734L122.05 30.9502L119.037 27.937C118.44 27.3404 118.374 26.5268 119.024 25.8759C119.531 25.3697 120.233 25.204 120.917 25.888L124.014 28.9856L124.726 28.2745L121.628 25.1768C120.54 24.0891 119.452 24.1704 118.627 24.9961C117.964 25.659 117.783 26.4484 118.024 27.1656L117.976 27.2138C117.253 26.9486 116.56 27.0631 115.951 27.6718C115.348 28.2745 115.192 29.0097 115.493 29.6967L115.433 29.757L114.71 29.0338L114.023 29.7208L118.651 34.3491ZM127.496 25.7207C128.304 24.9132 128.292 24.0574 128.135 23.6115L128.171 23.5753L128.798 24.2021L129.509 23.4909L126.46 20.4415C124.989 18.9711 123.7 19.9233 123.109 20.5139C122.41 21.2129 121.855 22.2495 122.338 23.4548L123.254 23.0209C123.073 22.5267 123.082 21.7945 123.76 21.1165C124.414 20.4626 125.083 20.4867 125.676 21.0803L125.7 21.1045C126.044 21.448 125.664 21.7674 124.929 22.7196C124.182 23.6898 123.434 24.8168 124.495 25.8774C125.399 26.7814 126.616 26.6006 127.496 25.7207ZM126.966 24.9735C126.399 25.5399 125.736 25.6966 125.242 25.2025C124.7 24.6601 125.025 23.9972 125.507 23.3704C125.773 23.0329 126.496 22.141 126.472 21.8758L127.123 22.5267C127.701 23.1052 127.81 24.1297 126.966 24.9735ZM130.807 22.193L131.518 21.4819L129.786 19.7492L129.822 18.791L133.748 19.2521L134.652 18.3481L129.9 17.7967L129.879 13.8644L128.999 14.7443L129.035 18.8302L128.951 18.9146L125.347 15.3107L124.636 16.0219L130.807 22.193ZM137.269 15.9239C138.209 14.9838 138.426 13.8267 137.944 12.9107L137.064 13.4049C137.365 14.0678 137.188 14.7277 136.63 15.2851C135.795 16.1198 134.681 16.156 133.656 15.1978L137.016 11.838L136.714 11.5367C134.991 9.81309 133.376 10.247 132.412 11.2112C131.158 12.4647 131.315 14.2847 132.737 15.707C134.159 17.1292 135.931 17.2618 137.269 15.9239ZM133.041 14.5831C132.369 13.8147 132.237 12.6636 133.05 11.85C133.822 11.0787 134.894 11.163 135.678 11.9465L133.041 14.5831ZM139.857 5.95916C138.977 5.52525 138.037 5.58552 137.121 6.50154C136.145 7.47783 135.976 8.75545 136.76 9.53889C137.398 10.1777 138.206 10.2259 139.255 9.57505L140.207 8.98445C140.782 8.62588 141.225 8.62889 141.545 8.94829C141.942 9.34604 141.846 10.0933 141.183 10.7562C140.602 11.3378 139.987 11.4523 139.363 11.0817L138.857 11.9254C139.809 12.5461 140.876 12.3171 141.822 11.3709C142.898 10.2952 143.042 8.97541 142.244 8.1769C141.599 7.53207 140.788 7.52906 139.761 8.1528L138.905 8.67108C138.221 9.08389 137.79 9.14717 137.435 8.79161C137.037 8.39386 137.169 7.68273 137.736 7.11624C138.357 6.49552 138.956 6.5829 139.399 6.77876L139.857 5.95916Z" fill="black"/>
<path d="M163.121 33.0956C163.929 32.2881 163.917 31.4323 163.76 30.9864L163.796 30.9502L164.423 31.577L165.134 30.8658L162.085 27.8164C160.614 26.346 159.325 27.2982 158.734 27.8888C158.035 28.5878 157.481 29.6244 157.963 30.8297L158.879 30.3958C158.698 29.9016 158.707 29.1694 159.385 28.4914C160.039 27.8375 160.708 27.8616 161.301 28.4553L161.325 28.4794C161.669 28.8229 161.289 29.1423 160.554 30.0945C159.807 31.0647 159.059 32.1917 160.12 33.2523C161.024 34.1563 162.241 33.9755 163.121 33.0956ZM162.591 32.3484C162.024 32.9148 161.362 33.0715 160.867 32.5774C160.325 32.035 160.65 31.3721 161.133 30.7453C161.398 30.4078 162.121 29.5159 162.097 29.2507L162.748 29.9016C163.326 30.4801 163.435 31.5046 162.591 32.3484Z" fill="black"/>
<path d="M206.628 32.5653C207.652 31.5408 207.7 30.2391 207.001 29.299L206.29 30.0101C206.664 30.6489 206.543 31.3721 205.989 31.9265C205.145 32.7702 203.904 32.6135 202.831 31.5408C201.782 30.4922 201.65 29.2507 202.481 28.4191C203.108 27.7923 203.867 27.8044 204.398 28.1178L205.109 27.4066C204.121 26.6594 202.807 26.816 201.83 27.7923C200.577 29.0458 200.734 30.8658 202.144 32.276C203.53 33.6621 205.326 33.867 206.628 32.5653ZM210.861 28.3558C211.669 27.5483 211.657 26.6925 211.5 26.2465L211.536 26.2104L212.163 26.8371L212.874 26.126L209.825 23.0766C208.354 21.6062 207.064 22.5583 206.474 23.1489C205.775 23.848 205.22 24.8846 205.702 26.0899L206.618 25.656C206.438 25.1618 206.447 24.4296 207.125 23.7516C207.779 23.0977 208.448 23.1218 209.041 23.7154L209.065 23.7395C209.409 24.083 209.029 24.4024 208.294 25.3546C207.547 26.3249 206.799 27.4518 207.86 28.5125C208.764 29.4165 209.981 29.2357 210.861 28.3558ZM210.331 27.6085C209.764 28.175 209.101 28.3317 208.607 27.8375C208.065 27.2952 208.39 26.6322 208.872 26.0055C209.138 25.668 209.861 24.7761 209.837 24.5109L210.487 25.1618C211.066 25.7403 211.175 26.7648 210.331 27.6085ZM214.172 24.8281L214.883 24.1169L213.15 22.3843L213.187 21.4261L217.113 21.8871L218.017 20.9832L213.265 20.4317L213.244 16.4995L212.364 17.3793L212.4 21.4653L212.316 21.5497L208.712 17.9458L208.001 18.657L214.172 24.8281ZM220.634 18.559C221.574 17.6189 221.791 16.4618 221.309 15.5458L220.429 16.04C220.73 16.7029 220.552 17.3628 219.995 17.9202C219.16 18.7549 218.045 18.791 217.021 17.8328L220.381 14.4731L220.079 14.1717C218.356 12.4482 216.741 12.8821 215.776 13.8463C214.523 15.0998 214.68 16.9198 216.102 18.3421C217.524 19.7643 219.296 19.8969 220.634 18.559ZM216.406 17.2181C215.734 16.4498 215.602 15.2987 216.415 14.4851C217.187 13.7137 218.259 13.7981 219.043 14.5815L216.406 17.2181Z" fill="black"/>
</svg>
