<svg width="294" height="115" viewBox="0 0 294 115" fill="none" xmlns="http://www.w3.org/2000/svg">
<path d="M20 32L46 77" stroke="black" stroke-width="2.16"/>
<path d="M67 32L88 76" stroke="black" stroke-width="2.16"/>
<path d="M116 32L131 76" stroke="black" stroke-width="2.16"/>
<path d="M161 32L256 79" stroke="black" stroke-width="2.16"/>
<path d="M217 32L192 77" stroke="black" stroke-width="2.16"/>
<path d="M17 32H22C23.9698 32 25.9204 31.612 27.7403 30.8582C29.5601 30.1044 31.2137 28.9995 32.6066 27.6066C33.9995 26.2137 35.1044 24.5601 35.8582 22.7403C36.612 20.9204 37 18.9698 37 17C37 15.0302 36.612 13.0796 35.8582 11.2597C35.1044 9.43986 33.9995 7.78628 32.6066 6.3934C31.2137 5.00052 29.5601 3.89563 27.7403 3.14181C25.9204 2.38799 23.9698 2 22 2H17C13.0218 2 9.20644 3.58035 6.3934 6.3934C3.58035 9.20644 2 13.0218 2 17C2 20.9782 3.58035 24.7936 6.3934 27.6066C9.20644 30.4196 13.0218 32 17 32Z" stroke="#FF0000" stroke-width="2.16"/>
<path d="M12.6232 21H13.68V17.0966H18.3335V21H19.3903V12.2727H18.3335V16.1591H13.68V12.2727H12.6232V21ZM24.114 21.1364C25.4435 21.1364 26.4151 20.4716 26.7219 19.483L25.7504 19.2102C25.4947 19.892 24.9023 20.233 24.114 20.233C22.9336 20.233 22.1197 19.4702 22.0728 18.0682H26.8242V17.642C26.8242 15.2045 25.3754 14.3693 24.0117 14.3693C22.239 14.3693 21.0629 15.767 21.0629 17.7784C21.0629 19.7898 22.2219 21.1364 24.114 21.1364ZM22.0728 17.1989C22.141 16.1804 22.8612 15.2727 24.0117 15.2727C25.1026 15.2727 25.8015 16.0909 25.8015 17.1989H22.0728Z" fill="#FF0000"/>
<path d="M58 32H76C79.9782 32 83.7936 30.4196 86.6066 27.6066C89.4197 24.7936 91 20.9782 91 17C91 13.0218 89.4197 9.20644 86.6066 6.3934C83.7936 3.58035 79.9782 2 76 2H58C54.0218 2 50.2064 3.58035 47.3934 6.3934C44.5804 9.20644 43 13.0218 43 17C43 20.9782 44.5804 24.7936 47.3934 27.6066C50.2064 30.4196 54.0218 32 58 32Z" stroke="#FF0000" stroke-width="2.16"/>
<path d="M59.8029 15.9205C59.4876 14.9915 58.7802 14.3693 57.4847 14.3693C56.104 14.3693 55.0813 15.1534 55.0813 16.2614C55.0813 17.1648 55.6183 17.7699 56.82 18.0511L57.9109 18.3068C58.5714 18.4602 58.8825 18.7756 58.8825 19.2273C58.8825 19.7898 58.2859 20.25 57.3484 20.25C56.5259 20.25 56.0103 19.8963 55.8313 19.1932L54.8768 19.4318C55.1112 20.544 56.0273 21.1364 57.3654 21.1364C58.8867 21.1364 59.9222 20.3054 59.9222 19.1761C59.9222 18.2642 59.3512 17.6889 58.1836 17.4034L57.212 17.1648C56.4364 16.973 56.087 16.7131 56.087 16.2102C56.087 15.6477 56.6836 15.2386 57.4847 15.2386C58.3626 15.2386 58.7248 15.7244 58.8995 16.1761L59.8029 15.9205ZM64.1804 21.1364C65.5099 21.1364 66.4815 20.4716 66.7884 19.483L65.8168 19.2102C65.5611 19.892 64.9688 20.233 64.1804 20.233C63 20.233 62.1861 19.4702 62.1392 18.0682H66.8906V17.642C66.8906 15.2045 65.4418 14.3693 64.0781 14.3693C62.3054 14.3693 61.1293 15.767 61.1293 17.7784C61.1293 19.7898 62.2884 21.1364 64.1804 21.1364ZM62.1392 17.1989C62.2074 16.1804 62.9276 15.2727 64.0781 15.2727C65.169 15.2727 65.8679 16.0909 65.8679 17.1989H62.1392ZM71.1648 21.1364C72.4943 21.1364 73.4659 20.4716 73.7727 19.483L72.8011 19.2102C72.5455 19.892 71.9531 20.233 71.1648 20.233C69.9844 20.233 69.1705 19.4702 69.1236 18.0682H73.875V17.642C73.875 15.2045 72.4261 14.3693 71.0625 14.3693C69.2898 14.3693 68.1136 15.767 68.1136 17.7784C68.1136 19.7898 69.2727 21.1364 71.1648 21.1364ZM69.1236 17.1989C69.1918 16.1804 69.9119 15.2727 71.0625 15.2727C72.1534 15.2727 72.8523 16.0909 72.8523 17.1989H69.1236ZM80.0412 15.9205C79.7259 14.9915 79.0185 14.3693 77.723 14.3693C76.3423 14.3693 75.3196 15.1534 75.3196 16.2614C75.3196 17.1648 75.8565 17.7699 77.0582 18.0511L78.1491 18.3068C78.8097 18.4602 79.1207 18.7756 79.1207 19.2273C79.1207 19.7898 78.5241 20.25 77.5866 20.25C76.7642 20.25 76.2486 19.8963 76.0696 19.1932L75.1151 19.4318C75.3494 20.544 76.2656 21.1364 77.6037 21.1364C79.125 21.1364 80.1605 20.3054 80.1605 19.1761C80.1605 18.2642 79.5895 17.6889 78.4219 17.4034L77.4503 17.1648C76.6747 16.973 76.3253 16.7131 76.3253 16.2102C76.3253 15.6477 76.9219 15.2386 77.723 15.2386C78.6009 15.2386 78.9631 15.7244 79.1378 16.1761L80.0412 15.9205Z" fill="#FF0000"/>
<path d="M112 32H121C124.978 32 128.794 30.4196 131.607 27.6066C134.42 24.7936 136 20.9782 136 17C136 13.0218 134.42 9.20644 131.607 6.3934C128.794 3.58035 124.978 2 121 2H112C108.022 2 104.206 3.58035 101.393 6.3934C98.5803 9.20644 97 13.0218 97 17C97 20.9782 98.5803 24.7936 101.393 27.6066C104.206 30.4196 108.022 32 112 32Z" stroke="#FF0000" stroke-width="2.16"/>
<path d="M110.48 14.4545H109.082V12.8864H108.077V14.4545H107.088V15.3068H108.077V19.3977C108.077 20.5398 108.997 21.0852 109.849 21.0852C110.224 21.0852 110.463 21.017 110.599 20.9659L110.395 20.0625C110.309 20.0795 110.173 20.1136 109.952 20.1136C109.508 20.1136 109.082 19.9773 109.082 19.125V15.3068H110.48V14.4545ZM113.139 17.0625C113.139 15.9205 113.868 15.2727 114.861 15.2727C115.807 15.2727 116.378 15.8693 116.378 16.9091V21H117.383V16.8409C117.383 15.1577 116.488 14.3693 115.15 14.3693C114.119 14.3693 113.531 14.7997 113.224 15.4773H113.139V12.2727H112.133V21H113.139V17.0625ZM121.968 21.1364C123.297 21.1364 124.269 20.4716 124.575 19.483L123.604 19.2102C123.348 19.892 122.756 20.233 121.968 20.233C120.787 20.233 119.973 19.4702 119.926 18.0682H124.678V17.642C124.678 15.2045 123.229 14.3693 121.865 14.3693C120.093 14.3693 118.916 15.767 118.916 17.7784C118.916 19.7898 120.075 21.1364 121.968 21.1364ZM119.926 17.1989C119.994 16.1804 120.715 15.2727 121.865 15.2727C122.956 15.2727 123.655 16.0909 123.655 17.1989H119.926Z" fill="#FF0000"/>
<path d="M156 32H166C169.978 32 173.794 30.4196 176.607 27.6066C179.42 24.7936 181 20.9782 181 17C181 13.0218 179.42 9.20644 176.607 6.3934C173.794 3.58035 169.978 2 166 2H156C152.022 2 148.206 3.58035 145.393 6.3934C142.58 9.20644 141 13.0218 141 17C141 20.9782 142.58 24.7936 145.393 27.6066C148.206 30.4196 152.022 32 156 32Z" stroke="#FF0000" stroke-width="2.16"/>
<path d="M153.069 21H154.075V16.858C154.075 15.9716 154.773 15.3239 155.728 15.3239C155.996 15.3239 156.273 15.375 156.342 15.392V14.3693C156.227 14.3608 155.962 14.3523 155.813 14.3523C155.029 14.3523 154.347 14.7955 154.109 15.4432H154.04V14.4545H153.069V21ZM160.079 21.1364C161.408 21.1364 162.38 20.4716 162.687 19.483L161.715 19.2102C161.46 19.892 160.867 20.233 160.079 20.233C158.898 20.233 158.085 19.4702 158.038 18.0682H162.789V17.642C162.789 15.2045 161.34 14.3693 159.977 14.3693C158.204 14.3693 157.028 15.767 157.028 17.7784C157.028 19.7898 158.187 21.1364 160.079 21.1364ZM158.038 17.1989C158.106 16.1804 158.826 15.2727 159.977 15.2727C161.067 15.2727 161.766 16.0909 161.766 17.1989H158.038ZM166.79 21.1364C168.052 21.1364 168.478 20.3523 168.7 19.9943H168.819V21H169.79V12.2727H168.785V15.4943H168.7C168.478 15.1534 168.086 14.3693 166.808 14.3693C165.154 14.3693 164.012 15.6818 164.012 17.7443C164.012 19.8239 165.154 21.1364 166.79 21.1364ZM166.927 20.233C165.665 20.233 165.018 19.125 165.018 17.7273C165.018 16.3466 165.648 15.2727 166.927 15.2727C168.154 15.2727 168.802 16.2614 168.802 17.7273C168.802 19.2102 168.137 20.233 166.927 20.233Z" fill="#FF0000"/>
<path d="M202 32H233C236.978 32 240.794 30.4196 243.607 27.6066C246.42 24.7936 248 20.9782 248 17C248 13.0218 246.42 9.20644 243.607 6.3934C240.794 3.58035 236.978 2 233 2H202C198.022 2 194.206 3.58035 191.393 6.3934C188.58 9.20644 187 13.0218 187 17C187 20.9782 188.58 24.7936 191.393 27.6066C194.206 30.4196 198.022 32 202 32Z" stroke="#FF0000" stroke-width="2.16"/>
<path d="M201.688 17.0625C201.688 15.9205 202.417 15.2727 203.409 15.2727C204.355 15.2727 204.926 15.8693 204.926 16.9091V21H205.932V16.8409C205.932 15.1577 205.037 14.3693 203.699 14.3693C202.668 14.3693 202.08 14.7997 201.773 15.4773H201.688V12.2727H200.682V21H201.688V17.0625ZM210.431 21.1364C212.204 21.1364 213.397 19.7898 213.397 17.7614C213.397 15.7159 212.204 14.3693 210.431 14.3693C208.658 14.3693 207.465 15.7159 207.465 17.7614C207.465 19.7898 208.658 21.1364 210.431 21.1364ZM210.431 20.233C209.085 20.233 208.471 19.0739 208.471 17.7614C208.471 16.4489 209.085 15.2727 210.431 15.2727C211.778 15.2727 212.391 16.4489 212.391 17.7614C212.391 19.0739 211.778 20.233 210.431 20.233ZM219.057 18.3239C219.057 19.5511 218.12 20.1136 217.37 20.1136C216.534 20.1136 215.938 19.5 215.938 18.5455V14.4545H214.932V18.6136C214.932 20.2841 215.819 21.0852 217.046 21.0852C218.034 21.0852 218.682 20.5568 218.989 19.892H219.057V21H220.063V14.4545H219.057V18.3239ZM226.541 15.9205C226.226 14.9915 225.518 14.3693 224.223 14.3693C222.842 14.3693 221.82 15.1534 221.82 16.2614C221.82 17.1648 222.357 17.7699 223.558 18.0511L224.649 18.3068C225.31 18.4602 225.621 18.7756 225.621 19.2273C225.621 19.7898 225.024 20.25 224.087 20.25C223.264 20.25 222.749 19.8963 222.57 19.1932L221.615 19.4318C221.849 20.544 222.766 21.1364 224.104 21.1364C225.625 21.1364 226.661 20.3054 226.661 19.1761C226.661 18.2642 226.089 17.6889 224.922 17.4034L223.95 17.1648C223.175 16.973 222.825 16.7131 222.825 16.2102C222.825 15.6477 223.422 15.2386 224.223 15.2386C225.101 15.2386 225.463 15.7244 225.638 16.1761L226.541 15.9205ZM230.919 21.1364C232.248 21.1364 233.22 20.4716 233.527 19.483L232.555 19.2102C232.299 19.892 231.707 20.233 230.919 20.233C229.738 20.233 228.924 19.4702 228.877 18.0682H233.629V17.642C233.629 15.2045 232.18 14.3693 230.816 14.3693C229.044 14.3693 227.868 15.767 227.868 17.7784C227.868 19.7898 229.027 21.1364 230.919 21.1364ZM228.877 17.1989C228.946 16.1804 229.666 15.2727 230.816 15.2727C231.907 15.2727 232.606 16.0909 232.606 17.1989H228.877Z" fill="#FF0000"/>
<path d="M49 112C52.9782 112 56.7935 110.42 59.6066 107.607C62.4196 104.794 64 100.978 64 97C64 93.0217 62.4196 89.2064 59.6066 86.3934C56.7935 83.5803 52.9782 82 49 82C46.9477 81.8629 44.8891 82.1493 42.9522 82.8415C41.0153 83.5336 39.2414 84.6168 37.7408 86.0236C36.2402 87.4303 35.045 89.1307 34.2295 91.019C33.4139 92.9073 32.9954 94.9431 33 97C32.9954 99.0569 33.4139 101.093 34.2295 102.981C35.045 104.869 36.2402 106.57 37.7408 107.976C39.2414 109.383 41.0153 110.466 42.9522 111.159C44.8891 111.851 46.9477 112.137 49 112V112Z" stroke="#0000FF" stroke-width="2.16"/>
<path d="M48.1019 92.2727H47.0451V101H48.1019V92.2727ZM51.0902 92.2727H50.0845V101H51.0902V92.2727Z" fill="#0000FF"/>
<path d="M85 112H97C100.978 112 104.794 110.42 107.607 107.607C110.42 104.794 112 100.978 112 97C112 93.0217 110.42 89.2064 107.607 86.3934C104.794 83.5803 100.978 82 97 82H85C82.9477 81.8629 80.8891 82.1493 78.9522 82.8415C77.0153 83.5336 75.2414 84.6168 73.7408 86.0236C72.2402 87.4303 71.045 89.1307 70.2295 91.019C69.4139 92.9073 68.9954 94.9431 69 97C68.9954 99.0569 69.4139 101.093 70.2295 102.981C71.045 104.869 72.2402 106.57 73.7408 107.976C75.2414 109.383 77.0153 110.466 78.9522 111.159C80.8891 111.851 82.9477 112.137 85 112V112Z" stroke="#0000FF" stroke-width="2.16"/>
<path d="M87.3665 94.4545H86.2756L84.4688 99.6705H84.4006L82.5938 94.4545H81.5028L83.9233 101H84.946L87.3665 94.4545ZM91.1186 101.136C92.8913 101.136 94.0845 99.7898 94.0845 97.7614C94.0845 95.7159 92.8913 94.3693 91.1186 94.3693C89.3459 94.3693 88.1527 95.7159 88.1527 97.7614C88.1527 99.7898 89.3459 101.136 91.1186 101.136ZM91.1186 100.233C89.772 100.233 89.1584 99.0739 89.1584 97.7614C89.1584 96.4489 89.772 95.2727 91.1186 95.2727C92.4652 95.2727 93.0788 96.4489 93.0788 97.7614C93.0788 99.0739 92.4652 100.233 91.1186 100.233ZM95.6197 101H96.6254V94.4545H95.6197V101ZM96.131 93.3636C96.5231 93.3636 96.8469 93.0568 96.8469 92.6818C96.8469 92.3068 96.5231 92 96.131 92C95.739 92 95.4151 92.3068 95.4151 92.6818C95.4151 93.0568 95.739 93.3636 96.131 93.3636ZM101.314 94.4545H99.9162V92.8864H98.9105V94.4545H97.9219V95.3068H98.9105V99.3977C98.9105 100.54 99.831 101.085 100.683 101.085C101.058 101.085 101.297 101.017 101.433 100.966L101.229 100.062C101.143 100.08 101.007 100.114 100.786 100.114C100.342 100.114 99.9162 99.9773 99.9162 99.125V95.3068H101.314V94.4545Z" fill="#0000FF"/>
<path d="M133 112C136.978 112 140.794 110.42 143.607 107.607C146.42 104.794 148 100.978 148 97C148 93.0218 146.42 89.2064 143.607 86.3934C140.794 83.5803 136.978 82 133 82C129.022 82 125.206 83.5803 122.393 86.3934C119.58 89.2064 118 93.0218 118 97C118 100.978 119.58 104.794 122.393 107.607C125.206 110.42 129.022 112 133 112Z" stroke="#0000FF" stroke-width="2.16"/>
<path d="M130.121 92.2727H129.116V101H130.121V92.2727ZM133.89 101.153C135.032 101.153 135.628 100.54 135.833 100.114H135.884V101H136.89V96.6875C136.89 94.608 135.304 94.3693 134.469 94.3693C133.48 94.3693 132.355 94.7102 131.844 95.9034L132.799 96.2443C133.02 95.767 133.544 95.2557 134.503 95.2557C135.428 95.2557 135.884 95.7457 135.884 96.5852V96.6193C135.884 97.1051 135.39 97.0625 134.196 97.2159C132.982 97.3736 131.657 97.642 131.657 99.142C131.657 100.42 132.645 101.153 133.89 101.153ZM134.043 100.25C133.242 100.25 132.662 99.892 132.662 99.1932C132.662 98.4261 133.361 98.1875 134.145 98.0852C134.571 98.0341 135.713 97.9148 135.884 97.7102V98.6307C135.884 99.4489 135.236 100.25 134.043 100.25Z" fill="#0000FF"/>
<path d="M169 112H210C213.978 112 217.794 110.42 220.607 107.607C223.42 104.794 225 100.978 225 97C225 93.0218 223.42 89.2064 220.607 86.3934C217.794 83.5803 213.978 82 210 82H169C165.022 82 161.206 83.5803 158.393 86.3934C155.58 89.2064 154 93.0218 154 97C154 100.978 155.58 104.794 158.393 107.607C161.206 110.42 165.022 112 169 112Z" stroke="#0000FF" stroke-width="2.16"/>
<path d="M170.176 101H171.182V96.9091C171.182 95.9503 171.881 95.2727 172.665 95.2727C173.428 95.2727 173.96 95.7713 173.96 96.517V101H174.983V96.7386C174.983 95.8949 175.512 95.2727 176.432 95.2727C177.148 95.2727 177.762 95.652 177.762 96.6193V101H178.767V96.6193C178.767 95.081 177.941 94.3693 176.773 94.3693C175.835 94.3693 175.149 94.7997 174.813 95.4773H174.744C174.421 94.7784 173.85 94.3693 172.989 94.3693C172.137 94.3693 171.506 94.7784 171.233 95.4773H171.148V94.4545H170.176V101ZM182.532 101.153C183.674 101.153 184.271 100.54 184.475 100.114H184.526V101H185.532V96.6875C185.532 94.608 183.947 94.3693 183.112 94.3693C182.123 94.3693 180.998 94.7102 180.487 95.9034L181.441 96.2443C181.663 95.767 182.187 95.2557 183.146 95.2557C184.07 95.2557 184.526 95.7457 184.526 96.5852V96.6193C184.526 97.1051 184.032 97.0625 182.839 97.2159C181.624 97.3736 180.299 97.642 180.299 99.142C180.299 100.42 181.288 101.153 182.532 101.153ZM182.686 100.25C181.884 100.25 181.305 99.892 181.305 99.1932C181.305 98.4261 182.004 98.1875 182.788 98.0852C183.214 98.0341 184.356 97.9148 184.526 97.7102V98.6307C184.526 99.4489 183.879 100.25 182.686 100.25ZM187.368 101H188.373V94.4545H187.368V101ZM187.879 93.3636C188.271 93.3636 188.595 93.0568 188.595 92.6818C188.595 92.3068 188.271 92 187.879 92C187.487 92 187.163 92.3068 187.163 92.6818C187.163 93.0568 187.487 93.3636 187.879 93.3636ZM194.852 95.9205C194.536 94.9915 193.829 94.3693 192.534 94.3693C191.153 94.3693 190.13 95.1534 190.13 96.2614C190.13 97.1648 190.667 97.7699 191.869 98.0511L192.96 98.3068C193.62 98.4602 193.931 98.7756 193.931 99.2273C193.931 99.7898 193.335 100.25 192.397 100.25C191.575 100.25 191.059 99.8963 190.88 99.1932L189.926 99.4318C190.16 100.544 191.076 101.136 192.414 101.136C193.936 101.136 194.971 100.305 194.971 99.1761C194.971 98.2642 194.4 97.6889 193.232 97.4034L192.261 97.1648C191.485 96.973 191.136 96.7131 191.136 96.2102C191.136 95.6477 191.732 95.2386 192.534 95.2386C193.411 95.2386 193.774 95.7244 193.948 96.1761L194.852 95.9205ZM199.144 101.136C200.917 101.136 202.11 99.7898 202.11 97.7614C202.11 95.7159 200.917 94.3693 199.144 94.3693C197.371 94.3693 196.178 95.7159 196.178 97.7614C196.178 99.7898 197.371 101.136 199.144 101.136ZM199.144 100.233C197.797 100.233 197.184 99.0739 197.184 97.7614C197.184 96.4489 197.797 95.2727 199.144 95.2727C200.491 95.2727 201.104 96.4489 201.104 97.7614C201.104 99.0739 200.491 100.233 199.144 100.233ZM204.651 97.0625C204.651 95.9205 205.358 95.2727 206.321 95.2727C207.254 95.2727 207.821 95.8821 207.821 96.9091V101H208.827V96.8409C208.827 95.1705 207.936 94.3693 206.611 94.3693C205.622 94.3693 205.009 94.8125 204.702 95.4773H204.617V94.4545H203.645V101H204.651V97.0625Z" fill="#0000FF"/>
<path d="M246 112H276C279.978 112 283.794 110.42 286.607 107.607C289.42 104.794 291 100.978 291 97C291 93.0218 289.42 89.2064 286.607 86.3934C283.794 83.5803 279.978 82 276 82H246C242.022 82 238.206 83.5803 235.393 86.3934C232.58 89.2064 231 93.0218 231 97C231 100.978 232.58 104.794 235.393 107.607C238.206 110.42 242.022 112 246 112Z" stroke="#0000FF" stroke-width="2.16"/>
<path d="M245.573 101H246.578V96.858C246.578 95.9716 247.277 95.3239 248.232 95.3239C248.5 95.3239 248.777 95.375 248.846 95.392V94.3693C248.73 94.3608 248.466 94.3523 248.317 94.3523C247.533 94.3523 246.851 94.7955 246.613 95.4432H246.544V94.4545H245.573V101ZM252.498 101.136C254.27 101.136 255.463 99.7898 255.463 97.7614C255.463 95.7159 254.27 94.3693 252.498 94.3693C250.725 94.3693 249.532 95.7159 249.532 97.7614C249.532 99.7898 250.725 101.136 252.498 101.136ZM252.498 100.233C251.151 100.233 250.537 99.0739 250.537 97.7614C250.537 96.4489 251.151 95.2727 252.498 95.2727C253.844 95.2727 254.458 96.4489 254.458 97.7614C254.458 99.0739 253.844 100.233 252.498 100.233ZM261.124 98.3239C261.124 99.5511 260.186 100.114 259.436 100.114C258.601 100.114 258.004 99.5 258.004 98.5455V94.4545H256.999V98.6136C256.999 100.284 257.885 101.085 259.112 101.085C260.101 101.085 260.749 100.557 261.055 99.892H261.124V101H262.129V94.4545H261.124V98.3239ZM266.613 103.591C268.181 103.591 269.443 102.875 269.443 101.188V94.4545H268.471V95.4943H268.369C268.147 95.1534 267.738 94.3693 266.46 94.3693C264.806 94.3693 263.664 95.6818 263.664 97.6932C263.664 99.7386 264.858 100.898 266.443 100.898C267.721 100.898 268.13 100.148 268.352 99.7898H268.437V101.119C268.437 102.21 267.67 102.705 266.613 102.705C265.424 102.705 265.007 102.078 264.738 101.716L263.937 102.278C264.346 102.964 265.152 103.591 266.613 103.591ZM266.579 99.9943C265.318 99.9943 264.67 99.0398 264.67 97.6761C264.67 96.3466 265.301 95.2727 266.579 95.2727C267.806 95.2727 268.454 96.2614 268.454 97.6761C268.454 99.125 267.789 99.9943 266.579 99.9943ZM274.028 101.136C275.358 101.136 276.329 100.472 276.636 99.483L275.664 99.2102C275.409 99.892 274.816 100.233 274.028 100.233C272.848 100.233 272.034 99.4702 271.987 98.0682H276.738V97.642C276.738 95.2045 275.289 94.3693 273.926 94.3693C272.153 94.3693 270.977 95.767 270.977 97.7784C270.977 99.7898 272.136 101.136 274.028 101.136ZM271.987 97.1989C272.055 96.1804 272.775 95.2727 273.926 95.2727C275.017 95.2727 275.716 96.0909 275.716 97.1989H271.987Z" fill="#0000FF"/>
<path d="M49 82L39 74L47 69L49 82Z" fill="black"/>
<path d="M91 82L82 73L90 69L91 82Z" fill="black"/>
<path d="M133 82L125 72L133 69V82Z" fill="black"/>
<path d="M261 82L249 80L253 73L261 82Z" fill="black"/>
<path d="M189 82L191 69L199 74L189 82Z" fill="black"/>
</svg>
