<?xml version="1.0" encoding="UTF-8"?> <svg xmlns="http://www.w3.org/2000/svg" viewBox="0 0 1083.19 350.41"><defs><style>.cls-1,.cls-2,.cls-3,.cls-4,.cls-5{fill:none;stroke-miterlimit:10;stroke-width:3px;}.cls-1{stroke:#6a29fb;}.cls-2{stroke:#1956ee;}.cls-3{stroke:#009c48;}.cls-4{stroke:#ff8a00;}.cls-5{stroke:#eecd30;}</style></defs><title>sine wavesAsset 8</title><g id="Layer_2" data-name="Layer 2"><g id="Layer_1-2" data-name="Layer 1"><path class="cls-1" d="M1.43,300.26a172.19,172.19,0,0,1,21.09-1.05c73.61-.1,128.81,47.87,205.7,47.76,87.26-.13,128.67-47.34,216.51-47.22,75.69.1,125.48,47.53,204.57,47.46,85.39-.07,125-47.73,212.41-47.73,77.39,0,133.78,49.43,218.66,49.43"></path><path class="cls-2" d="M2.14,229.72a26,26,0,0,1,4.61-.44c25-.09,43.81,43.87,70,43.77,29.68-.11,43.76-43.38,73.64-43.28,25.75.1,42.68,43.57,69.59,43.51,29-.07,42.5-43.75,72.25-43.75,26.32,0,42.68,43.54,71.55,43.54,23,0,47.15-44,70.54-43.82,26.68.18,44.95,44.27,71.63,44,29-.33,42.89-43.21,71.73-43.94,25.12-.64,43.76,44.1,71.53,43.94,26-.15,43.77-43.81,71.27-43.81,29,0,42.09,44,70.9,43.81,13.62-.08,26.48-11.9,32.61-18.92l1.23-1.21c7.6-9.2,23.76-23.56,38.51-23.61,25-.09,43.81,43.87,70,43.77,29.68-.11,43.77-43.38,73.65-43.28,25.74.1,46.77,43.59,73.67,43.53"></path><path class="cls-3" d="M1.68,151.53c18.87-.1,34.56,44.64,54.26,44.54,22.37-.12,33-44.08,55.5-44,19.39.1,32.16,44.26,52.43,44.2,21.88-.07,32-44.45,54.44-44.45,19.84,0,32.16,44.23,53.92,44.23,17.35,0,35.52-44.66,53.15-44.51,20.1.18,33.87,45,54,44.66,21.88-.33,32.32-43.89,54-44.63,18.93-.64,33,44.8,53.9,44.63,19.56-.15,33-44.5,53.7-44.5,21.84,0,31.72,44.66,53.43,44.5,10.27-.07,20-12.08,24.57-19.21l.93-1.24c5.72-9.34,17.9-23.92,29-24,18.87-.09,33,44.57,52.73,44.47,22.36-.12,33-44.07,55.49-44,19.4.09,32.16,44.25,52.43,44.19,21.89-.07,32-44.44,54.44-44.44,19.84,0,32.17,44.22,53.92,44.22,17.36,0,35.53-44.66,53.15-44.5,20.11.17,33.88,45,54,44.66,12.4-.19,36-44.57,56-44.62"></path><path class="cls-4" d="M.5,73.5c15.1-.1,26.43,47.63,42.2,47.52,17.91-.12,26.4-47.1,44.43-47,15.52.1,25.74,47.29,42,47.23,17.52-.07,25.63-47.5,43.58-47.5,15.88,0,25.74,47.27,43.16,47.27,13.89,0,28.43-47.73,42.54-47.57,16.09.19,27.12,48.06,43.21,47.73,17.51-.36,25.87-46.91,43.26-47.7,15.15-.69,26.4,47.88,43.15,47.7,15.65-.16,26.4-47.56,43-47.56,17.47,0,25.38,47.73,42.76,47.56,8.22-.08,16-12.92,19.67-20.53l.75-1.32c4.58-10,14.32-25.57,23.22-25.63,15.1-.1,26.43,47.63,42.2,47.52,17.91-.12,26.4-47.1,44.42-47,15.53.1,25.75,47.29,42,47.22C663.51,121.41,671.62,74,689.57,74c15.87,0,25.74,47.26,43.16,47.26,13.89,0,28.43-47.72,42.54-47.56,16.09.19,27.12,48.06,43.21,47.73,9.93-.21,28.78-47.62,44.83-47.68,15.1-.06,26.43,47.62,42.2,47.51,17.9-.12,26.4-47.09,44.42-47,15.53.1,25.75,47.3,42,47.23,17.51-.07,25.63-47.49,43.57-47.5,15.88,0,28,47.26,45.38,47.26"></path><path class="cls-5" d="M1.43,18.47C4,10.14,8.25,1.57,11.71,1.53,19.3,1.43,25,46.26,32.92,46.15,41.92,46,46.19,1.92,55.25,2c7.8.1,12.93,44.42,21.09,44.35,8.8-.06,12.88-44.6,21.9-44.6,8,0,12.93,44.39,21.69,44.39,7,0,14.29-44.82,21.38-44.67,8.08.18,13.62,45.13,21.71,44.82,8.8-.34,13-44,21.74-44.79,7.61-.65,13.26,45,21.68,44.79,7.87-.15,13.27-44.66,21.6-44.66,8.78,0,12.76,44.82,21.49,44.66,4.13-.07,8-12.13,9.89-19.28l.37-1.24c2.3-9.38,7.2-24,11.67-24.07,7.59-.09,13.28,44.73,21.21,44.63,9-.12,13.27-44.23,22.32-44.12,7.81.09,12.94,44.41,21.09,44.35C344.89,46.52,349,2,358,2c8,0,12.94,44.39,21.69,44.39,7,0,14.29-44.82,21.38-44.67,8.09.18,13.63,45.14,21.71,44.83,5-.19,14.47-44.73,22.53-44.78,7.59-.06,13.28,44.72,21.21,44.62,9-.11,13.27-44.23,22.32-44.12,7.81.09,12.94,44.42,21.09,44.35C518.72,46.54,522.8,2,531.81,2c8,0,12.94,44.39,21.69,44.39,7,0,14.29-44.83,21.38-44.67,8.09.18,13.63,45.13,21.71,44.82,8.8-.34,13-44,21.74-44.79C626,1.1,631.6,46.71,640,46.54c7.86-.15,13.27-44.67,21.6-44.67,8.78,0,12.76,44.83,21.49,44.67,4.13-.07,8-12.13,9.88-19.28l.38-1.24C695.67,16.64,700.57,2,705,2c7.59-.09,13.28,44.73,21.21,44.63,9-.12,13.26-44.24,22.32-44.13,7.8.1,12.94,44.42,21.09,44.36,8.8-.07,12.88-44.61,21.9-44.61,8,0,12.94,44.39,21.69,44.39,7,0,14.29-44.82,21.38-44.67,8.09.18,12.63,44.63,21.71,44.83,8.27.18,15.53-44.84,22.18-44.82,7.59,0,13.28,44.73,21.21,44.63,9-.12,13.27-44.23,22.32-44.12,7.81.09,12.94,44.41,21.1,44.35C952,46.72,956,2.18,965,2.18c8,0,12.94,44.39,21.69,44.39,7,0,14.29-44.82,21.38-44.66,8.09.17,13.63,45.13,21.72,44.82,8.8-.34,13-44,21.74-44.8,7.61-.64,13.26,45,21.68,44.8,3.11-.06,5.84-7.06,8.51-15.5"></path></g></g></svg> 