<svg width="348" height="213" viewBox="0 0 348 213" fill="none" xmlns="http://www.w3.org/2000/svg">
<rect width="348" height="213" fill="white"/>
<circle cx="106.5" cy="106.5" r="106.5" fill="#FFD43B" fill-opacity="0.4"/>
<circle cx="241.5" cy="106.5" r="106.5" fill="#339AF0" fill-opacity="0.4"/>
<path d="M25.6719 97.9297C24.3854 97.5599 23.4479 97.1068 22.8594 96.5703C22.276 96.0286 21.9844 95.362 21.9844 94.5703C21.9844 93.6745 22.3411 92.9349 23.0547 92.3516C23.7734 91.763 24.7057 91.4688 25.8516 91.4688C26.6328 91.4688 27.3281 91.6198 27.9375 91.9219C28.5521 92.224 29.026 92.6406 29.3594 93.1719C29.6979 93.7031 29.8672 94.2839 29.8672 94.9141H28.3594C28.3594 94.2266 28.1406 93.6875 27.7031 93.2969C27.2656 92.901 26.6484 92.7031 25.8516 92.7031C25.112 92.7031 24.5339 92.8672 24.1172 93.1953C23.7057 93.5182 23.5 93.9688 23.5 94.5469C23.5 95.0104 23.6953 95.4036 24.0859 95.7266C24.4818 96.0443 25.151 96.3359 26.0938 96.6016C27.0417 96.8672 27.7812 97.1615 28.3125 97.4844C28.849 97.8021 29.2448 98.1745 29.5 98.6016C29.7604 99.0286 29.8906 99.5312 29.8906 100.109C29.8906 101.031 29.5312 101.771 28.8125 102.328C28.0938 102.88 27.1328 103.156 25.9297 103.156C25.1484 103.156 24.4193 103.008 23.7422 102.711C23.0651 102.409 22.5417 101.997 22.1719 101.477C21.8073 100.956 21.625 100.365 21.625 99.7031H23.1328C23.1328 100.391 23.3854 100.935 23.8906 101.336C24.401 101.732 25.0807 101.93 25.9297 101.93C26.7214 101.93 27.3281 101.768 27.75 101.445C28.1719 101.122 28.3828 100.682 28.3828 100.125C28.3828 99.5677 28.1875 99.138 27.7969 98.8359C27.4062 98.5286 26.6979 98.2266 25.6719 97.9297ZM35.1016 103.156C33.9557 103.156 33.0234 102.781 32.3047 102.031C31.5859 101.276 31.2266 100.268 31.2266 99.0078V98.7422C31.2266 97.9036 31.3854 97.1562 31.7031 96.5C32.026 95.8385 32.474 95.3229 33.0469 94.9531C33.625 94.5781 34.25 94.3906 34.9219 94.3906C36.0208 94.3906 36.875 94.7526 37.4844 95.4766C38.0938 96.2005 38.3984 97.237 38.3984 98.5859V99.1875H32.6719C32.6927 100.021 32.9349 100.695 33.3984 101.211C33.8672 101.721 34.4609 101.977 35.1797 101.977C35.6901 101.977 36.1224 101.872 36.4766 101.664C36.8307 101.456 37.1406 101.18 37.4062 100.836L38.2891 101.523C37.5807 102.612 36.5182 103.156 35.1016 103.156ZM34.9219 95.5781C34.3385 95.5781 33.849 95.7917 33.4531 96.2188C33.0573 96.6406 32.8125 97.2344 32.7188 98H36.9531V97.8906C36.9115 97.1562 36.7135 96.5885 36.3594 96.1875C36.0052 95.7812 35.526 95.5781 34.9219 95.5781ZM39.7266 98.7031C39.7266 97.375 40.0312 96.3255 40.6406 95.5547C41.25 94.7786 42.0677 94.3906 43.0938 94.3906C44.0938 94.3906 44.8828 94.7266 45.4609 95.3984L45.5234 94.5469H46.8516V106.25H45.4062V102.219C44.8229 102.844 44.0469 103.156 43.0781 103.156C42.0573 103.156 41.2422 102.76 40.6328 101.969C40.0286 101.172 39.7266 100.117 39.7266 98.8047V98.7031ZM41.1719 98.8672C41.1719 99.8359 41.375 100.596 41.7812 101.148C42.1927 101.701 42.7448 101.977 43.4375 101.977C44.2969 101.977 44.9531 101.596 45.4062 100.836V96.6953C44.9479 95.9505 44.2969 95.5781 43.4531 95.5781C42.7552 95.5781 42.2005 95.8568 41.7891 96.4141C41.3776 96.9661 41.1719 97.7839 41.1719 98.8672ZM54.3906 102.164C53.8281 102.826 53.0026 103.156 51.9141 103.156C51.013 103.156 50.3255 102.896 49.8516 102.375C49.3828 101.849 49.1458 101.073 49.1406 100.047V94.5469H50.5859V100.008C50.5859 101.289 51.1068 101.93 52.1484 101.93C53.2526 101.93 53.987 101.518 54.3516 100.695V94.5469H55.7969V103H54.4219L54.3906 102.164ZM61.5078 103.156C60.362 103.156 59.4297 102.781 58.7109 102.031C57.9922 101.276 57.6328 100.268 57.6328 99.0078V98.7422C57.6328 97.9036 57.7917 97.1562 58.1094 96.5C58.4323 95.8385 58.8802 95.3229 59.4531 94.9531C60.0312 94.5781 60.6562 94.3906 61.3281 94.3906C62.4271 94.3906 63.2812 94.7526 63.8906 95.4766C64.5 96.2005 64.8047 97.237 64.8047 98.5859V99.1875H59.0781C59.099 100.021 59.3411 100.695 59.8047 101.211C60.2734 101.721 60.8672 101.977 61.5859 101.977C62.0964 101.977 62.5286 101.872 62.8828 101.664C63.237 101.456 63.5469 101.18 63.8125 100.836L64.6953 101.523C63.987 102.612 62.9245 103.156 61.5078 103.156ZM61.3281 95.5781C60.7448 95.5781 60.2552 95.7917 59.8594 96.2188C59.4635 96.6406 59.2188 97.2344 59.125 98H63.3594V97.8906C63.3177 97.1562 63.1198 96.5885 62.7656 96.1875C62.4115 95.7812 61.9323 95.5781 61.3281 95.5781ZM67.8516 94.5469L67.8984 95.6094C68.5443 94.7969 69.388 94.3906 70.4297 94.3906C72.2161 94.3906 73.1172 95.3984 73.1328 97.4141V103H71.6875V97.4062C71.6823 96.7969 71.5417 96.3464 71.2656 96.0547C70.9948 95.763 70.5703 95.6172 69.9922 95.6172C69.5234 95.6172 69.112 95.7422 68.7578 95.9922C68.4036 96.2422 68.1276 96.5703 67.9297 96.9766V103H66.4844V94.5469H67.8516ZM78.7031 101.977C79.2188 101.977 79.6693 101.82 80.0547 101.508C80.4401 101.195 80.6536 100.805 80.6953 100.336H82.0625C82.0365 100.82 81.8698 101.281 81.5625 101.719C81.2552 102.156 80.8438 102.505 80.3281 102.766C79.8177 103.026 79.276 103.156 78.7031 103.156C77.5521 103.156 76.6354 102.773 75.9531 102.008C75.276 101.237 74.9375 100.185 74.9375 98.8516V98.6094C74.9375 97.7865 75.0885 97.0547 75.3906 96.4141C75.6927 95.7734 76.125 95.276 76.6875 94.9219C77.2552 94.5677 77.9245 94.3906 78.6953 94.3906C79.6432 94.3906 80.4297 94.6745 81.0547 95.2422C81.6849 95.8099 82.0208 96.5469 82.0625 97.4531H80.6953C80.6536 96.9062 80.4453 96.4583 80.0703 96.1094C79.7005 95.7552 79.2422 95.5781 78.6953 95.5781C77.9609 95.5781 77.3906 95.8438 76.9844 96.375C76.5833 96.901 76.3828 97.6641 76.3828 98.6641V98.9375C76.3828 99.9115 76.5833 100.661 76.9844 101.188C77.3854 101.714 77.9583 101.977 78.7031 101.977ZM87.1953 103.156C86.0495 103.156 85.1172 102.781 84.3984 102.031C83.6797 101.276 83.3203 100.268 83.3203 99.0078V98.7422C83.3203 97.9036 83.4792 97.1562 83.7969 96.5C84.1198 95.8385 84.5677 95.3229 85.1406 94.9531C85.7188 94.5781 86.3438 94.3906 87.0156 94.3906C88.1146 94.3906 88.9688 94.7526 89.5781 95.4766C90.1875 96.2005 90.4922 97.237 90.4922 98.5859V99.1875H84.7656C84.7865 100.021 85.0286 100.695 85.4922 101.211C85.9609 101.721 86.5547 101.977 87.2734 101.977C87.7839 101.977 88.2161 101.872 88.5703 101.664C88.9245 101.456 89.2344 101.18 89.5 100.836L90.3828 101.523C89.6745 102.612 88.612 103.156 87.1953 103.156ZM87.0156 95.5781C86.4323 95.5781 85.9427 95.7917 85.5469 96.2188C85.151 96.6406 84.9062 97.2344 84.8125 98H89.0469V97.8906C89.0052 97.1562 88.8073 96.5885 88.4531 96.1875C88.099 95.7812 87.6198 95.5781 87.0156 95.5781ZM95.1797 98.7578H91.3672V97.5781H95.1797V98.7578ZM98.5547 92.5V94.5469H100.133V95.6641H98.5547V100.906C98.5547 101.245 98.625 101.5 98.7656 101.672C98.9062 101.839 99.1458 101.922 99.4844 101.922C99.651 101.922 99.8802 101.891 100.172 101.828V103C99.7917 103.104 99.4219 103.156 99.0625 103.156C98.4167 103.156 97.9297 102.961 97.6016 102.57C97.2734 102.18 97.1094 101.625 97.1094 100.906V95.6641H95.5703V94.5469H97.1094V92.5H98.5547ZM101.289 98.6953C101.289 97.8672 101.451 97.1224 101.773 96.4609C102.102 95.7995 102.555 95.2891 103.133 94.9297C103.716 94.5703 104.38 94.3906 105.125 94.3906C106.276 94.3906 107.206 94.7891 107.914 95.5859C108.628 96.3828 108.984 97.4427 108.984 98.7656V98.8672C108.984 99.6901 108.826 100.43 108.508 101.086C108.195 101.737 107.745 102.245 107.156 102.609C106.573 102.974 105.901 103.156 105.141 103.156C103.995 103.156 103.065 102.758 102.352 101.961C101.643 101.164 101.289 100.109 101.289 98.7969V98.6953ZM102.742 98.8672C102.742 99.8047 102.958 100.557 103.391 101.125C103.828 101.693 104.411 101.977 105.141 101.977C105.875 101.977 106.458 101.69 106.891 101.117C107.323 100.539 107.539 99.7318 107.539 98.6953C107.539 97.7682 107.318 97.0182 106.875 96.4453C106.438 95.8672 105.854 95.5781 105.125 95.5781C104.411 95.5781 103.836 95.862 103.398 96.4297C102.961 96.9974 102.742 97.8099 102.742 98.8672ZM25.1016 117.758H21.2891V116.578H25.1016V117.758ZM31.4375 119.758C31.4375 119.367 31.2891 119.065 30.9922 118.852C30.7005 118.633 30.1875 118.445 29.4531 118.289C28.724 118.133 28.1432 117.945 27.7109 117.727C27.2839 117.508 26.9661 117.247 26.7578 116.945C26.5547 116.643 26.4531 116.284 26.4531 115.867C26.4531 115.174 26.7448 114.589 27.3281 114.109C27.9167 113.63 28.6667 113.391 29.5781 113.391C30.5365 113.391 31.3125 113.638 31.9062 114.133C32.5052 114.628 32.8047 115.26 32.8047 116.031H31.3516C31.3516 115.635 31.1823 115.294 30.8438 115.008C30.5104 114.721 30.0885 114.578 29.5781 114.578C29.0521 114.578 28.6406 114.693 28.3438 114.922C28.0469 115.151 27.8984 115.451 27.8984 115.82C27.8984 116.169 28.0365 116.432 28.3125 116.609C28.5885 116.786 29.0859 116.956 29.8047 117.117C30.5286 117.279 31.1146 117.471 31.5625 117.695C32.0104 117.919 32.3411 118.19 32.5547 118.508C32.7734 118.82 32.8828 119.203 32.8828 119.656C32.8828 120.411 32.5807 121.018 31.9766 121.477C31.3724 121.93 30.5885 122.156 29.625 122.156C28.9479 122.156 28.349 122.036 27.8281 121.797C27.3073 121.557 26.8984 121.224 26.6016 120.797C26.3099 120.365 26.1641 119.898 26.1641 119.398H27.6094C27.6354 119.883 27.8281 120.268 28.1875 120.555C28.5521 120.836 29.0312 120.977 29.625 120.977C30.1719 120.977 30.6094 120.867 30.9375 120.648C31.2708 120.424 31.4375 120.128 31.4375 119.758ZM38.2734 122.156C37.1276 122.156 36.1953 121.781 35.4766 121.031C34.7578 120.276 34.3984 119.268 34.3984 118.008V117.742C34.3984 116.904 34.5573 116.156 34.875 115.5C35.1979 114.839 35.6458 114.323 36.2188 113.953C36.7969 113.578 37.4219 113.391 38.0938 113.391C39.1927 113.391 40.0469 113.753 40.6562 114.477C41.2656 115.201 41.5703 116.237 41.5703 117.586V118.188H35.8438C35.8646 119.021 36.1068 119.695 36.5703 120.211C37.0391 120.721 37.6328 120.977 38.3516 120.977C38.862 120.977 39.2943 120.872 39.6484 120.664C40.0026 120.456 40.3125 120.18 40.5781 119.836L41.4609 120.523C40.7526 121.612 39.6901 122.156 38.2734 122.156ZM38.0938 114.578C37.5104 114.578 37.0208 114.792 36.625 115.219C36.2292 115.641 35.9844 116.234 35.8906 117H40.125V116.891C40.0833 116.156 39.8854 115.589 39.5312 115.188C39.1771 114.781 38.6979 114.578 38.0938 114.578ZM42.8984 117.703C42.8984 116.375 43.2031 115.326 43.8125 114.555C44.4219 113.779 45.2396 113.391 46.2656 113.391C47.2656 113.391 48.0547 113.727 48.6328 114.398L48.6953 113.547H50.0234V125.25H48.5781V121.219C47.9948 121.844 47.2188 122.156 46.25 122.156C45.2292 122.156 44.4141 121.76 43.8047 120.969C43.2005 120.172 42.8984 119.117 42.8984 117.805V117.703ZM44.3438 117.867C44.3438 118.836 44.5469 119.596 44.9531 120.148C45.3646 120.701 45.9167 120.977 46.6094 120.977C47.4688 120.977 48.125 120.596 48.5781 119.836V115.695C48.1198 114.951 47.4688 114.578 46.625 114.578C45.9271 114.578 45.3724 114.857 44.9609 115.414C44.5495 115.966 44.3438 116.784 44.3438 117.867ZM57.5625 121.164C57 121.826 56.1745 122.156 55.0859 122.156C54.1849 122.156 53.4974 121.896 53.0234 121.375C52.5547 120.849 52.3177 120.073 52.3125 119.047V113.547H53.7578V119.008C53.7578 120.289 54.2786 120.93 55.3203 120.93C56.4245 120.93 57.1589 120.518 57.5234 119.695V113.547H58.9688V122H57.5938L57.5625 121.164ZM64.6797 122.156C63.5339 122.156 62.6016 121.781 61.8828 121.031C61.1641 120.276 60.8047 119.268 60.8047 118.008V117.742C60.8047 116.904 60.9635 116.156 61.2812 115.5C61.6042 114.839 62.0521 114.323 62.625 113.953C63.2031 113.578 63.8281 113.391 64.5 113.391C65.599 113.391 66.4531 113.753 67.0625 114.477C67.6719 115.201 67.9766 116.237 67.9766 117.586V118.188H62.25C62.2708 119.021 62.513 119.695 62.9766 120.211C63.4453 120.721 64.0391 120.977 64.7578 120.977C65.2682 120.977 65.7005 120.872 66.0547 120.664C66.4089 120.456 66.7188 120.18 66.9844 119.836L67.8672 120.523C67.1589 121.612 66.0964 122.156 64.6797 122.156ZM64.5 114.578C63.9167 114.578 63.4271 114.792 63.0312 115.219C62.6354 115.641 62.3906 116.234 62.2969 117H66.5312V116.891C66.4896 116.156 66.2917 115.589 65.9375 115.188C65.5833 114.781 65.1042 114.578 64.5 114.578ZM71.0234 113.547L71.0703 114.609C71.7161 113.797 72.5599 113.391 73.6016 113.391C75.388 113.391 76.2891 114.398 76.3047 116.414V122H74.8594V116.406C74.8542 115.797 74.7135 115.346 74.4375 115.055C74.1667 114.763 73.7422 114.617 73.1641 114.617C72.6953 114.617 72.2839 114.742 71.9297 114.992C71.5755 115.242 71.2995 115.57 71.1016 115.977V122H69.6562V113.547H71.0234ZM81.875 120.977C82.3906 120.977 82.8411 120.82 83.2266 120.508C83.612 120.195 83.8255 119.805 83.8672 119.336H85.2344C85.2083 119.82 85.0417 120.281 84.7344 120.719C84.4271 121.156 84.0156 121.505 83.5 121.766C82.9896 122.026 82.4479 122.156 81.875 122.156C80.724 122.156 79.8073 121.773 79.125 121.008C78.4479 120.237 78.1094 119.185 78.1094 117.852V117.609C78.1094 116.786 78.2604 116.055 78.5625 115.414C78.8646 114.773 79.2969 114.276 79.8594 113.922C80.4271 113.568 81.0964 113.391 81.8672 113.391C82.8151 113.391 83.6016 113.674 84.2266 114.242C84.8568 114.81 85.1927 115.547 85.2344 116.453H83.8672C83.8255 115.906 83.6172 115.458 83.2422 115.109C82.8724 114.755 82.4141 114.578 81.8672 114.578C81.1328 114.578 80.5625 114.844 80.1562 115.375C79.7552 115.901 79.5547 116.664 79.5547 117.664V117.938C79.5547 118.911 79.7552 119.661 80.1562 120.188C80.5573 120.714 81.1302 120.977 81.875 120.977ZM90.3672 122.156C89.2214 122.156 88.2891 121.781 87.5703 121.031C86.8516 120.276 86.4922 119.268 86.4922 118.008V117.742C86.4922 116.904 86.651 116.156 86.9688 115.5C87.2917 114.839 87.7396 114.323 88.3125 113.953C88.8906 113.578 89.5156 113.391 90.1875 113.391C91.2865 113.391 92.1406 113.753 92.75 114.477C93.3594 115.201 93.6641 116.237 93.6641 117.586V118.188H87.9375C87.9583 119.021 88.2005 119.695 88.6641 120.211C89.1328 120.721 89.7266 120.977 90.4453 120.977C90.9557 120.977 91.388 120.872 91.7422 120.664C92.0964 120.456 92.4062 120.18 92.6719 119.836L93.5547 120.523C92.8464 121.612 91.7839 122.156 90.3672 122.156ZM90.1875 114.578C89.6042 114.578 89.1146 114.792 88.7188 115.219C88.3229 115.641 88.0781 116.234 87.9844 117H92.2188V116.891C92.1771 116.156 91.9792 115.589 91.625 115.188C91.2708 114.781 90.7917 114.578 90.1875 114.578Z" fill="black"/>
<path d="M296.383 100.031H291.617L290.547 103H289L293.344 91.625H294.656L299.008 103H297.469L296.383 100.031ZM292.07 98.7969H295.938L294 93.4766L292.07 98.7969ZM305.438 102.164C304.875 102.826 304.049 103.156 302.961 103.156C302.06 103.156 301.372 102.896 300.898 102.375C300.43 101.849 300.193 101.073 300.188 100.047V94.5469H301.633V100.008C301.633 101.289 302.154 101.93 303.195 101.93C304.299 101.93 305.034 101.518 305.398 100.695V94.5469H306.844V103H305.469L305.438 102.164ZM308.695 98.7031C308.695 97.4062 309.003 96.3646 309.617 95.5781C310.232 94.7865 311.036 94.3906 312.031 94.3906C313.021 94.3906 313.805 94.7292 314.383 95.4062V91H315.828V103H314.5L314.43 102.094C313.852 102.802 313.047 103.156 312.016 103.156C311.036 103.156 310.237 102.755 309.617 101.953C309.003 101.151 308.695 100.104 308.695 98.8125V98.7031ZM310.141 98.8672C310.141 99.8255 310.339 100.576 310.734 101.117C311.13 101.659 311.677 101.93 312.375 101.93C313.292 101.93 313.961 101.518 314.383 100.695V96.8125C313.951 96.0156 313.286 95.6172 312.391 95.6172C311.682 95.6172 311.13 95.8906 310.734 96.4375C310.339 96.9844 310.141 97.7943 310.141 98.8672ZM319.648 103H318.203V94.5469H319.648V103ZM318.086 92.3047C318.086 92.0703 318.156 91.8724 318.297 91.7109C318.443 91.5495 318.656 91.4688 318.938 91.4688C319.219 91.4688 319.432 91.5495 319.578 91.7109C319.724 91.8724 319.797 92.0703 319.797 92.3047C319.797 92.5391 319.724 92.7344 319.578 92.8906C319.432 93.0469 319.219 93.125 318.938 93.125C318.656 93.125 318.443 93.0469 318.297 92.8906C318.156 92.7344 318.086 92.5391 318.086 92.3047ZM321.586 98.6953C321.586 97.8672 321.747 97.1224 322.07 96.4609C322.398 95.7995 322.852 95.2891 323.43 94.9297C324.013 94.5703 324.677 94.3906 325.422 94.3906C326.573 94.3906 327.503 94.7891 328.211 95.5859C328.924 96.3828 329.281 97.4427 329.281 98.7656V98.8672C329.281 99.6901 329.122 100.43 328.805 101.086C328.492 101.737 328.042 102.245 327.453 102.609C326.87 102.974 326.198 103.156 325.438 103.156C324.292 103.156 323.362 102.758 322.648 101.961C321.94 101.164 321.586 100.109 321.586 98.7969V98.6953ZM323.039 98.8672C323.039 99.8047 323.255 100.557 323.688 101.125C324.125 101.693 324.708 101.977 325.438 101.977C326.172 101.977 326.755 101.69 327.188 101.117C327.62 100.539 327.836 99.7318 327.836 98.6953C327.836 97.7682 327.615 97.0182 327.172 96.4453C326.734 95.8672 326.151 95.5781 325.422 95.5781C324.708 95.5781 324.133 95.862 323.695 96.4297C323.258 96.9974 323.039 97.8099 323.039 98.8672ZM268.438 119.758C268.438 119.367 268.289 119.065 267.992 118.852C267.701 118.633 267.188 118.445 266.453 118.289C265.724 118.133 265.143 117.945 264.711 117.727C264.284 117.508 263.966 117.247 263.758 116.945C263.555 116.643 263.453 116.284 263.453 115.867C263.453 115.174 263.745 114.589 264.328 114.109C264.917 113.63 265.667 113.391 266.578 113.391C267.536 113.391 268.312 113.638 268.906 114.133C269.505 114.628 269.805 115.26 269.805 116.031H268.352C268.352 115.635 268.182 115.294 267.844 115.008C267.51 114.721 267.089 114.578 266.578 114.578C266.052 114.578 265.641 114.693 265.344 114.922C265.047 115.151 264.898 115.451 264.898 115.82C264.898 116.169 265.036 116.432 265.312 116.609C265.589 116.786 266.086 116.956 266.805 117.117C267.529 117.279 268.115 117.471 268.562 117.695C269.01 117.919 269.341 118.19 269.555 118.508C269.773 118.82 269.883 119.203 269.883 119.656C269.883 120.411 269.581 121.018 268.977 121.477C268.372 121.93 267.589 122.156 266.625 122.156C265.948 122.156 265.349 122.036 264.828 121.797C264.307 121.557 263.898 121.224 263.602 120.797C263.31 120.365 263.164 119.898 263.164 119.398H264.609C264.635 119.883 264.828 120.268 265.188 120.555C265.552 120.836 266.031 120.977 266.625 120.977C267.172 120.977 267.609 120.867 267.938 120.648C268.271 120.424 268.438 120.128 268.438 119.758ZM274.531 119.883L276.5 113.547H278.047L274.648 123.305C274.122 124.711 273.286 125.414 272.141 125.414L271.867 125.391L271.328 125.289V124.117L271.719 124.148C272.208 124.148 272.589 124.049 272.859 123.852C273.135 123.654 273.362 123.292 273.539 122.766L273.859 121.906L270.844 113.547H272.422L274.531 119.883ZM280.711 113.547L280.758 114.609C281.404 113.797 282.247 113.391 283.289 113.391C285.076 113.391 285.977 114.398 285.992 116.414V122H284.547V116.406C284.542 115.797 284.401 115.346 284.125 115.055C283.854 114.763 283.43 114.617 282.852 114.617C282.383 114.617 281.971 114.742 281.617 114.992C281.263 115.242 280.987 115.57 280.789 115.977V122H279.344V113.547H280.711ZM290.133 111.5V113.547H291.711V114.664H290.133V119.906C290.133 120.245 290.203 120.5 290.344 120.672C290.484 120.839 290.724 120.922 291.062 120.922C291.229 120.922 291.458 120.891 291.75 120.828V122C291.37 122.104 291 122.156 290.641 122.156C289.995 122.156 289.508 121.961 289.18 121.57C288.852 121.18 288.688 120.625 288.688 119.906V114.664H287.148V113.547H288.688V111.5H290.133ZM294.852 114.57C295.492 113.784 296.326 113.391 297.352 113.391C299.138 113.391 300.039 114.398 300.055 116.414V122H298.609V116.406C298.604 115.797 298.464 115.346 298.188 115.055C297.917 114.763 297.492 114.617 296.914 114.617C296.445 114.617 296.034 114.742 295.68 114.992C295.326 115.242 295.049 115.57 294.852 115.977V122H293.406V110H294.852V114.57ZM305.727 122.156C304.581 122.156 303.648 121.781 302.93 121.031C302.211 120.276 301.852 119.268 301.852 118.008V117.742C301.852 116.904 302.01 116.156 302.328 115.5C302.651 114.839 303.099 114.323 303.672 113.953C304.25 113.578 304.875 113.391 305.547 113.391C306.646 113.391 307.5 113.753 308.109 114.477C308.719 115.201 309.023 116.237 309.023 117.586V118.188H303.297C303.318 119.021 303.56 119.695 304.023 120.211C304.492 120.721 305.086 120.977 305.805 120.977C306.315 120.977 306.747 120.872 307.102 120.664C307.456 120.456 307.766 120.18 308.031 119.836L308.914 120.523C308.206 121.612 307.143 122.156 305.727 122.156ZM305.547 114.578C304.964 114.578 304.474 114.792 304.078 115.219C303.682 115.641 303.438 116.234 303.344 117H307.578V116.891C307.536 116.156 307.339 115.589 306.984 115.188C306.63 114.781 306.151 114.578 305.547 114.578ZM315.625 119.758C315.625 119.367 315.477 119.065 315.18 118.852C314.888 118.633 314.375 118.445 313.641 118.289C312.911 118.133 312.331 117.945 311.898 117.727C311.471 117.508 311.154 117.247 310.945 116.945C310.742 116.643 310.641 116.284 310.641 115.867C310.641 115.174 310.932 114.589 311.516 114.109C312.104 113.63 312.854 113.391 313.766 113.391C314.724 113.391 315.5 113.638 316.094 114.133C316.693 114.628 316.992 115.26 316.992 116.031H315.539C315.539 115.635 315.37 115.294 315.031 115.008C314.698 114.721 314.276 114.578 313.766 114.578C313.24 114.578 312.828 114.693 312.531 114.922C312.234 115.151 312.086 115.451 312.086 115.82C312.086 116.169 312.224 116.432 312.5 116.609C312.776 116.786 313.273 116.956 313.992 117.117C314.716 117.279 315.302 117.471 315.75 117.695C316.198 117.919 316.529 118.19 316.742 118.508C316.961 118.82 317.07 119.203 317.07 119.656C317.07 120.411 316.768 121.018 316.164 121.477C315.56 121.93 314.776 122.156 313.812 122.156C313.135 122.156 312.536 122.036 312.016 121.797C311.495 121.557 311.086 121.224 310.789 120.797C310.497 120.365 310.352 119.898 310.352 119.398H311.797C311.823 119.883 312.016 120.268 312.375 120.555C312.74 120.836 313.219 120.977 313.812 120.977C314.359 120.977 314.797 120.867 315.125 120.648C315.458 120.424 315.625 120.128 315.625 119.758ZM320.523 122H319.078V113.547H320.523V122ZM318.961 111.305C318.961 111.07 319.031 110.872 319.172 110.711C319.318 110.549 319.531 110.469 319.812 110.469C320.094 110.469 320.307 110.549 320.453 110.711C320.599 110.872 320.672 111.07 320.672 111.305C320.672 111.539 320.599 111.734 320.453 111.891C320.307 112.047 320.094 112.125 319.812 112.125C319.531 112.125 319.318 112.047 319.172 111.891C319.031 111.734 318.961 111.539 318.961 111.305ZM327.766 119.758C327.766 119.367 327.617 119.065 327.32 118.852C327.029 118.633 326.516 118.445 325.781 118.289C325.052 118.133 324.471 117.945 324.039 117.727C323.612 117.508 323.294 117.247 323.086 116.945C322.883 116.643 322.781 116.284 322.781 115.867C322.781 115.174 323.073 114.589 323.656 114.109C324.245 113.63 324.995 113.391 325.906 113.391C326.865 113.391 327.641 113.638 328.234 114.133C328.833 114.628 329.133 115.26 329.133 116.031H327.68C327.68 115.635 327.51 115.294 327.172 115.008C326.839 114.721 326.417 114.578 325.906 114.578C325.38 114.578 324.969 114.693 324.672 114.922C324.375 115.151 324.227 115.451 324.227 115.82C324.227 116.169 324.365 116.432 324.641 116.609C324.917 116.786 325.414 116.956 326.133 117.117C326.857 117.279 327.443 117.471 327.891 117.695C328.339 117.919 328.669 118.19 328.883 118.508C329.102 118.82 329.211 119.203 329.211 119.656C329.211 120.411 328.909 121.018 328.305 121.477C327.701 121.93 326.917 122.156 325.953 122.156C325.276 122.156 324.677 122.036 324.156 121.797C323.635 121.557 323.227 121.224 322.93 120.797C322.638 120.365 322.492 119.898 322.492 119.398H323.938C323.964 119.883 324.156 120.268 324.516 120.555C324.88 120.836 325.359 120.977 325.953 120.977C326.5 120.977 326.938 120.867 327.266 120.648C327.599 120.424 327.766 120.128 327.766 119.758Z" fill="black"/>
<path d="M170.922 98.5234H167.438V108H165.094V98.5234H161.656V96.625H170.922V98.5234ZM180.953 98.5234H177.469V108H175.125V98.5234H171.688V96.625H180.953V98.5234ZM188.07 105.016C188.07 104.573 187.914 104.234 187.602 104C187.289 103.76 186.727 103.51 185.914 103.25C185.102 102.984 184.458 102.724 183.984 102.469C182.693 101.771 182.047 100.831 182.047 99.6484C182.047 99.0339 182.219 98.487 182.562 98.0078C182.911 97.5234 183.409 97.1458 184.055 96.875C184.706 96.6042 185.435 96.4688 186.242 96.4688C187.055 96.4688 187.779 96.6172 188.414 96.9141C189.049 97.2057 189.542 97.6198 189.891 98.1562C190.245 98.6927 190.422 99.3021 190.422 99.9844H188.078C188.078 99.4635 187.914 99.0599 187.586 98.7734C187.258 98.4818 186.797 98.3359 186.203 98.3359C185.63 98.3359 185.185 98.4583 184.867 98.7031C184.549 98.9427 184.391 99.2604 184.391 99.6562C184.391 100.026 184.576 100.336 184.945 100.586C185.32 100.836 185.87 101.07 186.594 101.289C187.927 101.69 188.898 102.188 189.508 102.781C190.117 103.375 190.422 104.115 190.422 105C190.422 105.984 190.049 106.758 189.305 107.32C188.56 107.878 187.557 108.156 186.297 108.156C185.422 108.156 184.625 107.997 183.906 107.68C183.188 107.357 182.638 106.917 182.258 106.359C181.883 105.802 181.695 105.156 181.695 104.422H184.047C184.047 105.677 184.797 106.305 186.297 106.305C186.854 106.305 187.289 106.193 187.602 105.969C187.914 105.74 188.07 105.422 188.07 105.016Z" fill="white"/>
</svg>
