<?xml version="1.0" encoding="utf-8"?>
<!-- Generator: Adobe Illustrator 14.0.0, SVG Export Plug-In . SVG Version: 6.00 Build 43363)  -->
<!DOCTYPE svg PUBLIC "-//W3C//DTD SVG 1.1//EN" "http://www.w3.org/Graphics/SVG/1.1/DTD/svg11.dtd">
<svg version="1.1" xmlns="http://www.w3.org/2000/svg" xmlns:xlink="http://www.w3.org/1999/xlink"
	 width="365px" height="122px" viewBox="0 0 365 122">
<path id="sin1" fill="none" stroke="#FF0000" d="M10.5,78.5c1.117-2.729,2.233-5.448,3.35-7.635
	s2.233-3.825,3.35-4.602c1.117-0.777,2.233-0.684,3.35,0.258c1.117,0.941,2.233,2.729,3.35,5.015c1.117,2.286,2.233,5.059,3.35,7.78
	c1.116,2.723,2.233,5.379,3.35,7.457c1.116,2.077,2.233,3.562,3.35,4.17c1.117,0.607,2.233,0.33,3.35-0.773
	c1.117-1.103,2.233-3.031,3.35-5.407c1.117-2.376,2.233-5.19,3.35-7.896c1.117-2.705,2.233-5.287,3.35-7.248
	c1.116-1.959,2.233-3.283,3.35-3.721c1.117-0.436,2.233,0.023,3.35,1.285c1.117,1.26,2.233,3.32,3.35,5.777s2.233,5.301,3.35,7.979
	c1.117,2.678,2.233,5.174,3.35,7.008c1.117,1.836,2.233,2.994,3.35,3.257c1.116,0.263,2.233-0.376,3.35-1.79
	c1.116-1.413,2.233-3.597,3.35-6.125s2.233-5.389,3.35-8.027s2.233-5.04,3.35-6.742c1.117-1.701,2.233-2.689,3.35-2.777
	c1.117-0.088,2.233,0.729,3.35,2.289c1.116,1.56,2.233,3.857,3.35,6.445c1.117,2.59,2.233,5.455,3.35,8.045
	c1.117,2.589,2.233,4.885,3.35,6.446s2.233,2.375,3.35,2.288c1.117-0.086,2.233-1.078,3.35-2.777c1.117-1.7,2.233-4.104,3.35-6.742
	c1.116-2.638,2.233-5.498,3.35-8.027c1.117-2.528,2.233-4.71,3.35-6.125c1.117-1.414,2.233-2.051,3.35-1.789
	c1.117,0.261,2.233,1.422,3.35,3.256c1.117,1.833,2.233,4.331,3.35,7.008c1.117,2.678,2.233,5.521,3.35,7.979
	c1.116,2.458,2.233,4.516,3.35,5.778s2.233,1.718,3.35,1.284c1.117-0.435,2.233-1.762,3.35-3.721s2.233-4.542,3.35-7.248
	c1.117-2.705,2.233-5.518,3.35-7.895c1.117-2.377,2.233-4.303,3.35-5.408c1.116-1.105,2.233-1.379,3.35-0.772s2.233,2.093,3.35,4.17
	c1.117,2.076,2.233,4.733,3.35,7.456s2.233,5.494,3.35,7.781c1.117,2.286,2.233,4.072,3.35,5.015
	c1.117,0.942,2.233,1.033,3.35,0.258c1.116-0.775,2.233-2.417,3.35-4.603s2.233-4.906,3.35-7.634"/>
<path id="sin2" fill="none" stroke="#FF0000" stroke-width="2" d="M10.5,36.5c1.116-5.268,2.231-10.52,3.347-14.743
	c1.116-4.223,2.231-7.387,3.347-8.887s2.231-1.32,3.347,0.498s2.231,5.271,3.347,9.686c1.116,4.414,2.231,9.769,3.347,15.026
	c1.116,5.257,2.231,10.387,3.347,14.399c1.116,4.013,2.231,6.879,3.347,8.053s2.231,0.639,3.347-1.492s2.231-5.854,3.347-10.444
	s2.231-10.023,3.347-15.248c1.116-5.225,2.231-10.211,3.347-13.996c1.116-3.786,2.231-6.343,3.347-7.186s2.231,0.044,3.347,2.479
	s2.231,6.414,3.347,11.159s2.231,10.236,3.347,15.407c1.116,5.171,2.231,9.993,3.347,13.536s2.231,5.781,3.347,6.288
	c1.116,0.508,2.231-0.727,3.347-3.457s2.231-6.946,3.347-11.829s2.231-10.407,3.347-15.503c1.116-5.096,2.231-9.733,3.347-13.019
	c1.116-3.286,2.231-5.195,3.347-5.365s2.231,1.408,3.347,4.42c1.116,3.013,2.231,7.451,3.347,12.45s2.231,10.534,3.347,15.535
	c1.116,5,2.231,9.434,3.347,12.449c1.116,3.016,2.231,4.587,3.347,4.42c1.116-0.167,2.231-2.082,3.347-5.365
	s2.231-7.924,3.347-13.02s2.231-10.619,3.347-15.502c1.116-4.884,2.231-9.096,3.347-11.829s2.231-3.961,3.347-3.457
	c1.116,0.504,2.231,2.748,3.347,6.288c1.116,3.541,2.231,8.365,3.347,13.536s2.231,10.66,3.347,15.407
	c1.116,4.747,2.231,8.721,3.347,11.159s2.231,3.318,3.347,2.479c1.116-0.839,2.231-3.402,3.347-7.185s2.231-8.772,3.347-13.996
	c1.116-5.225,2.231-10.657,3.347-15.248s2.231-8.31,3.347-10.444c1.116-2.134,2.231-2.663,3.347-1.492
	c1.116,1.17,2.231,4.042,3.347,8.053s2.231,9.142,3.347,14.399c1.116,5.257,2.231,10.61,3.347,15.026s2.231,7.865,3.347,9.686
	c1.116,1.821,2.231,1.995,3.347,0.498s2.231-4.667,3.347-8.888s2.231-9.475,3.347-14.743"/>
<path fill="none" stroke="#000000" d="M10.5,6v114"/>
<path fill="none" stroke="#000000" d="M196.5,6v114"/>
<path fill="none" stroke="#000000" d="M10.276,105.5H176.5"/>
<path fill="none" stroke="#000000" d="M10.815,78.5H176.5"/>
<path fill="none" stroke="#000000" d="M11.153,36.5H176.5"/>
<path fill="none" stroke="#000000" d="M197.032,105.5H361.5"/>
<path fill="none" stroke="#000000" d="M197.032,78.5H360.5"/>
<path fill="none" stroke="#000000" d="M196.019,36.5H360.5"/>
<path fill="none" stroke="#FF0000" stroke-width="2" d="M196.5,36.5H360.5"/>
<use xlink:href="#sin1" transform="translate(0,27)"/>
<use xlink:href="#sin1" transform="translate(186,0)"/>
<use xlink:href="#sin1" transform="scale(1, -1) translate(186,-184)"/>
</svg>
