<svg width="355" height="245" viewBox="0 0 355 245" fill="none" xmlns="http://www.w3.org/2000/svg">
<path d="M3.75 52.82C13 31.65 31.38 1.99999 49.4 1.86999C79.98 1.64999 102.92 102.87 134.86 102.63C171.12 102.37 188.33 2.75999 224.86 2.99999C256.31 3.21999 277 103.29 309.86 103.15C327.51 103.08 340.45 78.15 353.47 53.15" stroke="#6A0DFF" stroke-width="3" stroke-miterlimit="10"/>
<path d="M1.75 192.82C4.8 171.65 10.82 141.99 16.75 141.87C26.75 141.65 34.32 242.87 44.8 242.63C56.68 242.37 62.32 142.76 74.3 143C84.62 143.22 91.41 243.29 102.19 243.15C113.83 243 119.19 142.44 131.19 142.44C141.74 142.44 148.3 242.66 159.88 242.66C169.11 242.66 178.77 141.46 188.15 141.81C198.84 142.21 206.15 243.71 216.86 243.01C226.57 242.38 232.05 173.53 240.31 149.78C241.95 145.08 243.7 142.14 245.61 141.87C247.33 141.62 248.97 144.41 250.61 149.21C256.92 168.21 262.54 218.45 269.38 236.47C270.95 240.63 272.6 243.07 274.33 243.01C276.06 242.95 277.47 240.5 278.95 236.39C287.04 213.93 293.58 142.16 302.89 142.16C314.51 142.16 319.77 243.37 331.31 243.01C336.77 242.85 342.67 208.42 345.12 192.27" stroke="#FC6C2B" stroke-width="3" stroke-miterlimit="10"/>
</svg>
