<?xml version="1.0" encoding="UTF-8"?> <svg xmlns="http://www.w3.org/2000/svg" viewBox="0 0 388.77 216.45"><defs><style>.cls-1,.cls-2{fill:none;stroke-miterlimit:10;stroke-width:3px;}.cls-1{stroke:#fc6c2b;}.cls-2{stroke:#000;}</style></defs><title>high frequency sine waveAsset 6</title><g id="Layer_2" data-name="Layer 2"><g id="Layer_3" data-name="Layer 3"><path class="cls-1" d="M24.75,108.82c3.05-21.17,9.07-50.83,15-50.95,10-.22,17.57,101,28.05,100.76C79.68,158.37,85.32,58.76,97.3,59c10.32.22,17.11,100.29,27.89,100.15,11.64-.15,17-100.71,29-100.71,10.55,0,17.11,100.22,28.69,100.22,9.23,0,18.89-101.2,28.27-100.85,10.69.4,18,101.9,28.71,101.2,9.71-.63,15.19-69.48,23.45-93.23,1.64-4.7,3.39-7.64,5.3-7.91,1.72-.25,3.36,2.54,5,7.34,6.31,19,11.93,69.24,18.77,87.26,1.57,4.16,3.22,6.6,4.95,6.54s3.14-2.51,4.62-6.62c8.09-22.46,14.63-94.23,23.94-94.23,11.62,0,16.88,101.21,28.42,100.85,5.46-.16,11.36-34.59,13.81-50.74"></path><line class="cls-2" x1="0.51" y1="108.57" x2="388.77" y2="108.59"></line><line class="cls-2" x1="1.5" x2="1.5" y2="216.45"></line></g></g></svg> 