<?xml version="1.0" encoding="utf-8"?>
<!-- Generator: Adobe Illustrator 18.0.0, SVG Export Plug-In . SVG Version: 6.00 Build 0)  -->
<!DOCTYPE svg PUBLIC "-//W3C//DTD SVG 1.1//EN" "http://www.w3.org/Graphics/SVG/1.1/DTD/svg11.dtd">
<svg version="1.1"
	 id="svg2" xmlns:svg="http://www.w3.org/2000/svg" xmlns:rdf="http://www.w3.org/1999/02/22-rdf-syntax-ns#" xmlns:sodipodi="http://sodipodi.sourceforge.net/DTD/sodipodi-0.dtd" xmlns:inkscape="http://www.inkscape.org/namespaces/inkscape" xmlns:dc="http://purl.org/dc/elements/1.1/" xmlns:cc="http://creativecommons.org/ns#" sodipodi:docname="Twitter_bird_logo_2012.svg" inkscape:version="0.48.4 r9939"
	 xmlns="http://www.w3.org/2000/svg" xmlns:xlink="http://www.w3.org/1999/xlink" x="0px" y="0px" viewBox="4.2 2.4 114 94"
	 enable-background="new 4.2 2.4 114 94" xml:space="preserve">
<sodipodi:namedview  fit-margin-top="0" showgrid="false" fit-margin-left="0" pagecolor="#ffffff" id="base" inkscape:cx="101.29413" inkscape:cy="50.181142" borderopacity="1.0" bordercolor="#666666" inkscape:zoom="3.7200571" fit-margin-bottom="0" fit-margin-right="0" inkscape:window-maximized="1" inkscape:window-y="-8" inkscape:current-layer="layer1" inkscape:document-units="px" inkscape:pageopacity="0.0" inkscape:window-x="-8" inkscape:window-height="962" inkscape:pageshadow="2" inkscape:window-width="1280">
	</sodipodi:namedview>
<g>
	<path fill="none" stroke="#666666" stroke-miterlimit="10" d="M105.7,91.4v0.3c0,0.9-0.4,1.7-1.1,2.1c0.7-0.5,1.1-1.3,1.1-2.1
		C105.7,91.6,105.7,91.5,105.7,91.4z"/>
</g>
<g>
	<path fill="none" stroke="#666666" stroke-miterlimit="10" d="M105.4,43.8C105.4,43.8,105.4,43.8,105.4,43.8c0,0-0.1-0.1-0.1-0.1
		C105.4,43.7,105.4,43.7,105.4,43.8z"/>
	<path fill="none" stroke="#666666" stroke-miterlimit="10" d="M105.6,44.6c0-0.2-0.1-0.3-0.1-0.5c0,0.1,0.1,0.2,0.1,0.3
		C105.6,44.5,105.6,44.5,105.6,44.6z"/>
	<path fill="none" stroke="#666666" stroke-miterlimit="10" d="M105.7,44.6c0,0.1,0,0.2,0,0.3C105.7,44.8,105.7,44.7,105.7,44.6
		L105.7,44.6z"/>
</g>
<g>
	<path fill="none" stroke="#666666" stroke-miterlimit="10" d="M15.8,44.1c0,0.2-0.1,0.3-0.1,0.5c0,0.1,0,0.2,0,0.3
		c0-0.1,0-0.2,0-0.3c0-0.1,0-0.1,0-0.2C15.8,44.3,15.8,44.2,15.8,44.1z"/>
	<path fill="none" stroke="#666666" stroke-miterlimit="10" d="M16,43.7c0,0.1-0.1,0.1-0.1,0.2c0,0,0,0.1,0,0.1c0,0,0-0.1,0-0.1
		C16,43.7,16,43.7,16,43.7z"/>
	<path fill="none" stroke="#666666" stroke-miterlimit="10" d="M105.5,43.9C105.5,43.9,105.5,43.9,105.5,43.9
		c-0.1-0.1-0.1-0.2-0.1-0.3c0,0,0,0.1,0.1,0.1C105.5,43.8,105.5,43.9,105.5,43.9z"/>
	<path fill="none" stroke="#666666" stroke-miterlimit="10" d="M105.7,44.6c0,0.1,0,0.2,0,0.3C105.7,44.8,105.7,44.7,105.7,44.6
		c0-0.2-0.1-0.3-0.1-0.5c0,0.1,0.1,0.2,0.1,0.3C105.6,44.5,105.6,44.5,105.7,44.6z"/>
</g>
<g>
	<path fill="none" stroke="#666666" stroke-width="4" stroke-miterlimit="10" d="M105.6,44.6c0-0.2-0.1-0.3-0.1-0.5c0,0,0,0,0,0
		c0-0.1,0-0.1-0.1-0.2c0,0,0-0.1,0-0.1c0-0.1-0.1-0.1-0.1-0.2c-0.1-0.1-0.1-0.2-0.2-0.3c0,0,0,0-0.1-0.1c0-0.1-0.1-0.1-0.1-0.2
		c-0.1-0.1-0.1-0.1-0.2-0.2c0,0-0.1-0.1-0.1-0.1L62.4,5c-1-0.9-2.5-0.9-3.5,0L16.7,42.8c0,0-0.1,0.1-0.1,0.1
		c-0.1,0.1-0.1,0.1-0.2,0.2c-0.1,0.1-0.1,0.1-0.1,0.2c0,0,0,0-0.1,0.1c-0.1,0.1-0.1,0.2-0.2,0.3c0,0.1-0.1,0.1-0.1,0.2
		c0,0,0,0.1,0,0.1c0,0.1,0,0.1-0.1,0.2c0,0,0,0,0,0c0,0.2-0.1,0.3-0.1,0.5c0,0.1,0,0.2,0,0.3v46.9c0,0.5,0.1,0.9,0.3,1.3
		c0,0.1,0.1,0.1,0.1,0.2c0.2,0.4,0.6,0.7,1,0.9c0.1,0,0.1,0.1,0.2,0.1c0.1,0,0.2,0.1,0.3,0.1c0.1,0,0.3,0.1,0.4,0.1
		c0.1,0,0.3,0,0.4,0H103c0.3,0,0.5,0,0.8-0.1c0.3-0.1,0.5-0.2,0.7-0.4c0.7-0.5,1.1-1.3,1.1-2.1V44.9
		C105.7,44.8,105.7,44.7,105.6,44.6z M15.6,49.4l25,22.9L16.2,94.7 M25.2,86.1l21.1-18.9l14.4-12.8L75,67.3l21.1,18.9 M105.8,94.3
		l-25.1-23L105.1,49"/>
</g>
</svg>
