<?xml version="1.0" encoding="utf-8"?>
<!-- Generator: Adobe Illustrator 18.0.0, SVG Export Plug-In . SVG Version: 6.00 Build 0)  -->
<!DOCTYPE svg PUBLIC "-//W3C//DTD SVG 1.1//EN" "http://www.w3.org/Graphics/SVG/1.1/DTD/svg11.dtd">
<svg version="1.1"
	 id="svg2" xmlns:svg="http://www.w3.org/2000/svg" xmlns:rdf="http://www.w3.org/1999/02/22-rdf-syntax-ns#" xmlns:sodipodi="http://sodipodi.sourceforge.net/DTD/sodipodi-0.dtd" xmlns:inkscape="http://www.inkscape.org/namespaces/inkscape" xmlns:dc="http://purl.org/dc/elements/1.1/" xmlns:cc="http://creativecommons.org/ns#" sodipodi:docname="Twitter_bird_logo_2012.svg" inkscape:version="0.48.4 r9939"
	 xmlns="http://www.w3.org/2000/svg" xmlns:xlink="http://www.w3.org/1999/xlink" x="0px" y="0px" viewBox="4.2 2.4 114 94"
	 enable-background="new 4.2 2.4 114 94" xml:space="preserve">
<sodipodi:namedview  fit-margin-top="0" showgrid="false" fit-margin-left="0" pagecolor="#ffffff" id="base" inkscape:cx="101.29413" inkscape:cy="50.181142" borderopacity="1.0" bordercolor="#666666" inkscape:zoom="3.7200571" fit-margin-bottom="0" fit-margin-right="0" inkscape:window-maximized="1" inkscape:window-y="-8" inkscape:current-layer="layer1" inkscape:document-units="px" inkscape:pageopacity="0.0" inkscape:window-x="-8" inkscape:window-height="962" inkscape:pageshadow="2" inkscape:window-width="1280">
	</sodipodi:namedview>
<g id="layer1" transform="translate(-282.32053,-396.30734)" inkscape:label="Layer 1" inkscape:groupmode="layer">
	<path id="path5_1_" inkscape:connector-curvature="0" fill="none" stroke="#666666" stroke-width="4" stroke-miterlimit="10" d="
		M399.3,411.1c-4.1,1.8-8.5,3.1-13.2,3.6c4.7-2.8,8.4-7.3,10.1-12.7c-4.4,2.6-9.4,4.5-14.6,5.6c-4.2-4.5-10.2-7.2-16.8-7.2
		c-12.7,0-23,10.3-23,22.9c0,1.8,0.2,3.5,0.6,5.2c-19.1-1-36-10.1-47.4-24c-2,3.4-3.1,7.3-3.1,11.5c0,8,4.1,15,10.2,19.1
		c-3.8-0.1-7.3-1.2-10.4-2.9c0,0.1,0,0.2,0,0.3c0,11.1,7.9,20.4,18.4,22.5c-1.9,0.5-4,0.8-6.1,0.8c-1.5,0-2.9-0.1-4.3-0.4
		c2.9,9.1,11.4,15.7,21.5,15.9c-7.9,6.2-17.8,9.8-28.5,9.8c-1.9,0-3.7-0.1-5.5-0.3"/>
	<path id="path5" inkscape:connector-curvature="0" fill="none" stroke="#666666" stroke-width="4" stroke-miterlimit="10" d="
		M287.3,480.9c10.2,6.5,22.2,10.3,35.2,10.3c42.3,0,65.4-35,65.4-65.3c0-1,0-2-0.1-3c4.5-3.2,8.4-7.3,11.5-11.9l0,0"/>
</g>
</svg>
