<?xml version="1.0" standalone="no"?>
<!DOCTYPE svg PUBLIC "-//W3C//DTD SVG 20010904//EN"
 "http://www.w3.org/TR/2001/REC-SVG-20010904/DTD/svg10.dtd">
<svg version="1.0" xmlns="http://www.w3.org/2000/svg"
 width="500.000000pt" height="500.000000pt" viewBox="0 0 500.000000 500.000000"
 preserveAspectRatio="xMidYMid meet">
<metadata>
Created by potrace 1.11, written by Peter Selinger 2001-2013
</metadata>
<g transform="translate(0.000000,500.000000) scale(0.100000,-0.100000)"
fill="#000000" stroke="none">
<path d="M1198 4006 c-1 -2 -34 -6 -73 -10 -258 -24 -532 -150 -773 -356 l-83
-71 18 -30 c10 -17 32 -47 49 -67 26 -31 38 -37 71 -37 42 0 51 6 188 110 136
104 310 189 456 221 43 9 132 18 214 19 121 3 153 0 233 -20 249 -64 393 -226
457 -516 11 -51 18 -146 22 -305 l6 -231 -119 -7 c-66 -4 -155 -9 -199 -12
-44 -2 -102 -7 -130 -9 -27 -3 -75 -8 -105 -11 -204 -21 -478 -77 -650 -134
-348 -114 -563 -289 -632 -513 -28 -91 -30 -258 -4 -357 87 -333 363 -519 771
-520 383 0 662 111 992 398 l81 71 6 -32 c3 -18 13 -97 22 -177 9 -80 23 -157
30 -172 18 -34 69 -50 149 -46 l60 3 -1 980 c-1 870 -3 990 -18 1072 -92 506
-400 759 -928 761 -58 0 -108 -1 -110 -2z m782 -1835 c-1 -264 -4 -360 -13
-371 -17 -21 -172 -158 -227 -201 -181 -140 -405 -227 -635 -247 -224 -20
-394 15 -512 105 -68 52 -98 88 -137 165 -45 89 -60 162 -54 274 4 76 10 101
37 155 129 263 539 411 1286 464 50 4 91 8 92 8 1 1 38 3 82 3 l81 2 0 -357z"/>
<path d="M3585 3994 c-292 -45 -552 -198 -782 -459 l-53 -60 -1 55 c0 30 -2
62 -3 70 -2 8 -7 67 -11 130 -7 113 -10 153 -13 177 -1 7 -12 21 -24 33 -19
17 -35 20 -119 20 l-98 0 1 -1855 0 -1855 142 0 142 0 0 660 c-1 363 1 660 2
660 2 0 25 -23 50 -52 60 -66 175 -157 255 -202 145 -81 324 -125 526 -130
374 -8 661 101 902 343 185 186 297 410 360 717 28 139 36 517 14 684 -54 416
-188 685 -435 875 -211 163 -546 237 -855 189z m370 -233 c44 -11 123 -42 174
-67 78 -39 110 -62 181 -133 94 -93 140 -163 188 -287 74 -189 104 -377 105
-654 1 -461 -135 -819 -388 -1020 -174 -138 -374 -202 -630 -202 -334 0 -563
106 -770 355 l-49 59 -1 721 c-1 709 0 723 19 752 59 87 185 215 286 291 137
103 253 158 411 193 117 27 359 23 474 -8z"/>
</g>
</svg>
