<?xml version="1.0" encoding="utf-8"?>
<!-- Generator: Adobe Illustrator 18.0.0, SVG Export Plug-In . SVG Version: 6.00 Build 0)  -->
<!DOCTYPE svg PUBLIC "-//W3C//DTD SVG 1.1//EN" "http://www.w3.org/Graphics/SVG/1.1/DTD/svg11.dtd">
<svg version="1.1"
	 id="svg2" xmlns:svg="http://www.w3.org/2000/svg" xmlns:rdf="http://www.w3.org/1999/02/22-rdf-syntax-ns#" xmlns:sodipodi="http://sodipodi.sourceforge.net/DTD/sodipodi-0.dtd" xmlns:inkscape="http://www.inkscape.org/namespaces/inkscape" xmlns:dc="http://purl.org/dc/elements/1.1/" xmlns:cc="http://creativecommons.org/ns#" sodipodi:docname="Twitter_bird_logo_2012.svg" inkscape:version="0.48.4 r9939"
	 xmlns="http://www.w3.org/2000/svg" xmlns:xlink="http://www.w3.org/1999/xlink" x="0px" y="0px" viewBox="5 -0.3 111.5 99.4"
	 enable-background="new 5 -0.3 111.5 99.4" xml:space="preserve">
<sodipodi:namedview  fit-margin-top="0" showgrid="false" fit-margin-left="0" pagecolor="#ffffff" id="base" inkscape:cx="101.29413" inkscape:cy="50.181142" borderopacity="1.0" bordercolor="#666666" inkscape:zoom="3.7200571" fit-margin-bottom="0" fit-margin-right="0" inkscape:window-maximized="1" inkscape:window-y="-8" inkscape:current-layer="layer1" inkscape:document-units="px" inkscape:pageopacity="0.0" inkscape:window-x="-8" inkscape:window-height="962" inkscape:pageshadow="2" inkscape:window-width="1280">
	</sodipodi:namedview>
<path fill="none" stroke="#666666" stroke-width="4" stroke-miterlimit="10" d="M61.2,1.7c-26.3,0-47.7,21.9-47.7,48.9
	c0,21.6,13.7,39.9,32.6,46.4c0.3,0.1,0.6,0.1,0.8,0.1c1.8,0,2.4-1.3,2.4-2.4c0-1.2,0-4.2-0.1-8.3c-1.8,0.4-4.9,0.4-6.3,0.4
	c-9.2,0-13-7.4-13-7.4c-2.2-5.6-4.4-7.8-4.4-7.8c-4.2-2.9,2.4-1.9,2.7-1.9c0,0,0,0,0,0c4.8,0.4,7.3,5.1,7.3,5.1
	c2.4,4.2,4.9,4.4,7.7,4.4c2.2,0,5,0.2,6.2-0.4c0.4-3.2,1.7-5.3,3-6.5C41.9,71,30.8,66.8,30.8,48c0-5.3,1.9-9.7,4.9-13.1
	c-0.5-1.2-2.1-6.2,0.5-13c0,0,0.3-0.1,1.1-0.1c1.7,0,5.6,0.7,12.1,5.1c3.8-1.1,7.9-1.6,11.9-1.6c4,0,8.1,0.6,11.9,1.6
	c6.4-4.5,10.3-5.1,12.1-5.1c0.7,0,1.1,0.1,1.1,0.1c2.6,6.7,1,11.7,0.5,13c3,3.4,4.9,7.8,4.9,13.1c0,18.8-11.2,22.9-21.8,24.1
	c1.7,1.5,3.2,4.5,3.2,9.1c0,6.5-0.1,11.8-0.1,13.4c0,1.2,0.7,2.4,2.4,2.4c0.3,0,0.6,0,0.9-0.1c19-6.5,32.6-24.8,32.6-46.4
	C108.9,23.6,87.6,1.7,61.2,1.7z"/>
</svg>
