<?xml version="1.0" encoding="iso-8859-1"?>
<!-- Generator: Adobe Illustrator 15.0.0, SVG Export Plug-In . SVG Version: 6.00 Build 0)  -->
<!DOCTYPE svg PUBLIC "-//W3C//DTD SVG 1.1//EN" "http://www.w3.org/Graphics/SVG/1.1/DTD/svg11.dtd">
<svg version="1.1" id="Layer_1" xmlns="http://www.w3.org/2000/svg" xmlns:xlink="http://www.w3.org/1999/xlink" x="0px" y="0px"
	 width="100px" height="100px" viewBox="0 0 100 100" style="enable-background:new 0 0 100 100;" xml:space="preserve">
<path id="Quora" d="M71.018,77.767C82.41,70.621,90.002,57.846,90.002,43.27c0-22.393-17.91-40.547-40.002-40.547
	S10.002,20.877,10.002,43.27c0,22.395,17.906,40.547,39.998,40.547c3.25,0,6.406-0.402,9.43-1.145
	c3.797,6.908,9.582,11.797,21.861,9.46v-6.873C81.291,85.259,73.416,83.279,71.018,77.767z M70.738,48.631
	c0,6.77-2.154,12.914-5.654,17.453c-4.396-4.68-11.287-8.527-20.031-8.037v0.822v7.147c0,0,5.932,0.235,9.992,7.213
	c-1.521,0.447-3.105,0.69-4.738,0.69c-11.285,0-20.429-11.321-20.429-25.289c0-1.792,0-8.654,0-10.447
	c0-13.967,9.144-25.289,20.429-25.289s20.432,11.322,20.432,25.289C70.738,39.977,70.738,46.839,70.738,48.631z"/>
</svg>
