<?xml version="1.0" encoding="iso-8859-1"?>
<!-- Generator: Adobe Illustrator 15.0.0, SVG Export Plug-In . SVG Version: 6.00 Build 0)  -->
<!DOCTYPE svg PUBLIC "-//W3C//DTD SVG 1.1//EN" "http://www.w3.org/Graphics/SVG/1.1/DTD/svg11.dtd">
<svg version="1.1" id="Icons" xmlns="http://www.w3.org/2000/svg" xmlns:xlink="http://www.w3.org/1999/xlink" x="0px" y="0px"
	 width="100px" height="100px" viewBox="0 0 100 100" style="enable-background:new 0 0 100 100;" xml:space="preserve">
<path id="Tumblr" d="M57.897,78.558c-1.513-0.888-2.902-2.416-3.456-3.889c-0.56-1.484-0.489-4.49-0.489-9.713V41.878H74.94V25.815
	H53.953V5H41.04c-0.576,4.636-1.637,8.466-3.176,11.47c-1.542,3.008-3.576,5.578-6.126,7.726C29.2,26.34,25.064,27.992,21.5,29.132
	v12.746h12.329V73.44c0,4.12,0.437,7.264,1.306,9.428c0.873,2.162,2.432,4.211,4.684,6.139c2.252,1.907,4.971,3.395,8.161,4.441
	C51.166,94.483,53.616,95,57.766,95c3.65,0,7.049-0.368,10.2-1.088c3.147-0.738,6.661-2.009,10.534-3.812V75.901
	c-4.545,2.964-9.116,4.44-13.713,4.44C62.2,80.342,59.913,79.747,57.897,78.558z"/>
</svg>
