<?xml version="1.0" encoding="iso-8859-1"?>
<!-- Generator: Adobe Illustrator 15.0.0, SVG Export Plug-In . SVG Version: 6.00 Build 0)  -->
<!DOCTYPE svg PUBLIC "-//W3C//DTD SVG 1.1//EN" "http://www.w3.org/Graphics/SVG/1.1/DTD/svg11.dtd">
<svg version="1.1" id="Icons" xmlns="http://www.w3.org/2000/svg" xmlns:xlink="http://www.w3.org/1999/xlink" x="0px" y="0px"
	 width="100px" height="100px" viewBox="0 0 100 100" style="enable-background:new 0 0 100 100;" xml:space="preserve">
<path id="Vimeo" d="M81.844,11.017c-12.512-0.408-20.979,6.61-25.412,21.063c2.283-0.94,4.502-1.415,6.665-1.415
	c4.563,0,6.583,2.561,6.043,7.696c-0.267,3.109-2.283,7.633-6.043,13.571c-3.774,5.947-6.593,8.916-8.466,8.916
	c-2.432,0-4.645-4.595-6.666-13.773c-0.678-2.703-1.89-9.586-3.625-20.666c-1.627-10.262-5.926-15.057-12.916-14.383
	c-2.957,0.271-7.387,2.979-13.299,8.104C13.812,24.048,9.442,27.967,5,31.882l4.232,5.464c4.039-2.838,6.402-4.25,7.058-4.25
	c3.097,0,5.99,4.858,8.681,14.574c2.413,8.923,4.846,17.834,7.27,26.744C35.852,84.137,40.303,89,45.539,89
	c8.469,0,18.838-7.965,31.066-23.9c11.83-15.256,17.938-27.276,18.35-36.062C95.498,17.296,91.128,11.283,81.844,11.017z"/>
</svg>
