<?xml version="1.0" encoding="iso-8859-1"?>
<!-- Generator: Adobe Illustrator 15.0.0, SVG Export Plug-In . SVG Version: 6.00 Build 0)  -->
<!DOCTYPE svg PUBLIC "-//W3C//DTD SVG 1.1//EN" "http://www.w3.org/Graphics/SVG/1.1/DTD/svg11.dtd">
<svg version="1.1" id="Layer_1" xmlns="http://www.w3.org/2000/svg" xmlns:xlink="http://www.w3.org/1999/xlink" x="0px" y="0px"
	 width="100px" height="100px" viewBox="0 0 100 100" style="enable-background:new 0 0 100 100;" xml:space="preserve">
<path id="Dropbox_1_" d="M78.01,40.856L51.09,24.46l16.977-14.054l26.936,16.576L78.01,40.856z M67.887,71.848l25.852-15.135
	L78.189,43.56L52.879,58.875L67.887,71.848z M47.129,58.875L21.816,43.56L6.27,56.713l25.854,15.135L47.129,58.875z M23.082,69.686
	v4.865l25.836,15.855V60.315L31.762,74.369L23.082,69.686z M76.922,69.686l-8.674,4.684L51.09,60.315v30.091l25.832-15.855V69.686z
	 M48.918,24.46L31.941,10.406L5.002,26.982l16.996,13.874L48.918,24.46z"/>
</svg>
