<?xml version="1.0" encoding="iso-8859-1"?>
<!-- Generator: Adobe Illustrator 15.0.0, SVG Export Plug-In . SVG Version: 6.00 Build 0)  -->
<!DOCTYPE svg PUBLIC "-//W3C//DTD SVG 1.1//EN" "http://www.w3.org/Graphics/SVG/1.1/DTD/svg11.dtd">
<svg version="1.1" id="Layer_1" xmlns="http://www.w3.org/2000/svg" xmlns:xlink="http://www.w3.org/1999/xlink" x="0px" y="0px"
	 width="100px" height="100px" viewBox="0 0 100 100" style="enable-background:new 0 0 100 100;" xml:space="preserve">
<path id="WhatsApp" style="fill-rule:evenodd;clip-rule:evenodd;" d="M95,49.247c0,24.213-19.779,43.841-44.182,43.841
	c-7.746,0-15.025-1.98-21.357-5.455L5,95.406l7.975-23.522c-4.023-6.607-6.34-14.355-6.34-22.637
	c0-24.213,19.781-43.841,44.184-43.841S95,25.034,95,49.247z M50.818,12.388c-20.484,0-37.146,16.535-37.146,36.859
	c0,8.065,2.629,15.534,7.076,21.611l-4.641,13.688l14.275-4.537c5.865,3.851,12.891,6.097,20.436,6.097
	c20.482,0,37.146-16.534,37.146-36.858S71.301,12.388,50.818,12.388z M73.129,59.344c-0.273-0.447-0.994-0.717-2.076-1.254
	c-1.084-0.537-6.41-3.138-7.4-3.495c-0.994-0.358-1.717-0.539-2.439,0.537c-0.721,1.076-2.797,3.495-3.43,4.212
	c-0.631,0.718-1.262,0.808-2.346,0.27c-1.082-0.537-4.572-1.672-8.709-5.333c-3.219-2.848-5.393-6.364-6.025-7.441
	c-0.631-1.075-0.066-1.656,0.475-2.191c0.488-0.482,1.084-1.255,1.625-1.882c0.543-0.628,0.723-1.075,1.082-1.793
	c0.363-0.717,0.182-1.344-0.09-1.883c-0.27-0.537-2.438-5.825-3.34-7.977c-0.902-2.15-1.803-1.792-2.436-1.792
	c-0.631,0-1.354-0.09-2.076-0.09s-1.896,0.269-2.889,1.344c-0.992,1.076-3.789,3.676-3.789,8.963c0,5.288,3.879,10.397,4.422,11.113
	c0.541,0.716,7.49,11.92,18.5,16.223c11.012,4.302,11.012,2.867,12.998,2.688c1.984-0.179,6.406-2.599,7.311-5.108
	C73.398,61.944,73.398,59.792,73.129,59.344z"/>
</svg>
